M48
; DRILL file {KiCad (5.1.0)-1} date 11/13/2019 11:10:25 PM
; FORMAT={-:-/ absolute / inch / decimal}
; #@! TF.CreationDate,2019-11-13T23:10:25-06:00
; #@! TF.GenerationSoftware,Kicad,Pcbnew,(5.1.0)-1
; #@! TF.FileFunction,Plated,1,4,PTH
FMAT,2
INCH
T1C0.0157
T2C0.0236
T3C0.0315
T4C0.0335
T5C0.0394
T6C0.0866
%
G90
G05
T1
X6.1585Y-5.2392
X6.2185Y-4.1654
X6.2254Y-5.2589
X6.2461Y-4.3287
X6.311Y-4.876
X6.3356Y-5.2579
X6.3976Y-5.0571
X6.435Y-4.1102
X6.435Y-4.2421
X6.436Y-5.312
X6.4449Y-4.7165
X6.4459Y-5.1555
X6.4646Y-4.7677
X6.5236Y-4.3435
X6.5256Y-4.997
X6.5295Y-4.501
X6.5325Y-4.061
X6.5423Y-4.1142
X6.5969Y-4.44
X6.6467Y-4.4124
X6.6516Y-3.9921
X6.6811Y-5.2156
X6.7205Y-4.0276
X6.7293Y-4.4606
X6.7697Y-5.2274
X6.7894Y-4.002
X6.8494Y-4.9469
X6.8652Y-4.1486
X6.9419Y-4.378
X6.9439Y-4.1457
X6.9656Y-4.5827
X6.9764Y-4.8307
X6.9774Y-4.9626
X6.9833Y-4.4222
X6.9892Y-3.997
X7.0128Y-4.1969
X7.0128Y-4.6713
X7.0157Y-4.5817
X7.0236Y-4.9675
X7.0285Y-4.1073
X7.0404Y-5.1939
X7.0463Y-4.2894
X7.1142Y-4.624
X7.1211Y-4.4577
X7.1211Y-4.5167
X7.2913Y-4.5256
X7.2972Y-4.4783
X7.3238Y-4.3986
X7.377Y-4.811
T3
X7.1959Y-4.7372
X7.1959Y-4.8159
X7.1959Y-4.8947
X7.1959Y-4.9734
X7.1959Y-5.0522
X7.1959Y-5.1309
X7.2746Y-4.7372
X7.2746Y-4.8159
X7.2746Y-4.8947
X7.2746Y-4.9734
X7.2746Y-5.0522
X7.2746Y-5.1309
T4
X6.5925Y-5.2933
X6.7894Y-5.2933
T5
X6.0217Y-4.5157
X6.0217Y-4.6157
X6.0217Y-4.7157
X6.0217Y-4.8157
T6
X6.0315Y-4.0492
X7.3563Y-4.0492
X6.0315Y-5.3937
X7.3563Y-5.3937
T2
G00X6.5531Y-5.4134
M15
G01X6.5531Y-5.3858
M16
G05
G00X6.8287Y-5.3858
M15
G01X6.8287Y-5.4134
M16
G05
T0
M30
