G04 #@! TF.GenerationSoftware,KiCad,Pcbnew,(5.1.0)-1*
G04 #@! TF.CreationDate,2019-11-13T23:10:21-06:00*
G04 #@! TF.ProjectId,low_cost_multispectral_sensor,6c6f775f-636f-4737-945f-6d756c746973,rev?*
G04 #@! TF.SameCoordinates,Original*
G04 #@! TF.FileFunction,Legend,Top*
G04 #@! TF.FilePolarity,Positive*
%FSLAX46Y46*%
G04 Gerber Fmt 4.6, Leading zero omitted, Abs format (unit mm)*
G04 Created by KiCad (PCBNEW (5.1.0)-1) date 2019-11-13 23:10:21*
%MOMM*%
%LPD*%
G04 APERTURE LIST*
%ADD10C,0.150000*%
%ADD11C,0.120000*%
G04 APERTURE END LIST*
D10*
X171341600Y-104894800D02*
X168700000Y-104894800D01*
X168700000Y-107485600D02*
X168700000Y-104894800D01*
X171341600Y-107485600D02*
X168700000Y-107485600D01*
X171341600Y-107485600D02*
X171341600Y-104894800D01*
X168090400Y-108400000D02*
G75*
G03X168090400Y-108400000I-359210J0D01*
G01*
D11*
X161480000Y-132700000D02*
X161480000Y-133200000D01*
X162420000Y-133200000D02*
X162420000Y-132700000D01*
X156920000Y-131650000D02*
X156920000Y-131150000D01*
X155980000Y-131150000D02*
X155980000Y-131650000D01*
X176600000Y-116980000D02*
X176100000Y-116980000D01*
X176100000Y-117920000D02*
X176600000Y-117920000D01*
X166550000Y-125380000D02*
X166050000Y-125380000D01*
X166050000Y-126320000D02*
X166550000Y-126320000D01*
X170570000Y-115225000D02*
X170570000Y-114725000D01*
X169630000Y-114725000D02*
X169630000Y-115225000D01*
X160650000Y-128920000D02*
X161150000Y-128920000D01*
X161150000Y-127980000D02*
X160650000Y-127980000D01*
X163920000Y-106400000D02*
X163920000Y-105900000D01*
X162980000Y-105900000D02*
X162980000Y-106400000D01*
X165745000Y-106375000D02*
X165745000Y-105875000D01*
X164805000Y-105875000D02*
X164805000Y-106375000D01*
X179770000Y-107425000D02*
X179770000Y-106925000D01*
X178830000Y-106925000D02*
X178830000Y-107425000D01*
X161650000Y-105110000D02*
X161650000Y-102990000D01*
X158450000Y-105110000D02*
X161650000Y-105110000D01*
X161650000Y-102990000D02*
X158450000Y-102990000D01*
X166050000Y-134150000D02*
X166500000Y-134150000D01*
X166050000Y-136000000D02*
X166050000Y-134150000D01*
X173850000Y-138550000D02*
X173850000Y-138300000D01*
X166050000Y-138550000D02*
X166050000Y-138300000D01*
X173850000Y-136000000D02*
X173850000Y-134150000D01*
X173850000Y-134150000D02*
X173400000Y-134150000D01*
X168250000Y-133600000D02*
X168700000Y-133600000D01*
X168250000Y-133600000D02*
X168250000Y-134050000D01*
X151620000Y-113370000D02*
X152950000Y-113370000D01*
X151620000Y-114700000D02*
X151620000Y-113370000D01*
X151620000Y-115970000D02*
X154280000Y-115970000D01*
X154280000Y-115970000D02*
X154280000Y-123650000D01*
X151620000Y-115970000D02*
X151620000Y-123650000D01*
X151620000Y-123650000D02*
X154280000Y-123650000D01*
X185835000Y-131385000D02*
X184775000Y-131385000D01*
X185835000Y-130325000D02*
X185835000Y-131385000D01*
X183775000Y-131385000D02*
X181715000Y-131385000D01*
X183775000Y-129325000D02*
X183775000Y-131385000D01*
X185835000Y-129325000D02*
X183775000Y-129325000D01*
X181715000Y-131385000D02*
X181715000Y-119265000D01*
X185835000Y-129325000D02*
X185835000Y-119265000D01*
X185835000Y-119265000D02*
X181715000Y-119265000D01*
X178450000Y-114420000D02*
X177950000Y-114420000D01*
X177950000Y-115480000D02*
X178450000Y-115480000D01*
X178450000Y-113120000D02*
X177950000Y-113120000D01*
X177950000Y-114180000D02*
X178450000Y-114180000D01*
X183650000Y-115330000D02*
X184150000Y-115330000D01*
X184150000Y-114270000D02*
X183650000Y-114270000D01*
X170720000Y-126250000D02*
X170720000Y-126750000D01*
X171780000Y-126750000D02*
X171780000Y-126250000D01*
X169880000Y-126750000D02*
X169880000Y-126250000D01*
X168820000Y-126250000D02*
X168820000Y-126750000D01*
X175700000Y-115480000D02*
X176200000Y-115480000D01*
X176200000Y-114420000D02*
X175700000Y-114420000D01*
X176200000Y-113120000D02*
X175700000Y-113120000D01*
X175700000Y-114180000D02*
X176200000Y-114180000D01*
X175875000Y-102080000D02*
X176375000Y-102080000D01*
X176375000Y-101020000D02*
X175875000Y-101020000D01*
X175045000Y-103600000D02*
X175045000Y-104100000D01*
X176105000Y-104100000D02*
X176105000Y-103600000D01*
X181650000Y-103345000D02*
X181150000Y-103345000D01*
X181150000Y-104405000D02*
X181650000Y-104405000D01*
X183650000Y-114230000D02*
X184150000Y-114230000D01*
X184150000Y-113170000D02*
X183650000Y-113170000D01*
X167350000Y-109770000D02*
X166850000Y-109770000D01*
X166850000Y-110830000D02*
X167350000Y-110830000D01*
D10*
X174545000Y-119738000D02*
X175180000Y-119738000D01*
X174545000Y-121008000D02*
X174545000Y-119738000D01*
X175180000Y-121008000D02*
X174545000Y-121008000D01*
X175180000Y-122786000D02*
X165020000Y-122786000D01*
X175180000Y-117960000D02*
X175180000Y-122786000D01*
X165020000Y-117960000D02*
X175180000Y-117960000D01*
X165020000Y-122786000D02*
X165020000Y-117960000D01*
X180768000Y-109058000D02*
X180260000Y-109058000D01*
X180768000Y-107788000D02*
X180768000Y-109058000D01*
X180260000Y-107788000D02*
X180768000Y-107788000D01*
X180260000Y-110836000D02*
X180260000Y-106264000D01*
X185340000Y-110836000D02*
X180260000Y-110836000D01*
X185340000Y-106264000D02*
X185340000Y-110836000D01*
X180260000Y-106264000D02*
X185340000Y-106264000D01*
D11*
X179485000Y-129775000D02*
X179485000Y-127325000D01*
X176265000Y-127975000D02*
X176265000Y-129775000D01*
X158350000Y-132810000D02*
X160800000Y-132810000D01*
X160150000Y-129590000D02*
X158350000Y-129590000D01*
X168720000Y-130810000D02*
X168720000Y-129350000D01*
X171880000Y-130810000D02*
X171880000Y-128650000D01*
X171880000Y-130810000D02*
X170950000Y-130810000D01*
X168720000Y-130810000D02*
X169650000Y-130810000D01*
X172000000Y-114630000D02*
X174100000Y-114630000D01*
X172000000Y-115770000D02*
X174100000Y-115770000D01*
X172000000Y-114630000D02*
X172000000Y-115770000D01*
X172000000Y-113080000D02*
X172000000Y-114220000D01*
X172000000Y-114220000D02*
X174100000Y-114220000D01*
X172000000Y-113080000D02*
X174100000Y-113080000D01*
X162850000Y-133750000D02*
X162850000Y-131900000D01*
X164050000Y-133750000D02*
X164050000Y-131900000D01*
X164050000Y-131900000D02*
X162850000Y-131900000D01*
X159900000Y-124700000D02*
X159900000Y-125900000D01*
X161750000Y-124700000D02*
X159900000Y-124700000D01*
X161750000Y-125900000D02*
X159900000Y-125900000D01*
X160800000Y-109220000D02*
X158700000Y-109220000D01*
X160800000Y-108080000D02*
X158700000Y-108080000D01*
X160800000Y-109220000D02*
X160800000Y-108080000D01*
X161750000Y-127750000D02*
X159900000Y-127750000D01*
X161750000Y-126550000D02*
X159900000Y-126550000D01*
X159900000Y-126550000D02*
X159900000Y-127750000D01*
D10*
X173791180Y-107136904D02*
X174600704Y-107136904D01*
X174695942Y-107089285D01*
X174743561Y-107041666D01*
X174791180Y-106946428D01*
X174791180Y-106755952D01*
X174743561Y-106660714D01*
X174695942Y-106613095D01*
X174600704Y-106565476D01*
X173791180Y-106565476D01*
X173791180Y-105613095D02*
X173791180Y-106089285D01*
X174267371Y-106136904D01*
X174219752Y-106089285D01*
X174172133Y-105994047D01*
X174172133Y-105755952D01*
X174219752Y-105660714D01*
X174267371Y-105613095D01*
X174362609Y-105565476D01*
X174600704Y-105565476D01*
X174695942Y-105613095D01*
X174743561Y-105660714D01*
X174791180Y-105755952D01*
X174791180Y-105994047D01*
X174743561Y-106089285D01*
X174695942Y-106136904D01*
X161583333Y-135457142D02*
X161535714Y-135504761D01*
X161392857Y-135552380D01*
X161297619Y-135552380D01*
X161154761Y-135504761D01*
X161059523Y-135409523D01*
X161011904Y-135314285D01*
X160964285Y-135123809D01*
X160964285Y-134980952D01*
X161011904Y-134790476D01*
X161059523Y-134695238D01*
X161154761Y-134600000D01*
X161297619Y-134552380D01*
X161392857Y-134552380D01*
X161535714Y-134600000D01*
X161583333Y-134647619D01*
X162535714Y-135552380D02*
X161964285Y-135552380D01*
X162250000Y-135552380D02*
X162250000Y-134552380D01*
X162154761Y-134695238D01*
X162059523Y-134790476D01*
X161964285Y-134838095D01*
X156283333Y-134507142D02*
X156235714Y-134554761D01*
X156092857Y-134602380D01*
X155997619Y-134602380D01*
X155854761Y-134554761D01*
X155759523Y-134459523D01*
X155711904Y-134364285D01*
X155664285Y-134173809D01*
X155664285Y-134030952D01*
X155711904Y-133840476D01*
X155759523Y-133745238D01*
X155854761Y-133650000D01*
X155997619Y-133602380D01*
X156092857Y-133602380D01*
X156235714Y-133650000D01*
X156283333Y-133697619D01*
X156664285Y-133697619D02*
X156711904Y-133650000D01*
X156807142Y-133602380D01*
X157045238Y-133602380D01*
X157140476Y-133650000D01*
X157188095Y-133697619D01*
X157235714Y-133792857D01*
X157235714Y-133888095D01*
X157188095Y-134030952D01*
X156616666Y-134602380D01*
X157235714Y-134602380D01*
X178183333Y-117857142D02*
X178135714Y-117904761D01*
X177992857Y-117952380D01*
X177897619Y-117952380D01*
X177754761Y-117904761D01*
X177659523Y-117809523D01*
X177611904Y-117714285D01*
X177564285Y-117523809D01*
X177564285Y-117380952D01*
X177611904Y-117190476D01*
X177659523Y-117095238D01*
X177754761Y-117000000D01*
X177897619Y-116952380D01*
X177992857Y-116952380D01*
X178135714Y-117000000D01*
X178183333Y-117047619D01*
X178516666Y-116952380D02*
X179135714Y-116952380D01*
X178802380Y-117333333D01*
X178945238Y-117333333D01*
X179040476Y-117380952D01*
X179088095Y-117428571D01*
X179135714Y-117523809D01*
X179135714Y-117761904D01*
X179088095Y-117857142D01*
X179040476Y-117904761D01*
X178945238Y-117952380D01*
X178659523Y-117952380D01*
X178564285Y-117904761D01*
X178516666Y-117857142D01*
X166133333Y-127477142D02*
X166085714Y-127524761D01*
X165942857Y-127572380D01*
X165847619Y-127572380D01*
X165704761Y-127524761D01*
X165609523Y-127429523D01*
X165561904Y-127334285D01*
X165514285Y-127143809D01*
X165514285Y-127000952D01*
X165561904Y-126810476D01*
X165609523Y-126715238D01*
X165704761Y-126620000D01*
X165847619Y-126572380D01*
X165942857Y-126572380D01*
X166085714Y-126620000D01*
X166133333Y-126667619D01*
X166990476Y-126905714D02*
X166990476Y-127572380D01*
X166752380Y-126524761D02*
X166514285Y-127239047D01*
X167133333Y-127239047D01*
X169187142Y-116041666D02*
X169234761Y-116089285D01*
X169282380Y-116232142D01*
X169282380Y-116327380D01*
X169234761Y-116470238D01*
X169139523Y-116565476D01*
X169044285Y-116613095D01*
X168853809Y-116660714D01*
X168710952Y-116660714D01*
X168520476Y-116613095D01*
X168425238Y-116565476D01*
X168330000Y-116470238D01*
X168282380Y-116327380D01*
X168282380Y-116232142D01*
X168330000Y-116089285D01*
X168377619Y-116041666D01*
X168282380Y-115136904D02*
X168282380Y-115613095D01*
X168758571Y-115660714D01*
X168710952Y-115613095D01*
X168663333Y-115517857D01*
X168663333Y-115279761D01*
X168710952Y-115184523D01*
X168758571Y-115136904D01*
X168853809Y-115089285D01*
X169091904Y-115089285D01*
X169187142Y-115136904D01*
X169234761Y-115184523D01*
X169282380Y-115279761D01*
X169282380Y-115517857D01*
X169234761Y-115613095D01*
X169187142Y-115660714D01*
X163457142Y-128716666D02*
X163504761Y-128764285D01*
X163552380Y-128907142D01*
X163552380Y-129002380D01*
X163504761Y-129145238D01*
X163409523Y-129240476D01*
X163314285Y-129288095D01*
X163123809Y-129335714D01*
X162980952Y-129335714D01*
X162790476Y-129288095D01*
X162695238Y-129240476D01*
X162600000Y-129145238D01*
X162552380Y-129002380D01*
X162552380Y-128907142D01*
X162600000Y-128764285D01*
X162647619Y-128716666D01*
X162552380Y-127859523D02*
X162552380Y-128050000D01*
X162600000Y-128145238D01*
X162647619Y-128192857D01*
X162790476Y-128288095D01*
X162980952Y-128335714D01*
X163361904Y-128335714D01*
X163457142Y-128288095D01*
X163504761Y-128240476D01*
X163552380Y-128145238D01*
X163552380Y-127954761D01*
X163504761Y-127859523D01*
X163457142Y-127811904D01*
X163361904Y-127764285D01*
X163123809Y-127764285D01*
X163028571Y-127811904D01*
X162980952Y-127859523D01*
X162933333Y-127954761D01*
X162933333Y-128145238D01*
X162980952Y-128240476D01*
X163028571Y-128288095D01*
X163123809Y-128335714D01*
X162657142Y-106316666D02*
X162704761Y-106364285D01*
X162752380Y-106507142D01*
X162752380Y-106602380D01*
X162704761Y-106745238D01*
X162609523Y-106840476D01*
X162514285Y-106888095D01*
X162323809Y-106935714D01*
X162180952Y-106935714D01*
X161990476Y-106888095D01*
X161895238Y-106840476D01*
X161800000Y-106745238D01*
X161752380Y-106602380D01*
X161752380Y-106507142D01*
X161800000Y-106364285D01*
X161847619Y-106316666D01*
X161752380Y-105983333D02*
X161752380Y-105316666D01*
X162752380Y-105745238D01*
X165283333Y-104857142D02*
X165235714Y-104904761D01*
X165092857Y-104952380D01*
X164997619Y-104952380D01*
X164854761Y-104904761D01*
X164759523Y-104809523D01*
X164711904Y-104714285D01*
X164664285Y-104523809D01*
X164664285Y-104380952D01*
X164711904Y-104190476D01*
X164759523Y-104095238D01*
X164854761Y-104000000D01*
X164997619Y-103952380D01*
X165092857Y-103952380D01*
X165235714Y-104000000D01*
X165283333Y-104047619D01*
X165854761Y-104380952D02*
X165759523Y-104333333D01*
X165711904Y-104285714D01*
X165664285Y-104190476D01*
X165664285Y-104142857D01*
X165711904Y-104047619D01*
X165759523Y-104000000D01*
X165854761Y-103952380D01*
X166045238Y-103952380D01*
X166140476Y-104000000D01*
X166188095Y-104047619D01*
X166235714Y-104142857D01*
X166235714Y-104190476D01*
X166188095Y-104285714D01*
X166140476Y-104333333D01*
X166045238Y-104380952D01*
X165854761Y-104380952D01*
X165759523Y-104428571D01*
X165711904Y-104476190D01*
X165664285Y-104571428D01*
X165664285Y-104761904D01*
X165711904Y-104857142D01*
X165759523Y-104904761D01*
X165854761Y-104952380D01*
X166045238Y-104952380D01*
X166140476Y-104904761D01*
X166188095Y-104857142D01*
X166235714Y-104761904D01*
X166235714Y-104571428D01*
X166188095Y-104476190D01*
X166140476Y-104428571D01*
X166045238Y-104380952D01*
X179607142Y-105067857D02*
X179654761Y-105115476D01*
X179702380Y-105258333D01*
X179702380Y-105353571D01*
X179654761Y-105496428D01*
X179559523Y-105591666D01*
X179464285Y-105639285D01*
X179273809Y-105686904D01*
X179130952Y-105686904D01*
X178940476Y-105639285D01*
X178845238Y-105591666D01*
X178750000Y-105496428D01*
X178702380Y-105353571D01*
X178702380Y-105258333D01*
X178750000Y-105115476D01*
X178797619Y-105067857D01*
X179702380Y-104115476D02*
X179702380Y-104686904D01*
X179702380Y-104401190D02*
X178702380Y-104401190D01*
X178845238Y-104496428D01*
X178940476Y-104591666D01*
X178988095Y-104686904D01*
X178702380Y-103496428D02*
X178702380Y-103401190D01*
X178750000Y-103305952D01*
X178797619Y-103258333D01*
X178892857Y-103210714D01*
X179083333Y-103163095D01*
X179321428Y-103163095D01*
X179511904Y-103210714D01*
X179607142Y-103258333D01*
X179654761Y-103305952D01*
X179702380Y-103401190D01*
X179702380Y-103496428D01*
X179654761Y-103591666D01*
X179607142Y-103639285D01*
X179511904Y-103686904D01*
X179321428Y-103734523D01*
X179083333Y-103734523D01*
X178892857Y-103686904D01*
X178797619Y-103639285D01*
X178750000Y-103591666D01*
X178702380Y-103496428D01*
X158711904Y-106302380D02*
X158711904Y-105302380D01*
X158950000Y-105302380D01*
X159092857Y-105350000D01*
X159188095Y-105445238D01*
X159235714Y-105540476D01*
X159283333Y-105730952D01*
X159283333Y-105873809D01*
X159235714Y-106064285D01*
X159188095Y-106159523D01*
X159092857Y-106254761D01*
X158950000Y-106302380D01*
X158711904Y-106302380D01*
X160140476Y-105302380D02*
X159950000Y-105302380D01*
X159854761Y-105350000D01*
X159807142Y-105397619D01*
X159711904Y-105540476D01*
X159664285Y-105730952D01*
X159664285Y-106111904D01*
X159711904Y-106207142D01*
X159759523Y-106254761D01*
X159854761Y-106302380D01*
X160045238Y-106302380D01*
X160140476Y-106254761D01*
X160188095Y-106207142D01*
X160235714Y-106111904D01*
X160235714Y-105873809D01*
X160188095Y-105778571D01*
X160140476Y-105730952D01*
X160045238Y-105683333D01*
X159854761Y-105683333D01*
X159759523Y-105730952D01*
X159711904Y-105778571D01*
X159664285Y-105873809D01*
X169616666Y-132252380D02*
X169616666Y-132966666D01*
X169569047Y-133109523D01*
X169473809Y-133204761D01*
X169330952Y-133252380D01*
X169235714Y-133252380D01*
X170616666Y-133252380D02*
X170045238Y-133252380D01*
X170330952Y-133252380D02*
X170330952Y-132252380D01*
X170235714Y-132395238D01*
X170140476Y-132490476D01*
X170045238Y-132538095D01*
X152616666Y-111822380D02*
X152616666Y-112536666D01*
X152569047Y-112679523D01*
X152473809Y-112774761D01*
X152330952Y-112822380D01*
X152235714Y-112822380D01*
X153045238Y-111917619D02*
X153092857Y-111870000D01*
X153188095Y-111822380D01*
X153426190Y-111822380D01*
X153521428Y-111870000D01*
X153569047Y-111917619D01*
X153616666Y-112012857D01*
X153616666Y-112108095D01*
X153569047Y-112250952D01*
X152997619Y-112822380D01*
X153616666Y-112822380D01*
X183441666Y-131837380D02*
X183441666Y-132551666D01*
X183394047Y-132694523D01*
X183298809Y-132789761D01*
X183155952Y-132837380D01*
X183060714Y-132837380D01*
X183822619Y-131837380D02*
X184441666Y-131837380D01*
X184108333Y-132218333D01*
X184251190Y-132218333D01*
X184346428Y-132265952D01*
X184394047Y-132313571D01*
X184441666Y-132408809D01*
X184441666Y-132646904D01*
X184394047Y-132742142D01*
X184346428Y-132789761D01*
X184251190Y-132837380D01*
X183965476Y-132837380D01*
X183870238Y-132789761D01*
X183822619Y-132742142D01*
X177516666Y-111752380D02*
X177516666Y-112466666D01*
X177469047Y-112609523D01*
X177373809Y-112704761D01*
X177230952Y-112752380D01*
X177135714Y-112752380D01*
X177992857Y-112752380D02*
X177992857Y-111752380D01*
X178373809Y-111752380D01*
X178469047Y-111800000D01*
X178516666Y-111847619D01*
X178564285Y-111942857D01*
X178564285Y-112085714D01*
X178516666Y-112180952D01*
X178469047Y-112228571D01*
X178373809Y-112276190D01*
X177992857Y-112276190D01*
X179516666Y-112752380D02*
X178945238Y-112752380D01*
X179230952Y-112752380D02*
X179230952Y-111752380D01*
X179135714Y-111895238D01*
X179040476Y-111990476D01*
X178945238Y-112038095D01*
X177716666Y-115752380D02*
X177716666Y-116466666D01*
X177669047Y-116609523D01*
X177573809Y-116704761D01*
X177430952Y-116752380D01*
X177335714Y-116752380D01*
X178192857Y-116752380D02*
X178192857Y-115752380D01*
X178573809Y-115752380D01*
X178669047Y-115800000D01*
X178716666Y-115847619D01*
X178764285Y-115942857D01*
X178764285Y-116085714D01*
X178716666Y-116180952D01*
X178669047Y-116228571D01*
X178573809Y-116276190D01*
X178192857Y-116276190D01*
X179145238Y-115847619D02*
X179192857Y-115800000D01*
X179288095Y-115752380D01*
X179526190Y-115752380D01*
X179621428Y-115800000D01*
X179669047Y-115847619D01*
X179716666Y-115942857D01*
X179716666Y-116038095D01*
X179669047Y-116180952D01*
X179097619Y-116752380D01*
X179716666Y-116752380D01*
X185316666Y-114452380D02*
X185316666Y-115166666D01*
X185269047Y-115309523D01*
X185173809Y-115404761D01*
X185030952Y-115452380D01*
X184935714Y-115452380D01*
X185792857Y-115452380D02*
X185792857Y-114452380D01*
X186173809Y-114452380D01*
X186269047Y-114500000D01*
X186316666Y-114547619D01*
X186364285Y-114642857D01*
X186364285Y-114785714D01*
X186316666Y-114880952D01*
X186269047Y-114928571D01*
X186173809Y-114976190D01*
X185792857Y-114976190D01*
X186697619Y-114452380D02*
X187316666Y-114452380D01*
X186983333Y-114833333D01*
X187126190Y-114833333D01*
X187221428Y-114880952D01*
X187269047Y-114928571D01*
X187316666Y-115023809D01*
X187316666Y-115261904D01*
X187269047Y-115357142D01*
X187221428Y-115404761D01*
X187126190Y-115452380D01*
X186840476Y-115452380D01*
X186745238Y-115404761D01*
X186697619Y-115357142D01*
X173052380Y-126666666D02*
X172576190Y-127000000D01*
X173052380Y-127238095D02*
X172052380Y-127238095D01*
X172052380Y-126857142D01*
X172100000Y-126761904D01*
X172147619Y-126714285D01*
X172242857Y-126666666D01*
X172385714Y-126666666D01*
X172480952Y-126714285D01*
X172528571Y-126761904D01*
X172576190Y-126857142D01*
X172576190Y-127238095D01*
X173052380Y-125714285D02*
X173052380Y-126285714D01*
X173052380Y-126000000D02*
X172052380Y-126000000D01*
X172195238Y-126095238D01*
X172290476Y-126190476D01*
X172338095Y-126285714D01*
X168452380Y-126566666D02*
X167976190Y-126900000D01*
X168452380Y-127138095D02*
X167452380Y-127138095D01*
X167452380Y-126757142D01*
X167500000Y-126661904D01*
X167547619Y-126614285D01*
X167642857Y-126566666D01*
X167785714Y-126566666D01*
X167880952Y-126614285D01*
X167928571Y-126661904D01*
X167976190Y-126757142D01*
X167976190Y-127138095D01*
X167547619Y-126185714D02*
X167500000Y-126138095D01*
X167452380Y-126042857D01*
X167452380Y-125804761D01*
X167500000Y-125709523D01*
X167547619Y-125661904D01*
X167642857Y-125614285D01*
X167738095Y-125614285D01*
X167880952Y-125661904D01*
X168452380Y-126233333D01*
X168452380Y-125614285D01*
X175783333Y-116752380D02*
X175450000Y-116276190D01*
X175211904Y-116752380D02*
X175211904Y-115752380D01*
X175592857Y-115752380D01*
X175688095Y-115800000D01*
X175735714Y-115847619D01*
X175783333Y-115942857D01*
X175783333Y-116085714D01*
X175735714Y-116180952D01*
X175688095Y-116228571D01*
X175592857Y-116276190D01*
X175211904Y-116276190D01*
X176116666Y-115752380D02*
X176735714Y-115752380D01*
X176402380Y-116133333D01*
X176545238Y-116133333D01*
X176640476Y-116180952D01*
X176688095Y-116228571D01*
X176735714Y-116323809D01*
X176735714Y-116561904D01*
X176688095Y-116657142D01*
X176640476Y-116704761D01*
X176545238Y-116752380D01*
X176259523Y-116752380D01*
X176164285Y-116704761D01*
X176116666Y-116657142D01*
X175783333Y-112752380D02*
X175450000Y-112276190D01*
X175211904Y-112752380D02*
X175211904Y-111752380D01*
X175592857Y-111752380D01*
X175688095Y-111800000D01*
X175735714Y-111847619D01*
X175783333Y-111942857D01*
X175783333Y-112085714D01*
X175735714Y-112180952D01*
X175688095Y-112228571D01*
X175592857Y-112276190D01*
X175211904Y-112276190D01*
X176640476Y-112085714D02*
X176640476Y-112752380D01*
X176402380Y-111704761D02*
X176164285Y-112419047D01*
X176783333Y-112419047D01*
X178908333Y-101852380D02*
X178575000Y-101376190D01*
X178336904Y-101852380D02*
X178336904Y-100852380D01*
X178717857Y-100852380D01*
X178813095Y-100900000D01*
X178860714Y-100947619D01*
X178908333Y-101042857D01*
X178908333Y-101185714D01*
X178860714Y-101280952D01*
X178813095Y-101328571D01*
X178717857Y-101376190D01*
X178336904Y-101376190D01*
X179241666Y-100852380D02*
X179908333Y-100852380D01*
X179479761Y-101852380D01*
X177377380Y-104016666D02*
X176901190Y-104350000D01*
X177377380Y-104588095D02*
X176377380Y-104588095D01*
X176377380Y-104207142D01*
X176425000Y-104111904D01*
X176472619Y-104064285D01*
X176567857Y-104016666D01*
X176710714Y-104016666D01*
X176805952Y-104064285D01*
X176853571Y-104111904D01*
X176901190Y-104207142D01*
X176901190Y-104588095D01*
X176805952Y-103445238D02*
X176758333Y-103540476D01*
X176710714Y-103588095D01*
X176615476Y-103635714D01*
X176567857Y-103635714D01*
X176472619Y-103588095D01*
X176425000Y-103540476D01*
X176377380Y-103445238D01*
X176377380Y-103254761D01*
X176425000Y-103159523D01*
X176472619Y-103111904D01*
X176567857Y-103064285D01*
X176615476Y-103064285D01*
X176710714Y-103111904D01*
X176758333Y-103159523D01*
X176805952Y-103254761D01*
X176805952Y-103445238D01*
X176853571Y-103540476D01*
X176901190Y-103588095D01*
X176996428Y-103635714D01*
X177186904Y-103635714D01*
X177282142Y-103588095D01*
X177329761Y-103540476D01*
X177377380Y-103445238D01*
X177377380Y-103254761D01*
X177329761Y-103159523D01*
X177282142Y-103111904D01*
X177186904Y-103064285D01*
X176996428Y-103064285D01*
X176901190Y-103111904D01*
X176853571Y-103159523D01*
X176805952Y-103254761D01*
X181233333Y-102977380D02*
X180900000Y-102501190D01*
X180661904Y-102977380D02*
X180661904Y-101977380D01*
X181042857Y-101977380D01*
X181138095Y-102025000D01*
X181185714Y-102072619D01*
X181233333Y-102167857D01*
X181233333Y-102310714D01*
X181185714Y-102405952D01*
X181138095Y-102453571D01*
X181042857Y-102501190D01*
X180661904Y-102501190D01*
X181709523Y-102977380D02*
X181900000Y-102977380D01*
X181995238Y-102929761D01*
X182042857Y-102882142D01*
X182138095Y-102739285D01*
X182185714Y-102548809D01*
X182185714Y-102167857D01*
X182138095Y-102072619D01*
X182090476Y-102025000D01*
X181995238Y-101977380D01*
X181804761Y-101977380D01*
X181709523Y-102025000D01*
X181661904Y-102072619D01*
X181614285Y-102167857D01*
X181614285Y-102405952D01*
X181661904Y-102501190D01*
X181709523Y-102548809D01*
X181804761Y-102596428D01*
X181995238Y-102596428D01*
X182090476Y-102548809D01*
X182138095Y-102501190D01*
X182185714Y-102405952D01*
X185607142Y-114152380D02*
X185273809Y-113676190D01*
X185035714Y-114152380D02*
X185035714Y-113152380D01*
X185416666Y-113152380D01*
X185511904Y-113200000D01*
X185559523Y-113247619D01*
X185607142Y-113342857D01*
X185607142Y-113485714D01*
X185559523Y-113580952D01*
X185511904Y-113628571D01*
X185416666Y-113676190D01*
X185035714Y-113676190D01*
X186559523Y-114152380D02*
X185988095Y-114152380D01*
X186273809Y-114152380D02*
X186273809Y-113152380D01*
X186178571Y-113295238D01*
X186083333Y-113390476D01*
X185988095Y-113438095D01*
X187178571Y-113152380D02*
X187273809Y-113152380D01*
X187369047Y-113200000D01*
X187416666Y-113247619D01*
X187464285Y-113342857D01*
X187511904Y-113533333D01*
X187511904Y-113771428D01*
X187464285Y-113961904D01*
X187416666Y-114057142D01*
X187369047Y-114104761D01*
X187273809Y-114152380D01*
X187178571Y-114152380D01*
X187083333Y-114104761D01*
X187035714Y-114057142D01*
X186988095Y-113961904D01*
X186940476Y-113771428D01*
X186940476Y-113533333D01*
X186988095Y-113342857D01*
X187035714Y-113247619D01*
X187083333Y-113200000D01*
X187178571Y-113152380D01*
X166257142Y-112152380D02*
X165923809Y-111676190D01*
X165685714Y-112152380D02*
X165685714Y-111152380D01*
X166066666Y-111152380D01*
X166161904Y-111200000D01*
X166209523Y-111247619D01*
X166257142Y-111342857D01*
X166257142Y-111485714D01*
X166209523Y-111580952D01*
X166161904Y-111628571D01*
X166066666Y-111676190D01*
X165685714Y-111676190D01*
X167209523Y-112152380D02*
X166638095Y-112152380D01*
X166923809Y-112152380D02*
X166923809Y-111152380D01*
X166828571Y-111295238D01*
X166733333Y-111390476D01*
X166638095Y-111438095D01*
X168161904Y-112152380D02*
X167590476Y-112152380D01*
X167876190Y-112152380D02*
X167876190Y-111152380D01*
X167780952Y-111295238D01*
X167685714Y-111390476D01*
X167590476Y-111438095D01*
X169338095Y-121222380D02*
X169338095Y-122031904D01*
X169385714Y-122127142D01*
X169433333Y-122174761D01*
X169528571Y-122222380D01*
X169719047Y-122222380D01*
X169814285Y-122174761D01*
X169861904Y-122127142D01*
X169909523Y-122031904D01*
X169909523Y-121222380D01*
X170909523Y-122222380D02*
X170338095Y-122222380D01*
X170623809Y-122222380D02*
X170623809Y-121222380D01*
X170528571Y-121365238D01*
X170433333Y-121460476D01*
X170338095Y-121508095D01*
X182038095Y-106732380D02*
X182038095Y-107541904D01*
X182085714Y-107637142D01*
X182133333Y-107684761D01*
X182228571Y-107732380D01*
X182419047Y-107732380D01*
X182514285Y-107684761D01*
X182561904Y-107637142D01*
X182609523Y-107541904D01*
X182609523Y-106732380D01*
X182990476Y-106732380D02*
X183657142Y-106732380D01*
X183228571Y-107732380D01*
X181227380Y-129613095D02*
X180227380Y-129613095D01*
X180227380Y-129375000D01*
X180275000Y-129232142D01*
X180370238Y-129136904D01*
X180465476Y-129089285D01*
X180655952Y-129041666D01*
X180798809Y-129041666D01*
X180989285Y-129089285D01*
X181084523Y-129136904D01*
X181179761Y-129232142D01*
X181227380Y-129375000D01*
X181227380Y-129613095D01*
X180655952Y-128470238D02*
X180608333Y-128565476D01*
X180560714Y-128613095D01*
X180465476Y-128660714D01*
X180417857Y-128660714D01*
X180322619Y-128613095D01*
X180275000Y-128565476D01*
X180227380Y-128470238D01*
X180227380Y-128279761D01*
X180275000Y-128184523D01*
X180322619Y-128136904D01*
X180417857Y-128089285D01*
X180465476Y-128089285D01*
X180560714Y-128136904D01*
X180608333Y-128184523D01*
X180655952Y-128279761D01*
X180655952Y-128470238D01*
X180703571Y-128565476D01*
X180751190Y-128613095D01*
X180846428Y-128660714D01*
X181036904Y-128660714D01*
X181132142Y-128613095D01*
X181179761Y-128565476D01*
X181227380Y-128470238D01*
X181227380Y-128279761D01*
X181179761Y-128184523D01*
X181132142Y-128136904D01*
X181036904Y-128089285D01*
X180846428Y-128089285D01*
X180751190Y-128136904D01*
X180703571Y-128184523D01*
X180655952Y-128279761D01*
X158488095Y-133552380D02*
X158488095Y-134361904D01*
X158535714Y-134457142D01*
X158583333Y-134504761D01*
X158678571Y-134552380D01*
X158869047Y-134552380D01*
X158964285Y-134504761D01*
X159011904Y-134457142D01*
X159059523Y-134361904D01*
X159059523Y-133552380D01*
X159488095Y-133647619D02*
X159535714Y-133600000D01*
X159630952Y-133552380D01*
X159869047Y-133552380D01*
X159964285Y-133600000D01*
X160011904Y-133647619D01*
X160059523Y-133742857D01*
X160059523Y-133838095D01*
X160011904Y-133980952D01*
X159440476Y-134552380D01*
X160059523Y-134552380D01*
X172252380Y-130811904D02*
X173061904Y-130811904D01*
X173157142Y-130764285D01*
X173204761Y-130716666D01*
X173252380Y-130621428D01*
X173252380Y-130430952D01*
X173204761Y-130335714D01*
X173157142Y-130288095D01*
X173061904Y-130240476D01*
X172252380Y-130240476D01*
X172252380Y-129859523D02*
X172252380Y-129240476D01*
X172633333Y-129573809D01*
X172633333Y-129430952D01*
X172680952Y-129335714D01*
X172728571Y-129288095D01*
X172823809Y-129240476D01*
X173061904Y-129240476D01*
X173157142Y-129288095D01*
X173204761Y-129335714D01*
X173252380Y-129430952D01*
X173252380Y-129716666D01*
X173204761Y-129811904D01*
X173157142Y-129859523D01*
X171652380Y-115938095D02*
X170652380Y-115938095D01*
X170652380Y-115700000D01*
X170700000Y-115557142D01*
X170795238Y-115461904D01*
X170890476Y-115414285D01*
X171080952Y-115366666D01*
X171223809Y-115366666D01*
X171414285Y-115414285D01*
X171509523Y-115461904D01*
X171604761Y-115557142D01*
X171652380Y-115700000D01*
X171652380Y-115938095D01*
X171652380Y-114414285D02*
X171652380Y-114985714D01*
X171652380Y-114700000D02*
X170652380Y-114700000D01*
X170795238Y-114795238D01*
X170890476Y-114890476D01*
X170938095Y-114985714D01*
X172511904Y-112802380D02*
X172511904Y-111802380D01*
X172750000Y-111802380D01*
X172892857Y-111850000D01*
X172988095Y-111945238D01*
X173035714Y-112040476D01*
X173083333Y-112230952D01*
X173083333Y-112373809D01*
X173035714Y-112564285D01*
X172988095Y-112659523D01*
X172892857Y-112754761D01*
X172750000Y-112802380D01*
X172511904Y-112802380D01*
X173464285Y-111897619D02*
X173511904Y-111850000D01*
X173607142Y-111802380D01*
X173845238Y-111802380D01*
X173940476Y-111850000D01*
X173988095Y-111897619D01*
X174035714Y-111992857D01*
X174035714Y-112088095D01*
X173988095Y-112230952D01*
X173416666Y-112802380D01*
X174035714Y-112802380D01*
X162761904Y-135602380D02*
X162761904Y-134602380D01*
X163000000Y-134602380D01*
X163142857Y-134650000D01*
X163238095Y-134745238D01*
X163285714Y-134840476D01*
X163333333Y-135030952D01*
X163333333Y-135173809D01*
X163285714Y-135364285D01*
X163238095Y-135459523D01*
X163142857Y-135554761D01*
X163000000Y-135602380D01*
X162761904Y-135602380D01*
X163666666Y-134602380D02*
X164285714Y-134602380D01*
X163952380Y-134983333D01*
X164095238Y-134983333D01*
X164190476Y-135030952D01*
X164238095Y-135078571D01*
X164285714Y-135173809D01*
X164285714Y-135411904D01*
X164238095Y-135507142D01*
X164190476Y-135554761D01*
X164095238Y-135602380D01*
X163809523Y-135602380D01*
X163714285Y-135554761D01*
X163666666Y-135507142D01*
X163502380Y-125488095D02*
X162502380Y-125488095D01*
X162502380Y-125250000D01*
X162550000Y-125107142D01*
X162645238Y-125011904D01*
X162740476Y-124964285D01*
X162930952Y-124916666D01*
X163073809Y-124916666D01*
X163264285Y-124964285D01*
X163359523Y-125011904D01*
X163454761Y-125107142D01*
X163502380Y-125250000D01*
X163502380Y-125488095D01*
X162835714Y-124059523D02*
X163502380Y-124059523D01*
X162454761Y-124297619D02*
X163169047Y-124535714D01*
X163169047Y-123916666D01*
X158761904Y-110502380D02*
X158761904Y-109502380D01*
X159000000Y-109502380D01*
X159142857Y-109550000D01*
X159238095Y-109645238D01*
X159285714Y-109740476D01*
X159333333Y-109930952D01*
X159333333Y-110073809D01*
X159285714Y-110264285D01*
X159238095Y-110359523D01*
X159142857Y-110454761D01*
X159000000Y-110502380D01*
X158761904Y-110502380D01*
X160238095Y-109502380D02*
X159761904Y-109502380D01*
X159714285Y-109978571D01*
X159761904Y-109930952D01*
X159857142Y-109883333D01*
X160095238Y-109883333D01*
X160190476Y-109930952D01*
X160238095Y-109978571D01*
X160285714Y-110073809D01*
X160285714Y-110311904D01*
X160238095Y-110407142D01*
X160190476Y-110454761D01*
X160095238Y-110502380D01*
X159857142Y-110502380D01*
X159761904Y-110454761D01*
X159714285Y-110407142D01*
X163552380Y-127488095D02*
X162552380Y-127488095D01*
X162552380Y-127250000D01*
X162600000Y-127107142D01*
X162695238Y-127011904D01*
X162790476Y-126964285D01*
X162980952Y-126916666D01*
X163123809Y-126916666D01*
X163314285Y-126964285D01*
X163409523Y-127011904D01*
X163504761Y-127107142D01*
X163552380Y-127250000D01*
X163552380Y-127488095D01*
X162552380Y-126583333D02*
X162552380Y-125916666D01*
X163552380Y-126345238D01*
X152438095Y-106502380D02*
X152438095Y-105502380D01*
X152438095Y-105978571D02*
X153009523Y-105978571D01*
X153009523Y-106502380D02*
X153009523Y-105502380D01*
X154009523Y-106502380D02*
X153438095Y-106502380D01*
X153723809Y-106502380D02*
X153723809Y-105502380D01*
X153628571Y-105645238D01*
X153533333Y-105740476D01*
X153438095Y-105788095D01*
X152438095Y-134252380D02*
X152438095Y-133252380D01*
X152438095Y-133728571D02*
X153009523Y-133728571D01*
X153009523Y-134252380D02*
X153009523Y-133252380D01*
X153438095Y-133347619D02*
X153485714Y-133300000D01*
X153580952Y-133252380D01*
X153819047Y-133252380D01*
X153914285Y-133300000D01*
X153961904Y-133347619D01*
X154009523Y-133442857D01*
X154009523Y-133538095D01*
X153961904Y-133680952D01*
X153390476Y-134252380D01*
X154009523Y-134252380D01*
X186088095Y-134252380D02*
X186088095Y-133252380D01*
X186088095Y-133728571D02*
X186659523Y-133728571D01*
X186659523Y-134252380D02*
X186659523Y-133252380D01*
X187040476Y-133252380D02*
X187659523Y-133252380D01*
X187326190Y-133633333D01*
X187469047Y-133633333D01*
X187564285Y-133680952D01*
X187611904Y-133728571D01*
X187659523Y-133823809D01*
X187659523Y-134061904D01*
X187611904Y-134157142D01*
X187564285Y-134204761D01*
X187469047Y-134252380D01*
X187183333Y-134252380D01*
X187088095Y-134204761D01*
X187040476Y-134157142D01*
X186088095Y-106502380D02*
X186088095Y-105502380D01*
X186088095Y-105978571D02*
X186659523Y-105978571D01*
X186659523Y-106502380D02*
X186659523Y-105502380D01*
X187564285Y-105835714D02*
X187564285Y-106502380D01*
X187326190Y-105454761D02*
X187088095Y-106169047D01*
X187707142Y-106169047D01*
M02*
