M48
METRIC,TZ
T1C0.400
T2C0.600
T3C0.800
T4C0.850
T5C1.000
T6C2.200
%
G90
G05
T1
X143000Y-104325
X144525Y-77050
X144700Y-104900
X145225Y-81200
X145400Y-96550
X146875Y-95100
X147500Y-104800
X149075Y-99700
X150025Y-75650
X150025Y-79000
X150050Y-106175
X150300Y-102200
X152275Y-81575
X152325Y-98175
X152425Y-85575
X152500Y-74400
X152750Y-75750
X155525Y-72650
X155550Y-85700
X156200Y-103350
X157100Y-82600
X157275Y-73550
X157500Y-84550
X158525Y-104025
X158900Y-72900
X159900Y-82700
X160550Y-96900
X160800Y-80200
X160950Y-76625
X161150Y-78800
X163500Y-80400
X163500Y-87650
X163650Y-91500
X164000Y-79100
X164100Y-72775
X164700Y-89900
X164775Y-87625
X165300Y-81450
X168150Y-91500
X168450Y-85850
X170350Y-91200
X171525Y-87450
X171675Y-86250
X172350Y-84225
X173000Y-77900
T3
X167250Y-99100
X167250Y-101100
X169250Y-99100
X169250Y-101100
X171250Y-99100
X171250Y-101100
X173250Y-99100
X173250Y-101100
T4
X154025Y-106950
X159025Y-106950
T5
X139650Y-91060
X139650Y-93600
T6
X173425Y-108250
X139775Y-108250
X139775Y-74100
X173425Y-74100
T2
G00X153025Y-110000
M15
G01X153025Y-109300
M16
G05
G00X160025Y-109300
M15
G01X160025Y-110000
M16
G05
T0
M30
