G04 #@! TF.GenerationSoftware,KiCad,Pcbnew,(5.1.0)-1*
G04 #@! TF.CreationDate,2019-11-13T23:10:21-06:00*
G04 #@! TF.ProjectId,low_cost_multispectral_sensor,6c6f775f-636f-4737-945f-6d756c746973,rev?*
G04 #@! TF.SameCoordinates,Original*
G04 #@! TF.FileFunction,Copper,L3,Inr*
G04 #@! TF.FilePolarity,Positive*
%FSLAX46Y46*%
G04 Gerber Fmt 4.6, Leading zero omitted, Abs format (unit mm)*
G04 Created by KiCad (PCBNEW (5.1.0)-1) date 2019-11-13 23:10:21*
%MOMM*%
%LPD*%
G04 APERTURE LIST*
%ADD10C,1.450000*%
%ADD11O,1.200000X1.900000*%
%ADD12O,1.700000X1.700000*%
%ADD13R,1.700000X1.700000*%
%ADD14O,1.350000X1.350000*%
%ADD15R,1.350000X1.350000*%
%ADD16C,4.400000*%
%ADD17C,0.800000*%
%ADD18C,0.254000*%
G04 APERTURE END LIST*
D10*
X167450000Y-134450000D03*
X172450000Y-134450000D03*
D11*
X166450000Y-137150000D03*
X173450000Y-137150000D03*
D12*
X152950000Y-122320000D03*
X152950000Y-119780000D03*
X152950000Y-117240000D03*
D13*
X152950000Y-114700000D03*
D14*
X182775000Y-120325000D03*
X184775000Y-120325000D03*
X182775000Y-122325000D03*
X184775000Y-122325000D03*
X182775000Y-124325000D03*
X184775000Y-124325000D03*
X182775000Y-126325000D03*
X184775000Y-126325000D03*
X182775000Y-128325000D03*
X184775000Y-128325000D03*
X182775000Y-130325000D03*
D15*
X184775000Y-130325000D03*
D16*
X153200000Y-102850000D03*
X153200000Y-137000000D03*
X186850000Y-137000000D03*
X186850000Y-102850000D03*
D17*
X176925000Y-116400000D03*
X170925000Y-113300000D03*
X163450000Y-107750000D03*
X166175000Y-104500000D03*
X174375000Y-105375000D03*
X185200000Y-114950000D03*
X186025000Y-111725000D03*
X178975000Y-108950000D03*
X173975000Y-125650000D03*
X178400000Y-126175000D03*
X171950000Y-132775000D03*
X169700000Y-132475000D03*
X158125000Y-133575000D03*
X156425000Y-133075000D03*
X162500000Y-128450000D03*
X163475000Y-134925000D03*
X160925000Y-133550000D03*
X165750000Y-126925000D03*
X163725000Y-130950000D03*
X178125000Y-118650000D03*
X160300000Y-123850000D03*
X178125000Y-106600000D03*
X177525000Y-101525000D03*
X157950000Y-105800000D03*
X158650000Y-109950000D03*
X163450000Y-104400000D03*
X165925000Y-103150000D03*
X168950000Y-101400000D03*
X185350000Y-113750000D03*
X165700000Y-110325000D03*
X178200000Y-116375000D03*
X176325000Y-111200000D03*
X176375000Y-105300000D03*
X180700000Y-117450000D03*
X177225000Y-126050000D03*
X177375000Y-112325000D03*
X178525000Y-104325000D03*
X187375000Y-122200000D03*
X180875000Y-114725000D03*
X180875000Y-113225000D03*
X178825000Y-131925000D03*
X177200000Y-122700000D03*
X165850000Y-114325000D03*
X172450000Y-101650000D03*
X167560000Y-112775000D03*
X170700000Y-102300000D03*
X168825000Y-112075000D03*
X164200000Y-121100000D03*
X163700000Y-119800000D03*
D18*
G36*
X171959744Y-100732795D02*
G01*
X171790226Y-100846063D01*
X171646063Y-100990226D01*
X171532795Y-101159744D01*
X171454774Y-101348102D01*
X171415000Y-101548061D01*
X171415000Y-101551289D01*
X171359774Y-101496063D01*
X171190256Y-101382795D01*
X171001898Y-101304774D01*
X170801939Y-101265000D01*
X170598061Y-101265000D01*
X170398102Y-101304774D01*
X170209744Y-101382795D01*
X170040226Y-101496063D01*
X169896063Y-101640226D01*
X169782795Y-101809744D01*
X169704774Y-101998102D01*
X169665000Y-102198061D01*
X169665000Y-102401939D01*
X169704774Y-102601898D01*
X169782795Y-102790256D01*
X169896063Y-102959774D01*
X170040226Y-103103937D01*
X170209744Y-103217205D01*
X170398102Y-103295226D01*
X170598061Y-103335000D01*
X170801939Y-103335000D01*
X171001898Y-103295226D01*
X171190256Y-103217205D01*
X171359774Y-103103937D01*
X171503937Y-102959774D01*
X171617205Y-102790256D01*
X171695226Y-102601898D01*
X171735000Y-102401939D01*
X171735000Y-102398711D01*
X171790226Y-102453937D01*
X171959744Y-102567205D01*
X172148102Y-102645226D01*
X172348061Y-102685000D01*
X172551939Y-102685000D01*
X172751898Y-102645226D01*
X172940256Y-102567205D01*
X173109774Y-102453937D01*
X173253937Y-102309774D01*
X173367205Y-102140256D01*
X173445226Y-101951898D01*
X173485000Y-101751939D01*
X173485000Y-101548061D01*
X173445226Y-101348102D01*
X173367205Y-101159744D01*
X173253937Y-100990226D01*
X173109774Y-100846063D01*
X172940256Y-100732795D01*
X172764515Y-100660000D01*
X185030705Y-100660000D01*
X184647912Y-101042793D01*
X184337656Y-101507124D01*
X184123948Y-102023061D01*
X184015000Y-102570777D01*
X184015000Y-103129223D01*
X184123948Y-103676939D01*
X184337656Y-104192876D01*
X184647912Y-104657207D01*
X185042793Y-105052088D01*
X185507124Y-105362344D01*
X186023061Y-105576052D01*
X186570777Y-105685000D01*
X187129223Y-105685000D01*
X187676939Y-105576052D01*
X188192876Y-105362344D01*
X188657207Y-105052088D01*
X189052088Y-104657207D01*
X189190001Y-104450806D01*
X189190000Y-135399193D01*
X189052088Y-135192793D01*
X188657207Y-134797912D01*
X188192876Y-134487656D01*
X187676939Y-134273948D01*
X187129223Y-134165000D01*
X186570777Y-134165000D01*
X186023061Y-134273948D01*
X185507124Y-134487656D01*
X185042793Y-134797912D01*
X184647912Y-135192793D01*
X184337656Y-135657124D01*
X184123948Y-136173061D01*
X184015000Y-136720777D01*
X184015000Y-137279223D01*
X184123948Y-137826939D01*
X184337656Y-138342876D01*
X184647912Y-138807207D01*
X185030705Y-139190000D01*
X155019295Y-139190000D01*
X155402088Y-138807207D01*
X155712344Y-138342876D01*
X155926052Y-137826939D01*
X156035000Y-137279223D01*
X156035000Y-136739335D01*
X165215000Y-136739335D01*
X165215000Y-137560664D01*
X165232870Y-137742101D01*
X165303489Y-137974900D01*
X165418167Y-138189448D01*
X165572498Y-138377502D01*
X165760551Y-138531833D01*
X165975099Y-138646511D01*
X166207898Y-138717130D01*
X166450000Y-138740975D01*
X166692101Y-138717130D01*
X166924900Y-138646511D01*
X167139448Y-138531833D01*
X167327502Y-138377502D01*
X167481833Y-138189449D01*
X167596511Y-137974901D01*
X167667130Y-137742102D01*
X167685000Y-137560665D01*
X167685000Y-136739336D01*
X167667130Y-136557899D01*
X167596511Y-136325099D01*
X167481833Y-136110551D01*
X167327502Y-135922498D01*
X167150232Y-135777016D01*
X167316052Y-135810000D01*
X167583948Y-135810000D01*
X167846697Y-135757736D01*
X168094201Y-135655216D01*
X168316949Y-135506381D01*
X168506381Y-135316949D01*
X168655216Y-135094201D01*
X168757736Y-134846697D01*
X168810000Y-134583948D01*
X168810000Y-134316052D01*
X168757736Y-134053303D01*
X168655216Y-133805799D01*
X168506381Y-133583051D01*
X168316949Y-133393619D01*
X168094201Y-133244784D01*
X167846697Y-133142264D01*
X167583948Y-133090000D01*
X167316052Y-133090000D01*
X167053303Y-133142264D01*
X166805799Y-133244784D01*
X166583051Y-133393619D01*
X166393619Y-133583051D01*
X166244784Y-133805799D01*
X166142264Y-134053303D01*
X166090000Y-134316052D01*
X166090000Y-134583948D01*
X166142264Y-134846697D01*
X166244784Y-135094201D01*
X166393619Y-135316949D01*
X166583051Y-135506381D01*
X166702035Y-135585883D01*
X166692102Y-135582870D01*
X166450000Y-135559025D01*
X166207899Y-135582870D01*
X165975100Y-135653489D01*
X165760552Y-135768167D01*
X165572499Y-135922498D01*
X165418168Y-136110551D01*
X165303489Y-136325099D01*
X165232870Y-136557898D01*
X165215000Y-136739335D01*
X156035000Y-136739335D01*
X156035000Y-136720777D01*
X155926052Y-136173061D01*
X155712344Y-135657124D01*
X155402088Y-135192793D01*
X155032356Y-134823061D01*
X162440000Y-134823061D01*
X162440000Y-135026939D01*
X162479774Y-135226898D01*
X162557795Y-135415256D01*
X162671063Y-135584774D01*
X162815226Y-135728937D01*
X162984744Y-135842205D01*
X163173102Y-135920226D01*
X163373061Y-135960000D01*
X163576939Y-135960000D01*
X163776898Y-135920226D01*
X163965256Y-135842205D01*
X164134774Y-135728937D01*
X164278937Y-135584774D01*
X164392205Y-135415256D01*
X164470226Y-135226898D01*
X164510000Y-135026939D01*
X164510000Y-134823061D01*
X164470226Y-134623102D01*
X164392205Y-134434744D01*
X164278937Y-134265226D01*
X164134774Y-134121063D01*
X163965256Y-134007795D01*
X163776898Y-133929774D01*
X163576939Y-133890000D01*
X163373061Y-133890000D01*
X163173102Y-133929774D01*
X162984744Y-134007795D01*
X162815226Y-134121063D01*
X162671063Y-134265226D01*
X162557795Y-134434744D01*
X162479774Y-134623102D01*
X162440000Y-134823061D01*
X155032356Y-134823061D01*
X155007207Y-134797912D01*
X154542876Y-134487656D01*
X154026939Y-134273948D01*
X153479223Y-134165000D01*
X152920777Y-134165000D01*
X152373061Y-134273948D01*
X151857124Y-134487656D01*
X151392793Y-134797912D01*
X150997912Y-135192793D01*
X150710000Y-135623684D01*
X150710000Y-132973061D01*
X155390000Y-132973061D01*
X155390000Y-133176939D01*
X155429774Y-133376898D01*
X155507795Y-133565256D01*
X155621063Y-133734774D01*
X155765226Y-133878937D01*
X155934744Y-133992205D01*
X156123102Y-134070226D01*
X156323061Y-134110000D01*
X156526939Y-134110000D01*
X156726898Y-134070226D01*
X156915256Y-133992205D01*
X157084774Y-133878937D01*
X157122646Y-133841065D01*
X157129774Y-133876898D01*
X157207795Y-134065256D01*
X157321063Y-134234774D01*
X157465226Y-134378937D01*
X157634744Y-134492205D01*
X157823102Y-134570226D01*
X158023061Y-134610000D01*
X158226939Y-134610000D01*
X158426898Y-134570226D01*
X158615256Y-134492205D01*
X158784774Y-134378937D01*
X158928937Y-134234774D01*
X159042205Y-134065256D01*
X159120226Y-133876898D01*
X159160000Y-133676939D01*
X159160000Y-133473061D01*
X159155028Y-133448061D01*
X159890000Y-133448061D01*
X159890000Y-133651939D01*
X159929774Y-133851898D01*
X160007795Y-134040256D01*
X160121063Y-134209774D01*
X160265226Y-134353937D01*
X160434744Y-134467205D01*
X160623102Y-134545226D01*
X160823061Y-134585000D01*
X161026939Y-134585000D01*
X161226898Y-134545226D01*
X161415256Y-134467205D01*
X161584774Y-134353937D01*
X161728937Y-134209774D01*
X161842205Y-134040256D01*
X161920226Y-133851898D01*
X161960000Y-133651939D01*
X161960000Y-133448061D01*
X161920226Y-133248102D01*
X161842205Y-133059744D01*
X161728937Y-132890226D01*
X161584774Y-132746063D01*
X161415256Y-132632795D01*
X161226898Y-132554774D01*
X161026939Y-132515000D01*
X160823061Y-132515000D01*
X160623102Y-132554774D01*
X160434744Y-132632795D01*
X160265226Y-132746063D01*
X160121063Y-132890226D01*
X160007795Y-133059744D01*
X159929774Y-133248102D01*
X159890000Y-133448061D01*
X159155028Y-133448061D01*
X159120226Y-133273102D01*
X159042205Y-133084744D01*
X158928937Y-132915226D01*
X158784774Y-132771063D01*
X158615256Y-132657795D01*
X158426898Y-132579774D01*
X158226939Y-132540000D01*
X158023061Y-132540000D01*
X157823102Y-132579774D01*
X157634744Y-132657795D01*
X157465226Y-132771063D01*
X157427354Y-132808935D01*
X157420226Y-132773102D01*
X157342205Y-132584744D01*
X157228937Y-132415226D01*
X157186772Y-132373061D01*
X168665000Y-132373061D01*
X168665000Y-132576939D01*
X168704774Y-132776898D01*
X168782795Y-132965256D01*
X168896063Y-133134774D01*
X169040226Y-133278937D01*
X169209744Y-133392205D01*
X169398102Y-133470226D01*
X169598061Y-133510000D01*
X169801939Y-133510000D01*
X170001898Y-133470226D01*
X170190256Y-133392205D01*
X170359774Y-133278937D01*
X170503937Y-133134774D01*
X170617205Y-132965256D01*
X170695226Y-132776898D01*
X170715880Y-132673061D01*
X170915000Y-132673061D01*
X170915000Y-132876939D01*
X170954774Y-133076898D01*
X171032795Y-133265256D01*
X171146063Y-133434774D01*
X171290226Y-133578937D01*
X171363606Y-133627968D01*
X171244784Y-133805799D01*
X171142264Y-134053303D01*
X171090000Y-134316052D01*
X171090000Y-134583948D01*
X171142264Y-134846697D01*
X171244784Y-135094201D01*
X171393619Y-135316949D01*
X171583051Y-135506381D01*
X171805799Y-135655216D01*
X172053303Y-135757736D01*
X172316052Y-135810000D01*
X172583948Y-135810000D01*
X172749768Y-135777016D01*
X172572498Y-135922498D01*
X172418167Y-136110552D01*
X172303489Y-136325100D01*
X172232870Y-136557899D01*
X172215000Y-136739336D01*
X172215000Y-137560665D01*
X172232870Y-137742102D01*
X172303489Y-137974901D01*
X172418168Y-138189449D01*
X172572499Y-138377502D01*
X172760552Y-138531833D01*
X172975100Y-138646511D01*
X173207899Y-138717130D01*
X173450000Y-138740975D01*
X173692102Y-138717130D01*
X173924901Y-138646511D01*
X174139449Y-138531833D01*
X174327502Y-138377502D01*
X174481833Y-138189449D01*
X174596511Y-137974901D01*
X174667130Y-137742101D01*
X174685000Y-137560664D01*
X174685000Y-136739335D01*
X174667130Y-136557898D01*
X174596511Y-136325099D01*
X174481833Y-136110551D01*
X174327502Y-135922498D01*
X174139448Y-135768167D01*
X173924900Y-135653489D01*
X173692101Y-135582870D01*
X173450000Y-135559025D01*
X173207898Y-135582870D01*
X173197965Y-135585883D01*
X173316949Y-135506381D01*
X173506381Y-135316949D01*
X173655216Y-135094201D01*
X173757736Y-134846697D01*
X173810000Y-134583948D01*
X173810000Y-134316052D01*
X173757736Y-134053303D01*
X173655216Y-133805799D01*
X173506381Y-133583051D01*
X173316949Y-133393619D01*
X173094201Y-133244784D01*
X172907686Y-133167527D01*
X172945226Y-133076898D01*
X172985000Y-132876939D01*
X172985000Y-132673061D01*
X172945226Y-132473102D01*
X172867205Y-132284744D01*
X172753937Y-132115226D01*
X172609774Y-131971063D01*
X172440256Y-131857795D01*
X172356402Y-131823061D01*
X177790000Y-131823061D01*
X177790000Y-132026939D01*
X177829774Y-132226898D01*
X177907795Y-132415256D01*
X178021063Y-132584774D01*
X178165226Y-132728937D01*
X178334744Y-132842205D01*
X178523102Y-132920226D01*
X178723061Y-132960000D01*
X178926939Y-132960000D01*
X179126898Y-132920226D01*
X179315256Y-132842205D01*
X179484774Y-132728937D01*
X179628937Y-132584774D01*
X179742205Y-132415256D01*
X179820226Y-132226898D01*
X179860000Y-132026939D01*
X179860000Y-131823061D01*
X179820226Y-131623102D01*
X179742205Y-131434744D01*
X179628937Y-131265226D01*
X179484774Y-131121063D01*
X179315256Y-131007795D01*
X179126898Y-130929774D01*
X178926939Y-130890000D01*
X178723061Y-130890000D01*
X178523102Y-130929774D01*
X178334744Y-131007795D01*
X178165226Y-131121063D01*
X178021063Y-131265226D01*
X177907795Y-131434744D01*
X177829774Y-131623102D01*
X177790000Y-131823061D01*
X172356402Y-131823061D01*
X172251898Y-131779774D01*
X172051939Y-131740000D01*
X171848061Y-131740000D01*
X171648102Y-131779774D01*
X171459744Y-131857795D01*
X171290226Y-131971063D01*
X171146063Y-132115226D01*
X171032795Y-132284744D01*
X170954774Y-132473102D01*
X170915000Y-132673061D01*
X170715880Y-132673061D01*
X170735000Y-132576939D01*
X170735000Y-132373061D01*
X170695226Y-132173102D01*
X170617205Y-131984744D01*
X170503937Y-131815226D01*
X170359774Y-131671063D01*
X170190256Y-131557795D01*
X170001898Y-131479774D01*
X169801939Y-131440000D01*
X169598061Y-131440000D01*
X169398102Y-131479774D01*
X169209744Y-131557795D01*
X169040226Y-131671063D01*
X168896063Y-131815226D01*
X168782795Y-131984744D01*
X168704774Y-132173102D01*
X168665000Y-132373061D01*
X157186772Y-132373061D01*
X157084774Y-132271063D01*
X156915256Y-132157795D01*
X156726898Y-132079774D01*
X156526939Y-132040000D01*
X156323061Y-132040000D01*
X156123102Y-132079774D01*
X155934744Y-132157795D01*
X155765226Y-132271063D01*
X155621063Y-132415226D01*
X155507795Y-132584744D01*
X155429774Y-132773102D01*
X155390000Y-132973061D01*
X150710000Y-132973061D01*
X150710000Y-130848061D01*
X162690000Y-130848061D01*
X162690000Y-131051939D01*
X162729774Y-131251898D01*
X162807795Y-131440256D01*
X162921063Y-131609774D01*
X163065226Y-131753937D01*
X163234744Y-131867205D01*
X163423102Y-131945226D01*
X163623061Y-131985000D01*
X163826939Y-131985000D01*
X164026898Y-131945226D01*
X164215256Y-131867205D01*
X164384774Y-131753937D01*
X164528937Y-131609774D01*
X164642205Y-131440256D01*
X164720226Y-131251898D01*
X164760000Y-131051939D01*
X164760000Y-130848061D01*
X164720226Y-130648102D01*
X164642205Y-130459744D01*
X164528937Y-130290226D01*
X164384774Y-130146063D01*
X164215256Y-130032795D01*
X164026898Y-129954774D01*
X163826939Y-129915000D01*
X163623061Y-129915000D01*
X163423102Y-129954774D01*
X163234744Y-130032795D01*
X163065226Y-130146063D01*
X162921063Y-130290226D01*
X162807795Y-130459744D01*
X162729774Y-130648102D01*
X162690000Y-130848061D01*
X150710000Y-130848061D01*
X150710000Y-128348061D01*
X161465000Y-128348061D01*
X161465000Y-128551939D01*
X161504774Y-128751898D01*
X161582795Y-128940256D01*
X161696063Y-129109774D01*
X161840226Y-129253937D01*
X162009744Y-129367205D01*
X162198102Y-129445226D01*
X162398061Y-129485000D01*
X162601939Y-129485000D01*
X162801898Y-129445226D01*
X162990256Y-129367205D01*
X163159774Y-129253937D01*
X163303937Y-129109774D01*
X163417205Y-128940256D01*
X163495226Y-128751898D01*
X163535000Y-128551939D01*
X163535000Y-128348061D01*
X163495226Y-128148102D01*
X163417205Y-127959744D01*
X163303937Y-127790226D01*
X163159774Y-127646063D01*
X162990256Y-127532795D01*
X162801898Y-127454774D01*
X162601939Y-127415000D01*
X162398061Y-127415000D01*
X162198102Y-127454774D01*
X162009744Y-127532795D01*
X161840226Y-127646063D01*
X161696063Y-127790226D01*
X161582795Y-127959744D01*
X161504774Y-128148102D01*
X161465000Y-128348061D01*
X150710000Y-128348061D01*
X150710000Y-126823061D01*
X164715000Y-126823061D01*
X164715000Y-127026939D01*
X164754774Y-127226898D01*
X164832795Y-127415256D01*
X164946063Y-127584774D01*
X165090226Y-127728937D01*
X165259744Y-127842205D01*
X165448102Y-127920226D01*
X165648061Y-127960000D01*
X165851939Y-127960000D01*
X166051898Y-127920226D01*
X166240256Y-127842205D01*
X166409774Y-127728937D01*
X166553937Y-127584774D01*
X166667205Y-127415256D01*
X166745226Y-127226898D01*
X166785000Y-127026939D01*
X166785000Y-126823061D01*
X166745226Y-126623102D01*
X166667205Y-126434744D01*
X166553937Y-126265226D01*
X166409774Y-126121063D01*
X166240256Y-126007795D01*
X166051898Y-125929774D01*
X165851939Y-125890000D01*
X165648061Y-125890000D01*
X165448102Y-125929774D01*
X165259744Y-126007795D01*
X165090226Y-126121063D01*
X164946063Y-126265226D01*
X164832795Y-126434744D01*
X164754774Y-126623102D01*
X164715000Y-126823061D01*
X150710000Y-126823061D01*
X150710000Y-125548061D01*
X172940000Y-125548061D01*
X172940000Y-125751939D01*
X172979774Y-125951898D01*
X173057795Y-126140256D01*
X173171063Y-126309774D01*
X173315226Y-126453937D01*
X173484744Y-126567205D01*
X173673102Y-126645226D01*
X173873061Y-126685000D01*
X174076939Y-126685000D01*
X174276898Y-126645226D01*
X174465256Y-126567205D01*
X174634774Y-126453937D01*
X174778937Y-126309774D01*
X174892205Y-126140256D01*
X174970226Y-125951898D01*
X174970989Y-125948061D01*
X176190000Y-125948061D01*
X176190000Y-126151939D01*
X176229774Y-126351898D01*
X176307795Y-126540256D01*
X176421063Y-126709774D01*
X176565226Y-126853937D01*
X176734744Y-126967205D01*
X176923102Y-127045226D01*
X177123061Y-127085000D01*
X177326939Y-127085000D01*
X177526898Y-127045226D01*
X177715256Y-126967205D01*
X177723192Y-126961903D01*
X177740226Y-126978937D01*
X177909744Y-127092205D01*
X178098102Y-127170226D01*
X178298061Y-127210000D01*
X178501939Y-127210000D01*
X178701898Y-127170226D01*
X178890256Y-127092205D01*
X179059774Y-126978937D01*
X179203937Y-126834774D01*
X179317205Y-126665256D01*
X179395226Y-126476898D01*
X179435000Y-126276939D01*
X179435000Y-126073061D01*
X179395226Y-125873102D01*
X179317205Y-125684744D01*
X179203937Y-125515226D01*
X179059774Y-125371063D01*
X178890256Y-125257795D01*
X178701898Y-125179774D01*
X178501939Y-125140000D01*
X178298061Y-125140000D01*
X178098102Y-125179774D01*
X177909744Y-125257795D01*
X177901808Y-125263097D01*
X177884774Y-125246063D01*
X177715256Y-125132795D01*
X177526898Y-125054774D01*
X177326939Y-125015000D01*
X177123061Y-125015000D01*
X176923102Y-125054774D01*
X176734744Y-125132795D01*
X176565226Y-125246063D01*
X176421063Y-125390226D01*
X176307795Y-125559744D01*
X176229774Y-125748102D01*
X176190000Y-125948061D01*
X174970989Y-125948061D01*
X175010000Y-125751939D01*
X175010000Y-125548061D01*
X174970226Y-125348102D01*
X174892205Y-125159744D01*
X174778937Y-124990226D01*
X174634774Y-124846063D01*
X174465256Y-124732795D01*
X174276898Y-124654774D01*
X174076939Y-124615000D01*
X173873061Y-124615000D01*
X173673102Y-124654774D01*
X173484744Y-124732795D01*
X173315226Y-124846063D01*
X173171063Y-124990226D01*
X173057795Y-125159744D01*
X172979774Y-125348102D01*
X172940000Y-125548061D01*
X150710000Y-125548061D01*
X150710000Y-117240000D01*
X151457815Y-117240000D01*
X151486487Y-117531111D01*
X151571401Y-117811034D01*
X151709294Y-118069014D01*
X151894866Y-118295134D01*
X152120986Y-118480706D01*
X152175791Y-118510000D01*
X152120986Y-118539294D01*
X151894866Y-118724866D01*
X151709294Y-118950986D01*
X151571401Y-119208966D01*
X151486487Y-119488889D01*
X151457815Y-119780000D01*
X151486487Y-120071111D01*
X151571401Y-120351034D01*
X151709294Y-120609014D01*
X151894866Y-120835134D01*
X152120986Y-121020706D01*
X152175791Y-121050000D01*
X152120986Y-121079294D01*
X151894866Y-121264866D01*
X151709294Y-121490986D01*
X151571401Y-121748966D01*
X151486487Y-122028889D01*
X151457815Y-122320000D01*
X151486487Y-122611111D01*
X151571401Y-122891034D01*
X151709294Y-123149014D01*
X151894866Y-123375134D01*
X152120986Y-123560706D01*
X152378966Y-123698599D01*
X152658889Y-123783513D01*
X152877050Y-123805000D01*
X153022950Y-123805000D01*
X153241111Y-123783513D01*
X153521034Y-123698599D01*
X153779014Y-123560706D01*
X154005134Y-123375134D01*
X154190706Y-123149014D01*
X154328599Y-122891034D01*
X154413513Y-122611111D01*
X154414798Y-122598061D01*
X176165000Y-122598061D01*
X176165000Y-122801939D01*
X176204774Y-123001898D01*
X176282795Y-123190256D01*
X176396063Y-123359774D01*
X176540226Y-123503937D01*
X176709744Y-123617205D01*
X176898102Y-123695226D01*
X177098061Y-123735000D01*
X177301939Y-123735000D01*
X177501898Y-123695226D01*
X177690256Y-123617205D01*
X177859774Y-123503937D01*
X178003937Y-123359774D01*
X178117205Y-123190256D01*
X178195226Y-123001898D01*
X178235000Y-122801939D01*
X178235000Y-122598061D01*
X178195226Y-122398102D01*
X178117205Y-122209744D01*
X178003937Y-122040226D01*
X177859774Y-121896063D01*
X177690256Y-121782795D01*
X177501898Y-121704774D01*
X177301939Y-121665000D01*
X177098061Y-121665000D01*
X176898102Y-121704774D01*
X176709744Y-121782795D01*
X176540226Y-121896063D01*
X176396063Y-122040226D01*
X176282795Y-122209744D01*
X176204774Y-122398102D01*
X176165000Y-122598061D01*
X154414798Y-122598061D01*
X154442185Y-122320000D01*
X154413513Y-122028889D01*
X154328599Y-121748966D01*
X154190706Y-121490986D01*
X154005134Y-121264866D01*
X153779014Y-121079294D01*
X153724209Y-121050000D01*
X153779014Y-121020706D01*
X154005134Y-120835134D01*
X154190706Y-120609014D01*
X154328599Y-120351034D01*
X154413513Y-120071111D01*
X154442185Y-119780000D01*
X154434115Y-119698061D01*
X162665000Y-119698061D01*
X162665000Y-119901939D01*
X162704774Y-120101898D01*
X162782795Y-120290256D01*
X162896063Y-120459774D01*
X163040226Y-120603937D01*
X163209744Y-120717205D01*
X163234103Y-120727295D01*
X163204774Y-120798102D01*
X163165000Y-120998061D01*
X163165000Y-121201939D01*
X163204774Y-121401898D01*
X163282795Y-121590256D01*
X163396063Y-121759774D01*
X163540226Y-121903937D01*
X163709744Y-122017205D01*
X163898102Y-122095226D01*
X164098061Y-122135000D01*
X164301939Y-122135000D01*
X164501898Y-122095226D01*
X164690256Y-122017205D01*
X164859774Y-121903937D01*
X165003937Y-121759774D01*
X165117205Y-121590256D01*
X165195226Y-121401898D01*
X165235000Y-121201939D01*
X165235000Y-120998061D01*
X165195226Y-120798102D01*
X165117205Y-120609744D01*
X165003937Y-120440226D01*
X164888711Y-120325000D01*
X181458662Y-120325000D01*
X181483955Y-120581805D01*
X181558862Y-120828741D01*
X181680505Y-121056318D01*
X181844208Y-121255792D01*
X181932648Y-121328372D01*
X181796697Y-121453773D01*
X181645527Y-121661371D01*
X181537762Y-121894472D01*
X181507090Y-121995600D01*
X181630776Y-122198000D01*
X182648000Y-122198000D01*
X182648000Y-122178000D01*
X182902000Y-122178000D01*
X182902000Y-122198000D01*
X182922000Y-122198000D01*
X182922000Y-122452000D01*
X182902000Y-122452000D01*
X182902000Y-122472000D01*
X182648000Y-122472000D01*
X182648000Y-122452000D01*
X181630776Y-122452000D01*
X181507090Y-122654400D01*
X181537762Y-122755528D01*
X181645527Y-122988629D01*
X181796697Y-123196227D01*
X181932648Y-123321628D01*
X181844208Y-123394208D01*
X181680505Y-123593682D01*
X181558862Y-123821259D01*
X181483955Y-124068195D01*
X181458662Y-124325000D01*
X181483955Y-124581805D01*
X181558862Y-124828741D01*
X181680505Y-125056318D01*
X181844208Y-125255792D01*
X181928539Y-125325000D01*
X181844208Y-125394208D01*
X181680505Y-125593682D01*
X181558862Y-125821259D01*
X181483955Y-126068195D01*
X181458662Y-126325000D01*
X181483955Y-126581805D01*
X181558862Y-126828741D01*
X181680505Y-127056318D01*
X181844208Y-127255792D01*
X181928539Y-127325000D01*
X181844208Y-127394208D01*
X181680505Y-127593682D01*
X181558862Y-127821259D01*
X181483955Y-128068195D01*
X181458662Y-128325000D01*
X181483955Y-128581805D01*
X181558862Y-128828741D01*
X181680505Y-129056318D01*
X181844208Y-129255792D01*
X181928539Y-129325000D01*
X181844208Y-129394208D01*
X181680505Y-129593682D01*
X181558862Y-129821259D01*
X181483955Y-130068195D01*
X181458662Y-130325000D01*
X181483955Y-130581805D01*
X181558862Y-130828741D01*
X181680505Y-131056318D01*
X181844208Y-131255792D01*
X182043682Y-131419495D01*
X182271259Y-131541138D01*
X182518195Y-131616045D01*
X182710649Y-131635000D01*
X182839351Y-131635000D01*
X183031805Y-131616045D01*
X183278741Y-131541138D01*
X183506318Y-131419495D01*
X183575926Y-131362369D01*
X183648815Y-131451185D01*
X183745506Y-131530537D01*
X183855820Y-131589502D01*
X183975518Y-131625812D01*
X184100000Y-131638072D01*
X185450000Y-131638072D01*
X185574482Y-131625812D01*
X185694180Y-131589502D01*
X185804494Y-131530537D01*
X185901185Y-131451185D01*
X185980537Y-131354494D01*
X186039502Y-131244180D01*
X186075812Y-131124482D01*
X186088072Y-131000000D01*
X186088072Y-129650000D01*
X186075812Y-129525518D01*
X186039502Y-129405820D01*
X185980537Y-129295506D01*
X185901185Y-129198815D01*
X185812369Y-129125926D01*
X185869495Y-129056318D01*
X185991138Y-128828741D01*
X186066045Y-128581805D01*
X186091338Y-128325000D01*
X186066045Y-128068195D01*
X185991138Y-127821259D01*
X185869495Y-127593682D01*
X185705792Y-127394208D01*
X185621461Y-127325000D01*
X185705792Y-127255792D01*
X185869495Y-127056318D01*
X185991138Y-126828741D01*
X186066045Y-126581805D01*
X186091338Y-126325000D01*
X186066045Y-126068195D01*
X185991138Y-125821259D01*
X185869495Y-125593682D01*
X185705792Y-125394208D01*
X185621461Y-125325000D01*
X185705792Y-125255792D01*
X185869495Y-125056318D01*
X185991138Y-124828741D01*
X186066045Y-124581805D01*
X186091338Y-124325000D01*
X186066045Y-124068195D01*
X185991138Y-123821259D01*
X185869495Y-123593682D01*
X185705792Y-123394208D01*
X185621461Y-123325000D01*
X185705792Y-123255792D01*
X185869495Y-123056318D01*
X185991138Y-122828741D01*
X186066045Y-122581805D01*
X186091338Y-122325000D01*
X186068987Y-122098061D01*
X186340000Y-122098061D01*
X186340000Y-122301939D01*
X186379774Y-122501898D01*
X186457795Y-122690256D01*
X186571063Y-122859774D01*
X186715226Y-123003937D01*
X186884744Y-123117205D01*
X187073102Y-123195226D01*
X187273061Y-123235000D01*
X187476939Y-123235000D01*
X187676898Y-123195226D01*
X187865256Y-123117205D01*
X188034774Y-123003937D01*
X188178937Y-122859774D01*
X188292205Y-122690256D01*
X188370226Y-122501898D01*
X188410000Y-122301939D01*
X188410000Y-122098061D01*
X188370226Y-121898102D01*
X188292205Y-121709744D01*
X188178937Y-121540226D01*
X188034774Y-121396063D01*
X187865256Y-121282795D01*
X187676898Y-121204774D01*
X187476939Y-121165000D01*
X187273061Y-121165000D01*
X187073102Y-121204774D01*
X186884744Y-121282795D01*
X186715226Y-121396063D01*
X186571063Y-121540226D01*
X186457795Y-121709744D01*
X186379774Y-121898102D01*
X186340000Y-122098061D01*
X186068987Y-122098061D01*
X186066045Y-122068195D01*
X185991138Y-121821259D01*
X185869495Y-121593682D01*
X185705792Y-121394208D01*
X185621461Y-121325000D01*
X185705792Y-121255792D01*
X185869495Y-121056318D01*
X185991138Y-120828741D01*
X186066045Y-120581805D01*
X186091338Y-120325000D01*
X186066045Y-120068195D01*
X185991138Y-119821259D01*
X185869495Y-119593682D01*
X185705792Y-119394208D01*
X185506318Y-119230505D01*
X185278741Y-119108862D01*
X185031805Y-119033955D01*
X184839351Y-119015000D01*
X184710649Y-119015000D01*
X184518195Y-119033955D01*
X184271259Y-119108862D01*
X184043682Y-119230505D01*
X183844208Y-119394208D01*
X183775000Y-119478539D01*
X183705792Y-119394208D01*
X183506318Y-119230505D01*
X183278741Y-119108862D01*
X183031805Y-119033955D01*
X182839351Y-119015000D01*
X182710649Y-119015000D01*
X182518195Y-119033955D01*
X182271259Y-119108862D01*
X182043682Y-119230505D01*
X181844208Y-119394208D01*
X181680505Y-119593682D01*
X181558862Y-119821259D01*
X181483955Y-120068195D01*
X181458662Y-120325000D01*
X164888711Y-120325000D01*
X164859774Y-120296063D01*
X164690256Y-120182795D01*
X164665897Y-120172705D01*
X164695226Y-120101898D01*
X164735000Y-119901939D01*
X164735000Y-119698061D01*
X164695226Y-119498102D01*
X164617205Y-119309744D01*
X164503937Y-119140226D01*
X164359774Y-118996063D01*
X164190256Y-118882795D01*
X164001898Y-118804774D01*
X163801939Y-118765000D01*
X163598061Y-118765000D01*
X163398102Y-118804774D01*
X163209744Y-118882795D01*
X163040226Y-118996063D01*
X162896063Y-119140226D01*
X162782795Y-119309744D01*
X162704774Y-119498102D01*
X162665000Y-119698061D01*
X154434115Y-119698061D01*
X154413513Y-119488889D01*
X154328599Y-119208966D01*
X154190706Y-118950986D01*
X154005134Y-118724866D01*
X153789697Y-118548061D01*
X177090000Y-118548061D01*
X177090000Y-118751939D01*
X177129774Y-118951898D01*
X177207795Y-119140256D01*
X177321063Y-119309774D01*
X177465226Y-119453937D01*
X177634744Y-119567205D01*
X177823102Y-119645226D01*
X178023061Y-119685000D01*
X178226939Y-119685000D01*
X178426898Y-119645226D01*
X178615256Y-119567205D01*
X178784774Y-119453937D01*
X178928937Y-119309774D01*
X179042205Y-119140256D01*
X179120226Y-118951898D01*
X179160000Y-118751939D01*
X179160000Y-118548061D01*
X179120226Y-118348102D01*
X179042205Y-118159744D01*
X178928937Y-117990226D01*
X178784774Y-117846063D01*
X178615256Y-117732795D01*
X178426898Y-117654774D01*
X178226939Y-117615000D01*
X178023061Y-117615000D01*
X177823102Y-117654774D01*
X177634744Y-117732795D01*
X177465226Y-117846063D01*
X177321063Y-117990226D01*
X177207795Y-118159744D01*
X177129774Y-118348102D01*
X177090000Y-118548061D01*
X153789697Y-118548061D01*
X153779014Y-118539294D01*
X153724209Y-118510000D01*
X153779014Y-118480706D01*
X154005134Y-118295134D01*
X154190706Y-118069014D01*
X154328599Y-117811034D01*
X154413513Y-117531111D01*
X154442185Y-117240000D01*
X154413513Y-116948889D01*
X154328599Y-116668966D01*
X154190706Y-116410986D01*
X154098031Y-116298061D01*
X175890000Y-116298061D01*
X175890000Y-116501939D01*
X175929774Y-116701898D01*
X176007795Y-116890256D01*
X176121063Y-117059774D01*
X176265226Y-117203937D01*
X176434744Y-117317205D01*
X176623102Y-117395226D01*
X176823061Y-117435000D01*
X177026939Y-117435000D01*
X177226898Y-117395226D01*
X177340763Y-117348061D01*
X179665000Y-117348061D01*
X179665000Y-117551939D01*
X179704774Y-117751898D01*
X179782795Y-117940256D01*
X179896063Y-118109774D01*
X180040226Y-118253937D01*
X180209744Y-118367205D01*
X180398102Y-118445226D01*
X180598061Y-118485000D01*
X180801939Y-118485000D01*
X181001898Y-118445226D01*
X181190256Y-118367205D01*
X181359774Y-118253937D01*
X181503937Y-118109774D01*
X181617205Y-117940256D01*
X181695226Y-117751898D01*
X181735000Y-117551939D01*
X181735000Y-117348061D01*
X181695226Y-117148102D01*
X181617205Y-116959744D01*
X181503937Y-116790226D01*
X181359774Y-116646063D01*
X181190256Y-116532795D01*
X181001898Y-116454774D01*
X180801939Y-116415000D01*
X180598061Y-116415000D01*
X180398102Y-116454774D01*
X180209744Y-116532795D01*
X180040226Y-116646063D01*
X179896063Y-116790226D01*
X179782795Y-116959744D01*
X179704774Y-117148102D01*
X179665000Y-117348061D01*
X177340763Y-117348061D01*
X177415256Y-117317205D01*
X177584774Y-117203937D01*
X177728937Y-117059774D01*
X177842205Y-116890256D01*
X177920226Y-116701898D01*
X177960000Y-116501939D01*
X177960000Y-116298061D01*
X177920226Y-116098102D01*
X177842205Y-115909744D01*
X177728937Y-115740226D01*
X177584774Y-115596063D01*
X177415256Y-115482795D01*
X177226898Y-115404774D01*
X177026939Y-115365000D01*
X176823061Y-115365000D01*
X176623102Y-115404774D01*
X176434744Y-115482795D01*
X176265226Y-115596063D01*
X176121063Y-115740226D01*
X176007795Y-115909744D01*
X175929774Y-116098102D01*
X175890000Y-116298061D01*
X154098031Y-116298061D01*
X154005134Y-116184866D01*
X153975313Y-116160393D01*
X154044180Y-116139502D01*
X154154494Y-116080537D01*
X154251185Y-116001185D01*
X154330537Y-115904494D01*
X154389502Y-115794180D01*
X154425812Y-115674482D01*
X154438072Y-115550000D01*
X154438072Y-114223061D01*
X164815000Y-114223061D01*
X164815000Y-114426939D01*
X164854774Y-114626898D01*
X164932795Y-114815256D01*
X165046063Y-114984774D01*
X165190226Y-115128937D01*
X165359744Y-115242205D01*
X165548102Y-115320226D01*
X165748061Y-115360000D01*
X165951939Y-115360000D01*
X166151898Y-115320226D01*
X166340256Y-115242205D01*
X166509774Y-115128937D01*
X166653937Y-114984774D01*
X166767205Y-114815256D01*
X166845226Y-114626898D01*
X166885000Y-114426939D01*
X166885000Y-114223061D01*
X166845226Y-114023102D01*
X166767205Y-113834744D01*
X166653937Y-113665226D01*
X166509774Y-113521063D01*
X166340256Y-113407795D01*
X166151898Y-113329774D01*
X165951939Y-113290000D01*
X165748061Y-113290000D01*
X165548102Y-113329774D01*
X165359744Y-113407795D01*
X165190226Y-113521063D01*
X165046063Y-113665226D01*
X164932795Y-113834744D01*
X164854774Y-114023102D01*
X164815000Y-114223061D01*
X154438072Y-114223061D01*
X154438072Y-113850000D01*
X154425812Y-113725518D01*
X154389502Y-113605820D01*
X154330537Y-113495506D01*
X154251185Y-113398815D01*
X154154494Y-113319463D01*
X154044180Y-113260498D01*
X153924482Y-113224188D01*
X153800000Y-113211928D01*
X152100000Y-113211928D01*
X151975518Y-113224188D01*
X151855820Y-113260498D01*
X151745506Y-113319463D01*
X151648815Y-113398815D01*
X151569463Y-113495506D01*
X151510498Y-113605820D01*
X151474188Y-113725518D01*
X151461928Y-113850000D01*
X151461928Y-115550000D01*
X151474188Y-115674482D01*
X151510498Y-115794180D01*
X151569463Y-115904494D01*
X151648815Y-116001185D01*
X151745506Y-116080537D01*
X151855820Y-116139502D01*
X151924687Y-116160393D01*
X151894866Y-116184866D01*
X151709294Y-116410986D01*
X151571401Y-116668966D01*
X151486487Y-116948889D01*
X151457815Y-117240000D01*
X150710000Y-117240000D01*
X150710000Y-112673061D01*
X166525000Y-112673061D01*
X166525000Y-112876939D01*
X166564774Y-113076898D01*
X166642795Y-113265256D01*
X166756063Y-113434774D01*
X166900226Y-113578937D01*
X167069744Y-113692205D01*
X167258102Y-113770226D01*
X167458061Y-113810000D01*
X167661939Y-113810000D01*
X167861898Y-113770226D01*
X168050256Y-113692205D01*
X168219774Y-113578937D01*
X168363937Y-113434774D01*
X168477205Y-113265256D01*
X168505038Y-113198061D01*
X169890000Y-113198061D01*
X169890000Y-113401939D01*
X169929774Y-113601898D01*
X170007795Y-113790256D01*
X170121063Y-113959774D01*
X170265226Y-114103937D01*
X170434744Y-114217205D01*
X170623102Y-114295226D01*
X170823061Y-114335000D01*
X171026939Y-114335000D01*
X171226898Y-114295226D01*
X171415256Y-114217205D01*
X171584774Y-114103937D01*
X171728937Y-113959774D01*
X171842205Y-113790256D01*
X171920226Y-113601898D01*
X171960000Y-113401939D01*
X171960000Y-113198061D01*
X171920226Y-112998102D01*
X171842205Y-112809744D01*
X171728937Y-112640226D01*
X171584774Y-112496063D01*
X171415256Y-112382795D01*
X171226898Y-112304774D01*
X171026939Y-112265000D01*
X170823061Y-112265000D01*
X170623102Y-112304774D01*
X170434744Y-112382795D01*
X170265226Y-112496063D01*
X170121063Y-112640226D01*
X170007795Y-112809744D01*
X169929774Y-112998102D01*
X169890000Y-113198061D01*
X168505038Y-113198061D01*
X168555226Y-113076898D01*
X168555280Y-113076627D01*
X168723061Y-113110000D01*
X168926939Y-113110000D01*
X169126898Y-113070226D01*
X169315256Y-112992205D01*
X169484774Y-112878937D01*
X169628937Y-112734774D01*
X169742205Y-112565256D01*
X169820226Y-112376898D01*
X169860000Y-112176939D01*
X169860000Y-111973061D01*
X169820226Y-111773102D01*
X169742205Y-111584744D01*
X169628937Y-111415226D01*
X169484774Y-111271063D01*
X169315256Y-111157795D01*
X169171047Y-111098061D01*
X175290000Y-111098061D01*
X175290000Y-111301939D01*
X175329774Y-111501898D01*
X175407795Y-111690256D01*
X175521063Y-111859774D01*
X175665226Y-112003937D01*
X175834744Y-112117205D01*
X176023102Y-112195226D01*
X176223061Y-112235000D01*
X176340000Y-112235000D01*
X176340000Y-112426939D01*
X176379774Y-112626898D01*
X176457795Y-112815256D01*
X176571063Y-112984774D01*
X176715226Y-113128937D01*
X176884744Y-113242205D01*
X177073102Y-113320226D01*
X177273061Y-113360000D01*
X177476939Y-113360000D01*
X177676898Y-113320226D01*
X177865256Y-113242205D01*
X178034774Y-113128937D01*
X178040650Y-113123061D01*
X179840000Y-113123061D01*
X179840000Y-113326939D01*
X179879774Y-113526898D01*
X179957795Y-113715256D01*
X180071063Y-113884774D01*
X180161289Y-113975000D01*
X180071063Y-114065226D01*
X179957795Y-114234744D01*
X179879774Y-114423102D01*
X179840000Y-114623061D01*
X179840000Y-114826939D01*
X179879774Y-115026898D01*
X179957795Y-115215256D01*
X180071063Y-115384774D01*
X180215226Y-115528937D01*
X180384744Y-115642205D01*
X180573102Y-115720226D01*
X180773061Y-115760000D01*
X180976939Y-115760000D01*
X181176898Y-115720226D01*
X181365256Y-115642205D01*
X181534774Y-115528937D01*
X181678937Y-115384774D01*
X181792205Y-115215256D01*
X181870226Y-115026898D01*
X181905798Y-114848061D01*
X184165000Y-114848061D01*
X184165000Y-115051939D01*
X184204774Y-115251898D01*
X184282795Y-115440256D01*
X184396063Y-115609774D01*
X184540226Y-115753937D01*
X184709744Y-115867205D01*
X184898102Y-115945226D01*
X185098061Y-115985000D01*
X185301939Y-115985000D01*
X185501898Y-115945226D01*
X185690256Y-115867205D01*
X185859774Y-115753937D01*
X186003937Y-115609774D01*
X186117205Y-115440256D01*
X186195226Y-115251898D01*
X186235000Y-115051939D01*
X186235000Y-114848061D01*
X186195226Y-114648102D01*
X186117205Y-114459744D01*
X186003937Y-114290226D01*
X185859774Y-114146063D01*
X185690256Y-114032795D01*
X185501898Y-113954774D01*
X185301939Y-113915000D01*
X185098061Y-113915000D01*
X184898102Y-113954774D01*
X184709744Y-114032795D01*
X184540226Y-114146063D01*
X184396063Y-114290226D01*
X184282795Y-114459744D01*
X184204774Y-114648102D01*
X184165000Y-114848061D01*
X181905798Y-114848061D01*
X181910000Y-114826939D01*
X181910000Y-114623061D01*
X181870226Y-114423102D01*
X181792205Y-114234744D01*
X181678937Y-114065226D01*
X181588711Y-113975000D01*
X181678937Y-113884774D01*
X181792205Y-113715256D01*
X181870226Y-113526898D01*
X181910000Y-113326939D01*
X181910000Y-113123061D01*
X181870226Y-112923102D01*
X181792205Y-112734744D01*
X181678937Y-112565226D01*
X181534774Y-112421063D01*
X181365256Y-112307795D01*
X181176898Y-112229774D01*
X180976939Y-112190000D01*
X180773061Y-112190000D01*
X180573102Y-112229774D01*
X180384744Y-112307795D01*
X180215226Y-112421063D01*
X180071063Y-112565226D01*
X179957795Y-112734744D01*
X179879774Y-112923102D01*
X179840000Y-113123061D01*
X178040650Y-113123061D01*
X178178937Y-112984774D01*
X178292205Y-112815256D01*
X178370226Y-112626898D01*
X178410000Y-112426939D01*
X178410000Y-112223061D01*
X178370226Y-112023102D01*
X178292205Y-111834744D01*
X178178937Y-111665226D01*
X178136772Y-111623061D01*
X184990000Y-111623061D01*
X184990000Y-111826939D01*
X185029774Y-112026898D01*
X185107795Y-112215256D01*
X185221063Y-112384774D01*
X185365226Y-112528937D01*
X185534744Y-112642205D01*
X185723102Y-112720226D01*
X185923061Y-112760000D01*
X186126939Y-112760000D01*
X186326898Y-112720226D01*
X186515256Y-112642205D01*
X186684774Y-112528937D01*
X186828937Y-112384774D01*
X186942205Y-112215256D01*
X187020226Y-112026898D01*
X187060000Y-111826939D01*
X187060000Y-111623061D01*
X187020226Y-111423102D01*
X186942205Y-111234744D01*
X186828937Y-111065226D01*
X186684774Y-110921063D01*
X186515256Y-110807795D01*
X186326898Y-110729774D01*
X186126939Y-110690000D01*
X185923061Y-110690000D01*
X185723102Y-110729774D01*
X185534744Y-110807795D01*
X185365226Y-110921063D01*
X185221063Y-111065226D01*
X185107795Y-111234744D01*
X185029774Y-111423102D01*
X184990000Y-111623061D01*
X178136772Y-111623061D01*
X178034774Y-111521063D01*
X177865256Y-111407795D01*
X177676898Y-111329774D01*
X177476939Y-111290000D01*
X177360000Y-111290000D01*
X177360000Y-111098061D01*
X177320226Y-110898102D01*
X177242205Y-110709744D01*
X177128937Y-110540226D01*
X176984774Y-110396063D01*
X176815256Y-110282795D01*
X176626898Y-110204774D01*
X176426939Y-110165000D01*
X176223061Y-110165000D01*
X176023102Y-110204774D01*
X175834744Y-110282795D01*
X175665226Y-110396063D01*
X175521063Y-110540226D01*
X175407795Y-110709744D01*
X175329774Y-110898102D01*
X175290000Y-111098061D01*
X169171047Y-111098061D01*
X169126898Y-111079774D01*
X168926939Y-111040000D01*
X168723061Y-111040000D01*
X168523102Y-111079774D01*
X168334744Y-111157795D01*
X168165226Y-111271063D01*
X168021063Y-111415226D01*
X167907795Y-111584744D01*
X167829774Y-111773102D01*
X167829720Y-111773373D01*
X167661939Y-111740000D01*
X167458061Y-111740000D01*
X167258102Y-111779774D01*
X167069744Y-111857795D01*
X166900226Y-111971063D01*
X166756063Y-112115226D01*
X166642795Y-112284744D01*
X166564774Y-112473102D01*
X166525000Y-112673061D01*
X150710000Y-112673061D01*
X150710000Y-108848061D01*
X177940000Y-108848061D01*
X177940000Y-109051939D01*
X177979774Y-109251898D01*
X178057795Y-109440256D01*
X178171063Y-109609774D01*
X178315226Y-109753937D01*
X178484744Y-109867205D01*
X178673102Y-109945226D01*
X178873061Y-109985000D01*
X179076939Y-109985000D01*
X179276898Y-109945226D01*
X179465256Y-109867205D01*
X179634774Y-109753937D01*
X179778937Y-109609774D01*
X179892205Y-109440256D01*
X179970226Y-109251898D01*
X180010000Y-109051939D01*
X180010000Y-108848061D01*
X179970226Y-108648102D01*
X179892205Y-108459744D01*
X179778937Y-108290226D01*
X179634774Y-108146063D01*
X179465256Y-108032795D01*
X179276898Y-107954774D01*
X179076939Y-107915000D01*
X178873061Y-107915000D01*
X178673102Y-107954774D01*
X178484744Y-108032795D01*
X178315226Y-108146063D01*
X178171063Y-108290226D01*
X178057795Y-108459744D01*
X177979774Y-108648102D01*
X177940000Y-108848061D01*
X150710000Y-108848061D01*
X150710000Y-107648061D01*
X162415000Y-107648061D01*
X162415000Y-107851939D01*
X162454774Y-108051898D01*
X162532795Y-108240256D01*
X162646063Y-108409774D01*
X162790226Y-108553937D01*
X162959744Y-108667205D01*
X163148102Y-108745226D01*
X163348061Y-108785000D01*
X163551939Y-108785000D01*
X163751898Y-108745226D01*
X163940256Y-108667205D01*
X164109774Y-108553937D01*
X164253937Y-108409774D01*
X164367205Y-108240256D01*
X164445226Y-108051898D01*
X164485000Y-107851939D01*
X164485000Y-107648061D01*
X164445226Y-107448102D01*
X164367205Y-107259744D01*
X164253937Y-107090226D01*
X164109774Y-106946063D01*
X163940256Y-106832795D01*
X163751898Y-106754774D01*
X163551939Y-106715000D01*
X163348061Y-106715000D01*
X163148102Y-106754774D01*
X162959744Y-106832795D01*
X162790226Y-106946063D01*
X162646063Y-107090226D01*
X162532795Y-107259744D01*
X162454774Y-107448102D01*
X162415000Y-107648061D01*
X150710000Y-107648061D01*
X150710000Y-104226316D01*
X150997912Y-104657207D01*
X151392793Y-105052088D01*
X151857124Y-105362344D01*
X152373061Y-105576052D01*
X152920777Y-105685000D01*
X153479223Y-105685000D01*
X154026939Y-105576052D01*
X154542876Y-105362344D01*
X155007207Y-105052088D01*
X155402088Y-104657207D01*
X155575243Y-104398061D01*
X165140000Y-104398061D01*
X165140000Y-104601939D01*
X165179774Y-104801898D01*
X165257795Y-104990256D01*
X165371063Y-105159774D01*
X165515226Y-105303937D01*
X165684744Y-105417205D01*
X165873102Y-105495226D01*
X166073061Y-105535000D01*
X166276939Y-105535000D01*
X166476898Y-105495226D01*
X166665256Y-105417205D01*
X166834774Y-105303937D01*
X166865650Y-105273061D01*
X173340000Y-105273061D01*
X173340000Y-105476939D01*
X173379774Y-105676898D01*
X173457795Y-105865256D01*
X173571063Y-106034774D01*
X173715226Y-106178937D01*
X173884744Y-106292205D01*
X174073102Y-106370226D01*
X174273061Y-106410000D01*
X174476939Y-106410000D01*
X174676898Y-106370226D01*
X174865256Y-106292205D01*
X175034774Y-106178937D01*
X175178937Y-106034774D01*
X175292205Y-105865256D01*
X175370226Y-105676898D01*
X175383402Y-105610657D01*
X175457795Y-105790256D01*
X175571063Y-105959774D01*
X175715226Y-106103937D01*
X175884744Y-106217205D01*
X176073102Y-106295226D01*
X176273061Y-106335000D01*
X176476939Y-106335000D01*
X176676898Y-106295226D01*
X176865256Y-106217205D01*
X177034774Y-106103937D01*
X177178937Y-105959774D01*
X177292205Y-105790256D01*
X177370226Y-105601898D01*
X177410000Y-105401939D01*
X177410000Y-105198061D01*
X177370226Y-104998102D01*
X177292205Y-104809744D01*
X177178937Y-104640226D01*
X177034774Y-104496063D01*
X176865256Y-104382795D01*
X176676898Y-104304774D01*
X176476939Y-104265000D01*
X176273061Y-104265000D01*
X176073102Y-104304774D01*
X175884744Y-104382795D01*
X175715226Y-104496063D01*
X175571063Y-104640226D01*
X175457795Y-104809744D01*
X175379774Y-104998102D01*
X175366598Y-105064343D01*
X175292205Y-104884744D01*
X175178937Y-104715226D01*
X175034774Y-104571063D01*
X174865256Y-104457795D01*
X174676898Y-104379774D01*
X174476939Y-104340000D01*
X174273061Y-104340000D01*
X174073102Y-104379774D01*
X173884744Y-104457795D01*
X173715226Y-104571063D01*
X173571063Y-104715226D01*
X173457795Y-104884744D01*
X173379774Y-105073102D01*
X173340000Y-105273061D01*
X166865650Y-105273061D01*
X166978937Y-105159774D01*
X167092205Y-104990256D01*
X167170226Y-104801898D01*
X167210000Y-104601939D01*
X167210000Y-104398061D01*
X167175191Y-104223061D01*
X177490000Y-104223061D01*
X177490000Y-104426939D01*
X177529774Y-104626898D01*
X177607795Y-104815256D01*
X177721063Y-104984774D01*
X177865226Y-105128937D01*
X178034744Y-105242205D01*
X178223102Y-105320226D01*
X178423061Y-105360000D01*
X178626939Y-105360000D01*
X178826898Y-105320226D01*
X179015256Y-105242205D01*
X179184774Y-105128937D01*
X179328937Y-104984774D01*
X179442205Y-104815256D01*
X179520226Y-104626898D01*
X179560000Y-104426939D01*
X179560000Y-104223061D01*
X179520226Y-104023102D01*
X179442205Y-103834744D01*
X179328937Y-103665226D01*
X179184774Y-103521063D01*
X179015256Y-103407795D01*
X178826898Y-103329774D01*
X178626939Y-103290000D01*
X178423061Y-103290000D01*
X178223102Y-103329774D01*
X178034744Y-103407795D01*
X177865226Y-103521063D01*
X177721063Y-103665226D01*
X177607795Y-103834744D01*
X177529774Y-104023102D01*
X177490000Y-104223061D01*
X167175191Y-104223061D01*
X167170226Y-104198102D01*
X167092205Y-104009744D01*
X166978937Y-103840226D01*
X166834774Y-103696063D01*
X166665256Y-103582795D01*
X166476898Y-103504774D01*
X166276939Y-103465000D01*
X166073061Y-103465000D01*
X165873102Y-103504774D01*
X165684744Y-103582795D01*
X165515226Y-103696063D01*
X165371063Y-103840226D01*
X165257795Y-104009744D01*
X165179774Y-104198102D01*
X165140000Y-104398061D01*
X155575243Y-104398061D01*
X155712344Y-104192876D01*
X155926052Y-103676939D01*
X156035000Y-103129223D01*
X156035000Y-102570777D01*
X155926052Y-102023061D01*
X155712344Y-101507124D01*
X155402088Y-101042793D01*
X155019295Y-100660000D01*
X172135485Y-100660000D01*
X171959744Y-100732795D01*
X171959744Y-100732795D01*
G37*
X171959744Y-100732795D02*
X171790226Y-100846063D01*
X171646063Y-100990226D01*
X171532795Y-101159744D01*
X171454774Y-101348102D01*
X171415000Y-101548061D01*
X171415000Y-101551289D01*
X171359774Y-101496063D01*
X171190256Y-101382795D01*
X171001898Y-101304774D01*
X170801939Y-101265000D01*
X170598061Y-101265000D01*
X170398102Y-101304774D01*
X170209744Y-101382795D01*
X170040226Y-101496063D01*
X169896063Y-101640226D01*
X169782795Y-101809744D01*
X169704774Y-101998102D01*
X169665000Y-102198061D01*
X169665000Y-102401939D01*
X169704774Y-102601898D01*
X169782795Y-102790256D01*
X169896063Y-102959774D01*
X170040226Y-103103937D01*
X170209744Y-103217205D01*
X170398102Y-103295226D01*
X170598061Y-103335000D01*
X170801939Y-103335000D01*
X171001898Y-103295226D01*
X171190256Y-103217205D01*
X171359774Y-103103937D01*
X171503937Y-102959774D01*
X171617205Y-102790256D01*
X171695226Y-102601898D01*
X171735000Y-102401939D01*
X171735000Y-102398711D01*
X171790226Y-102453937D01*
X171959744Y-102567205D01*
X172148102Y-102645226D01*
X172348061Y-102685000D01*
X172551939Y-102685000D01*
X172751898Y-102645226D01*
X172940256Y-102567205D01*
X173109774Y-102453937D01*
X173253937Y-102309774D01*
X173367205Y-102140256D01*
X173445226Y-101951898D01*
X173485000Y-101751939D01*
X173485000Y-101548061D01*
X173445226Y-101348102D01*
X173367205Y-101159744D01*
X173253937Y-100990226D01*
X173109774Y-100846063D01*
X172940256Y-100732795D01*
X172764515Y-100660000D01*
X185030705Y-100660000D01*
X184647912Y-101042793D01*
X184337656Y-101507124D01*
X184123948Y-102023061D01*
X184015000Y-102570777D01*
X184015000Y-103129223D01*
X184123948Y-103676939D01*
X184337656Y-104192876D01*
X184647912Y-104657207D01*
X185042793Y-105052088D01*
X185507124Y-105362344D01*
X186023061Y-105576052D01*
X186570777Y-105685000D01*
X187129223Y-105685000D01*
X187676939Y-105576052D01*
X188192876Y-105362344D01*
X188657207Y-105052088D01*
X189052088Y-104657207D01*
X189190001Y-104450806D01*
X189190000Y-135399193D01*
X189052088Y-135192793D01*
X188657207Y-134797912D01*
X188192876Y-134487656D01*
X187676939Y-134273948D01*
X187129223Y-134165000D01*
X186570777Y-134165000D01*
X186023061Y-134273948D01*
X185507124Y-134487656D01*
X185042793Y-134797912D01*
X184647912Y-135192793D01*
X184337656Y-135657124D01*
X184123948Y-136173061D01*
X184015000Y-136720777D01*
X184015000Y-137279223D01*
X184123948Y-137826939D01*
X184337656Y-138342876D01*
X184647912Y-138807207D01*
X185030705Y-139190000D01*
X155019295Y-139190000D01*
X155402088Y-138807207D01*
X155712344Y-138342876D01*
X155926052Y-137826939D01*
X156035000Y-137279223D01*
X156035000Y-136739335D01*
X165215000Y-136739335D01*
X165215000Y-137560664D01*
X165232870Y-137742101D01*
X165303489Y-137974900D01*
X165418167Y-138189448D01*
X165572498Y-138377502D01*
X165760551Y-138531833D01*
X165975099Y-138646511D01*
X166207898Y-138717130D01*
X166450000Y-138740975D01*
X166692101Y-138717130D01*
X166924900Y-138646511D01*
X167139448Y-138531833D01*
X167327502Y-138377502D01*
X167481833Y-138189449D01*
X167596511Y-137974901D01*
X167667130Y-137742102D01*
X167685000Y-137560665D01*
X167685000Y-136739336D01*
X167667130Y-136557899D01*
X167596511Y-136325099D01*
X167481833Y-136110551D01*
X167327502Y-135922498D01*
X167150232Y-135777016D01*
X167316052Y-135810000D01*
X167583948Y-135810000D01*
X167846697Y-135757736D01*
X168094201Y-135655216D01*
X168316949Y-135506381D01*
X168506381Y-135316949D01*
X168655216Y-135094201D01*
X168757736Y-134846697D01*
X168810000Y-134583948D01*
X168810000Y-134316052D01*
X168757736Y-134053303D01*
X168655216Y-133805799D01*
X168506381Y-133583051D01*
X168316949Y-133393619D01*
X168094201Y-133244784D01*
X167846697Y-133142264D01*
X167583948Y-133090000D01*
X167316052Y-133090000D01*
X167053303Y-133142264D01*
X166805799Y-133244784D01*
X166583051Y-133393619D01*
X166393619Y-133583051D01*
X166244784Y-133805799D01*
X166142264Y-134053303D01*
X166090000Y-134316052D01*
X166090000Y-134583948D01*
X166142264Y-134846697D01*
X166244784Y-135094201D01*
X166393619Y-135316949D01*
X166583051Y-135506381D01*
X166702035Y-135585883D01*
X166692102Y-135582870D01*
X166450000Y-135559025D01*
X166207899Y-135582870D01*
X165975100Y-135653489D01*
X165760552Y-135768167D01*
X165572499Y-135922498D01*
X165418168Y-136110551D01*
X165303489Y-136325099D01*
X165232870Y-136557898D01*
X165215000Y-136739335D01*
X156035000Y-136739335D01*
X156035000Y-136720777D01*
X155926052Y-136173061D01*
X155712344Y-135657124D01*
X155402088Y-135192793D01*
X155032356Y-134823061D01*
X162440000Y-134823061D01*
X162440000Y-135026939D01*
X162479774Y-135226898D01*
X162557795Y-135415256D01*
X162671063Y-135584774D01*
X162815226Y-135728937D01*
X162984744Y-135842205D01*
X163173102Y-135920226D01*
X163373061Y-135960000D01*
X163576939Y-135960000D01*
X163776898Y-135920226D01*
X163965256Y-135842205D01*
X164134774Y-135728937D01*
X164278937Y-135584774D01*
X164392205Y-135415256D01*
X164470226Y-135226898D01*
X164510000Y-135026939D01*
X164510000Y-134823061D01*
X164470226Y-134623102D01*
X164392205Y-134434744D01*
X164278937Y-134265226D01*
X164134774Y-134121063D01*
X163965256Y-134007795D01*
X163776898Y-133929774D01*
X163576939Y-133890000D01*
X163373061Y-133890000D01*
X163173102Y-133929774D01*
X162984744Y-134007795D01*
X162815226Y-134121063D01*
X162671063Y-134265226D01*
X162557795Y-134434744D01*
X162479774Y-134623102D01*
X162440000Y-134823061D01*
X155032356Y-134823061D01*
X155007207Y-134797912D01*
X154542876Y-134487656D01*
X154026939Y-134273948D01*
X153479223Y-134165000D01*
X152920777Y-134165000D01*
X152373061Y-134273948D01*
X151857124Y-134487656D01*
X151392793Y-134797912D01*
X150997912Y-135192793D01*
X150710000Y-135623684D01*
X150710000Y-132973061D01*
X155390000Y-132973061D01*
X155390000Y-133176939D01*
X155429774Y-133376898D01*
X155507795Y-133565256D01*
X155621063Y-133734774D01*
X155765226Y-133878937D01*
X155934744Y-133992205D01*
X156123102Y-134070226D01*
X156323061Y-134110000D01*
X156526939Y-134110000D01*
X156726898Y-134070226D01*
X156915256Y-133992205D01*
X157084774Y-133878937D01*
X157122646Y-133841065D01*
X157129774Y-133876898D01*
X157207795Y-134065256D01*
X157321063Y-134234774D01*
X157465226Y-134378937D01*
X157634744Y-134492205D01*
X157823102Y-134570226D01*
X158023061Y-134610000D01*
X158226939Y-134610000D01*
X158426898Y-134570226D01*
X158615256Y-134492205D01*
X158784774Y-134378937D01*
X158928937Y-134234774D01*
X159042205Y-134065256D01*
X159120226Y-133876898D01*
X159160000Y-133676939D01*
X159160000Y-133473061D01*
X159155028Y-133448061D01*
X159890000Y-133448061D01*
X159890000Y-133651939D01*
X159929774Y-133851898D01*
X160007795Y-134040256D01*
X160121063Y-134209774D01*
X160265226Y-134353937D01*
X160434744Y-134467205D01*
X160623102Y-134545226D01*
X160823061Y-134585000D01*
X161026939Y-134585000D01*
X161226898Y-134545226D01*
X161415256Y-134467205D01*
X161584774Y-134353937D01*
X161728937Y-134209774D01*
X161842205Y-134040256D01*
X161920226Y-133851898D01*
X161960000Y-133651939D01*
X161960000Y-133448061D01*
X161920226Y-133248102D01*
X161842205Y-133059744D01*
X161728937Y-132890226D01*
X161584774Y-132746063D01*
X161415256Y-132632795D01*
X161226898Y-132554774D01*
X161026939Y-132515000D01*
X160823061Y-132515000D01*
X160623102Y-132554774D01*
X160434744Y-132632795D01*
X160265226Y-132746063D01*
X160121063Y-132890226D01*
X160007795Y-133059744D01*
X159929774Y-133248102D01*
X159890000Y-133448061D01*
X159155028Y-133448061D01*
X159120226Y-133273102D01*
X159042205Y-133084744D01*
X158928937Y-132915226D01*
X158784774Y-132771063D01*
X158615256Y-132657795D01*
X158426898Y-132579774D01*
X158226939Y-132540000D01*
X158023061Y-132540000D01*
X157823102Y-132579774D01*
X157634744Y-132657795D01*
X157465226Y-132771063D01*
X157427354Y-132808935D01*
X157420226Y-132773102D01*
X157342205Y-132584744D01*
X157228937Y-132415226D01*
X157186772Y-132373061D01*
X168665000Y-132373061D01*
X168665000Y-132576939D01*
X168704774Y-132776898D01*
X168782795Y-132965256D01*
X168896063Y-133134774D01*
X169040226Y-133278937D01*
X169209744Y-133392205D01*
X169398102Y-133470226D01*
X169598061Y-133510000D01*
X169801939Y-133510000D01*
X170001898Y-133470226D01*
X170190256Y-133392205D01*
X170359774Y-133278937D01*
X170503937Y-133134774D01*
X170617205Y-132965256D01*
X170695226Y-132776898D01*
X170715880Y-132673061D01*
X170915000Y-132673061D01*
X170915000Y-132876939D01*
X170954774Y-133076898D01*
X171032795Y-133265256D01*
X171146063Y-133434774D01*
X171290226Y-133578937D01*
X171363606Y-133627968D01*
X171244784Y-133805799D01*
X171142264Y-134053303D01*
X171090000Y-134316052D01*
X171090000Y-134583948D01*
X171142264Y-134846697D01*
X171244784Y-135094201D01*
X171393619Y-135316949D01*
X171583051Y-135506381D01*
X171805799Y-135655216D01*
X172053303Y-135757736D01*
X172316052Y-135810000D01*
X172583948Y-135810000D01*
X172749768Y-135777016D01*
X172572498Y-135922498D01*
X172418167Y-136110552D01*
X172303489Y-136325100D01*
X172232870Y-136557899D01*
X172215000Y-136739336D01*
X172215000Y-137560665D01*
X172232870Y-137742102D01*
X172303489Y-137974901D01*
X172418168Y-138189449D01*
X172572499Y-138377502D01*
X172760552Y-138531833D01*
X172975100Y-138646511D01*
X173207899Y-138717130D01*
X173450000Y-138740975D01*
X173692102Y-138717130D01*
X173924901Y-138646511D01*
X174139449Y-138531833D01*
X174327502Y-138377502D01*
X174481833Y-138189449D01*
X174596511Y-137974901D01*
X174667130Y-137742101D01*
X174685000Y-137560664D01*
X174685000Y-136739335D01*
X174667130Y-136557898D01*
X174596511Y-136325099D01*
X174481833Y-136110551D01*
X174327502Y-135922498D01*
X174139448Y-135768167D01*
X173924900Y-135653489D01*
X173692101Y-135582870D01*
X173450000Y-135559025D01*
X173207898Y-135582870D01*
X173197965Y-135585883D01*
X173316949Y-135506381D01*
X173506381Y-135316949D01*
X173655216Y-135094201D01*
X173757736Y-134846697D01*
X173810000Y-134583948D01*
X173810000Y-134316052D01*
X173757736Y-134053303D01*
X173655216Y-133805799D01*
X173506381Y-133583051D01*
X173316949Y-133393619D01*
X173094201Y-133244784D01*
X172907686Y-133167527D01*
X172945226Y-133076898D01*
X172985000Y-132876939D01*
X172985000Y-132673061D01*
X172945226Y-132473102D01*
X172867205Y-132284744D01*
X172753937Y-132115226D01*
X172609774Y-131971063D01*
X172440256Y-131857795D01*
X172356402Y-131823061D01*
X177790000Y-131823061D01*
X177790000Y-132026939D01*
X177829774Y-132226898D01*
X177907795Y-132415256D01*
X178021063Y-132584774D01*
X178165226Y-132728937D01*
X178334744Y-132842205D01*
X178523102Y-132920226D01*
X178723061Y-132960000D01*
X178926939Y-132960000D01*
X179126898Y-132920226D01*
X179315256Y-132842205D01*
X179484774Y-132728937D01*
X179628937Y-132584774D01*
X179742205Y-132415256D01*
X179820226Y-132226898D01*
X179860000Y-132026939D01*
X179860000Y-131823061D01*
X179820226Y-131623102D01*
X179742205Y-131434744D01*
X179628937Y-131265226D01*
X179484774Y-131121063D01*
X179315256Y-131007795D01*
X179126898Y-130929774D01*
X178926939Y-130890000D01*
X178723061Y-130890000D01*
X178523102Y-130929774D01*
X178334744Y-131007795D01*
X178165226Y-131121063D01*
X178021063Y-131265226D01*
X177907795Y-131434744D01*
X177829774Y-131623102D01*
X177790000Y-131823061D01*
X172356402Y-131823061D01*
X172251898Y-131779774D01*
X172051939Y-131740000D01*
X171848061Y-131740000D01*
X171648102Y-131779774D01*
X171459744Y-131857795D01*
X171290226Y-131971063D01*
X171146063Y-132115226D01*
X171032795Y-132284744D01*
X170954774Y-132473102D01*
X170915000Y-132673061D01*
X170715880Y-132673061D01*
X170735000Y-132576939D01*
X170735000Y-132373061D01*
X170695226Y-132173102D01*
X170617205Y-131984744D01*
X170503937Y-131815226D01*
X170359774Y-131671063D01*
X170190256Y-131557795D01*
X170001898Y-131479774D01*
X169801939Y-131440000D01*
X169598061Y-131440000D01*
X169398102Y-131479774D01*
X169209744Y-131557795D01*
X169040226Y-131671063D01*
X168896063Y-131815226D01*
X168782795Y-131984744D01*
X168704774Y-132173102D01*
X168665000Y-132373061D01*
X157186772Y-132373061D01*
X157084774Y-132271063D01*
X156915256Y-132157795D01*
X156726898Y-132079774D01*
X156526939Y-132040000D01*
X156323061Y-132040000D01*
X156123102Y-132079774D01*
X155934744Y-132157795D01*
X155765226Y-132271063D01*
X155621063Y-132415226D01*
X155507795Y-132584744D01*
X155429774Y-132773102D01*
X155390000Y-132973061D01*
X150710000Y-132973061D01*
X150710000Y-130848061D01*
X162690000Y-130848061D01*
X162690000Y-131051939D01*
X162729774Y-131251898D01*
X162807795Y-131440256D01*
X162921063Y-131609774D01*
X163065226Y-131753937D01*
X163234744Y-131867205D01*
X163423102Y-131945226D01*
X163623061Y-131985000D01*
X163826939Y-131985000D01*
X164026898Y-131945226D01*
X164215256Y-131867205D01*
X164384774Y-131753937D01*
X164528937Y-131609774D01*
X164642205Y-131440256D01*
X164720226Y-131251898D01*
X164760000Y-131051939D01*
X164760000Y-130848061D01*
X164720226Y-130648102D01*
X164642205Y-130459744D01*
X164528937Y-130290226D01*
X164384774Y-130146063D01*
X164215256Y-130032795D01*
X164026898Y-129954774D01*
X163826939Y-129915000D01*
X163623061Y-129915000D01*
X163423102Y-129954774D01*
X163234744Y-130032795D01*
X163065226Y-130146063D01*
X162921063Y-130290226D01*
X162807795Y-130459744D01*
X162729774Y-130648102D01*
X162690000Y-130848061D01*
X150710000Y-130848061D01*
X150710000Y-128348061D01*
X161465000Y-128348061D01*
X161465000Y-128551939D01*
X161504774Y-128751898D01*
X161582795Y-128940256D01*
X161696063Y-129109774D01*
X161840226Y-129253937D01*
X162009744Y-129367205D01*
X162198102Y-129445226D01*
X162398061Y-129485000D01*
X162601939Y-129485000D01*
X162801898Y-129445226D01*
X162990256Y-129367205D01*
X163159774Y-129253937D01*
X163303937Y-129109774D01*
X163417205Y-128940256D01*
X163495226Y-128751898D01*
X163535000Y-128551939D01*
X163535000Y-128348061D01*
X163495226Y-128148102D01*
X163417205Y-127959744D01*
X163303937Y-127790226D01*
X163159774Y-127646063D01*
X162990256Y-127532795D01*
X162801898Y-127454774D01*
X162601939Y-127415000D01*
X162398061Y-127415000D01*
X162198102Y-127454774D01*
X162009744Y-127532795D01*
X161840226Y-127646063D01*
X161696063Y-127790226D01*
X161582795Y-127959744D01*
X161504774Y-128148102D01*
X161465000Y-128348061D01*
X150710000Y-128348061D01*
X150710000Y-126823061D01*
X164715000Y-126823061D01*
X164715000Y-127026939D01*
X164754774Y-127226898D01*
X164832795Y-127415256D01*
X164946063Y-127584774D01*
X165090226Y-127728937D01*
X165259744Y-127842205D01*
X165448102Y-127920226D01*
X165648061Y-127960000D01*
X165851939Y-127960000D01*
X166051898Y-127920226D01*
X166240256Y-127842205D01*
X166409774Y-127728937D01*
X166553937Y-127584774D01*
X166667205Y-127415256D01*
X166745226Y-127226898D01*
X166785000Y-127026939D01*
X166785000Y-126823061D01*
X166745226Y-126623102D01*
X166667205Y-126434744D01*
X166553937Y-126265226D01*
X166409774Y-126121063D01*
X166240256Y-126007795D01*
X166051898Y-125929774D01*
X165851939Y-125890000D01*
X165648061Y-125890000D01*
X165448102Y-125929774D01*
X165259744Y-126007795D01*
X165090226Y-126121063D01*
X164946063Y-126265226D01*
X164832795Y-126434744D01*
X164754774Y-126623102D01*
X164715000Y-126823061D01*
X150710000Y-126823061D01*
X150710000Y-125548061D01*
X172940000Y-125548061D01*
X172940000Y-125751939D01*
X172979774Y-125951898D01*
X173057795Y-126140256D01*
X173171063Y-126309774D01*
X173315226Y-126453937D01*
X173484744Y-126567205D01*
X173673102Y-126645226D01*
X173873061Y-126685000D01*
X174076939Y-126685000D01*
X174276898Y-126645226D01*
X174465256Y-126567205D01*
X174634774Y-126453937D01*
X174778937Y-126309774D01*
X174892205Y-126140256D01*
X174970226Y-125951898D01*
X174970989Y-125948061D01*
X176190000Y-125948061D01*
X176190000Y-126151939D01*
X176229774Y-126351898D01*
X176307795Y-126540256D01*
X176421063Y-126709774D01*
X176565226Y-126853937D01*
X176734744Y-126967205D01*
X176923102Y-127045226D01*
X177123061Y-127085000D01*
X177326939Y-127085000D01*
X177526898Y-127045226D01*
X177715256Y-126967205D01*
X177723192Y-126961903D01*
X177740226Y-126978937D01*
X177909744Y-127092205D01*
X178098102Y-127170226D01*
X178298061Y-127210000D01*
X178501939Y-127210000D01*
X178701898Y-127170226D01*
X178890256Y-127092205D01*
X179059774Y-126978937D01*
X179203937Y-126834774D01*
X179317205Y-126665256D01*
X179395226Y-126476898D01*
X179435000Y-126276939D01*
X179435000Y-126073061D01*
X179395226Y-125873102D01*
X179317205Y-125684744D01*
X179203937Y-125515226D01*
X179059774Y-125371063D01*
X178890256Y-125257795D01*
X178701898Y-125179774D01*
X178501939Y-125140000D01*
X178298061Y-125140000D01*
X178098102Y-125179774D01*
X177909744Y-125257795D01*
X177901808Y-125263097D01*
X177884774Y-125246063D01*
X177715256Y-125132795D01*
X177526898Y-125054774D01*
X177326939Y-125015000D01*
X177123061Y-125015000D01*
X176923102Y-125054774D01*
X176734744Y-125132795D01*
X176565226Y-125246063D01*
X176421063Y-125390226D01*
X176307795Y-125559744D01*
X176229774Y-125748102D01*
X176190000Y-125948061D01*
X174970989Y-125948061D01*
X175010000Y-125751939D01*
X175010000Y-125548061D01*
X174970226Y-125348102D01*
X174892205Y-125159744D01*
X174778937Y-124990226D01*
X174634774Y-124846063D01*
X174465256Y-124732795D01*
X174276898Y-124654774D01*
X174076939Y-124615000D01*
X173873061Y-124615000D01*
X173673102Y-124654774D01*
X173484744Y-124732795D01*
X173315226Y-124846063D01*
X173171063Y-124990226D01*
X173057795Y-125159744D01*
X172979774Y-125348102D01*
X172940000Y-125548061D01*
X150710000Y-125548061D01*
X150710000Y-117240000D01*
X151457815Y-117240000D01*
X151486487Y-117531111D01*
X151571401Y-117811034D01*
X151709294Y-118069014D01*
X151894866Y-118295134D01*
X152120986Y-118480706D01*
X152175791Y-118510000D01*
X152120986Y-118539294D01*
X151894866Y-118724866D01*
X151709294Y-118950986D01*
X151571401Y-119208966D01*
X151486487Y-119488889D01*
X151457815Y-119780000D01*
X151486487Y-120071111D01*
X151571401Y-120351034D01*
X151709294Y-120609014D01*
X151894866Y-120835134D01*
X152120986Y-121020706D01*
X152175791Y-121050000D01*
X152120986Y-121079294D01*
X151894866Y-121264866D01*
X151709294Y-121490986D01*
X151571401Y-121748966D01*
X151486487Y-122028889D01*
X151457815Y-122320000D01*
X151486487Y-122611111D01*
X151571401Y-122891034D01*
X151709294Y-123149014D01*
X151894866Y-123375134D01*
X152120986Y-123560706D01*
X152378966Y-123698599D01*
X152658889Y-123783513D01*
X152877050Y-123805000D01*
X153022950Y-123805000D01*
X153241111Y-123783513D01*
X153521034Y-123698599D01*
X153779014Y-123560706D01*
X154005134Y-123375134D01*
X154190706Y-123149014D01*
X154328599Y-122891034D01*
X154413513Y-122611111D01*
X154414798Y-122598061D01*
X176165000Y-122598061D01*
X176165000Y-122801939D01*
X176204774Y-123001898D01*
X176282795Y-123190256D01*
X176396063Y-123359774D01*
X176540226Y-123503937D01*
X176709744Y-123617205D01*
X176898102Y-123695226D01*
X177098061Y-123735000D01*
X177301939Y-123735000D01*
X177501898Y-123695226D01*
X177690256Y-123617205D01*
X177859774Y-123503937D01*
X178003937Y-123359774D01*
X178117205Y-123190256D01*
X178195226Y-123001898D01*
X178235000Y-122801939D01*
X178235000Y-122598061D01*
X178195226Y-122398102D01*
X178117205Y-122209744D01*
X178003937Y-122040226D01*
X177859774Y-121896063D01*
X177690256Y-121782795D01*
X177501898Y-121704774D01*
X177301939Y-121665000D01*
X177098061Y-121665000D01*
X176898102Y-121704774D01*
X176709744Y-121782795D01*
X176540226Y-121896063D01*
X176396063Y-122040226D01*
X176282795Y-122209744D01*
X176204774Y-122398102D01*
X176165000Y-122598061D01*
X154414798Y-122598061D01*
X154442185Y-122320000D01*
X154413513Y-122028889D01*
X154328599Y-121748966D01*
X154190706Y-121490986D01*
X154005134Y-121264866D01*
X153779014Y-121079294D01*
X153724209Y-121050000D01*
X153779014Y-121020706D01*
X154005134Y-120835134D01*
X154190706Y-120609014D01*
X154328599Y-120351034D01*
X154413513Y-120071111D01*
X154442185Y-119780000D01*
X154434115Y-119698061D01*
X162665000Y-119698061D01*
X162665000Y-119901939D01*
X162704774Y-120101898D01*
X162782795Y-120290256D01*
X162896063Y-120459774D01*
X163040226Y-120603937D01*
X163209744Y-120717205D01*
X163234103Y-120727295D01*
X163204774Y-120798102D01*
X163165000Y-120998061D01*
X163165000Y-121201939D01*
X163204774Y-121401898D01*
X163282795Y-121590256D01*
X163396063Y-121759774D01*
X163540226Y-121903937D01*
X163709744Y-122017205D01*
X163898102Y-122095226D01*
X164098061Y-122135000D01*
X164301939Y-122135000D01*
X164501898Y-122095226D01*
X164690256Y-122017205D01*
X164859774Y-121903937D01*
X165003937Y-121759774D01*
X165117205Y-121590256D01*
X165195226Y-121401898D01*
X165235000Y-121201939D01*
X165235000Y-120998061D01*
X165195226Y-120798102D01*
X165117205Y-120609744D01*
X165003937Y-120440226D01*
X164888711Y-120325000D01*
X181458662Y-120325000D01*
X181483955Y-120581805D01*
X181558862Y-120828741D01*
X181680505Y-121056318D01*
X181844208Y-121255792D01*
X181932648Y-121328372D01*
X181796697Y-121453773D01*
X181645527Y-121661371D01*
X181537762Y-121894472D01*
X181507090Y-121995600D01*
X181630776Y-122198000D01*
X182648000Y-122198000D01*
X182648000Y-122178000D01*
X182902000Y-122178000D01*
X182902000Y-122198000D01*
X182922000Y-122198000D01*
X182922000Y-122452000D01*
X182902000Y-122452000D01*
X182902000Y-122472000D01*
X182648000Y-122472000D01*
X182648000Y-122452000D01*
X181630776Y-122452000D01*
X181507090Y-122654400D01*
X181537762Y-122755528D01*
X181645527Y-122988629D01*
X181796697Y-123196227D01*
X181932648Y-123321628D01*
X181844208Y-123394208D01*
X181680505Y-123593682D01*
X181558862Y-123821259D01*
X181483955Y-124068195D01*
X181458662Y-124325000D01*
X181483955Y-124581805D01*
X181558862Y-124828741D01*
X181680505Y-125056318D01*
X181844208Y-125255792D01*
X181928539Y-125325000D01*
X181844208Y-125394208D01*
X181680505Y-125593682D01*
X181558862Y-125821259D01*
X181483955Y-126068195D01*
X181458662Y-126325000D01*
X181483955Y-126581805D01*
X181558862Y-126828741D01*
X181680505Y-127056318D01*
X181844208Y-127255792D01*
X181928539Y-127325000D01*
X181844208Y-127394208D01*
X181680505Y-127593682D01*
X181558862Y-127821259D01*
X181483955Y-128068195D01*
X181458662Y-128325000D01*
X181483955Y-128581805D01*
X181558862Y-128828741D01*
X181680505Y-129056318D01*
X181844208Y-129255792D01*
X181928539Y-129325000D01*
X181844208Y-129394208D01*
X181680505Y-129593682D01*
X181558862Y-129821259D01*
X181483955Y-130068195D01*
X181458662Y-130325000D01*
X181483955Y-130581805D01*
X181558862Y-130828741D01*
X181680505Y-131056318D01*
X181844208Y-131255792D01*
X182043682Y-131419495D01*
X182271259Y-131541138D01*
X182518195Y-131616045D01*
X182710649Y-131635000D01*
X182839351Y-131635000D01*
X183031805Y-131616045D01*
X183278741Y-131541138D01*
X183506318Y-131419495D01*
X183575926Y-131362369D01*
X183648815Y-131451185D01*
X183745506Y-131530537D01*
X183855820Y-131589502D01*
X183975518Y-131625812D01*
X184100000Y-131638072D01*
X185450000Y-131638072D01*
X185574482Y-131625812D01*
X185694180Y-131589502D01*
X185804494Y-131530537D01*
X185901185Y-131451185D01*
X185980537Y-131354494D01*
X186039502Y-131244180D01*
X186075812Y-131124482D01*
X186088072Y-131000000D01*
X186088072Y-129650000D01*
X186075812Y-129525518D01*
X186039502Y-129405820D01*
X185980537Y-129295506D01*
X185901185Y-129198815D01*
X185812369Y-129125926D01*
X185869495Y-129056318D01*
X185991138Y-128828741D01*
X186066045Y-128581805D01*
X186091338Y-128325000D01*
X186066045Y-128068195D01*
X185991138Y-127821259D01*
X185869495Y-127593682D01*
X185705792Y-127394208D01*
X185621461Y-127325000D01*
X185705792Y-127255792D01*
X185869495Y-127056318D01*
X185991138Y-126828741D01*
X186066045Y-126581805D01*
X186091338Y-126325000D01*
X186066045Y-126068195D01*
X185991138Y-125821259D01*
X185869495Y-125593682D01*
X185705792Y-125394208D01*
X185621461Y-125325000D01*
X185705792Y-125255792D01*
X185869495Y-125056318D01*
X185991138Y-124828741D01*
X186066045Y-124581805D01*
X186091338Y-124325000D01*
X186066045Y-124068195D01*
X185991138Y-123821259D01*
X185869495Y-123593682D01*
X185705792Y-123394208D01*
X185621461Y-123325000D01*
X185705792Y-123255792D01*
X185869495Y-123056318D01*
X185991138Y-122828741D01*
X186066045Y-122581805D01*
X186091338Y-122325000D01*
X186068987Y-122098061D01*
X186340000Y-122098061D01*
X186340000Y-122301939D01*
X186379774Y-122501898D01*
X186457795Y-122690256D01*
X186571063Y-122859774D01*
X186715226Y-123003937D01*
X186884744Y-123117205D01*
X187073102Y-123195226D01*
X187273061Y-123235000D01*
X187476939Y-123235000D01*
X187676898Y-123195226D01*
X187865256Y-123117205D01*
X188034774Y-123003937D01*
X188178937Y-122859774D01*
X188292205Y-122690256D01*
X188370226Y-122501898D01*
X188410000Y-122301939D01*
X188410000Y-122098061D01*
X188370226Y-121898102D01*
X188292205Y-121709744D01*
X188178937Y-121540226D01*
X188034774Y-121396063D01*
X187865256Y-121282795D01*
X187676898Y-121204774D01*
X187476939Y-121165000D01*
X187273061Y-121165000D01*
X187073102Y-121204774D01*
X186884744Y-121282795D01*
X186715226Y-121396063D01*
X186571063Y-121540226D01*
X186457795Y-121709744D01*
X186379774Y-121898102D01*
X186340000Y-122098061D01*
X186068987Y-122098061D01*
X186066045Y-122068195D01*
X185991138Y-121821259D01*
X185869495Y-121593682D01*
X185705792Y-121394208D01*
X185621461Y-121325000D01*
X185705792Y-121255792D01*
X185869495Y-121056318D01*
X185991138Y-120828741D01*
X186066045Y-120581805D01*
X186091338Y-120325000D01*
X186066045Y-120068195D01*
X185991138Y-119821259D01*
X185869495Y-119593682D01*
X185705792Y-119394208D01*
X185506318Y-119230505D01*
X185278741Y-119108862D01*
X185031805Y-119033955D01*
X184839351Y-119015000D01*
X184710649Y-119015000D01*
X184518195Y-119033955D01*
X184271259Y-119108862D01*
X184043682Y-119230505D01*
X183844208Y-119394208D01*
X183775000Y-119478539D01*
X183705792Y-119394208D01*
X183506318Y-119230505D01*
X183278741Y-119108862D01*
X183031805Y-119033955D01*
X182839351Y-119015000D01*
X182710649Y-119015000D01*
X182518195Y-119033955D01*
X182271259Y-119108862D01*
X182043682Y-119230505D01*
X181844208Y-119394208D01*
X181680505Y-119593682D01*
X181558862Y-119821259D01*
X181483955Y-120068195D01*
X181458662Y-120325000D01*
X164888711Y-120325000D01*
X164859774Y-120296063D01*
X164690256Y-120182795D01*
X164665897Y-120172705D01*
X164695226Y-120101898D01*
X164735000Y-119901939D01*
X164735000Y-119698061D01*
X164695226Y-119498102D01*
X164617205Y-119309744D01*
X164503937Y-119140226D01*
X164359774Y-118996063D01*
X164190256Y-118882795D01*
X164001898Y-118804774D01*
X163801939Y-118765000D01*
X163598061Y-118765000D01*
X163398102Y-118804774D01*
X163209744Y-118882795D01*
X163040226Y-118996063D01*
X162896063Y-119140226D01*
X162782795Y-119309744D01*
X162704774Y-119498102D01*
X162665000Y-119698061D01*
X154434115Y-119698061D01*
X154413513Y-119488889D01*
X154328599Y-119208966D01*
X154190706Y-118950986D01*
X154005134Y-118724866D01*
X153789697Y-118548061D01*
X177090000Y-118548061D01*
X177090000Y-118751939D01*
X177129774Y-118951898D01*
X177207795Y-119140256D01*
X177321063Y-119309774D01*
X177465226Y-119453937D01*
X177634744Y-119567205D01*
X177823102Y-119645226D01*
X178023061Y-119685000D01*
X178226939Y-119685000D01*
X178426898Y-119645226D01*
X178615256Y-119567205D01*
X178784774Y-119453937D01*
X178928937Y-119309774D01*
X179042205Y-119140256D01*
X179120226Y-118951898D01*
X179160000Y-118751939D01*
X179160000Y-118548061D01*
X179120226Y-118348102D01*
X179042205Y-118159744D01*
X178928937Y-117990226D01*
X178784774Y-117846063D01*
X178615256Y-117732795D01*
X178426898Y-117654774D01*
X178226939Y-117615000D01*
X178023061Y-117615000D01*
X177823102Y-117654774D01*
X177634744Y-117732795D01*
X177465226Y-117846063D01*
X177321063Y-117990226D01*
X177207795Y-118159744D01*
X177129774Y-118348102D01*
X177090000Y-118548061D01*
X153789697Y-118548061D01*
X153779014Y-118539294D01*
X153724209Y-118510000D01*
X153779014Y-118480706D01*
X154005134Y-118295134D01*
X154190706Y-118069014D01*
X154328599Y-117811034D01*
X154413513Y-117531111D01*
X154442185Y-117240000D01*
X154413513Y-116948889D01*
X154328599Y-116668966D01*
X154190706Y-116410986D01*
X154098031Y-116298061D01*
X175890000Y-116298061D01*
X175890000Y-116501939D01*
X175929774Y-116701898D01*
X176007795Y-116890256D01*
X176121063Y-117059774D01*
X176265226Y-117203937D01*
X176434744Y-117317205D01*
X176623102Y-117395226D01*
X176823061Y-117435000D01*
X177026939Y-117435000D01*
X177226898Y-117395226D01*
X177340763Y-117348061D01*
X179665000Y-117348061D01*
X179665000Y-117551939D01*
X179704774Y-117751898D01*
X179782795Y-117940256D01*
X179896063Y-118109774D01*
X180040226Y-118253937D01*
X180209744Y-118367205D01*
X180398102Y-118445226D01*
X180598061Y-118485000D01*
X180801939Y-118485000D01*
X181001898Y-118445226D01*
X181190256Y-118367205D01*
X181359774Y-118253937D01*
X181503937Y-118109774D01*
X181617205Y-117940256D01*
X181695226Y-117751898D01*
X181735000Y-117551939D01*
X181735000Y-117348061D01*
X181695226Y-117148102D01*
X181617205Y-116959744D01*
X181503937Y-116790226D01*
X181359774Y-116646063D01*
X181190256Y-116532795D01*
X181001898Y-116454774D01*
X180801939Y-116415000D01*
X180598061Y-116415000D01*
X180398102Y-116454774D01*
X180209744Y-116532795D01*
X180040226Y-116646063D01*
X179896063Y-116790226D01*
X179782795Y-116959744D01*
X179704774Y-117148102D01*
X179665000Y-117348061D01*
X177340763Y-117348061D01*
X177415256Y-117317205D01*
X177584774Y-117203937D01*
X177728937Y-117059774D01*
X177842205Y-116890256D01*
X177920226Y-116701898D01*
X177960000Y-116501939D01*
X177960000Y-116298061D01*
X177920226Y-116098102D01*
X177842205Y-115909744D01*
X177728937Y-115740226D01*
X177584774Y-115596063D01*
X177415256Y-115482795D01*
X177226898Y-115404774D01*
X177026939Y-115365000D01*
X176823061Y-115365000D01*
X176623102Y-115404774D01*
X176434744Y-115482795D01*
X176265226Y-115596063D01*
X176121063Y-115740226D01*
X176007795Y-115909744D01*
X175929774Y-116098102D01*
X175890000Y-116298061D01*
X154098031Y-116298061D01*
X154005134Y-116184866D01*
X153975313Y-116160393D01*
X154044180Y-116139502D01*
X154154494Y-116080537D01*
X154251185Y-116001185D01*
X154330537Y-115904494D01*
X154389502Y-115794180D01*
X154425812Y-115674482D01*
X154438072Y-115550000D01*
X154438072Y-114223061D01*
X164815000Y-114223061D01*
X164815000Y-114426939D01*
X164854774Y-114626898D01*
X164932795Y-114815256D01*
X165046063Y-114984774D01*
X165190226Y-115128937D01*
X165359744Y-115242205D01*
X165548102Y-115320226D01*
X165748061Y-115360000D01*
X165951939Y-115360000D01*
X166151898Y-115320226D01*
X166340256Y-115242205D01*
X166509774Y-115128937D01*
X166653937Y-114984774D01*
X166767205Y-114815256D01*
X166845226Y-114626898D01*
X166885000Y-114426939D01*
X166885000Y-114223061D01*
X166845226Y-114023102D01*
X166767205Y-113834744D01*
X166653937Y-113665226D01*
X166509774Y-113521063D01*
X166340256Y-113407795D01*
X166151898Y-113329774D01*
X165951939Y-113290000D01*
X165748061Y-113290000D01*
X165548102Y-113329774D01*
X165359744Y-113407795D01*
X165190226Y-113521063D01*
X165046063Y-113665226D01*
X164932795Y-113834744D01*
X164854774Y-114023102D01*
X164815000Y-114223061D01*
X154438072Y-114223061D01*
X154438072Y-113850000D01*
X154425812Y-113725518D01*
X154389502Y-113605820D01*
X154330537Y-113495506D01*
X154251185Y-113398815D01*
X154154494Y-113319463D01*
X154044180Y-113260498D01*
X153924482Y-113224188D01*
X153800000Y-113211928D01*
X152100000Y-113211928D01*
X151975518Y-113224188D01*
X151855820Y-113260498D01*
X151745506Y-113319463D01*
X151648815Y-113398815D01*
X151569463Y-113495506D01*
X151510498Y-113605820D01*
X151474188Y-113725518D01*
X151461928Y-113850000D01*
X151461928Y-115550000D01*
X151474188Y-115674482D01*
X151510498Y-115794180D01*
X151569463Y-115904494D01*
X151648815Y-116001185D01*
X151745506Y-116080537D01*
X151855820Y-116139502D01*
X151924687Y-116160393D01*
X151894866Y-116184866D01*
X151709294Y-116410986D01*
X151571401Y-116668966D01*
X151486487Y-116948889D01*
X151457815Y-117240000D01*
X150710000Y-117240000D01*
X150710000Y-112673061D01*
X166525000Y-112673061D01*
X166525000Y-112876939D01*
X166564774Y-113076898D01*
X166642795Y-113265256D01*
X166756063Y-113434774D01*
X166900226Y-113578937D01*
X167069744Y-113692205D01*
X167258102Y-113770226D01*
X167458061Y-113810000D01*
X167661939Y-113810000D01*
X167861898Y-113770226D01*
X168050256Y-113692205D01*
X168219774Y-113578937D01*
X168363937Y-113434774D01*
X168477205Y-113265256D01*
X168505038Y-113198061D01*
X169890000Y-113198061D01*
X169890000Y-113401939D01*
X169929774Y-113601898D01*
X170007795Y-113790256D01*
X170121063Y-113959774D01*
X170265226Y-114103937D01*
X170434744Y-114217205D01*
X170623102Y-114295226D01*
X170823061Y-114335000D01*
X171026939Y-114335000D01*
X171226898Y-114295226D01*
X171415256Y-114217205D01*
X171584774Y-114103937D01*
X171728937Y-113959774D01*
X171842205Y-113790256D01*
X171920226Y-113601898D01*
X171960000Y-113401939D01*
X171960000Y-113198061D01*
X171920226Y-112998102D01*
X171842205Y-112809744D01*
X171728937Y-112640226D01*
X171584774Y-112496063D01*
X171415256Y-112382795D01*
X171226898Y-112304774D01*
X171026939Y-112265000D01*
X170823061Y-112265000D01*
X170623102Y-112304774D01*
X170434744Y-112382795D01*
X170265226Y-112496063D01*
X170121063Y-112640226D01*
X170007795Y-112809744D01*
X169929774Y-112998102D01*
X169890000Y-113198061D01*
X168505038Y-113198061D01*
X168555226Y-113076898D01*
X168555280Y-113076627D01*
X168723061Y-113110000D01*
X168926939Y-113110000D01*
X169126898Y-113070226D01*
X169315256Y-112992205D01*
X169484774Y-112878937D01*
X169628937Y-112734774D01*
X169742205Y-112565256D01*
X169820226Y-112376898D01*
X169860000Y-112176939D01*
X169860000Y-111973061D01*
X169820226Y-111773102D01*
X169742205Y-111584744D01*
X169628937Y-111415226D01*
X169484774Y-111271063D01*
X169315256Y-111157795D01*
X169171047Y-111098061D01*
X175290000Y-111098061D01*
X175290000Y-111301939D01*
X175329774Y-111501898D01*
X175407795Y-111690256D01*
X175521063Y-111859774D01*
X175665226Y-112003937D01*
X175834744Y-112117205D01*
X176023102Y-112195226D01*
X176223061Y-112235000D01*
X176340000Y-112235000D01*
X176340000Y-112426939D01*
X176379774Y-112626898D01*
X176457795Y-112815256D01*
X176571063Y-112984774D01*
X176715226Y-113128937D01*
X176884744Y-113242205D01*
X177073102Y-113320226D01*
X177273061Y-113360000D01*
X177476939Y-113360000D01*
X177676898Y-113320226D01*
X177865256Y-113242205D01*
X178034774Y-113128937D01*
X178040650Y-113123061D01*
X179840000Y-113123061D01*
X179840000Y-113326939D01*
X179879774Y-113526898D01*
X179957795Y-113715256D01*
X180071063Y-113884774D01*
X180161289Y-113975000D01*
X180071063Y-114065226D01*
X179957795Y-114234744D01*
X179879774Y-114423102D01*
X179840000Y-114623061D01*
X179840000Y-114826939D01*
X179879774Y-115026898D01*
X179957795Y-115215256D01*
X180071063Y-115384774D01*
X180215226Y-115528937D01*
X180384744Y-115642205D01*
X180573102Y-115720226D01*
X180773061Y-115760000D01*
X180976939Y-115760000D01*
X181176898Y-115720226D01*
X181365256Y-115642205D01*
X181534774Y-115528937D01*
X181678937Y-115384774D01*
X181792205Y-115215256D01*
X181870226Y-115026898D01*
X181905798Y-114848061D01*
X184165000Y-114848061D01*
X184165000Y-115051939D01*
X184204774Y-115251898D01*
X184282795Y-115440256D01*
X184396063Y-115609774D01*
X184540226Y-115753937D01*
X184709744Y-115867205D01*
X184898102Y-115945226D01*
X185098061Y-115985000D01*
X185301939Y-115985000D01*
X185501898Y-115945226D01*
X185690256Y-115867205D01*
X185859774Y-115753937D01*
X186003937Y-115609774D01*
X186117205Y-115440256D01*
X186195226Y-115251898D01*
X186235000Y-115051939D01*
X186235000Y-114848061D01*
X186195226Y-114648102D01*
X186117205Y-114459744D01*
X186003937Y-114290226D01*
X185859774Y-114146063D01*
X185690256Y-114032795D01*
X185501898Y-113954774D01*
X185301939Y-113915000D01*
X185098061Y-113915000D01*
X184898102Y-113954774D01*
X184709744Y-114032795D01*
X184540226Y-114146063D01*
X184396063Y-114290226D01*
X184282795Y-114459744D01*
X184204774Y-114648102D01*
X184165000Y-114848061D01*
X181905798Y-114848061D01*
X181910000Y-114826939D01*
X181910000Y-114623061D01*
X181870226Y-114423102D01*
X181792205Y-114234744D01*
X181678937Y-114065226D01*
X181588711Y-113975000D01*
X181678937Y-113884774D01*
X181792205Y-113715256D01*
X181870226Y-113526898D01*
X181910000Y-113326939D01*
X181910000Y-113123061D01*
X181870226Y-112923102D01*
X181792205Y-112734744D01*
X181678937Y-112565226D01*
X181534774Y-112421063D01*
X181365256Y-112307795D01*
X181176898Y-112229774D01*
X180976939Y-112190000D01*
X180773061Y-112190000D01*
X180573102Y-112229774D01*
X180384744Y-112307795D01*
X180215226Y-112421063D01*
X180071063Y-112565226D01*
X179957795Y-112734744D01*
X179879774Y-112923102D01*
X179840000Y-113123061D01*
X178040650Y-113123061D01*
X178178937Y-112984774D01*
X178292205Y-112815256D01*
X178370226Y-112626898D01*
X178410000Y-112426939D01*
X178410000Y-112223061D01*
X178370226Y-112023102D01*
X178292205Y-111834744D01*
X178178937Y-111665226D01*
X178136772Y-111623061D01*
X184990000Y-111623061D01*
X184990000Y-111826939D01*
X185029774Y-112026898D01*
X185107795Y-112215256D01*
X185221063Y-112384774D01*
X185365226Y-112528937D01*
X185534744Y-112642205D01*
X185723102Y-112720226D01*
X185923061Y-112760000D01*
X186126939Y-112760000D01*
X186326898Y-112720226D01*
X186515256Y-112642205D01*
X186684774Y-112528937D01*
X186828937Y-112384774D01*
X186942205Y-112215256D01*
X187020226Y-112026898D01*
X187060000Y-111826939D01*
X187060000Y-111623061D01*
X187020226Y-111423102D01*
X186942205Y-111234744D01*
X186828937Y-111065226D01*
X186684774Y-110921063D01*
X186515256Y-110807795D01*
X186326898Y-110729774D01*
X186126939Y-110690000D01*
X185923061Y-110690000D01*
X185723102Y-110729774D01*
X185534744Y-110807795D01*
X185365226Y-110921063D01*
X185221063Y-111065226D01*
X185107795Y-111234744D01*
X185029774Y-111423102D01*
X184990000Y-111623061D01*
X178136772Y-111623061D01*
X178034774Y-111521063D01*
X177865256Y-111407795D01*
X177676898Y-111329774D01*
X177476939Y-111290000D01*
X177360000Y-111290000D01*
X177360000Y-111098061D01*
X177320226Y-110898102D01*
X177242205Y-110709744D01*
X177128937Y-110540226D01*
X176984774Y-110396063D01*
X176815256Y-110282795D01*
X176626898Y-110204774D01*
X176426939Y-110165000D01*
X176223061Y-110165000D01*
X176023102Y-110204774D01*
X175834744Y-110282795D01*
X175665226Y-110396063D01*
X175521063Y-110540226D01*
X175407795Y-110709744D01*
X175329774Y-110898102D01*
X175290000Y-111098061D01*
X169171047Y-111098061D01*
X169126898Y-111079774D01*
X168926939Y-111040000D01*
X168723061Y-111040000D01*
X168523102Y-111079774D01*
X168334744Y-111157795D01*
X168165226Y-111271063D01*
X168021063Y-111415226D01*
X167907795Y-111584744D01*
X167829774Y-111773102D01*
X167829720Y-111773373D01*
X167661939Y-111740000D01*
X167458061Y-111740000D01*
X167258102Y-111779774D01*
X167069744Y-111857795D01*
X166900226Y-111971063D01*
X166756063Y-112115226D01*
X166642795Y-112284744D01*
X166564774Y-112473102D01*
X166525000Y-112673061D01*
X150710000Y-112673061D01*
X150710000Y-108848061D01*
X177940000Y-108848061D01*
X177940000Y-109051939D01*
X177979774Y-109251898D01*
X178057795Y-109440256D01*
X178171063Y-109609774D01*
X178315226Y-109753937D01*
X178484744Y-109867205D01*
X178673102Y-109945226D01*
X178873061Y-109985000D01*
X179076939Y-109985000D01*
X179276898Y-109945226D01*
X179465256Y-109867205D01*
X179634774Y-109753937D01*
X179778937Y-109609774D01*
X179892205Y-109440256D01*
X179970226Y-109251898D01*
X180010000Y-109051939D01*
X180010000Y-108848061D01*
X179970226Y-108648102D01*
X179892205Y-108459744D01*
X179778937Y-108290226D01*
X179634774Y-108146063D01*
X179465256Y-108032795D01*
X179276898Y-107954774D01*
X179076939Y-107915000D01*
X178873061Y-107915000D01*
X178673102Y-107954774D01*
X178484744Y-108032795D01*
X178315226Y-108146063D01*
X178171063Y-108290226D01*
X178057795Y-108459744D01*
X177979774Y-108648102D01*
X177940000Y-108848061D01*
X150710000Y-108848061D01*
X150710000Y-107648061D01*
X162415000Y-107648061D01*
X162415000Y-107851939D01*
X162454774Y-108051898D01*
X162532795Y-108240256D01*
X162646063Y-108409774D01*
X162790226Y-108553937D01*
X162959744Y-108667205D01*
X163148102Y-108745226D01*
X163348061Y-108785000D01*
X163551939Y-108785000D01*
X163751898Y-108745226D01*
X163940256Y-108667205D01*
X164109774Y-108553937D01*
X164253937Y-108409774D01*
X164367205Y-108240256D01*
X164445226Y-108051898D01*
X164485000Y-107851939D01*
X164485000Y-107648061D01*
X164445226Y-107448102D01*
X164367205Y-107259744D01*
X164253937Y-107090226D01*
X164109774Y-106946063D01*
X163940256Y-106832795D01*
X163751898Y-106754774D01*
X163551939Y-106715000D01*
X163348061Y-106715000D01*
X163148102Y-106754774D01*
X162959744Y-106832795D01*
X162790226Y-106946063D01*
X162646063Y-107090226D01*
X162532795Y-107259744D01*
X162454774Y-107448102D01*
X162415000Y-107648061D01*
X150710000Y-107648061D01*
X150710000Y-104226316D01*
X150997912Y-104657207D01*
X151392793Y-105052088D01*
X151857124Y-105362344D01*
X152373061Y-105576052D01*
X152920777Y-105685000D01*
X153479223Y-105685000D01*
X154026939Y-105576052D01*
X154542876Y-105362344D01*
X155007207Y-105052088D01*
X155402088Y-104657207D01*
X155575243Y-104398061D01*
X165140000Y-104398061D01*
X165140000Y-104601939D01*
X165179774Y-104801898D01*
X165257795Y-104990256D01*
X165371063Y-105159774D01*
X165515226Y-105303937D01*
X165684744Y-105417205D01*
X165873102Y-105495226D01*
X166073061Y-105535000D01*
X166276939Y-105535000D01*
X166476898Y-105495226D01*
X166665256Y-105417205D01*
X166834774Y-105303937D01*
X166865650Y-105273061D01*
X173340000Y-105273061D01*
X173340000Y-105476939D01*
X173379774Y-105676898D01*
X173457795Y-105865256D01*
X173571063Y-106034774D01*
X173715226Y-106178937D01*
X173884744Y-106292205D01*
X174073102Y-106370226D01*
X174273061Y-106410000D01*
X174476939Y-106410000D01*
X174676898Y-106370226D01*
X174865256Y-106292205D01*
X175034774Y-106178937D01*
X175178937Y-106034774D01*
X175292205Y-105865256D01*
X175370226Y-105676898D01*
X175383402Y-105610657D01*
X175457795Y-105790256D01*
X175571063Y-105959774D01*
X175715226Y-106103937D01*
X175884744Y-106217205D01*
X176073102Y-106295226D01*
X176273061Y-106335000D01*
X176476939Y-106335000D01*
X176676898Y-106295226D01*
X176865256Y-106217205D01*
X177034774Y-106103937D01*
X177178937Y-105959774D01*
X177292205Y-105790256D01*
X177370226Y-105601898D01*
X177410000Y-105401939D01*
X177410000Y-105198061D01*
X177370226Y-104998102D01*
X177292205Y-104809744D01*
X177178937Y-104640226D01*
X177034774Y-104496063D01*
X176865256Y-104382795D01*
X176676898Y-104304774D01*
X176476939Y-104265000D01*
X176273061Y-104265000D01*
X176073102Y-104304774D01*
X175884744Y-104382795D01*
X175715226Y-104496063D01*
X175571063Y-104640226D01*
X175457795Y-104809744D01*
X175379774Y-104998102D01*
X175366598Y-105064343D01*
X175292205Y-104884744D01*
X175178937Y-104715226D01*
X175034774Y-104571063D01*
X174865256Y-104457795D01*
X174676898Y-104379774D01*
X174476939Y-104340000D01*
X174273061Y-104340000D01*
X174073102Y-104379774D01*
X173884744Y-104457795D01*
X173715226Y-104571063D01*
X173571063Y-104715226D01*
X173457795Y-104884744D01*
X173379774Y-105073102D01*
X173340000Y-105273061D01*
X166865650Y-105273061D01*
X166978937Y-105159774D01*
X167092205Y-104990256D01*
X167170226Y-104801898D01*
X167210000Y-104601939D01*
X167210000Y-104398061D01*
X167175191Y-104223061D01*
X177490000Y-104223061D01*
X177490000Y-104426939D01*
X177529774Y-104626898D01*
X177607795Y-104815256D01*
X177721063Y-104984774D01*
X177865226Y-105128937D01*
X178034744Y-105242205D01*
X178223102Y-105320226D01*
X178423061Y-105360000D01*
X178626939Y-105360000D01*
X178826898Y-105320226D01*
X179015256Y-105242205D01*
X179184774Y-105128937D01*
X179328937Y-104984774D01*
X179442205Y-104815256D01*
X179520226Y-104626898D01*
X179560000Y-104426939D01*
X179560000Y-104223061D01*
X179520226Y-104023102D01*
X179442205Y-103834744D01*
X179328937Y-103665226D01*
X179184774Y-103521063D01*
X179015256Y-103407795D01*
X178826898Y-103329774D01*
X178626939Y-103290000D01*
X178423061Y-103290000D01*
X178223102Y-103329774D01*
X178034744Y-103407795D01*
X177865226Y-103521063D01*
X177721063Y-103665226D01*
X177607795Y-103834744D01*
X177529774Y-104023102D01*
X177490000Y-104223061D01*
X167175191Y-104223061D01*
X167170226Y-104198102D01*
X167092205Y-104009744D01*
X166978937Y-103840226D01*
X166834774Y-103696063D01*
X166665256Y-103582795D01*
X166476898Y-103504774D01*
X166276939Y-103465000D01*
X166073061Y-103465000D01*
X165873102Y-103504774D01*
X165684744Y-103582795D01*
X165515226Y-103696063D01*
X165371063Y-103840226D01*
X165257795Y-104009744D01*
X165179774Y-104198102D01*
X165140000Y-104398061D01*
X155575243Y-104398061D01*
X155712344Y-104192876D01*
X155926052Y-103676939D01*
X156035000Y-103129223D01*
X156035000Y-102570777D01*
X155926052Y-102023061D01*
X155712344Y-101507124D01*
X155402088Y-101042793D01*
X155019295Y-100660000D01*
X172135485Y-100660000D01*
X171959744Y-100732795D01*
M02*
