G04 #@! TF.GenerationSoftware,KiCad,Pcbnew,(5.1.0)-1*
G04 #@! TF.CreationDate,2019-11-15T23:55:28-06:00*
G04 #@! TF.ProjectId,low_cost_multispectral_sensor,6c6f775f-636f-4737-945f-6d756c746973,rev?*
G04 #@! TF.SameCoordinates,Original*
G04 #@! TF.FileFunction,Legend,Top*
G04 #@! TF.FilePolarity,Positive*
%FSLAX46Y46*%
G04 Gerber Fmt 4.6, Leading zero omitted, Abs format (unit mm)*
G04 Created by KiCad (PCBNEW (5.1.0)-1) date 2019-11-15 23:55:28*
%MOMM*%
%LPD*%
G04 APERTURE LIST*
%ADD10C,0.150000*%
%ADD11C,0.120000*%
G04 APERTURE END LIST*
D10*
X142910714Y-82989285D02*
X142553571Y-82989285D01*
X142553571Y-82239285D01*
X143267857Y-82989285D02*
X143196428Y-82953571D01*
X143160714Y-82917857D01*
X143125000Y-82846428D01*
X143125000Y-82632142D01*
X143160714Y-82560714D01*
X143196428Y-82525000D01*
X143267857Y-82489285D01*
X143375000Y-82489285D01*
X143446428Y-82525000D01*
X143482142Y-82560714D01*
X143517857Y-82632142D01*
X143517857Y-82846428D01*
X143482142Y-82917857D01*
X143446428Y-82953571D01*
X143375000Y-82989285D01*
X143267857Y-82989285D01*
X143767857Y-82489285D02*
X143910714Y-82989285D01*
X144053571Y-82632142D01*
X144196428Y-82989285D01*
X144339285Y-82489285D01*
X145625000Y-82917857D02*
X145589285Y-82953571D01*
X145482142Y-82989285D01*
X145410714Y-82989285D01*
X145303571Y-82953571D01*
X145232142Y-82882142D01*
X145196428Y-82810714D01*
X145160714Y-82667857D01*
X145160714Y-82560714D01*
X145196428Y-82417857D01*
X145232142Y-82346428D01*
X145303571Y-82275000D01*
X145410714Y-82239285D01*
X145482142Y-82239285D01*
X145589285Y-82275000D01*
X145625000Y-82310714D01*
X146053571Y-82989285D02*
X145982142Y-82953571D01*
X145946428Y-82917857D01*
X145910714Y-82846428D01*
X145910714Y-82632142D01*
X145946428Y-82560714D01*
X145982142Y-82525000D01*
X146053571Y-82489285D01*
X146160714Y-82489285D01*
X146232142Y-82525000D01*
X146267857Y-82560714D01*
X146303571Y-82632142D01*
X146303571Y-82846428D01*
X146267857Y-82917857D01*
X146232142Y-82953571D01*
X146160714Y-82989285D01*
X146053571Y-82989285D01*
X146589285Y-82953571D02*
X146660714Y-82989285D01*
X146803571Y-82989285D01*
X146875000Y-82953571D01*
X146910714Y-82882142D01*
X146910714Y-82846428D01*
X146875000Y-82775000D01*
X146803571Y-82739285D01*
X146696428Y-82739285D01*
X146625000Y-82703571D01*
X146589285Y-82632142D01*
X146589285Y-82596428D01*
X146625000Y-82525000D01*
X146696428Y-82489285D01*
X146803571Y-82489285D01*
X146875000Y-82525000D01*
X147125000Y-82489285D02*
X147410714Y-82489285D01*
X147232142Y-82239285D02*
X147232142Y-82882142D01*
X147267857Y-82953571D01*
X147339285Y-82989285D01*
X147410714Y-82989285D01*
X148232142Y-82239285D02*
X148232142Y-82846428D01*
X148267857Y-82917857D01*
X148303571Y-82953571D01*
X148375000Y-82989285D01*
X148517857Y-82989285D01*
X148589285Y-82953571D01*
X148625000Y-82917857D01*
X148660714Y-82846428D01*
X148660714Y-82239285D01*
X148982142Y-82953571D02*
X149089285Y-82989285D01*
X149267857Y-82989285D01*
X149339285Y-82953571D01*
X149375000Y-82917857D01*
X149410714Y-82846428D01*
X149410714Y-82775000D01*
X149375000Y-82703571D01*
X149339285Y-82667857D01*
X149267857Y-82632142D01*
X149125000Y-82596428D01*
X149053571Y-82560714D01*
X149017857Y-82525000D01*
X148982142Y-82453571D01*
X148982142Y-82382142D01*
X149017857Y-82310714D01*
X149053571Y-82275000D01*
X149125000Y-82239285D01*
X149303571Y-82239285D01*
X149410714Y-82275000D01*
X149982142Y-82596428D02*
X150089285Y-82632142D01*
X150125000Y-82667857D01*
X150160714Y-82739285D01*
X150160714Y-82846428D01*
X150125000Y-82917857D01*
X150089285Y-82953571D01*
X150017857Y-82989285D01*
X149732142Y-82989285D01*
X149732142Y-82239285D01*
X149982142Y-82239285D01*
X150053571Y-82275000D01*
X150089285Y-82310714D01*
X150125000Y-82382142D01*
X150125000Y-82453571D01*
X150089285Y-82525000D01*
X150053571Y-82560714D01*
X149982142Y-82596428D01*
X149732142Y-82596428D01*
X140714285Y-84264285D02*
X140714285Y-83514285D01*
X140964285Y-84050000D01*
X141214285Y-83514285D01*
X141214285Y-84264285D01*
X141892857Y-83764285D02*
X141892857Y-84264285D01*
X141571428Y-83764285D02*
X141571428Y-84157142D01*
X141607142Y-84228571D01*
X141678571Y-84264285D01*
X141785714Y-84264285D01*
X141857142Y-84228571D01*
X141892857Y-84192857D01*
X142357142Y-84264285D02*
X142285714Y-84228571D01*
X142250000Y-84157142D01*
X142250000Y-83514285D01*
X142535714Y-83764285D02*
X142821428Y-83764285D01*
X142642857Y-83514285D02*
X142642857Y-84157142D01*
X142678571Y-84228571D01*
X142750000Y-84264285D01*
X142821428Y-84264285D01*
X143071428Y-84264285D02*
X143071428Y-83764285D01*
X143071428Y-83514285D02*
X143035714Y-83550000D01*
X143071428Y-83585714D01*
X143107142Y-83550000D01*
X143071428Y-83514285D01*
X143071428Y-83585714D01*
X143392857Y-84228571D02*
X143464285Y-84264285D01*
X143607142Y-84264285D01*
X143678571Y-84228571D01*
X143714285Y-84157142D01*
X143714285Y-84121428D01*
X143678571Y-84050000D01*
X143607142Y-84014285D01*
X143500000Y-84014285D01*
X143428571Y-83978571D01*
X143392857Y-83907142D01*
X143392857Y-83871428D01*
X143428571Y-83800000D01*
X143500000Y-83764285D01*
X143607142Y-83764285D01*
X143678571Y-83800000D01*
X144035714Y-83764285D02*
X144035714Y-84514285D01*
X144035714Y-83800000D02*
X144107142Y-83764285D01*
X144250000Y-83764285D01*
X144321428Y-83800000D01*
X144357142Y-83835714D01*
X144392857Y-83907142D01*
X144392857Y-84121428D01*
X144357142Y-84192857D01*
X144321428Y-84228571D01*
X144250000Y-84264285D01*
X144107142Y-84264285D01*
X144035714Y-84228571D01*
X145000000Y-84228571D02*
X144928571Y-84264285D01*
X144785714Y-84264285D01*
X144714285Y-84228571D01*
X144678571Y-84157142D01*
X144678571Y-83871428D01*
X144714285Y-83800000D01*
X144785714Y-83764285D01*
X144928571Y-83764285D01*
X145000000Y-83800000D01*
X145035714Y-83871428D01*
X145035714Y-83942857D01*
X144678571Y-84014285D01*
X145678571Y-84228571D02*
X145607142Y-84264285D01*
X145464285Y-84264285D01*
X145392857Y-84228571D01*
X145357142Y-84192857D01*
X145321428Y-84121428D01*
X145321428Y-83907142D01*
X145357142Y-83835714D01*
X145392857Y-83800000D01*
X145464285Y-83764285D01*
X145607142Y-83764285D01*
X145678571Y-83800000D01*
X145892857Y-83764285D02*
X146178571Y-83764285D01*
X146000000Y-83514285D02*
X146000000Y-84157142D01*
X146035714Y-84228571D01*
X146107142Y-84264285D01*
X146178571Y-84264285D01*
X146428571Y-84264285D02*
X146428571Y-83764285D01*
X146428571Y-83907142D02*
X146464285Y-83835714D01*
X146500000Y-83800000D01*
X146571428Y-83764285D01*
X146642857Y-83764285D01*
X147214285Y-84264285D02*
X147214285Y-83871428D01*
X147178571Y-83800000D01*
X147107142Y-83764285D01*
X146964285Y-83764285D01*
X146892857Y-83800000D01*
X147214285Y-84228571D02*
X147142857Y-84264285D01*
X146964285Y-84264285D01*
X146892857Y-84228571D01*
X146857142Y-84157142D01*
X146857142Y-84085714D01*
X146892857Y-84014285D01*
X146964285Y-83978571D01*
X147142857Y-83978571D01*
X147214285Y-83942857D01*
X147678571Y-84264285D02*
X147607142Y-84228571D01*
X147571428Y-84157142D01*
X147571428Y-83514285D01*
X148500000Y-84228571D02*
X148607142Y-84264285D01*
X148785714Y-84264285D01*
X148857142Y-84228571D01*
X148892857Y-84192857D01*
X148928571Y-84121428D01*
X148928571Y-84050000D01*
X148892857Y-83978571D01*
X148857142Y-83942857D01*
X148785714Y-83907142D01*
X148642857Y-83871428D01*
X148571428Y-83835714D01*
X148535714Y-83800000D01*
X148500000Y-83728571D01*
X148500000Y-83657142D01*
X148535714Y-83585714D01*
X148571428Y-83550000D01*
X148642857Y-83514285D01*
X148821428Y-83514285D01*
X148928571Y-83550000D01*
X149535714Y-84228571D02*
X149464285Y-84264285D01*
X149321428Y-84264285D01*
X149250000Y-84228571D01*
X149214285Y-84157142D01*
X149214285Y-83871428D01*
X149250000Y-83800000D01*
X149321428Y-83764285D01*
X149464285Y-83764285D01*
X149535714Y-83800000D01*
X149571428Y-83871428D01*
X149571428Y-83942857D01*
X149214285Y-84014285D01*
X149892857Y-83764285D02*
X149892857Y-84264285D01*
X149892857Y-83835714D02*
X149928571Y-83800000D01*
X150000000Y-83764285D01*
X150107142Y-83764285D01*
X150178571Y-83800000D01*
X150214285Y-83871428D01*
X150214285Y-84264285D01*
X150535714Y-84228571D02*
X150607142Y-84264285D01*
X150750000Y-84264285D01*
X150821428Y-84228571D01*
X150857142Y-84157142D01*
X150857142Y-84121428D01*
X150821428Y-84050000D01*
X150750000Y-84014285D01*
X150642857Y-84014285D01*
X150571428Y-83978571D01*
X150535714Y-83907142D01*
X150535714Y-83871428D01*
X150571428Y-83800000D01*
X150642857Y-83764285D01*
X150750000Y-83764285D01*
X150821428Y-83800000D01*
X151285714Y-84264285D02*
X151214285Y-84228571D01*
X151178571Y-84192857D01*
X151142857Y-84121428D01*
X151142857Y-83907142D01*
X151178571Y-83835714D01*
X151214285Y-83800000D01*
X151285714Y-83764285D01*
X151392857Y-83764285D01*
X151464285Y-83800000D01*
X151500000Y-83835714D01*
X151535714Y-83907142D01*
X151535714Y-84121428D01*
X151500000Y-84192857D01*
X151464285Y-84228571D01*
X151392857Y-84264285D01*
X151285714Y-84264285D01*
X151857142Y-84264285D02*
X151857142Y-83764285D01*
X151857142Y-83907142D02*
X151892857Y-83835714D01*
X151928571Y-83800000D01*
X152000000Y-83764285D01*
X152071428Y-83764285D01*
X143196428Y-84789285D02*
X143446428Y-85539285D01*
X143696428Y-84789285D01*
X144232142Y-85503571D02*
X144160714Y-85539285D01*
X144017857Y-85539285D01*
X143946428Y-85503571D01*
X143910714Y-85432142D01*
X143910714Y-85146428D01*
X143946428Y-85075000D01*
X144017857Y-85039285D01*
X144160714Y-85039285D01*
X144232142Y-85075000D01*
X144267857Y-85146428D01*
X144267857Y-85217857D01*
X143910714Y-85289285D01*
X144589285Y-85539285D02*
X144589285Y-85039285D01*
X144589285Y-85182142D02*
X144625000Y-85110714D01*
X144660714Y-85075000D01*
X144732142Y-85039285D01*
X144803571Y-85039285D01*
X145017857Y-85503571D02*
X145089285Y-85539285D01*
X145232142Y-85539285D01*
X145303571Y-85503571D01*
X145339285Y-85432142D01*
X145339285Y-85396428D01*
X145303571Y-85325000D01*
X145232142Y-85289285D01*
X145125000Y-85289285D01*
X145053571Y-85253571D01*
X145017857Y-85182142D01*
X145017857Y-85146428D01*
X145053571Y-85075000D01*
X145125000Y-85039285D01*
X145232142Y-85039285D01*
X145303571Y-85075000D01*
X145660714Y-85539285D02*
X145660714Y-85039285D01*
X145660714Y-84789285D02*
X145625000Y-84825000D01*
X145660714Y-84860714D01*
X145696428Y-84825000D01*
X145660714Y-84789285D01*
X145660714Y-84860714D01*
X146125000Y-85539285D02*
X146053571Y-85503571D01*
X146017857Y-85467857D01*
X145982142Y-85396428D01*
X145982142Y-85182142D01*
X146017857Y-85110714D01*
X146053571Y-85075000D01*
X146125000Y-85039285D01*
X146232142Y-85039285D01*
X146303571Y-85075000D01*
X146339285Y-85110714D01*
X146375000Y-85182142D01*
X146375000Y-85396428D01*
X146339285Y-85467857D01*
X146303571Y-85503571D01*
X146232142Y-85539285D01*
X146125000Y-85539285D01*
X146696428Y-85039285D02*
X146696428Y-85539285D01*
X146696428Y-85110714D02*
X146732142Y-85075000D01*
X146803571Y-85039285D01*
X146910714Y-85039285D01*
X146982142Y-85075000D01*
X147017857Y-85146428D01*
X147017857Y-85539285D01*
X148339285Y-85539285D02*
X147910714Y-85539285D01*
X148125000Y-85539285D02*
X148125000Y-84789285D01*
X148053571Y-84896428D01*
X147982142Y-84967857D01*
X147910714Y-85003571D01*
X148660714Y-85467857D02*
X148696428Y-85503571D01*
X148660714Y-85539285D01*
X148625000Y-85503571D01*
X148660714Y-85467857D01*
X148660714Y-85539285D01*
X149160714Y-84789285D02*
X149232142Y-84789285D01*
X149303571Y-84825000D01*
X149339285Y-84860714D01*
X149375000Y-84932142D01*
X149410714Y-85075000D01*
X149410714Y-85253571D01*
X149375000Y-85396428D01*
X149339285Y-85467857D01*
X149303571Y-85503571D01*
X149232142Y-85539285D01*
X149160714Y-85539285D01*
X149089285Y-85503571D01*
X149053571Y-85467857D01*
X149017857Y-85396428D01*
X148982142Y-85253571D01*
X148982142Y-85075000D01*
X149017857Y-84932142D01*
X149053571Y-84860714D01*
X149089285Y-84825000D01*
X149160714Y-84789285D01*
X157916600Y-76144800D02*
X155275000Y-76144800D01*
X155275000Y-78735600D02*
X155275000Y-76144800D01*
X157916600Y-78735600D02*
X155275000Y-78735600D01*
X157916600Y-78735600D02*
X157916600Y-76144800D01*
X154665400Y-79650000D02*
G75*
G03X154665400Y-79650000I-359210J0D01*
G01*
D11*
X148055000Y-103950000D02*
X148055000Y-104450000D01*
X148995000Y-104450000D02*
X148995000Y-103950000D01*
X143495000Y-102900000D02*
X143495000Y-102400000D01*
X142555000Y-102400000D02*
X142555000Y-102900000D01*
X163175000Y-88230000D02*
X162675000Y-88230000D01*
X162675000Y-89170000D02*
X163175000Y-89170000D01*
X153125000Y-96630000D02*
X152625000Y-96630000D01*
X152625000Y-97570000D02*
X153125000Y-97570000D01*
X157145000Y-86475000D02*
X157145000Y-85975000D01*
X156205000Y-85975000D02*
X156205000Y-86475000D01*
X147225000Y-100170000D02*
X147725000Y-100170000D01*
X147725000Y-99230000D02*
X147225000Y-99230000D01*
X150495000Y-77650000D02*
X150495000Y-77150000D01*
X149555000Y-77150000D02*
X149555000Y-77650000D01*
X152320000Y-77625000D02*
X152320000Y-77125000D01*
X151380000Y-77125000D02*
X151380000Y-77625000D01*
X166345000Y-78675000D02*
X166345000Y-78175000D01*
X165405000Y-78175000D02*
X165405000Y-78675000D01*
X148225000Y-76360000D02*
X148225000Y-74240000D01*
X145025000Y-76360000D02*
X148225000Y-76360000D01*
X148225000Y-74240000D02*
X145025000Y-74240000D01*
X152625000Y-106650000D02*
X153075000Y-106650000D01*
X152625000Y-108500000D02*
X152625000Y-106650000D01*
X160425000Y-111050000D02*
X160425000Y-110800000D01*
X152625000Y-111050000D02*
X152625000Y-110800000D01*
X160425000Y-108500000D02*
X160425000Y-106650000D01*
X160425000Y-106650000D02*
X159975000Y-106650000D01*
X154825000Y-106100000D02*
X155275000Y-106100000D01*
X154825000Y-106100000D02*
X154825000Y-106550000D01*
X138195000Y-84620000D02*
X139525000Y-84620000D01*
X138195000Y-85950000D02*
X138195000Y-84620000D01*
X138195000Y-87220000D02*
X140855000Y-87220000D01*
X140855000Y-87220000D02*
X140855000Y-94900000D01*
X138195000Y-87220000D02*
X138195000Y-94900000D01*
X138195000Y-94900000D02*
X140855000Y-94900000D01*
X172410000Y-102635000D02*
X171350000Y-102635000D01*
X172410000Y-101575000D02*
X172410000Y-102635000D01*
X170350000Y-102635000D02*
X168290000Y-102635000D01*
X170350000Y-100575000D02*
X170350000Y-102635000D01*
X172410000Y-100575000D02*
X170350000Y-100575000D01*
X168290000Y-102635000D02*
X168290000Y-90515000D01*
X172410000Y-100575000D02*
X172410000Y-90515000D01*
X172410000Y-90515000D02*
X168290000Y-90515000D01*
X165025000Y-85670000D02*
X164525000Y-85670000D01*
X164525000Y-86730000D02*
X165025000Y-86730000D01*
X165025000Y-84370000D02*
X164525000Y-84370000D01*
X164525000Y-85430000D02*
X165025000Y-85430000D01*
X170225000Y-86580000D02*
X170725000Y-86580000D01*
X170725000Y-85520000D02*
X170225000Y-85520000D01*
X157295000Y-97500000D02*
X157295000Y-98000000D01*
X158355000Y-98000000D02*
X158355000Y-97500000D01*
X156455000Y-98000000D02*
X156455000Y-97500000D01*
X155395000Y-97500000D02*
X155395000Y-98000000D01*
X162275000Y-86730000D02*
X162775000Y-86730000D01*
X162775000Y-85670000D02*
X162275000Y-85670000D01*
X162775000Y-84370000D02*
X162275000Y-84370000D01*
X162275000Y-85430000D02*
X162775000Y-85430000D01*
X162450000Y-73330000D02*
X162950000Y-73330000D01*
X162950000Y-72270000D02*
X162450000Y-72270000D01*
X161620000Y-74850000D02*
X161620000Y-75350000D01*
X162680000Y-75350000D02*
X162680000Y-74850000D01*
X168225000Y-74595000D02*
X167725000Y-74595000D01*
X167725000Y-75655000D02*
X168225000Y-75655000D01*
X170225000Y-85480000D02*
X170725000Y-85480000D01*
X170725000Y-84420000D02*
X170225000Y-84420000D01*
X153925000Y-81020000D02*
X153425000Y-81020000D01*
X153425000Y-82080000D02*
X153925000Y-82080000D01*
D10*
X161120000Y-90988000D02*
X161755000Y-90988000D01*
X161120000Y-92258000D02*
X161120000Y-90988000D01*
X161755000Y-92258000D02*
X161120000Y-92258000D01*
X161755000Y-94036000D02*
X151595000Y-94036000D01*
X161755000Y-89210000D02*
X161755000Y-94036000D01*
X151595000Y-89210000D02*
X161755000Y-89210000D01*
X151595000Y-94036000D02*
X151595000Y-89210000D01*
X167343000Y-80308000D02*
X166835000Y-80308000D01*
X167343000Y-79038000D02*
X167343000Y-80308000D01*
X166835000Y-79038000D02*
X167343000Y-79038000D01*
X166835000Y-82086000D02*
X166835000Y-77514000D01*
X171915000Y-82086000D02*
X166835000Y-82086000D01*
X171915000Y-77514000D02*
X171915000Y-82086000D01*
X166835000Y-77514000D02*
X171915000Y-77514000D01*
D11*
X166060000Y-101025000D02*
X166060000Y-98575000D01*
X162840000Y-99225000D02*
X162840000Y-101025000D01*
X144925000Y-104060000D02*
X147375000Y-104060000D01*
X146725000Y-100840000D02*
X144925000Y-100840000D01*
X155295000Y-102060000D02*
X155295000Y-100600000D01*
X158455000Y-102060000D02*
X158455000Y-99900000D01*
X158455000Y-102060000D02*
X157525000Y-102060000D01*
X155295000Y-102060000D02*
X156225000Y-102060000D01*
X158575000Y-85880000D02*
X160675000Y-85880000D01*
X158575000Y-87020000D02*
X160675000Y-87020000D01*
X158575000Y-85880000D02*
X158575000Y-87020000D01*
X158575000Y-84330000D02*
X158575000Y-85470000D01*
X158575000Y-85470000D02*
X160675000Y-85470000D01*
X158575000Y-84330000D02*
X160675000Y-84330000D01*
X149425000Y-105000000D02*
X149425000Y-103150000D01*
X150625000Y-105000000D02*
X150625000Y-103150000D01*
X150625000Y-103150000D02*
X149425000Y-103150000D01*
X146475000Y-95950000D02*
X146475000Y-97150000D01*
X148325000Y-95950000D02*
X146475000Y-95950000D01*
X148325000Y-97150000D02*
X146475000Y-97150000D01*
X147375000Y-80470000D02*
X145275000Y-80470000D01*
X147375000Y-79330000D02*
X145275000Y-79330000D01*
X147375000Y-80470000D02*
X147375000Y-79330000D01*
X148325000Y-99000000D02*
X146475000Y-99000000D01*
X148325000Y-97800000D02*
X146475000Y-97800000D01*
X146475000Y-97800000D02*
X146475000Y-99000000D01*
D10*
X160366180Y-78386904D02*
X161175704Y-78386904D01*
X161270942Y-78339285D01*
X161318561Y-78291666D01*
X161366180Y-78196428D01*
X161366180Y-78005952D01*
X161318561Y-77910714D01*
X161270942Y-77863095D01*
X161175704Y-77815476D01*
X160366180Y-77815476D01*
X160366180Y-76863095D02*
X160366180Y-77339285D01*
X160842371Y-77386904D01*
X160794752Y-77339285D01*
X160747133Y-77244047D01*
X160747133Y-77005952D01*
X160794752Y-76910714D01*
X160842371Y-76863095D01*
X160937609Y-76815476D01*
X161175704Y-76815476D01*
X161270942Y-76863095D01*
X161318561Y-76910714D01*
X161366180Y-77005952D01*
X161366180Y-77244047D01*
X161318561Y-77339285D01*
X161270942Y-77386904D01*
X148158333Y-106707142D02*
X148110714Y-106754761D01*
X147967857Y-106802380D01*
X147872619Y-106802380D01*
X147729761Y-106754761D01*
X147634523Y-106659523D01*
X147586904Y-106564285D01*
X147539285Y-106373809D01*
X147539285Y-106230952D01*
X147586904Y-106040476D01*
X147634523Y-105945238D01*
X147729761Y-105850000D01*
X147872619Y-105802380D01*
X147967857Y-105802380D01*
X148110714Y-105850000D01*
X148158333Y-105897619D01*
X149110714Y-106802380D02*
X148539285Y-106802380D01*
X148825000Y-106802380D02*
X148825000Y-105802380D01*
X148729761Y-105945238D01*
X148634523Y-106040476D01*
X148539285Y-106088095D01*
X142858333Y-105757142D02*
X142810714Y-105804761D01*
X142667857Y-105852380D01*
X142572619Y-105852380D01*
X142429761Y-105804761D01*
X142334523Y-105709523D01*
X142286904Y-105614285D01*
X142239285Y-105423809D01*
X142239285Y-105280952D01*
X142286904Y-105090476D01*
X142334523Y-104995238D01*
X142429761Y-104900000D01*
X142572619Y-104852380D01*
X142667857Y-104852380D01*
X142810714Y-104900000D01*
X142858333Y-104947619D01*
X143239285Y-104947619D02*
X143286904Y-104900000D01*
X143382142Y-104852380D01*
X143620238Y-104852380D01*
X143715476Y-104900000D01*
X143763095Y-104947619D01*
X143810714Y-105042857D01*
X143810714Y-105138095D01*
X143763095Y-105280952D01*
X143191666Y-105852380D01*
X143810714Y-105852380D01*
X164758333Y-89107142D02*
X164710714Y-89154761D01*
X164567857Y-89202380D01*
X164472619Y-89202380D01*
X164329761Y-89154761D01*
X164234523Y-89059523D01*
X164186904Y-88964285D01*
X164139285Y-88773809D01*
X164139285Y-88630952D01*
X164186904Y-88440476D01*
X164234523Y-88345238D01*
X164329761Y-88250000D01*
X164472619Y-88202380D01*
X164567857Y-88202380D01*
X164710714Y-88250000D01*
X164758333Y-88297619D01*
X165091666Y-88202380D02*
X165710714Y-88202380D01*
X165377380Y-88583333D01*
X165520238Y-88583333D01*
X165615476Y-88630952D01*
X165663095Y-88678571D01*
X165710714Y-88773809D01*
X165710714Y-89011904D01*
X165663095Y-89107142D01*
X165615476Y-89154761D01*
X165520238Y-89202380D01*
X165234523Y-89202380D01*
X165139285Y-89154761D01*
X165091666Y-89107142D01*
X152708333Y-98727142D02*
X152660714Y-98774761D01*
X152517857Y-98822380D01*
X152422619Y-98822380D01*
X152279761Y-98774761D01*
X152184523Y-98679523D01*
X152136904Y-98584285D01*
X152089285Y-98393809D01*
X152089285Y-98250952D01*
X152136904Y-98060476D01*
X152184523Y-97965238D01*
X152279761Y-97870000D01*
X152422619Y-97822380D01*
X152517857Y-97822380D01*
X152660714Y-97870000D01*
X152708333Y-97917619D01*
X153565476Y-98155714D02*
X153565476Y-98822380D01*
X153327380Y-97774761D02*
X153089285Y-98489047D01*
X153708333Y-98489047D01*
X155762142Y-87291666D02*
X155809761Y-87339285D01*
X155857380Y-87482142D01*
X155857380Y-87577380D01*
X155809761Y-87720238D01*
X155714523Y-87815476D01*
X155619285Y-87863095D01*
X155428809Y-87910714D01*
X155285952Y-87910714D01*
X155095476Y-87863095D01*
X155000238Y-87815476D01*
X154905000Y-87720238D01*
X154857380Y-87577380D01*
X154857380Y-87482142D01*
X154905000Y-87339285D01*
X154952619Y-87291666D01*
X154857380Y-86386904D02*
X154857380Y-86863095D01*
X155333571Y-86910714D01*
X155285952Y-86863095D01*
X155238333Y-86767857D01*
X155238333Y-86529761D01*
X155285952Y-86434523D01*
X155333571Y-86386904D01*
X155428809Y-86339285D01*
X155666904Y-86339285D01*
X155762142Y-86386904D01*
X155809761Y-86434523D01*
X155857380Y-86529761D01*
X155857380Y-86767857D01*
X155809761Y-86863095D01*
X155762142Y-86910714D01*
X150032142Y-99966666D02*
X150079761Y-100014285D01*
X150127380Y-100157142D01*
X150127380Y-100252380D01*
X150079761Y-100395238D01*
X149984523Y-100490476D01*
X149889285Y-100538095D01*
X149698809Y-100585714D01*
X149555952Y-100585714D01*
X149365476Y-100538095D01*
X149270238Y-100490476D01*
X149175000Y-100395238D01*
X149127380Y-100252380D01*
X149127380Y-100157142D01*
X149175000Y-100014285D01*
X149222619Y-99966666D01*
X149127380Y-99109523D02*
X149127380Y-99300000D01*
X149175000Y-99395238D01*
X149222619Y-99442857D01*
X149365476Y-99538095D01*
X149555952Y-99585714D01*
X149936904Y-99585714D01*
X150032142Y-99538095D01*
X150079761Y-99490476D01*
X150127380Y-99395238D01*
X150127380Y-99204761D01*
X150079761Y-99109523D01*
X150032142Y-99061904D01*
X149936904Y-99014285D01*
X149698809Y-99014285D01*
X149603571Y-99061904D01*
X149555952Y-99109523D01*
X149508333Y-99204761D01*
X149508333Y-99395238D01*
X149555952Y-99490476D01*
X149603571Y-99538095D01*
X149698809Y-99585714D01*
X149232142Y-77566666D02*
X149279761Y-77614285D01*
X149327380Y-77757142D01*
X149327380Y-77852380D01*
X149279761Y-77995238D01*
X149184523Y-78090476D01*
X149089285Y-78138095D01*
X148898809Y-78185714D01*
X148755952Y-78185714D01*
X148565476Y-78138095D01*
X148470238Y-78090476D01*
X148375000Y-77995238D01*
X148327380Y-77852380D01*
X148327380Y-77757142D01*
X148375000Y-77614285D01*
X148422619Y-77566666D01*
X148327380Y-77233333D02*
X148327380Y-76566666D01*
X149327380Y-76995238D01*
X151858333Y-76107142D02*
X151810714Y-76154761D01*
X151667857Y-76202380D01*
X151572619Y-76202380D01*
X151429761Y-76154761D01*
X151334523Y-76059523D01*
X151286904Y-75964285D01*
X151239285Y-75773809D01*
X151239285Y-75630952D01*
X151286904Y-75440476D01*
X151334523Y-75345238D01*
X151429761Y-75250000D01*
X151572619Y-75202380D01*
X151667857Y-75202380D01*
X151810714Y-75250000D01*
X151858333Y-75297619D01*
X152429761Y-75630952D02*
X152334523Y-75583333D01*
X152286904Y-75535714D01*
X152239285Y-75440476D01*
X152239285Y-75392857D01*
X152286904Y-75297619D01*
X152334523Y-75250000D01*
X152429761Y-75202380D01*
X152620238Y-75202380D01*
X152715476Y-75250000D01*
X152763095Y-75297619D01*
X152810714Y-75392857D01*
X152810714Y-75440476D01*
X152763095Y-75535714D01*
X152715476Y-75583333D01*
X152620238Y-75630952D01*
X152429761Y-75630952D01*
X152334523Y-75678571D01*
X152286904Y-75726190D01*
X152239285Y-75821428D01*
X152239285Y-76011904D01*
X152286904Y-76107142D01*
X152334523Y-76154761D01*
X152429761Y-76202380D01*
X152620238Y-76202380D01*
X152715476Y-76154761D01*
X152763095Y-76107142D01*
X152810714Y-76011904D01*
X152810714Y-75821428D01*
X152763095Y-75726190D01*
X152715476Y-75678571D01*
X152620238Y-75630952D01*
X166182142Y-76317857D02*
X166229761Y-76365476D01*
X166277380Y-76508333D01*
X166277380Y-76603571D01*
X166229761Y-76746428D01*
X166134523Y-76841666D01*
X166039285Y-76889285D01*
X165848809Y-76936904D01*
X165705952Y-76936904D01*
X165515476Y-76889285D01*
X165420238Y-76841666D01*
X165325000Y-76746428D01*
X165277380Y-76603571D01*
X165277380Y-76508333D01*
X165325000Y-76365476D01*
X165372619Y-76317857D01*
X166277380Y-75365476D02*
X166277380Y-75936904D01*
X166277380Y-75651190D02*
X165277380Y-75651190D01*
X165420238Y-75746428D01*
X165515476Y-75841666D01*
X165563095Y-75936904D01*
X165277380Y-74746428D02*
X165277380Y-74651190D01*
X165325000Y-74555952D01*
X165372619Y-74508333D01*
X165467857Y-74460714D01*
X165658333Y-74413095D01*
X165896428Y-74413095D01*
X166086904Y-74460714D01*
X166182142Y-74508333D01*
X166229761Y-74555952D01*
X166277380Y-74651190D01*
X166277380Y-74746428D01*
X166229761Y-74841666D01*
X166182142Y-74889285D01*
X166086904Y-74936904D01*
X165896428Y-74984523D01*
X165658333Y-74984523D01*
X165467857Y-74936904D01*
X165372619Y-74889285D01*
X165325000Y-74841666D01*
X165277380Y-74746428D01*
X145286904Y-77552380D02*
X145286904Y-76552380D01*
X145525000Y-76552380D01*
X145667857Y-76600000D01*
X145763095Y-76695238D01*
X145810714Y-76790476D01*
X145858333Y-76980952D01*
X145858333Y-77123809D01*
X145810714Y-77314285D01*
X145763095Y-77409523D01*
X145667857Y-77504761D01*
X145525000Y-77552380D01*
X145286904Y-77552380D01*
X146715476Y-76552380D02*
X146525000Y-76552380D01*
X146429761Y-76600000D01*
X146382142Y-76647619D01*
X146286904Y-76790476D01*
X146239285Y-76980952D01*
X146239285Y-77361904D01*
X146286904Y-77457142D01*
X146334523Y-77504761D01*
X146429761Y-77552380D01*
X146620238Y-77552380D01*
X146715476Y-77504761D01*
X146763095Y-77457142D01*
X146810714Y-77361904D01*
X146810714Y-77123809D01*
X146763095Y-77028571D01*
X146715476Y-76980952D01*
X146620238Y-76933333D01*
X146429761Y-76933333D01*
X146334523Y-76980952D01*
X146286904Y-77028571D01*
X146239285Y-77123809D01*
X156191666Y-104752380D02*
X156191666Y-105466666D01*
X156144047Y-105609523D01*
X156048809Y-105704761D01*
X155905952Y-105752380D01*
X155810714Y-105752380D01*
X157191666Y-105752380D02*
X156620238Y-105752380D01*
X156905952Y-105752380D02*
X156905952Y-104752380D01*
X156810714Y-104895238D01*
X156715476Y-104990476D01*
X156620238Y-105038095D01*
X139191666Y-83072380D02*
X139191666Y-83786666D01*
X139144047Y-83929523D01*
X139048809Y-84024761D01*
X138905952Y-84072380D01*
X138810714Y-84072380D01*
X139620238Y-83167619D02*
X139667857Y-83120000D01*
X139763095Y-83072380D01*
X140001190Y-83072380D01*
X140096428Y-83120000D01*
X140144047Y-83167619D01*
X140191666Y-83262857D01*
X140191666Y-83358095D01*
X140144047Y-83500952D01*
X139572619Y-84072380D01*
X140191666Y-84072380D01*
X170016666Y-103087380D02*
X170016666Y-103801666D01*
X169969047Y-103944523D01*
X169873809Y-104039761D01*
X169730952Y-104087380D01*
X169635714Y-104087380D01*
X170397619Y-103087380D02*
X171016666Y-103087380D01*
X170683333Y-103468333D01*
X170826190Y-103468333D01*
X170921428Y-103515952D01*
X170969047Y-103563571D01*
X171016666Y-103658809D01*
X171016666Y-103896904D01*
X170969047Y-103992142D01*
X170921428Y-104039761D01*
X170826190Y-104087380D01*
X170540476Y-104087380D01*
X170445238Y-104039761D01*
X170397619Y-103992142D01*
X164091666Y-83002380D02*
X164091666Y-83716666D01*
X164044047Y-83859523D01*
X163948809Y-83954761D01*
X163805952Y-84002380D01*
X163710714Y-84002380D01*
X164567857Y-84002380D02*
X164567857Y-83002380D01*
X164948809Y-83002380D01*
X165044047Y-83050000D01*
X165091666Y-83097619D01*
X165139285Y-83192857D01*
X165139285Y-83335714D01*
X165091666Y-83430952D01*
X165044047Y-83478571D01*
X164948809Y-83526190D01*
X164567857Y-83526190D01*
X166091666Y-84002380D02*
X165520238Y-84002380D01*
X165805952Y-84002380D02*
X165805952Y-83002380D01*
X165710714Y-83145238D01*
X165615476Y-83240476D01*
X165520238Y-83288095D01*
X164291666Y-87002380D02*
X164291666Y-87716666D01*
X164244047Y-87859523D01*
X164148809Y-87954761D01*
X164005952Y-88002380D01*
X163910714Y-88002380D01*
X164767857Y-88002380D02*
X164767857Y-87002380D01*
X165148809Y-87002380D01*
X165244047Y-87050000D01*
X165291666Y-87097619D01*
X165339285Y-87192857D01*
X165339285Y-87335714D01*
X165291666Y-87430952D01*
X165244047Y-87478571D01*
X165148809Y-87526190D01*
X164767857Y-87526190D01*
X165720238Y-87097619D02*
X165767857Y-87050000D01*
X165863095Y-87002380D01*
X166101190Y-87002380D01*
X166196428Y-87050000D01*
X166244047Y-87097619D01*
X166291666Y-87192857D01*
X166291666Y-87288095D01*
X166244047Y-87430952D01*
X165672619Y-88002380D01*
X166291666Y-88002380D01*
X171891666Y-85702380D02*
X171891666Y-86416666D01*
X171844047Y-86559523D01*
X171748809Y-86654761D01*
X171605952Y-86702380D01*
X171510714Y-86702380D01*
X172367857Y-86702380D02*
X172367857Y-85702380D01*
X172748809Y-85702380D01*
X172844047Y-85750000D01*
X172891666Y-85797619D01*
X172939285Y-85892857D01*
X172939285Y-86035714D01*
X172891666Y-86130952D01*
X172844047Y-86178571D01*
X172748809Y-86226190D01*
X172367857Y-86226190D01*
X173272619Y-85702380D02*
X173891666Y-85702380D01*
X173558333Y-86083333D01*
X173701190Y-86083333D01*
X173796428Y-86130952D01*
X173844047Y-86178571D01*
X173891666Y-86273809D01*
X173891666Y-86511904D01*
X173844047Y-86607142D01*
X173796428Y-86654761D01*
X173701190Y-86702380D01*
X173415476Y-86702380D01*
X173320238Y-86654761D01*
X173272619Y-86607142D01*
X159627380Y-97916666D02*
X159151190Y-98250000D01*
X159627380Y-98488095D02*
X158627380Y-98488095D01*
X158627380Y-98107142D01*
X158675000Y-98011904D01*
X158722619Y-97964285D01*
X158817857Y-97916666D01*
X158960714Y-97916666D01*
X159055952Y-97964285D01*
X159103571Y-98011904D01*
X159151190Y-98107142D01*
X159151190Y-98488095D01*
X159627380Y-96964285D02*
X159627380Y-97535714D01*
X159627380Y-97250000D02*
X158627380Y-97250000D01*
X158770238Y-97345238D01*
X158865476Y-97440476D01*
X158913095Y-97535714D01*
X155027380Y-97816666D02*
X154551190Y-98150000D01*
X155027380Y-98388095D02*
X154027380Y-98388095D01*
X154027380Y-98007142D01*
X154075000Y-97911904D01*
X154122619Y-97864285D01*
X154217857Y-97816666D01*
X154360714Y-97816666D01*
X154455952Y-97864285D01*
X154503571Y-97911904D01*
X154551190Y-98007142D01*
X154551190Y-98388095D01*
X154122619Y-97435714D02*
X154075000Y-97388095D01*
X154027380Y-97292857D01*
X154027380Y-97054761D01*
X154075000Y-96959523D01*
X154122619Y-96911904D01*
X154217857Y-96864285D01*
X154313095Y-96864285D01*
X154455952Y-96911904D01*
X155027380Y-97483333D01*
X155027380Y-96864285D01*
X162358333Y-88002380D02*
X162025000Y-87526190D01*
X161786904Y-88002380D02*
X161786904Y-87002380D01*
X162167857Y-87002380D01*
X162263095Y-87050000D01*
X162310714Y-87097619D01*
X162358333Y-87192857D01*
X162358333Y-87335714D01*
X162310714Y-87430952D01*
X162263095Y-87478571D01*
X162167857Y-87526190D01*
X161786904Y-87526190D01*
X162691666Y-87002380D02*
X163310714Y-87002380D01*
X162977380Y-87383333D01*
X163120238Y-87383333D01*
X163215476Y-87430952D01*
X163263095Y-87478571D01*
X163310714Y-87573809D01*
X163310714Y-87811904D01*
X163263095Y-87907142D01*
X163215476Y-87954761D01*
X163120238Y-88002380D01*
X162834523Y-88002380D01*
X162739285Y-87954761D01*
X162691666Y-87907142D01*
X162358333Y-84002380D02*
X162025000Y-83526190D01*
X161786904Y-84002380D02*
X161786904Y-83002380D01*
X162167857Y-83002380D01*
X162263095Y-83050000D01*
X162310714Y-83097619D01*
X162358333Y-83192857D01*
X162358333Y-83335714D01*
X162310714Y-83430952D01*
X162263095Y-83478571D01*
X162167857Y-83526190D01*
X161786904Y-83526190D01*
X163215476Y-83335714D02*
X163215476Y-84002380D01*
X162977380Y-82954761D02*
X162739285Y-83669047D01*
X163358333Y-83669047D01*
X165483333Y-73102380D02*
X165150000Y-72626190D01*
X164911904Y-73102380D02*
X164911904Y-72102380D01*
X165292857Y-72102380D01*
X165388095Y-72150000D01*
X165435714Y-72197619D01*
X165483333Y-72292857D01*
X165483333Y-72435714D01*
X165435714Y-72530952D01*
X165388095Y-72578571D01*
X165292857Y-72626190D01*
X164911904Y-72626190D01*
X165816666Y-72102380D02*
X166483333Y-72102380D01*
X166054761Y-73102380D01*
X163952380Y-75266666D02*
X163476190Y-75600000D01*
X163952380Y-75838095D02*
X162952380Y-75838095D01*
X162952380Y-75457142D01*
X163000000Y-75361904D01*
X163047619Y-75314285D01*
X163142857Y-75266666D01*
X163285714Y-75266666D01*
X163380952Y-75314285D01*
X163428571Y-75361904D01*
X163476190Y-75457142D01*
X163476190Y-75838095D01*
X163380952Y-74695238D02*
X163333333Y-74790476D01*
X163285714Y-74838095D01*
X163190476Y-74885714D01*
X163142857Y-74885714D01*
X163047619Y-74838095D01*
X163000000Y-74790476D01*
X162952380Y-74695238D01*
X162952380Y-74504761D01*
X163000000Y-74409523D01*
X163047619Y-74361904D01*
X163142857Y-74314285D01*
X163190476Y-74314285D01*
X163285714Y-74361904D01*
X163333333Y-74409523D01*
X163380952Y-74504761D01*
X163380952Y-74695238D01*
X163428571Y-74790476D01*
X163476190Y-74838095D01*
X163571428Y-74885714D01*
X163761904Y-74885714D01*
X163857142Y-74838095D01*
X163904761Y-74790476D01*
X163952380Y-74695238D01*
X163952380Y-74504761D01*
X163904761Y-74409523D01*
X163857142Y-74361904D01*
X163761904Y-74314285D01*
X163571428Y-74314285D01*
X163476190Y-74361904D01*
X163428571Y-74409523D01*
X163380952Y-74504761D01*
X167808333Y-74227380D02*
X167475000Y-73751190D01*
X167236904Y-74227380D02*
X167236904Y-73227380D01*
X167617857Y-73227380D01*
X167713095Y-73275000D01*
X167760714Y-73322619D01*
X167808333Y-73417857D01*
X167808333Y-73560714D01*
X167760714Y-73655952D01*
X167713095Y-73703571D01*
X167617857Y-73751190D01*
X167236904Y-73751190D01*
X168284523Y-74227380D02*
X168475000Y-74227380D01*
X168570238Y-74179761D01*
X168617857Y-74132142D01*
X168713095Y-73989285D01*
X168760714Y-73798809D01*
X168760714Y-73417857D01*
X168713095Y-73322619D01*
X168665476Y-73275000D01*
X168570238Y-73227380D01*
X168379761Y-73227380D01*
X168284523Y-73275000D01*
X168236904Y-73322619D01*
X168189285Y-73417857D01*
X168189285Y-73655952D01*
X168236904Y-73751190D01*
X168284523Y-73798809D01*
X168379761Y-73846428D01*
X168570238Y-73846428D01*
X168665476Y-73798809D01*
X168713095Y-73751190D01*
X168760714Y-73655952D01*
X172182142Y-85402380D02*
X171848809Y-84926190D01*
X171610714Y-85402380D02*
X171610714Y-84402380D01*
X171991666Y-84402380D01*
X172086904Y-84450000D01*
X172134523Y-84497619D01*
X172182142Y-84592857D01*
X172182142Y-84735714D01*
X172134523Y-84830952D01*
X172086904Y-84878571D01*
X171991666Y-84926190D01*
X171610714Y-84926190D01*
X173134523Y-85402380D02*
X172563095Y-85402380D01*
X172848809Y-85402380D02*
X172848809Y-84402380D01*
X172753571Y-84545238D01*
X172658333Y-84640476D01*
X172563095Y-84688095D01*
X173753571Y-84402380D02*
X173848809Y-84402380D01*
X173944047Y-84450000D01*
X173991666Y-84497619D01*
X174039285Y-84592857D01*
X174086904Y-84783333D01*
X174086904Y-85021428D01*
X174039285Y-85211904D01*
X173991666Y-85307142D01*
X173944047Y-85354761D01*
X173848809Y-85402380D01*
X173753571Y-85402380D01*
X173658333Y-85354761D01*
X173610714Y-85307142D01*
X173563095Y-85211904D01*
X173515476Y-85021428D01*
X173515476Y-84783333D01*
X173563095Y-84592857D01*
X173610714Y-84497619D01*
X173658333Y-84450000D01*
X173753571Y-84402380D01*
X152832142Y-83402380D02*
X152498809Y-82926190D01*
X152260714Y-83402380D02*
X152260714Y-82402380D01*
X152641666Y-82402380D01*
X152736904Y-82450000D01*
X152784523Y-82497619D01*
X152832142Y-82592857D01*
X152832142Y-82735714D01*
X152784523Y-82830952D01*
X152736904Y-82878571D01*
X152641666Y-82926190D01*
X152260714Y-82926190D01*
X153784523Y-83402380D02*
X153213095Y-83402380D01*
X153498809Y-83402380D02*
X153498809Y-82402380D01*
X153403571Y-82545238D01*
X153308333Y-82640476D01*
X153213095Y-82688095D01*
X154736904Y-83402380D02*
X154165476Y-83402380D01*
X154451190Y-83402380D02*
X154451190Y-82402380D01*
X154355952Y-82545238D01*
X154260714Y-82640476D01*
X154165476Y-82688095D01*
X155913095Y-92472380D02*
X155913095Y-93281904D01*
X155960714Y-93377142D01*
X156008333Y-93424761D01*
X156103571Y-93472380D01*
X156294047Y-93472380D01*
X156389285Y-93424761D01*
X156436904Y-93377142D01*
X156484523Y-93281904D01*
X156484523Y-92472380D01*
X157484523Y-93472380D02*
X156913095Y-93472380D01*
X157198809Y-93472380D02*
X157198809Y-92472380D01*
X157103571Y-92615238D01*
X157008333Y-92710476D01*
X156913095Y-92758095D01*
X168613095Y-77982380D02*
X168613095Y-78791904D01*
X168660714Y-78887142D01*
X168708333Y-78934761D01*
X168803571Y-78982380D01*
X168994047Y-78982380D01*
X169089285Y-78934761D01*
X169136904Y-78887142D01*
X169184523Y-78791904D01*
X169184523Y-77982380D01*
X169565476Y-77982380D02*
X170232142Y-77982380D01*
X169803571Y-78982380D01*
X167802380Y-100863095D02*
X166802380Y-100863095D01*
X166802380Y-100625000D01*
X166850000Y-100482142D01*
X166945238Y-100386904D01*
X167040476Y-100339285D01*
X167230952Y-100291666D01*
X167373809Y-100291666D01*
X167564285Y-100339285D01*
X167659523Y-100386904D01*
X167754761Y-100482142D01*
X167802380Y-100625000D01*
X167802380Y-100863095D01*
X167230952Y-99720238D02*
X167183333Y-99815476D01*
X167135714Y-99863095D01*
X167040476Y-99910714D01*
X166992857Y-99910714D01*
X166897619Y-99863095D01*
X166850000Y-99815476D01*
X166802380Y-99720238D01*
X166802380Y-99529761D01*
X166850000Y-99434523D01*
X166897619Y-99386904D01*
X166992857Y-99339285D01*
X167040476Y-99339285D01*
X167135714Y-99386904D01*
X167183333Y-99434523D01*
X167230952Y-99529761D01*
X167230952Y-99720238D01*
X167278571Y-99815476D01*
X167326190Y-99863095D01*
X167421428Y-99910714D01*
X167611904Y-99910714D01*
X167707142Y-99863095D01*
X167754761Y-99815476D01*
X167802380Y-99720238D01*
X167802380Y-99529761D01*
X167754761Y-99434523D01*
X167707142Y-99386904D01*
X167611904Y-99339285D01*
X167421428Y-99339285D01*
X167326190Y-99386904D01*
X167278571Y-99434523D01*
X167230952Y-99529761D01*
X145063095Y-104802380D02*
X145063095Y-105611904D01*
X145110714Y-105707142D01*
X145158333Y-105754761D01*
X145253571Y-105802380D01*
X145444047Y-105802380D01*
X145539285Y-105754761D01*
X145586904Y-105707142D01*
X145634523Y-105611904D01*
X145634523Y-104802380D01*
X146063095Y-104897619D02*
X146110714Y-104850000D01*
X146205952Y-104802380D01*
X146444047Y-104802380D01*
X146539285Y-104850000D01*
X146586904Y-104897619D01*
X146634523Y-104992857D01*
X146634523Y-105088095D01*
X146586904Y-105230952D01*
X146015476Y-105802380D01*
X146634523Y-105802380D01*
X158827380Y-102061904D02*
X159636904Y-102061904D01*
X159732142Y-102014285D01*
X159779761Y-101966666D01*
X159827380Y-101871428D01*
X159827380Y-101680952D01*
X159779761Y-101585714D01*
X159732142Y-101538095D01*
X159636904Y-101490476D01*
X158827380Y-101490476D01*
X158827380Y-101109523D02*
X158827380Y-100490476D01*
X159208333Y-100823809D01*
X159208333Y-100680952D01*
X159255952Y-100585714D01*
X159303571Y-100538095D01*
X159398809Y-100490476D01*
X159636904Y-100490476D01*
X159732142Y-100538095D01*
X159779761Y-100585714D01*
X159827380Y-100680952D01*
X159827380Y-100966666D01*
X159779761Y-101061904D01*
X159732142Y-101109523D01*
X158227380Y-87188095D02*
X157227380Y-87188095D01*
X157227380Y-86950000D01*
X157275000Y-86807142D01*
X157370238Y-86711904D01*
X157465476Y-86664285D01*
X157655952Y-86616666D01*
X157798809Y-86616666D01*
X157989285Y-86664285D01*
X158084523Y-86711904D01*
X158179761Y-86807142D01*
X158227380Y-86950000D01*
X158227380Y-87188095D01*
X158227380Y-85664285D02*
X158227380Y-86235714D01*
X158227380Y-85950000D02*
X157227380Y-85950000D01*
X157370238Y-86045238D01*
X157465476Y-86140476D01*
X157513095Y-86235714D01*
X159086904Y-84052380D02*
X159086904Y-83052380D01*
X159325000Y-83052380D01*
X159467857Y-83100000D01*
X159563095Y-83195238D01*
X159610714Y-83290476D01*
X159658333Y-83480952D01*
X159658333Y-83623809D01*
X159610714Y-83814285D01*
X159563095Y-83909523D01*
X159467857Y-84004761D01*
X159325000Y-84052380D01*
X159086904Y-84052380D01*
X160039285Y-83147619D02*
X160086904Y-83100000D01*
X160182142Y-83052380D01*
X160420238Y-83052380D01*
X160515476Y-83100000D01*
X160563095Y-83147619D01*
X160610714Y-83242857D01*
X160610714Y-83338095D01*
X160563095Y-83480952D01*
X159991666Y-84052380D01*
X160610714Y-84052380D01*
X149336904Y-106852380D02*
X149336904Y-105852380D01*
X149575000Y-105852380D01*
X149717857Y-105900000D01*
X149813095Y-105995238D01*
X149860714Y-106090476D01*
X149908333Y-106280952D01*
X149908333Y-106423809D01*
X149860714Y-106614285D01*
X149813095Y-106709523D01*
X149717857Y-106804761D01*
X149575000Y-106852380D01*
X149336904Y-106852380D01*
X150241666Y-105852380D02*
X150860714Y-105852380D01*
X150527380Y-106233333D01*
X150670238Y-106233333D01*
X150765476Y-106280952D01*
X150813095Y-106328571D01*
X150860714Y-106423809D01*
X150860714Y-106661904D01*
X150813095Y-106757142D01*
X150765476Y-106804761D01*
X150670238Y-106852380D01*
X150384523Y-106852380D01*
X150289285Y-106804761D01*
X150241666Y-106757142D01*
X150077380Y-96738095D02*
X149077380Y-96738095D01*
X149077380Y-96500000D01*
X149125000Y-96357142D01*
X149220238Y-96261904D01*
X149315476Y-96214285D01*
X149505952Y-96166666D01*
X149648809Y-96166666D01*
X149839285Y-96214285D01*
X149934523Y-96261904D01*
X150029761Y-96357142D01*
X150077380Y-96500000D01*
X150077380Y-96738095D01*
X149410714Y-95309523D02*
X150077380Y-95309523D01*
X149029761Y-95547619D02*
X149744047Y-95785714D01*
X149744047Y-95166666D01*
X145336904Y-81752380D02*
X145336904Y-80752380D01*
X145575000Y-80752380D01*
X145717857Y-80800000D01*
X145813095Y-80895238D01*
X145860714Y-80990476D01*
X145908333Y-81180952D01*
X145908333Y-81323809D01*
X145860714Y-81514285D01*
X145813095Y-81609523D01*
X145717857Y-81704761D01*
X145575000Y-81752380D01*
X145336904Y-81752380D01*
X146813095Y-80752380D02*
X146336904Y-80752380D01*
X146289285Y-81228571D01*
X146336904Y-81180952D01*
X146432142Y-81133333D01*
X146670238Y-81133333D01*
X146765476Y-81180952D01*
X146813095Y-81228571D01*
X146860714Y-81323809D01*
X146860714Y-81561904D01*
X146813095Y-81657142D01*
X146765476Y-81704761D01*
X146670238Y-81752380D01*
X146432142Y-81752380D01*
X146336904Y-81704761D01*
X146289285Y-81657142D01*
X150127380Y-98738095D02*
X149127380Y-98738095D01*
X149127380Y-98500000D01*
X149175000Y-98357142D01*
X149270238Y-98261904D01*
X149365476Y-98214285D01*
X149555952Y-98166666D01*
X149698809Y-98166666D01*
X149889285Y-98214285D01*
X149984523Y-98261904D01*
X150079761Y-98357142D01*
X150127380Y-98500000D01*
X150127380Y-98738095D01*
X149127380Y-97833333D02*
X149127380Y-97166666D01*
X150127380Y-97595238D01*
X139013095Y-105502380D02*
X139013095Y-104502380D01*
X139013095Y-104978571D02*
X139584523Y-104978571D01*
X139584523Y-105502380D02*
X139584523Y-104502380D01*
X140013095Y-104597619D02*
X140060714Y-104550000D01*
X140155952Y-104502380D01*
X140394047Y-104502380D01*
X140489285Y-104550000D01*
X140536904Y-104597619D01*
X140584523Y-104692857D01*
X140584523Y-104788095D01*
X140536904Y-104930952D01*
X139965476Y-105502380D01*
X140584523Y-105502380D01*
X172663095Y-105502380D02*
X172663095Y-104502380D01*
X172663095Y-104978571D02*
X173234523Y-104978571D01*
X173234523Y-105502380D02*
X173234523Y-104502380D01*
X173615476Y-104502380D02*
X174234523Y-104502380D01*
X173901190Y-104883333D01*
X174044047Y-104883333D01*
X174139285Y-104930952D01*
X174186904Y-104978571D01*
X174234523Y-105073809D01*
X174234523Y-105311904D01*
X174186904Y-105407142D01*
X174139285Y-105454761D01*
X174044047Y-105502380D01*
X173758333Y-105502380D01*
X173663095Y-105454761D01*
X173615476Y-105407142D01*
X172663095Y-77752380D02*
X172663095Y-76752380D01*
X172663095Y-77228571D02*
X173234523Y-77228571D01*
X173234523Y-77752380D02*
X173234523Y-76752380D01*
X174139285Y-77085714D02*
X174139285Y-77752380D01*
X173901190Y-76704761D02*
X173663095Y-77419047D01*
X174282142Y-77419047D01*
X139013095Y-77752380D02*
X139013095Y-76752380D01*
X139013095Y-77228571D02*
X139584523Y-77228571D01*
X139584523Y-77752380D02*
X139584523Y-76752380D01*
X140584523Y-77752380D02*
X140013095Y-77752380D01*
X140298809Y-77752380D02*
X140298809Y-76752380D01*
X140203571Y-76895238D01*
X140108333Y-76990476D01*
X140013095Y-77038095D01*
M02*
