G04 #@! TF.GenerationSoftware,KiCad,Pcbnew,(5.1.0)-1*
G04 #@! TF.CreationDate,2020-09-23T23:54:54-05:00*
G04 #@! TF.ProjectId,low_cost_multispectral_sensor,6c6f775f-636f-4737-945f-6d756c746973,rev?*
G04 #@! TF.SameCoordinates,Original*
G04 #@! TF.FileFunction,Soldermask,Top*
G04 #@! TF.FilePolarity,Negative*
%FSLAX46Y46*%
G04 Gerber Fmt 4.6, Leading zero omitted, Abs format (unit mm)*
G04 Created by KiCad (PCBNEW (5.1.0)-1) date 2020-09-23 23:54:54*
%MOMM*%
%LPD*%
G04 APERTURE LIST*
%ADD10C,0.100000*%
G04 APERTURE END LIST*
D10*
G36*
X153050862Y-108648398D02*
G01*
X153063114Y-108649000D01*
X154276000Y-108649000D01*
X154276000Y-110651000D01*
X153063114Y-110651000D01*
X153050862Y-110651602D01*
X153025000Y-110654149D01*
X152999138Y-110651602D01*
X152986886Y-110651000D01*
X152913594Y-110651000D01*
X152896836Y-110642043D01*
X152885299Y-110637915D01*
X152800307Y-110612132D01*
X152774664Y-110604354D01*
X152661575Y-110543906D01*
X152562447Y-110462554D01*
X152481094Y-110363424D01*
X152420646Y-110250335D01*
X152410960Y-110218403D01*
X152383420Y-110127617D01*
X152374000Y-110031972D01*
X152374000Y-109268027D01*
X152383420Y-109172382D01*
X152420645Y-109049668D01*
X152481096Y-108936574D01*
X152562447Y-108837446D01*
X152661576Y-108756094D01*
X152774666Y-108695646D01*
X152774669Y-108695645D01*
X152885290Y-108662088D01*
X152907925Y-108652712D01*
X152913481Y-108649000D01*
X152986886Y-108649000D01*
X152999138Y-108648398D01*
X153025000Y-108645851D01*
X153050862Y-108648398D01*
X153050862Y-108648398D01*
G37*
G36*
X160050862Y-108648398D02*
G01*
X160063114Y-108649000D01*
X160136406Y-108649000D01*
X160153164Y-108657957D01*
X160164707Y-108662087D01*
X160275331Y-108695645D01*
X160275334Y-108695646D01*
X160388424Y-108756094D01*
X160487554Y-108837447D01*
X160568906Y-108936575D01*
X160629354Y-109049664D01*
X160635657Y-109070444D01*
X160666580Y-109172382D01*
X160676000Y-109268027D01*
X160676000Y-110031973D01*
X160666580Y-110127618D01*
X160639040Y-110218404D01*
X160629354Y-110250336D01*
X160568906Y-110363425D01*
X160487554Y-110462554D01*
X160388425Y-110543906D01*
X160275336Y-110604354D01*
X160249693Y-110612132D01*
X160164708Y-110637913D01*
X160142075Y-110647287D01*
X160136518Y-110651000D01*
X160063114Y-110651000D01*
X160050862Y-110651602D01*
X160025000Y-110654149D01*
X159999138Y-110651602D01*
X159986886Y-110651000D01*
X158774000Y-110651000D01*
X158774000Y-108649000D01*
X159986886Y-108649000D01*
X159999138Y-108648398D01*
X160025000Y-108645851D01*
X160050862Y-108648398D01*
X160050862Y-108648398D01*
G37*
G36*
X156326000Y-110651000D02*
G01*
X154724000Y-110651000D01*
X154724000Y-108649000D01*
X156326000Y-108649000D01*
X156326000Y-110651000D01*
X156326000Y-110651000D01*
G37*
G36*
X158326000Y-110651000D02*
G01*
X156724000Y-110651000D01*
X156724000Y-108649000D01*
X158326000Y-108649000D01*
X158326000Y-110651000D01*
X158326000Y-110651000D01*
G37*
G36*
X173700880Y-106009776D02*
G01*
X174081593Y-106085504D01*
X174491249Y-106255189D01*
X174859929Y-106501534D01*
X175173466Y-106815071D01*
X175419811Y-107183751D01*
X175589496Y-107593407D01*
X175676000Y-108028296D01*
X175676000Y-108471704D01*
X175589496Y-108906593D01*
X175419811Y-109316249D01*
X175173466Y-109684929D01*
X174859929Y-109998466D01*
X174491249Y-110244811D01*
X174081593Y-110414496D01*
X173700880Y-110490224D01*
X173646705Y-110501000D01*
X173203295Y-110501000D01*
X173149120Y-110490224D01*
X172768407Y-110414496D01*
X172358751Y-110244811D01*
X171990071Y-109998466D01*
X171676534Y-109684929D01*
X171430189Y-109316249D01*
X171260504Y-108906593D01*
X171174000Y-108471704D01*
X171174000Y-108028296D01*
X171260504Y-107593407D01*
X171430189Y-107183751D01*
X171676534Y-106815071D01*
X171990071Y-106501534D01*
X172358751Y-106255189D01*
X172768407Y-106085504D01*
X173149120Y-106009776D01*
X173203295Y-105999000D01*
X173646705Y-105999000D01*
X173700880Y-106009776D01*
X173700880Y-106009776D01*
G37*
G36*
X140050880Y-106009776D02*
G01*
X140431593Y-106085504D01*
X140841249Y-106255189D01*
X141209929Y-106501534D01*
X141523466Y-106815071D01*
X141769811Y-107183751D01*
X141939496Y-107593407D01*
X142026000Y-108028296D01*
X142026000Y-108471704D01*
X141939496Y-108906593D01*
X141769811Y-109316249D01*
X141523466Y-109684929D01*
X141209929Y-109998466D01*
X140841249Y-110244811D01*
X140431593Y-110414496D01*
X140050880Y-110490224D01*
X139996705Y-110501000D01*
X139553295Y-110501000D01*
X139499120Y-110490224D01*
X139118407Y-110414496D01*
X138708751Y-110244811D01*
X138340071Y-109998466D01*
X138026534Y-109684929D01*
X137780189Y-109316249D01*
X137610504Y-108906593D01*
X137524000Y-108471704D01*
X137524000Y-108028296D01*
X137610504Y-107593407D01*
X137780189Y-107183751D01*
X138026534Y-106815071D01*
X138340071Y-106501534D01*
X138708751Y-106255189D01*
X139118407Y-106085504D01*
X139499120Y-106009776D01*
X139553295Y-105999000D01*
X139996705Y-105999000D01*
X140050880Y-106009776D01*
X140050880Y-106009776D01*
G37*
G36*
X166048831Y-107444669D02*
G01*
X166220445Y-107478805D01*
X166451571Y-107574541D01*
X166479806Y-107593407D01*
X166633617Y-107696180D01*
X166659578Y-107713527D01*
X166836473Y-107890422D01*
X166975459Y-108098429D01*
X167071195Y-108329555D01*
X167120000Y-108574916D01*
X167120000Y-108825084D01*
X167075328Y-109049669D01*
X167071195Y-109070444D01*
X166989354Y-109268027D01*
X166975459Y-109301571D01*
X166836473Y-109509578D01*
X166659578Y-109686473D01*
X166451571Y-109825459D01*
X166220445Y-109921195D01*
X166097764Y-109945598D01*
X165975085Y-109970000D01*
X165724915Y-109970000D01*
X165602236Y-109945598D01*
X165479555Y-109921195D01*
X165248429Y-109825459D01*
X165040422Y-109686473D01*
X164863527Y-109509578D01*
X164724541Y-109301571D01*
X164710647Y-109268027D01*
X164628805Y-109070444D01*
X164624673Y-109049669D01*
X164580000Y-108825084D01*
X164580000Y-108574916D01*
X164628805Y-108329555D01*
X164724541Y-108098429D01*
X164863527Y-107890422D01*
X165040422Y-107713527D01*
X165066384Y-107696180D01*
X165220194Y-107593407D01*
X165248429Y-107574541D01*
X165479555Y-107478805D01*
X165651169Y-107444669D01*
X165724915Y-107430000D01*
X165975085Y-107430000D01*
X166048831Y-107444669D01*
X166048831Y-107444669D01*
G37*
G36*
X154251348Y-106203820D02*
G01*
X154251350Y-106203821D01*
X154251351Y-106203821D01*
X154392574Y-106262317D01*
X154392577Y-106262319D01*
X154519669Y-106347239D01*
X154627761Y-106455331D01*
X154684375Y-106540060D01*
X154712683Y-106582426D01*
X154733517Y-106632725D01*
X154745068Y-106654336D01*
X154760614Y-106673278D01*
X154779556Y-106688823D01*
X154801166Y-106700374D01*
X154824615Y-106707487D01*
X154849001Y-106709889D01*
X154873387Y-106707487D01*
X154896836Y-106700374D01*
X154918447Y-106688823D01*
X154937389Y-106673277D01*
X154952934Y-106654335D01*
X154964485Y-106632725D01*
X154971598Y-106609276D01*
X154974000Y-106584890D01*
X154974000Y-106224000D01*
X158076000Y-106224000D01*
X158076000Y-106584890D01*
X158078402Y-106609276D01*
X158085515Y-106632725D01*
X158097066Y-106654336D01*
X158112611Y-106673278D01*
X158131553Y-106688823D01*
X158153164Y-106700374D01*
X158176613Y-106707487D01*
X158200999Y-106709889D01*
X158225385Y-106707487D01*
X158248834Y-106700374D01*
X158270445Y-106688823D01*
X158289387Y-106673278D01*
X158304932Y-106654336D01*
X158316483Y-106632725D01*
X158337317Y-106582426D01*
X158365625Y-106540060D01*
X158422239Y-106455331D01*
X158530331Y-106347239D01*
X158657423Y-106262319D01*
X158657426Y-106262317D01*
X158798649Y-106203821D01*
X158798650Y-106203821D01*
X158798652Y-106203820D01*
X158948569Y-106174000D01*
X159101431Y-106174000D01*
X159251348Y-106203820D01*
X159251350Y-106203821D01*
X159251351Y-106203821D01*
X159392574Y-106262317D01*
X159392577Y-106262319D01*
X159519669Y-106347239D01*
X159627761Y-106455331D01*
X159712681Y-106582423D01*
X159712683Y-106582426D01*
X159771179Y-106723649D01*
X159801000Y-106873571D01*
X159801000Y-107026429D01*
X159771179Y-107176351D01*
X159712683Y-107317574D01*
X159712682Y-107317575D01*
X159712681Y-107317577D01*
X159627761Y-107444669D01*
X159519669Y-107552761D01*
X159392577Y-107637681D01*
X159392574Y-107637683D01*
X159251351Y-107696179D01*
X159251350Y-107696179D01*
X159251348Y-107696180D01*
X159101431Y-107726000D01*
X158948569Y-107726000D01*
X158798652Y-107696180D01*
X158798650Y-107696179D01*
X158798649Y-107696179D01*
X158657426Y-107637683D01*
X158657423Y-107637681D01*
X158530331Y-107552761D01*
X158422239Y-107444669D01*
X158337318Y-107317575D01*
X158337317Y-107317574D01*
X158316481Y-107267272D01*
X158304932Y-107245664D01*
X158289386Y-107226722D01*
X158270444Y-107211177D01*
X158248834Y-107199626D01*
X158225385Y-107192513D01*
X158200999Y-107190111D01*
X158176613Y-107192513D01*
X158153164Y-107199626D01*
X158131553Y-107211177D01*
X158112611Y-107226723D01*
X158097066Y-107245665D01*
X158085515Y-107267275D01*
X158078402Y-107290724D01*
X158076000Y-107315110D01*
X158076000Y-107676000D01*
X154974000Y-107676000D01*
X154974000Y-107315110D01*
X154971598Y-107290724D01*
X154964485Y-107267275D01*
X154952934Y-107245664D01*
X154937389Y-107226722D01*
X154918447Y-107211177D01*
X154896836Y-107199626D01*
X154873387Y-107192513D01*
X154849001Y-107190111D01*
X154824615Y-107192513D01*
X154801166Y-107199626D01*
X154779555Y-107211177D01*
X154760613Y-107226722D01*
X154745068Y-107245664D01*
X154733519Y-107267272D01*
X154712683Y-107317574D01*
X154712682Y-107317575D01*
X154627761Y-107444669D01*
X154519669Y-107552761D01*
X154392577Y-107637681D01*
X154392574Y-107637683D01*
X154251351Y-107696179D01*
X154251350Y-107696179D01*
X154251348Y-107696180D01*
X154101431Y-107726000D01*
X153948569Y-107726000D01*
X153798652Y-107696180D01*
X153798650Y-107696179D01*
X153798649Y-107696179D01*
X153657426Y-107637683D01*
X153657423Y-107637681D01*
X153530331Y-107552761D01*
X153422239Y-107444669D01*
X153337319Y-107317577D01*
X153337318Y-107317575D01*
X153337317Y-107317574D01*
X153278821Y-107176351D01*
X153249000Y-107026429D01*
X153249000Y-106873571D01*
X153278821Y-106723649D01*
X153337317Y-106582426D01*
X153337319Y-106582423D01*
X153422239Y-106455331D01*
X153530331Y-106347239D01*
X153657423Y-106262319D01*
X153657426Y-106262317D01*
X153798649Y-106203821D01*
X153798650Y-106203821D01*
X153798652Y-106203820D01*
X153948569Y-106174000D01*
X154101431Y-106174000D01*
X154251348Y-106203820D01*
X154251348Y-106203820D01*
G37*
G36*
X150426000Y-105351000D02*
G01*
X149624000Y-105351000D01*
X149624000Y-104649000D01*
X150426000Y-104649000D01*
X150426000Y-105351000D01*
X150426000Y-105351000D01*
G37*
G36*
X148826000Y-105101000D02*
G01*
X148224000Y-105101000D01*
X148224000Y-104399000D01*
X148826000Y-104399000D01*
X148826000Y-105101000D01*
X148826000Y-105101000D01*
G37*
G36*
X148826000Y-104001000D02*
G01*
X148224000Y-104001000D01*
X148224000Y-103299000D01*
X148826000Y-103299000D01*
X148826000Y-104001000D01*
X148826000Y-104001000D01*
G37*
G36*
X150426000Y-103951000D02*
G01*
X149624000Y-103951000D01*
X149624000Y-103249000D01*
X150426000Y-103249000D01*
X150426000Y-103951000D01*
X150426000Y-103951000D01*
G37*
G36*
X145306000Y-103776000D02*
G01*
X144144000Y-103776000D01*
X144144000Y-103024000D01*
X145306000Y-103024000D01*
X145306000Y-103776000D01*
X145306000Y-103776000D01*
G37*
G36*
X147506000Y-103776000D02*
G01*
X146344000Y-103776000D01*
X146344000Y-101124000D01*
X147506000Y-101124000D01*
X147506000Y-103776000D01*
X147506000Y-103776000D01*
G37*
G36*
X143326000Y-103551000D02*
G01*
X142724000Y-103551000D01*
X142724000Y-102849000D01*
X143326000Y-102849000D01*
X143326000Y-103551000D01*
X143326000Y-103551000D01*
G37*
G36*
X139847765Y-100854403D02*
G01*
X139970445Y-100878805D01*
X140201571Y-100974541D01*
X140306279Y-101044505D01*
X140389334Y-101100000D01*
X140409578Y-101113527D01*
X140586473Y-101290422D01*
X140725459Y-101498429D01*
X140821195Y-101729555D01*
X140870000Y-101974916D01*
X140870000Y-102225084D01*
X140821195Y-102470445D01*
X140725459Y-102701571D01*
X140586473Y-102909578D01*
X140409578Y-103086473D01*
X140201571Y-103225459D01*
X139970445Y-103321195D01*
X139847764Y-103345598D01*
X139725085Y-103370000D01*
X139474915Y-103370000D01*
X139352236Y-103345598D01*
X139229555Y-103321195D01*
X138998429Y-103225459D01*
X138790422Y-103086473D01*
X138613527Y-102909578D01*
X138474541Y-102701571D01*
X138378805Y-102470445D01*
X138330000Y-102225084D01*
X138330000Y-101974916D01*
X138378805Y-101729555D01*
X138474541Y-101498429D01*
X138613527Y-101290422D01*
X138790422Y-101113527D01*
X138810667Y-101100000D01*
X138893721Y-101044505D01*
X138998429Y-100974541D01*
X139229555Y-100878805D01*
X139352235Y-100854403D01*
X139474915Y-100830000D01*
X139725085Y-100830000D01*
X139847765Y-100854403D01*
X139847765Y-100854403D01*
G37*
G36*
X143326000Y-102451000D02*
G01*
X142724000Y-102451000D01*
X142724000Y-101749000D01*
X143326000Y-101749000D01*
X143326000Y-102451000D01*
X143326000Y-102451000D01*
G37*
G36*
X156401000Y-102026000D02*
G01*
X155999000Y-102026000D01*
X155999000Y-101624000D01*
X156401000Y-101624000D01*
X156401000Y-102026000D01*
X156401000Y-102026000D01*
G37*
G36*
X145306000Y-101876000D02*
G01*
X144144000Y-101876000D01*
X144144000Y-101124000D01*
X145306000Y-101124000D01*
X145306000Y-101876000D01*
X145306000Y-101876000D01*
G37*
G36*
X167976000Y-101826000D02*
G01*
X166524000Y-101826000D01*
X166524000Y-100374000D01*
X167976000Y-100374000D01*
X167976000Y-101826000D01*
X167976000Y-101826000D01*
G37*
G36*
X173321213Y-100377502D02*
G01*
X173392321Y-100384505D01*
X173529172Y-100426019D01*
X173529175Y-100426020D01*
X173655294Y-100493432D01*
X173765843Y-100584157D01*
X173856568Y-100694706D01*
X173923980Y-100820825D01*
X173923981Y-100820828D01*
X173965495Y-100957679D01*
X173979512Y-101100000D01*
X173965495Y-101242321D01*
X173950903Y-101290422D01*
X173923980Y-101379175D01*
X173856568Y-101505294D01*
X173765843Y-101615843D01*
X173655294Y-101706568D01*
X173529175Y-101773980D01*
X173529172Y-101773981D01*
X173392321Y-101815495D01*
X173321213Y-101822498D01*
X173285660Y-101826000D01*
X173214340Y-101826000D01*
X173178787Y-101822498D01*
X173107679Y-101815495D01*
X172970828Y-101773981D01*
X172970825Y-101773980D01*
X172844706Y-101706568D01*
X172734157Y-101615843D01*
X172643432Y-101505294D01*
X172576020Y-101379175D01*
X172549097Y-101290422D01*
X172534505Y-101242321D01*
X172520488Y-101100000D01*
X172534505Y-100957679D01*
X172576019Y-100820828D01*
X172576020Y-100820825D01*
X172643432Y-100694706D01*
X172734157Y-100584157D01*
X172844706Y-100493432D01*
X172970825Y-100426020D01*
X172970828Y-100426019D01*
X173107679Y-100384505D01*
X173178787Y-100377502D01*
X173214340Y-100374000D01*
X173285660Y-100374000D01*
X173321213Y-100377502D01*
X173321213Y-100377502D01*
G37*
G36*
X171321213Y-100377502D02*
G01*
X171392321Y-100384505D01*
X171529172Y-100426019D01*
X171529175Y-100426020D01*
X171655294Y-100493432D01*
X171765843Y-100584157D01*
X171856568Y-100694706D01*
X171923980Y-100820825D01*
X171923981Y-100820828D01*
X171965495Y-100957679D01*
X171979512Y-101100000D01*
X171965495Y-101242321D01*
X171950903Y-101290422D01*
X171923980Y-101379175D01*
X171856568Y-101505294D01*
X171765843Y-101615843D01*
X171655294Y-101706568D01*
X171529175Y-101773980D01*
X171529172Y-101773981D01*
X171392321Y-101815495D01*
X171321213Y-101822498D01*
X171285660Y-101826000D01*
X171214340Y-101826000D01*
X171178787Y-101822498D01*
X171107679Y-101815495D01*
X170970828Y-101773981D01*
X170970825Y-101773980D01*
X170844706Y-101706568D01*
X170734157Y-101615843D01*
X170643432Y-101505294D01*
X170576020Y-101379175D01*
X170549097Y-101290422D01*
X170534505Y-101242321D01*
X170520488Y-101100000D01*
X170534505Y-100957679D01*
X170576019Y-100820828D01*
X170576020Y-100820825D01*
X170643432Y-100694706D01*
X170734157Y-100584157D01*
X170844706Y-100493432D01*
X170970825Y-100426020D01*
X170970828Y-100426019D01*
X171107679Y-100384505D01*
X171178787Y-100377502D01*
X171214340Y-100374000D01*
X171285660Y-100374000D01*
X171321213Y-100377502D01*
X171321213Y-100377502D01*
G37*
G36*
X169321213Y-100377502D02*
G01*
X169392321Y-100384505D01*
X169529172Y-100426019D01*
X169529175Y-100426020D01*
X169655294Y-100493432D01*
X169765843Y-100584157D01*
X169856568Y-100694706D01*
X169923980Y-100820825D01*
X169923981Y-100820828D01*
X169965495Y-100957679D01*
X169979512Y-101100000D01*
X169965495Y-101242321D01*
X169950903Y-101290422D01*
X169923980Y-101379175D01*
X169856568Y-101505294D01*
X169765843Y-101615843D01*
X169655294Y-101706568D01*
X169529175Y-101773980D01*
X169529172Y-101773981D01*
X169392321Y-101815495D01*
X169321213Y-101822498D01*
X169285660Y-101826000D01*
X169214340Y-101826000D01*
X169178787Y-101822498D01*
X169107679Y-101815495D01*
X168970828Y-101773981D01*
X168970825Y-101773980D01*
X168844706Y-101706568D01*
X168734157Y-101615843D01*
X168643432Y-101505294D01*
X168576020Y-101379175D01*
X168549097Y-101290422D01*
X168534505Y-101242321D01*
X168520488Y-101100000D01*
X168534505Y-100957679D01*
X168576019Y-100820828D01*
X168576020Y-100820825D01*
X168643432Y-100694706D01*
X168734157Y-100584157D01*
X168844706Y-100493432D01*
X168970825Y-100426020D01*
X168970828Y-100426019D01*
X169107679Y-100384505D01*
X169178787Y-100377502D01*
X169214340Y-100374000D01*
X169285660Y-100374000D01*
X169321213Y-100377502D01*
X169321213Y-100377502D01*
G37*
G36*
X156051000Y-101176000D02*
G01*
X155649000Y-101176000D01*
X155649000Y-100774000D01*
X156051000Y-100774000D01*
X156051000Y-101176000D01*
X156051000Y-101176000D01*
G37*
G36*
X156751000Y-101176000D02*
G01*
X156349000Y-101176000D01*
X156349000Y-100774000D01*
X156751000Y-100774000D01*
X156751000Y-101176000D01*
X156751000Y-101176000D01*
G37*
G36*
X148376000Y-100001000D02*
G01*
X147674000Y-100001000D01*
X147674000Y-99399000D01*
X148376000Y-99399000D01*
X148376000Y-100001000D01*
X148376000Y-100001000D01*
G37*
G36*
X147276000Y-100001000D02*
G01*
X146574000Y-100001000D01*
X146574000Y-99399000D01*
X147276000Y-99399000D01*
X147276000Y-100001000D01*
X147276000Y-100001000D01*
G37*
G36*
X167321213Y-98377502D02*
G01*
X167392321Y-98384505D01*
X167529172Y-98426019D01*
X167529175Y-98426020D01*
X167655294Y-98493432D01*
X167765843Y-98584157D01*
X167856568Y-98694706D01*
X167923980Y-98820825D01*
X167923981Y-98820828D01*
X167965495Y-98957679D01*
X167979512Y-99100000D01*
X167965495Y-99242321D01*
X167923981Y-99379172D01*
X167923980Y-99379175D01*
X167856568Y-99505294D01*
X167765843Y-99615843D01*
X167655294Y-99706568D01*
X167529175Y-99773980D01*
X167529172Y-99773981D01*
X167392321Y-99815495D01*
X167321213Y-99822498D01*
X167285660Y-99826000D01*
X167214340Y-99826000D01*
X167178787Y-99822498D01*
X167107679Y-99815495D01*
X166970828Y-99773981D01*
X166970825Y-99773980D01*
X166844706Y-99706568D01*
X166734157Y-99615843D01*
X166643432Y-99505294D01*
X166576020Y-99379175D01*
X166576019Y-99379172D01*
X166534505Y-99242321D01*
X166520488Y-99100000D01*
X166534505Y-98957679D01*
X166576019Y-98820828D01*
X166576020Y-98820825D01*
X166643432Y-98694706D01*
X166734157Y-98584157D01*
X166844706Y-98493432D01*
X166970825Y-98426020D01*
X166970828Y-98426019D01*
X167107679Y-98384505D01*
X167178787Y-98377502D01*
X167214340Y-98374000D01*
X167285660Y-98374000D01*
X167321213Y-98377502D01*
X167321213Y-98377502D01*
G37*
G36*
X169321213Y-98377502D02*
G01*
X169392321Y-98384505D01*
X169529172Y-98426019D01*
X169529175Y-98426020D01*
X169655294Y-98493432D01*
X169765843Y-98584157D01*
X169856568Y-98694706D01*
X169923980Y-98820825D01*
X169923981Y-98820828D01*
X169965495Y-98957679D01*
X169979512Y-99100000D01*
X169965495Y-99242321D01*
X169923981Y-99379172D01*
X169923980Y-99379175D01*
X169856568Y-99505294D01*
X169765843Y-99615843D01*
X169655294Y-99706568D01*
X169529175Y-99773980D01*
X169529172Y-99773981D01*
X169392321Y-99815495D01*
X169321213Y-99822498D01*
X169285660Y-99826000D01*
X169214340Y-99826000D01*
X169178787Y-99822498D01*
X169107679Y-99815495D01*
X168970828Y-99773981D01*
X168970825Y-99773980D01*
X168844706Y-99706568D01*
X168734157Y-99615843D01*
X168643432Y-99505294D01*
X168576020Y-99379175D01*
X168576019Y-99379172D01*
X168534505Y-99242321D01*
X168520488Y-99100000D01*
X168534505Y-98957679D01*
X168576019Y-98820828D01*
X168576020Y-98820825D01*
X168643432Y-98694706D01*
X168734157Y-98584157D01*
X168844706Y-98493432D01*
X168970825Y-98426020D01*
X168970828Y-98426019D01*
X169107679Y-98384505D01*
X169178787Y-98377502D01*
X169214340Y-98374000D01*
X169285660Y-98374000D01*
X169321213Y-98377502D01*
X169321213Y-98377502D01*
G37*
G36*
X171321213Y-98377502D02*
G01*
X171392321Y-98384505D01*
X171529172Y-98426019D01*
X171529175Y-98426020D01*
X171655294Y-98493432D01*
X171765843Y-98584157D01*
X171856568Y-98694706D01*
X171923980Y-98820825D01*
X171923981Y-98820828D01*
X171965495Y-98957679D01*
X171979512Y-99100000D01*
X171965495Y-99242321D01*
X171923981Y-99379172D01*
X171923980Y-99379175D01*
X171856568Y-99505294D01*
X171765843Y-99615843D01*
X171655294Y-99706568D01*
X171529175Y-99773980D01*
X171529172Y-99773981D01*
X171392321Y-99815495D01*
X171321213Y-99822498D01*
X171285660Y-99826000D01*
X171214340Y-99826000D01*
X171178787Y-99822498D01*
X171107679Y-99815495D01*
X170970828Y-99773981D01*
X170970825Y-99773980D01*
X170844706Y-99706568D01*
X170734157Y-99615843D01*
X170643432Y-99505294D01*
X170576020Y-99379175D01*
X170576019Y-99379172D01*
X170534505Y-99242321D01*
X170520488Y-99100000D01*
X170534505Y-98957679D01*
X170576019Y-98820828D01*
X170576020Y-98820825D01*
X170643432Y-98694706D01*
X170734157Y-98584157D01*
X170844706Y-98493432D01*
X170970825Y-98426020D01*
X170970828Y-98426019D01*
X171107679Y-98384505D01*
X171178787Y-98377502D01*
X171214340Y-98374000D01*
X171285660Y-98374000D01*
X171321213Y-98377502D01*
X171321213Y-98377502D01*
G37*
G36*
X173321213Y-98377502D02*
G01*
X173392321Y-98384505D01*
X173529172Y-98426019D01*
X173529175Y-98426020D01*
X173655294Y-98493432D01*
X173765843Y-98584157D01*
X173856568Y-98694706D01*
X173923980Y-98820825D01*
X173923981Y-98820828D01*
X173965495Y-98957679D01*
X173979512Y-99100000D01*
X173965495Y-99242321D01*
X173923981Y-99379172D01*
X173923980Y-99379175D01*
X173856568Y-99505294D01*
X173765843Y-99615843D01*
X173655294Y-99706568D01*
X173529175Y-99773980D01*
X173529172Y-99773981D01*
X173392321Y-99815495D01*
X173321213Y-99822498D01*
X173285660Y-99826000D01*
X173214340Y-99826000D01*
X173178787Y-99822498D01*
X173107679Y-99815495D01*
X172970828Y-99773981D01*
X172970825Y-99773980D01*
X172844706Y-99706568D01*
X172734157Y-99615843D01*
X172643432Y-99505294D01*
X172576020Y-99379175D01*
X172576019Y-99379172D01*
X172534505Y-99242321D01*
X172520488Y-99100000D01*
X172534505Y-98957679D01*
X172576019Y-98820828D01*
X172576020Y-98820825D01*
X172643432Y-98694706D01*
X172734157Y-98584157D01*
X172844706Y-98493432D01*
X172970825Y-98426020D01*
X172970828Y-98426019D01*
X173107679Y-98384505D01*
X173178787Y-98377502D01*
X173214340Y-98374000D01*
X173285660Y-98374000D01*
X173321213Y-98377502D01*
X173321213Y-98377502D01*
G37*
G36*
X147276000Y-98801000D02*
G01*
X146574000Y-98801000D01*
X146574000Y-97999000D01*
X147276000Y-97999000D01*
X147276000Y-98801000D01*
X147276000Y-98801000D01*
G37*
G36*
X148676000Y-98801000D02*
G01*
X147974000Y-98801000D01*
X147974000Y-97999000D01*
X148676000Y-97999000D01*
X148676000Y-98801000D01*
X148676000Y-98801000D01*
G37*
G36*
X156276000Y-98451000D02*
G01*
X155574000Y-98451000D01*
X155574000Y-97949000D01*
X156276000Y-97949000D01*
X156276000Y-98451000D01*
X156276000Y-98451000D01*
G37*
G36*
X157551000Y-98451000D02*
G01*
X156849000Y-98451000D01*
X156849000Y-97949000D01*
X157551000Y-97949000D01*
X157551000Y-98451000D01*
X157551000Y-98451000D01*
G37*
G36*
X156276000Y-97551000D02*
G01*
X155574000Y-97551000D01*
X155574000Y-97049000D01*
X156276000Y-97049000D01*
X156276000Y-97551000D01*
X156276000Y-97551000D01*
G37*
G36*
X157551000Y-97551000D02*
G01*
X156849000Y-97551000D01*
X156849000Y-97049000D01*
X157551000Y-97049000D01*
X157551000Y-97551000D01*
X157551000Y-97551000D01*
G37*
G36*
X152676000Y-97401000D02*
G01*
X151974000Y-97401000D01*
X151974000Y-96799000D01*
X152676000Y-96799000D01*
X152676000Y-97401000D01*
X152676000Y-97401000D01*
G37*
G36*
X153776000Y-97401000D02*
G01*
X153074000Y-97401000D01*
X153074000Y-96799000D01*
X153776000Y-96799000D01*
X153776000Y-97401000D01*
X153776000Y-97401000D01*
G37*
G36*
X147276000Y-96951000D02*
G01*
X146574000Y-96951000D01*
X146574000Y-96149000D01*
X147276000Y-96149000D01*
X147276000Y-96951000D01*
X147276000Y-96951000D01*
G37*
G36*
X148676000Y-96951000D02*
G01*
X147974000Y-96951000D01*
X147974000Y-96149000D01*
X148676000Y-96149000D01*
X148676000Y-96951000D01*
X148676000Y-96951000D01*
G37*
G36*
X171626000Y-95631000D02*
G01*
X168974000Y-95631000D01*
X168974000Y-94469000D01*
X171626000Y-94469000D01*
X171626000Y-95631000D01*
X171626000Y-95631000D01*
G37*
G36*
X156980000Y-95420500D02*
G01*
X156370000Y-95420500D01*
X156370000Y-94175500D01*
X156980000Y-94175500D01*
X156980000Y-95420500D01*
X156980000Y-95420500D01*
G37*
G36*
X155710000Y-95420500D02*
G01*
X155100000Y-95420500D01*
X155100000Y-94175500D01*
X155710000Y-94175500D01*
X155710000Y-95420500D01*
X155710000Y-95420500D01*
G37*
G36*
X160790000Y-95420500D02*
G01*
X160180000Y-95420500D01*
X160180000Y-94175500D01*
X160790000Y-94175500D01*
X160790000Y-95420500D01*
X160790000Y-95420500D01*
G37*
G36*
X159520000Y-95420500D02*
G01*
X158910000Y-95420500D01*
X158910000Y-94175500D01*
X159520000Y-94175500D01*
X159520000Y-95420500D01*
X159520000Y-95420500D01*
G37*
G36*
X158250000Y-95420500D02*
G01*
X157640000Y-95420500D01*
X157640000Y-94175500D01*
X158250000Y-94175500D01*
X158250000Y-95420500D01*
X158250000Y-95420500D01*
G37*
G36*
X153170000Y-95420500D02*
G01*
X152560000Y-95420500D01*
X152560000Y-94175500D01*
X153170000Y-94175500D01*
X153170000Y-95420500D01*
X153170000Y-95420500D01*
G37*
G36*
X154440000Y-95420500D02*
G01*
X153830000Y-95420500D01*
X153830000Y-94175500D01*
X154440000Y-94175500D01*
X154440000Y-95420500D01*
X154440000Y-95420500D01*
G37*
G36*
X139760442Y-92705518D02*
G01*
X139826627Y-92712037D01*
X139996466Y-92763557D01*
X140152991Y-92847222D01*
X140188729Y-92876552D01*
X140290186Y-92959814D01*
X140373448Y-93061271D01*
X140402778Y-93097009D01*
X140486443Y-93253534D01*
X140537963Y-93423373D01*
X140555359Y-93600000D01*
X140537963Y-93776627D01*
X140486443Y-93946466D01*
X140402778Y-94102991D01*
X140373448Y-94138729D01*
X140290186Y-94240186D01*
X140188729Y-94323448D01*
X140152991Y-94352778D01*
X139996466Y-94436443D01*
X139826627Y-94487963D01*
X139760442Y-94494482D01*
X139694260Y-94501000D01*
X139605740Y-94501000D01*
X139539558Y-94494482D01*
X139473373Y-94487963D01*
X139303534Y-94436443D01*
X139147009Y-94352778D01*
X139111271Y-94323448D01*
X139009814Y-94240186D01*
X138926552Y-94138729D01*
X138897222Y-94102991D01*
X138813557Y-93946466D01*
X138762037Y-93776627D01*
X138744641Y-93600000D01*
X138762037Y-93423373D01*
X138813557Y-93253534D01*
X138897222Y-93097009D01*
X138926552Y-93061271D01*
X139009814Y-92959814D01*
X139111271Y-92876552D01*
X139147009Y-92847222D01*
X139303534Y-92763557D01*
X139473373Y-92712037D01*
X139539558Y-92705518D01*
X139605740Y-92699000D01*
X139694260Y-92699000D01*
X139760442Y-92705518D01*
X139760442Y-92705518D01*
G37*
G36*
X171626000Y-93431000D02*
G01*
X168974000Y-93431000D01*
X168974000Y-92269000D01*
X171626000Y-92269000D01*
X171626000Y-93431000D01*
X171626000Y-93431000D01*
G37*
G36*
X140551000Y-91961000D02*
G01*
X138749000Y-91961000D01*
X138749000Y-90159000D01*
X140551000Y-90159000D01*
X140551000Y-91961000D01*
X140551000Y-91961000D01*
G37*
G36*
X160790000Y-89070500D02*
G01*
X160180000Y-89070500D01*
X160180000Y-87825500D01*
X160790000Y-87825500D01*
X160790000Y-89070500D01*
X160790000Y-89070500D01*
G37*
G36*
X156980000Y-89070500D02*
G01*
X156370000Y-89070500D01*
X156370000Y-87825500D01*
X156980000Y-87825500D01*
X156980000Y-89070500D01*
X156980000Y-89070500D01*
G37*
G36*
X158250000Y-89070500D02*
G01*
X157640000Y-89070500D01*
X157640000Y-87825500D01*
X158250000Y-87825500D01*
X158250000Y-89070500D01*
X158250000Y-89070500D01*
G37*
G36*
X155710000Y-89070500D02*
G01*
X155100000Y-89070500D01*
X155100000Y-87825500D01*
X155710000Y-87825500D01*
X155710000Y-89070500D01*
X155710000Y-89070500D01*
G37*
G36*
X153170000Y-89070500D02*
G01*
X152560000Y-89070500D01*
X152560000Y-87825500D01*
X153170000Y-87825500D01*
X153170000Y-89070500D01*
X153170000Y-89070500D01*
G37*
G36*
X154440000Y-89070500D02*
G01*
X153830000Y-89070500D01*
X153830000Y-87825500D01*
X154440000Y-87825500D01*
X154440000Y-89070500D01*
X154440000Y-89070500D01*
G37*
G36*
X159520000Y-89070500D02*
G01*
X158910000Y-89070500D01*
X158910000Y-87825500D01*
X159520000Y-87825500D01*
X159520000Y-89070500D01*
X159520000Y-89070500D01*
G37*
G36*
X163826000Y-89001000D02*
G01*
X163124000Y-89001000D01*
X163124000Y-88399000D01*
X163826000Y-88399000D01*
X163826000Y-89001000D01*
X163826000Y-89001000D01*
G37*
G36*
X162726000Y-89001000D02*
G01*
X162024000Y-89001000D01*
X162024000Y-88399000D01*
X162726000Y-88399000D01*
X162726000Y-89001000D01*
X162726000Y-89001000D01*
G37*
G36*
X170926000Y-87651000D02*
G01*
X170424000Y-87651000D01*
X170424000Y-86949000D01*
X170926000Y-86949000D01*
X170926000Y-87651000D01*
X170926000Y-87651000D01*
G37*
G36*
X170026000Y-87651000D02*
G01*
X169524000Y-87651000D01*
X169524000Y-86949000D01*
X170026000Y-86949000D01*
X170026000Y-87651000D01*
X170026000Y-87651000D01*
G37*
G36*
X156976000Y-87126000D02*
G01*
X156374000Y-87126000D01*
X156374000Y-86424000D01*
X156976000Y-86424000D01*
X156976000Y-87126000D01*
X156976000Y-87126000D01*
G37*
G36*
X161076000Y-86901000D02*
G01*
X160374000Y-86901000D01*
X160374000Y-85999000D01*
X161076000Y-85999000D01*
X161076000Y-86901000D01*
X161076000Y-86901000D01*
G37*
G36*
X159376000Y-86901000D02*
G01*
X158674000Y-86901000D01*
X158674000Y-85999000D01*
X159376000Y-85999000D01*
X159376000Y-86901000D01*
X159376000Y-86901000D01*
G37*
G36*
X162326000Y-86551000D02*
G01*
X161824000Y-86551000D01*
X161824000Y-85849000D01*
X162326000Y-85849000D01*
X162326000Y-86551000D01*
X162326000Y-86551000D01*
G37*
G36*
X163226000Y-86551000D02*
G01*
X162724000Y-86551000D01*
X162724000Y-85849000D01*
X163226000Y-85849000D01*
X163226000Y-86551000D01*
X163226000Y-86551000D01*
G37*
G36*
X164576000Y-86551000D02*
G01*
X164074000Y-86551000D01*
X164074000Y-85849000D01*
X164576000Y-85849000D01*
X164576000Y-86551000D01*
X164576000Y-86551000D01*
G37*
G36*
X165476000Y-86551000D02*
G01*
X164974000Y-86551000D01*
X164974000Y-85849000D01*
X165476000Y-85849000D01*
X165476000Y-86551000D01*
X165476000Y-86551000D01*
G37*
G36*
X170026000Y-86551000D02*
G01*
X169524000Y-86551000D01*
X169524000Y-85849000D01*
X170026000Y-85849000D01*
X170026000Y-86551000D01*
X170026000Y-86551000D01*
G37*
G36*
X170926000Y-86551000D02*
G01*
X170424000Y-86551000D01*
X170424000Y-85849000D01*
X170926000Y-85849000D01*
X170926000Y-86551000D01*
X170926000Y-86551000D01*
G37*
G36*
X156976000Y-86026000D02*
G01*
X156374000Y-86026000D01*
X156374000Y-85324000D01*
X156976000Y-85324000D01*
X156976000Y-86026000D01*
X156976000Y-86026000D01*
G37*
G36*
X159376000Y-85351000D02*
G01*
X158674000Y-85351000D01*
X158674000Y-84449000D01*
X159376000Y-84449000D01*
X159376000Y-85351000D01*
X159376000Y-85351000D01*
G37*
G36*
X161076000Y-85351000D02*
G01*
X160374000Y-85351000D01*
X160374000Y-84449000D01*
X161076000Y-84449000D01*
X161076000Y-85351000D01*
X161076000Y-85351000D01*
G37*
G36*
X165476000Y-85251000D02*
G01*
X164974000Y-85251000D01*
X164974000Y-84549000D01*
X165476000Y-84549000D01*
X165476000Y-85251000D01*
X165476000Y-85251000D01*
G37*
G36*
X163226000Y-85251000D02*
G01*
X162724000Y-85251000D01*
X162724000Y-84549000D01*
X163226000Y-84549000D01*
X163226000Y-85251000D01*
X163226000Y-85251000D01*
G37*
G36*
X162326000Y-85251000D02*
G01*
X161824000Y-85251000D01*
X161824000Y-84549000D01*
X162326000Y-84549000D01*
X162326000Y-85251000D01*
X162326000Y-85251000D01*
G37*
G36*
X164576000Y-85251000D02*
G01*
X164074000Y-85251000D01*
X164074000Y-84549000D01*
X164576000Y-84549000D01*
X164576000Y-85251000D01*
X164576000Y-85251000D01*
G37*
G36*
X168795000Y-84847500D02*
G01*
X168185000Y-84847500D01*
X168185000Y-83602500D01*
X168795000Y-83602500D01*
X168795000Y-84847500D01*
X168795000Y-84847500D01*
G37*
G36*
X170065000Y-84847500D02*
G01*
X169455000Y-84847500D01*
X169455000Y-83602500D01*
X170065000Y-83602500D01*
X170065000Y-84847500D01*
X170065000Y-84847500D01*
G37*
G36*
X171335000Y-84847500D02*
G01*
X170725000Y-84847500D01*
X170725000Y-83602500D01*
X171335000Y-83602500D01*
X171335000Y-84847500D01*
X171335000Y-84847500D01*
G37*
G36*
X167525000Y-84847500D02*
G01*
X166915000Y-84847500D01*
X166915000Y-83602500D01*
X167525000Y-83602500D01*
X167525000Y-84847500D01*
X167525000Y-84847500D01*
G37*
G36*
X153476000Y-81901000D02*
G01*
X152974000Y-81901000D01*
X152974000Y-81199000D01*
X153476000Y-81199000D01*
X153476000Y-81901000D01*
X153476000Y-81901000D01*
G37*
G36*
X154376000Y-81901000D02*
G01*
X153874000Y-81901000D01*
X153874000Y-81199000D01*
X154376000Y-81199000D01*
X154376000Y-81901000D01*
X154376000Y-81901000D01*
G37*
G36*
X139997764Y-79304402D02*
G01*
X140120445Y-79328805D01*
X140351571Y-79424541D01*
X140559578Y-79563527D01*
X140736473Y-79740422D01*
X140875459Y-79948429D01*
X140971195Y-80179555D01*
X141020000Y-80424916D01*
X141020000Y-80675084D01*
X140971195Y-80920445D01*
X140875459Y-81151571D01*
X140736473Y-81359578D01*
X140559578Y-81536473D01*
X140351571Y-81675459D01*
X140120445Y-81771195D01*
X139997765Y-81795597D01*
X139875085Y-81820000D01*
X139624915Y-81820000D01*
X139502236Y-81795598D01*
X139379555Y-81771195D01*
X139148429Y-81675459D01*
X138940422Y-81536473D01*
X138763527Y-81359578D01*
X138624541Y-81151571D01*
X138528805Y-80920445D01*
X138480000Y-80675084D01*
X138480000Y-80424916D01*
X138528805Y-80179555D01*
X138624541Y-79948429D01*
X138763527Y-79740422D01*
X138940422Y-79563527D01*
X139148429Y-79424541D01*
X139379555Y-79328805D01*
X139502236Y-79304402D01*
X139624915Y-79280000D01*
X139875085Y-79280000D01*
X139997764Y-79304402D01*
X139997764Y-79304402D01*
G37*
G36*
X165926000Y-80576000D02*
G01*
X165324000Y-80576000D01*
X165324000Y-79874000D01*
X165926000Y-79874000D01*
X165926000Y-80576000D01*
X165926000Y-80576000D01*
G37*
G36*
X145576000Y-80351000D02*
G01*
X144874000Y-80351000D01*
X144874000Y-79449000D01*
X145576000Y-79449000D01*
X145576000Y-80351000D01*
X145576000Y-80351000D01*
G37*
G36*
X147276000Y-80351000D02*
G01*
X146574000Y-80351000D01*
X146574000Y-79449000D01*
X147276000Y-79449000D01*
X147276000Y-80351000D01*
X147276000Y-80351000D01*
G37*
G36*
X158078402Y-79051613D02*
G01*
X158076000Y-79075999D01*
X158076000Y-80251000D01*
X155074000Y-80251000D01*
X155074000Y-79075999D01*
X155071598Y-79051613D01*
X155070805Y-79049000D01*
X158079195Y-79049000D01*
X158078402Y-79051613D01*
X158078402Y-79051613D01*
G37*
G36*
X165926000Y-79476000D02*
G01*
X165324000Y-79476000D01*
X165324000Y-78774000D01*
X165926000Y-78774000D01*
X165926000Y-79476000D01*
X165926000Y-79476000D01*
G37*
G36*
X154878402Y-75951613D02*
G01*
X154876000Y-75975999D01*
X154876000Y-78924001D01*
X154878402Y-78948387D01*
X154879195Y-78951000D01*
X153674000Y-78951000D01*
X153674000Y-75949000D01*
X154879195Y-75949000D01*
X154878402Y-75951613D01*
X154878402Y-75951613D01*
G37*
G36*
X159476000Y-78951000D02*
G01*
X158270805Y-78951000D01*
X158271598Y-78948387D01*
X158274000Y-78924001D01*
X158274000Y-75975999D01*
X158271598Y-75951613D01*
X158270805Y-75949000D01*
X159476000Y-75949000D01*
X159476000Y-78951000D01*
X159476000Y-78951000D01*
G37*
G36*
X167525000Y-78497500D02*
G01*
X166915000Y-78497500D01*
X166915000Y-77252500D01*
X167525000Y-77252500D01*
X167525000Y-78497500D01*
X167525000Y-78497500D01*
G37*
G36*
X168795000Y-78497500D02*
G01*
X168185000Y-78497500D01*
X168185000Y-77252500D01*
X168795000Y-77252500D01*
X168795000Y-78497500D01*
X168795000Y-78497500D01*
G37*
G36*
X170065000Y-78497500D02*
G01*
X169455000Y-78497500D01*
X169455000Y-77252500D01*
X170065000Y-77252500D01*
X170065000Y-78497500D01*
X170065000Y-78497500D01*
G37*
G36*
X171335000Y-78497500D02*
G01*
X170725000Y-78497500D01*
X170725000Y-77252500D01*
X171335000Y-77252500D01*
X171335000Y-78497500D01*
X171335000Y-78497500D01*
G37*
G36*
X150326000Y-78301000D02*
G01*
X149724000Y-78301000D01*
X149724000Y-77599000D01*
X150326000Y-77599000D01*
X150326000Y-78301000D01*
X150326000Y-78301000D01*
G37*
G36*
X152151000Y-78276000D02*
G01*
X151549000Y-78276000D01*
X151549000Y-77574000D01*
X152151000Y-77574000D01*
X152151000Y-78276000D01*
X152151000Y-78276000D01*
G37*
G36*
X150326000Y-77201000D02*
G01*
X149724000Y-77201000D01*
X149724000Y-76499000D01*
X150326000Y-76499000D01*
X150326000Y-77201000D01*
X150326000Y-77201000D01*
G37*
G36*
X152151000Y-77176000D02*
G01*
X151549000Y-77176000D01*
X151549000Y-76474000D01*
X152151000Y-76474000D01*
X152151000Y-77176000D01*
X152151000Y-77176000D01*
G37*
G36*
X168426000Y-76726000D02*
G01*
X167924000Y-76726000D01*
X167924000Y-76024000D01*
X168426000Y-76024000D01*
X168426000Y-76726000D01*
X168426000Y-76726000D01*
G37*
G36*
X167526000Y-76726000D02*
G01*
X167024000Y-76726000D01*
X167024000Y-76024000D01*
X167526000Y-76024000D01*
X167526000Y-76726000D01*
X167526000Y-76726000D01*
G37*
G36*
X173700880Y-71859776D02*
G01*
X174081593Y-71935504D01*
X174491249Y-72105189D01*
X174859929Y-72351534D01*
X175173466Y-72665071D01*
X175419811Y-73033751D01*
X175589496Y-73443407D01*
X175676000Y-73878296D01*
X175676000Y-74321704D01*
X175589496Y-74756593D01*
X175419811Y-75166249D01*
X175173466Y-75534929D01*
X174859929Y-75848466D01*
X174491249Y-76094811D01*
X174081593Y-76264496D01*
X173700880Y-76340224D01*
X173646705Y-76351000D01*
X173203295Y-76351000D01*
X173149120Y-76340224D01*
X172768407Y-76264496D01*
X172358751Y-76094811D01*
X171990071Y-75848466D01*
X171676534Y-75534929D01*
X171430189Y-75166249D01*
X171260504Y-74756593D01*
X171174000Y-74321704D01*
X171174000Y-73878296D01*
X171260504Y-73443407D01*
X171430189Y-73033751D01*
X171676534Y-72665071D01*
X171990071Y-72351534D01*
X172358751Y-72105189D01*
X172768407Y-71935504D01*
X173149120Y-71859776D01*
X173203295Y-71849000D01*
X173646705Y-71849000D01*
X173700880Y-71859776D01*
X173700880Y-71859776D01*
G37*
G36*
X140050880Y-71859776D02*
G01*
X140431593Y-71935504D01*
X140841249Y-72105189D01*
X141209929Y-72351534D01*
X141523466Y-72665071D01*
X141769811Y-73033751D01*
X141939496Y-73443407D01*
X142026000Y-73878296D01*
X142026000Y-74321704D01*
X141939496Y-74756593D01*
X141769811Y-75166249D01*
X141523466Y-75534929D01*
X141209929Y-75848466D01*
X140841249Y-76094811D01*
X140431593Y-76264496D01*
X140050880Y-76340224D01*
X139996705Y-76351000D01*
X139553295Y-76351000D01*
X139499120Y-76340224D01*
X139118407Y-76264496D01*
X138708751Y-76094811D01*
X138340071Y-75848466D01*
X138026534Y-75534929D01*
X137780189Y-75166249D01*
X137610504Y-74756593D01*
X137524000Y-74321704D01*
X137524000Y-73878296D01*
X137610504Y-73443407D01*
X137780189Y-73033751D01*
X138026534Y-72665071D01*
X138340071Y-72351534D01*
X138708751Y-72105189D01*
X139118407Y-71935504D01*
X139499120Y-71859776D01*
X139553295Y-71849000D01*
X139996705Y-71849000D01*
X140050880Y-71859776D01*
X140050880Y-71859776D01*
G37*
G36*
X145076000Y-76151000D02*
G01*
X143974000Y-76151000D01*
X143974000Y-74449000D01*
X145076000Y-74449000D01*
X145076000Y-76151000D01*
X145076000Y-76151000D01*
G37*
G36*
X148076000Y-76151000D02*
G01*
X146974000Y-76151000D01*
X146974000Y-74449000D01*
X148076000Y-74449000D01*
X148076000Y-76151000D01*
X148076000Y-76151000D01*
G37*
G36*
X158076000Y-75824001D02*
G01*
X158078402Y-75848387D01*
X158079195Y-75851000D01*
X155070805Y-75851000D01*
X155071598Y-75848387D01*
X155074000Y-75824001D01*
X155074000Y-74649000D01*
X158076000Y-74649000D01*
X158076000Y-75824001D01*
X158076000Y-75824001D01*
G37*
G36*
X162501000Y-75801000D02*
G01*
X161799000Y-75801000D01*
X161799000Y-75299000D01*
X162501000Y-75299000D01*
X162501000Y-75801000D01*
X162501000Y-75801000D01*
G37*
G36*
X162501000Y-74901000D02*
G01*
X161799000Y-74901000D01*
X161799000Y-74399000D01*
X162501000Y-74399000D01*
X162501000Y-74901000D01*
X162501000Y-74901000D01*
G37*
G36*
X163401000Y-73151000D02*
G01*
X162899000Y-73151000D01*
X162899000Y-72449000D01*
X163401000Y-72449000D01*
X163401000Y-73151000D01*
X163401000Y-73151000D01*
G37*
G36*
X162501000Y-73151000D02*
G01*
X161999000Y-73151000D01*
X161999000Y-72449000D01*
X162501000Y-72449000D01*
X162501000Y-73151000D01*
X162501000Y-73151000D01*
G37*
M02*
