G04 #@! TF.GenerationSoftware,KiCad,Pcbnew,(5.1.0)-1*
G04 #@! TF.CreationDate,2020-09-23T23:54:54-05:00*
G04 #@! TF.ProjectId,low_cost_multispectral_sensor,6c6f775f-636f-4737-945f-6d756c746973,rev?*
G04 #@! TF.SameCoordinates,Original*
G04 #@! TF.FileFunction,Copper,L1,Top*
G04 #@! TF.FilePolarity,Positive*
%FSLAX46Y46*%
G04 Gerber Fmt 4.6, Leading zero omitted, Abs format (unit mm)*
G04 Created by KiCad (PCBNEW (5.1.0)-1) date 2020-09-23 23:54:54*
%MOMM*%
%LPD*%
G04 APERTURE LIST*
%ADD10R,1.100000X0.300000*%
%ADD11R,0.300000X1.100000*%
%ADD12R,0.508000X1.143000*%
%ADD13C,1.000000*%
%ADD14R,1.700000X1.700000*%
%ADD15O,1.700000X1.700000*%
%ADD16R,1.350000X1.350000*%
%ADD17O,1.350000X1.350000*%
%ADD18R,0.300000X0.300000*%
%ADD19R,0.500000X0.600000*%
%ADD20R,0.600000X0.500000*%
%ADD21R,1.000000X1.600000*%
%ADD22R,1.500000X1.900000*%
%ADD23C,1.450000*%
%ADD24R,0.400000X1.350000*%
%ADD25O,1.200000X1.900000*%
%ADD26R,1.200000X1.900000*%
%ADD27R,0.400000X0.600000*%
%ADD28R,0.600000X0.400000*%
%ADD29R,0.650000X1.060000*%
%ADD30R,1.060000X0.650000*%
%ADD31R,0.600000X0.800000*%
%ADD32R,0.700000X0.600000*%
%ADD33R,0.600000X0.700000*%
%ADD34C,4.400000*%
%ADD35C,0.800000*%
%ADD36C,0.250000*%
%ADD37C,0.200000*%
%ADD38C,0.500000*%
%ADD39C,0.400000*%
%ADD40C,0.254000*%
G04 APERTURE END LIST*
D10*
X154275000Y-78750000D03*
X154275000Y-78100000D03*
X154275000Y-77450000D03*
X154275000Y-76800000D03*
X154275000Y-76150000D03*
D11*
X155275000Y-75250000D03*
X155925000Y-75250000D03*
X156575000Y-75250000D03*
X157225000Y-75250000D03*
X157875000Y-75250000D03*
D10*
X158875000Y-76150000D03*
X158875000Y-76800000D03*
X158875000Y-77450000D03*
X158875000Y-78100000D03*
X158875000Y-78750000D03*
D11*
X157875000Y-79650000D03*
X157225000Y-79650000D03*
X156575000Y-79650000D03*
X155925000Y-79650000D03*
X155275000Y-79650000D03*
D12*
X155405000Y-94798000D03*
X160485000Y-94798000D03*
X159215000Y-94798000D03*
X157945000Y-94798000D03*
X156675000Y-94798000D03*
X154135000Y-94798000D03*
X152865000Y-94798000D03*
X152865000Y-88448000D03*
X154135000Y-88448000D03*
X155405000Y-88448000D03*
X156675000Y-88448000D03*
X157945000Y-88448000D03*
X159215000Y-88448000D03*
X160485000Y-88448000D03*
D13*
X165850000Y-108700000D03*
X139600000Y-102100000D03*
X139750000Y-80550000D03*
D14*
X139650000Y-91060000D03*
D15*
X139650000Y-93600000D03*
D16*
X167250000Y-101100000D03*
D17*
X167250000Y-99100000D03*
X169250000Y-101100000D03*
X169250000Y-99100000D03*
X171250000Y-101100000D03*
X171250000Y-99100000D03*
X173250000Y-101100000D03*
X173250000Y-99100000D03*
D18*
X156550000Y-100975000D03*
X155850000Y-100975000D03*
X156200000Y-101825000D03*
D19*
X148525000Y-104750000D03*
X148525000Y-103650000D03*
X143025000Y-102100000D03*
X143025000Y-103200000D03*
D20*
X162375000Y-88700000D03*
X163475000Y-88700000D03*
X152325000Y-97100000D03*
X153425000Y-97100000D03*
D19*
X156675000Y-85675000D03*
X156675000Y-86775000D03*
D20*
X148025000Y-99700000D03*
X146925000Y-99700000D03*
D19*
X150025000Y-76850000D03*
X150025000Y-77950000D03*
X151850000Y-76825000D03*
X151850000Y-77925000D03*
X165625000Y-79125000D03*
X165625000Y-80225000D03*
D21*
X147525000Y-75300000D03*
X144525000Y-75300000D03*
D22*
X157525000Y-109650000D03*
D23*
X154025000Y-106950000D03*
D24*
X155875000Y-106950000D03*
X155225000Y-106950000D03*
X157825000Y-106950000D03*
X157175000Y-106950000D03*
X156525000Y-106950000D03*
D23*
X159025000Y-106950000D03*
D22*
X155525000Y-109650000D03*
D25*
X153025000Y-109650000D03*
X160025000Y-109650000D03*
D26*
X159425000Y-109650000D03*
X153625000Y-109650000D03*
D27*
X164325000Y-86200000D03*
X165225000Y-86200000D03*
X164325000Y-84900000D03*
X165225000Y-84900000D03*
X170675000Y-87300000D03*
X169775000Y-87300000D03*
D28*
X157200000Y-98200000D03*
X157200000Y-97300000D03*
X155925000Y-97300000D03*
X155925000Y-98200000D03*
D27*
X162975000Y-86200000D03*
X162075000Y-86200000D03*
X162075000Y-84900000D03*
X162975000Y-84900000D03*
X163150000Y-72800000D03*
X162250000Y-72800000D03*
D28*
X162150000Y-75550000D03*
X162150000Y-74650000D03*
D27*
X167275000Y-76375000D03*
X168175000Y-76375000D03*
X170675000Y-86200000D03*
X169775000Y-86200000D03*
X153225000Y-81550000D03*
X154125000Y-81550000D03*
D12*
X167220000Y-84225000D03*
X168490000Y-84225000D03*
X169760000Y-84225000D03*
X171030000Y-84225000D03*
X171030000Y-77875000D03*
X169760000Y-77875000D03*
X168490000Y-77875000D03*
X167220000Y-77875000D03*
D29*
X170300000Y-95050000D03*
X171250000Y-95050000D03*
X169350000Y-95050000D03*
X169350000Y-92850000D03*
X170300000Y-92850000D03*
X171250000Y-92850000D03*
D30*
X144725000Y-103400000D03*
X144725000Y-101500000D03*
X146925000Y-101500000D03*
X146925000Y-102450000D03*
X146925000Y-103400000D03*
D31*
X160725000Y-86450000D03*
X159025000Y-86450000D03*
X159025000Y-84900000D03*
X160725000Y-84900000D03*
D32*
X150025000Y-103600000D03*
X150025000Y-105000000D03*
D33*
X148325000Y-96550000D03*
X146925000Y-96550000D03*
D31*
X145225000Y-79900000D03*
X146925000Y-79900000D03*
D33*
X146925000Y-98400000D03*
X148325000Y-98400000D03*
D34*
X139775000Y-108250000D03*
X173425000Y-108250000D03*
X173425000Y-74100000D03*
X139775000Y-74100000D03*
D35*
X163500000Y-87650000D03*
X157500000Y-84550000D03*
X150025000Y-79000000D03*
X152750000Y-75750000D03*
X160950000Y-76625000D03*
X171525000Y-87450000D03*
X172350000Y-84225000D03*
X165300000Y-81450000D03*
X160550000Y-96900000D03*
X158525000Y-104025000D03*
X144700000Y-104900000D03*
X143000000Y-104325000D03*
X149075000Y-99700000D03*
X150050000Y-106175000D03*
X147500000Y-104800000D03*
X152325000Y-98175000D03*
X156200000Y-103350000D03*
X170350000Y-91200000D03*
X150300000Y-102200000D03*
X164700000Y-89900000D03*
X146875000Y-95100000D03*
X164000000Y-79100000D03*
X164100000Y-72775000D03*
X144525000Y-77050000D03*
X145225000Y-81200000D03*
X150025000Y-75650000D03*
X152500000Y-74400000D03*
X155525000Y-72650000D03*
X171675000Y-86250000D03*
X152275000Y-81575000D03*
X164775000Y-87625000D03*
X145400000Y-96550000D03*
X160800000Y-80200000D03*
X168450000Y-85850000D03*
X173000000Y-77900000D03*
X159900000Y-82700000D03*
X161150000Y-78800000D03*
X163500000Y-80400000D03*
X152425000Y-85575000D03*
X168150000Y-91500000D03*
X163650000Y-91500000D03*
X158900000Y-72900000D03*
X157100000Y-82600000D03*
X157275000Y-73550000D03*
X155550000Y-85700000D03*
D36*
X163475000Y-88700000D02*
X163475000Y-87675000D01*
X163475000Y-87675000D02*
X163500000Y-87650000D01*
X156675000Y-85675000D02*
X156675000Y-85375000D01*
X156675000Y-85375000D02*
X157500000Y-84550000D01*
X150050000Y-77925000D02*
X150025000Y-77950000D01*
X151850000Y-77925000D02*
X150050000Y-77925000D01*
X150025000Y-77950000D02*
X150025000Y-79000000D01*
X154275000Y-76150000D02*
X153150000Y-76150000D01*
X153150000Y-76150000D02*
X152750000Y-75750000D01*
X158875000Y-77450000D02*
X160125000Y-77450000D01*
X160125000Y-77450000D02*
X160950000Y-76625000D01*
X170675000Y-87300000D02*
X171375000Y-87300000D01*
X171375000Y-87300000D02*
X171525000Y-87450000D01*
X171030000Y-84225000D02*
X172350000Y-84225000D01*
X165625000Y-80225000D02*
X165625000Y-81125000D01*
X165625000Y-81125000D02*
X165300000Y-81450000D01*
X160485000Y-94798000D02*
X160485000Y-96835000D01*
X160485000Y-96835000D02*
X160550000Y-96900000D01*
X143025000Y-103200000D02*
X143025000Y-104300000D01*
X143025000Y-104300000D02*
X143000000Y-104325000D01*
X148025000Y-99700000D02*
X149075000Y-99700000D01*
X150025000Y-105000000D02*
X150025000Y-106150000D01*
X150025000Y-106150000D02*
X150050000Y-106175000D01*
X148525000Y-104750000D02*
X147550000Y-104750000D01*
X147550000Y-104750000D02*
X147500000Y-104800000D01*
X152325000Y-97100000D02*
X152325000Y-98175000D01*
X158250000Y-104025000D02*
X158525000Y-104025000D01*
X157825000Y-106950000D02*
X157825000Y-104450000D01*
X157825000Y-104450000D02*
X158250000Y-104025000D01*
D37*
X156200000Y-101825000D02*
X156200000Y-103350000D01*
D36*
X170300000Y-92850000D02*
X170300000Y-91250000D01*
D37*
X170300000Y-91250000D02*
X170350000Y-91200000D01*
D38*
X155525000Y-109650000D02*
X153625000Y-109650000D01*
X144700000Y-103425000D02*
X144725000Y-103400000D01*
D39*
X144700000Y-104900000D02*
X144700000Y-103425000D01*
X148575000Y-103600000D02*
X148525000Y-103650000D01*
X148525000Y-103650000D02*
X148525000Y-103600000D01*
D38*
X162375000Y-89450000D02*
X162375000Y-88700000D01*
X162825000Y-89900000D02*
X162375000Y-89450000D01*
X164700000Y-89900000D02*
X162825000Y-89900000D01*
D39*
X155225000Y-106150000D02*
X155225000Y-106950000D01*
X155225000Y-104625000D02*
X155225000Y-106150000D01*
X150025000Y-103600000D02*
X154200000Y-103600000D01*
X154200000Y-103600000D02*
X155225000Y-104625000D01*
D38*
X150025000Y-102475000D02*
X150300000Y-102200000D01*
X150025000Y-103600000D02*
X150025000Y-102475000D01*
D39*
X148425000Y-102450000D02*
X148525000Y-102550000D01*
X146925000Y-102450000D02*
X148425000Y-102450000D01*
X148275000Y-103400000D02*
X148525000Y-103650000D01*
X146925000Y-103400000D02*
X148275000Y-103400000D01*
X148525000Y-102550000D02*
X148525000Y-103650000D01*
X150025000Y-103600000D02*
X148575000Y-103600000D01*
D38*
X162123000Y-88448000D02*
X162375000Y-88700000D01*
X160485000Y-88448000D02*
X162123000Y-88448000D01*
D39*
X143025000Y-102100000D02*
X143025000Y-101700000D01*
X143225000Y-101500000D02*
X144725000Y-101500000D01*
X143025000Y-101700000D02*
X143225000Y-101500000D01*
D36*
X153425000Y-97100000D02*
X154690500Y-97100000D01*
D37*
X154690500Y-97100000D02*
X155000000Y-97100000D01*
D36*
X156675000Y-95115500D02*
X156675000Y-94798000D01*
D37*
X156675000Y-94798000D02*
X156675000Y-95525000D01*
X155100000Y-97100000D02*
X155000000Y-97100000D01*
X156675000Y-95525000D02*
X155100000Y-97100000D01*
D36*
X156675000Y-88448000D02*
X156675000Y-86775000D01*
D39*
X146925000Y-101500000D02*
X146925000Y-99700000D01*
X146925000Y-99700000D02*
X146925000Y-98400000D01*
X146925000Y-98400000D02*
X146925000Y-96550000D01*
X146925000Y-96550000D02*
X146925000Y-95150000D01*
X146925000Y-95150000D02*
X146875000Y-95100000D01*
D36*
X167220000Y-77875000D02*
X165925000Y-77875000D01*
X165625000Y-78175000D02*
X165625000Y-79125000D01*
X165925000Y-77875000D02*
X165625000Y-78175000D01*
X165625000Y-79125000D02*
X164475000Y-79125000D01*
X167220000Y-76430000D02*
X167275000Y-76375000D01*
X167220000Y-77875000D02*
X167220000Y-76430000D01*
X163150000Y-72800000D02*
X164075000Y-72800000D01*
X164075000Y-72800000D02*
X164100000Y-72775000D01*
D38*
X144525000Y-75300000D02*
X144525000Y-77050000D01*
X145225000Y-79900000D02*
X145225000Y-81200000D01*
D36*
X150025000Y-76850000D02*
X150025000Y-75650000D01*
X151825000Y-76850000D02*
X151850000Y-76825000D01*
X150025000Y-76850000D02*
X151825000Y-76850000D01*
X154250000Y-76825000D02*
X154275000Y-76800000D01*
X151850000Y-76825000D02*
X154250000Y-76825000D01*
X151850000Y-75576998D02*
X152500000Y-74926998D01*
X151850000Y-76825000D02*
X151850000Y-75576998D01*
X152500000Y-74926998D02*
X152500000Y-74350000D01*
X152500000Y-74350000D02*
X152500000Y-74400000D01*
X155925000Y-74450000D02*
X155925000Y-75250000D01*
X155924999Y-73049999D02*
X155925000Y-74450000D01*
X155525000Y-72650000D02*
X155924999Y-73049999D01*
X163150000Y-73350000D02*
X163150000Y-72800000D01*
X163150000Y-74200000D02*
X163150000Y-73350000D01*
X162700000Y-74650000D02*
X163150000Y-74200000D01*
X162150000Y-74650000D02*
X162700000Y-74650000D01*
X170675000Y-86200000D02*
X171625000Y-86200000D01*
X171625000Y-86200000D02*
X171675000Y-86250000D01*
X153225000Y-81550000D02*
X152300000Y-81550000D01*
X152300000Y-81550000D02*
X152275000Y-81575000D01*
D37*
X165225000Y-87175000D02*
X165225000Y-86200000D01*
X164775000Y-87625000D02*
X165225000Y-87175000D01*
X165225000Y-86200000D02*
X165225000Y-84900000D01*
X164450000Y-79100000D02*
X164475000Y-79125000D01*
X164000000Y-79100000D02*
X164450000Y-79100000D01*
D38*
X146925000Y-96550000D02*
X145400000Y-96550000D01*
D36*
X162075000Y-86200000D02*
X161575000Y-86200000D01*
X161325000Y-86450000D02*
X160725000Y-86450000D01*
X161575000Y-86200000D02*
X161325000Y-86450000D01*
X160725000Y-84900000D02*
X162025000Y-84900000D01*
D39*
X153595002Y-77450000D02*
X154275000Y-77450000D01*
D38*
X146925000Y-79900000D02*
X151145002Y-79900000D01*
X151145002Y-79900000D02*
X152200000Y-79900000D01*
X152200000Y-79900000D02*
X152850000Y-79250000D01*
X153225000Y-77450000D02*
X154275000Y-77450000D01*
X152850000Y-77825000D02*
X153225000Y-77450000D01*
X152850000Y-79250000D02*
X152850000Y-77825000D01*
D39*
X155275000Y-74300000D02*
X154575000Y-73600000D01*
X155275000Y-75250000D02*
X155275000Y-74300000D01*
D38*
X154325000Y-73350000D02*
X154575000Y-73600000D01*
X150475000Y-73350000D02*
X154325000Y-73350000D01*
X148525000Y-75300000D02*
X150475000Y-73350000D01*
X147525000Y-75300000D02*
X148525000Y-75300000D01*
D36*
X139525000Y-93570000D02*
X150045000Y-93570000D01*
X151273000Y-94798000D02*
X152865000Y-94798000D01*
X150045000Y-93570000D02*
X151273000Y-94798000D01*
X139525000Y-91030000D02*
X148220000Y-91030000D01*
X150802000Y-88448000D02*
X152865000Y-88448000D01*
X148220000Y-91030000D02*
X150802000Y-88448000D01*
D37*
X157875000Y-79650000D02*
X160250000Y-79650000D01*
X160250000Y-79650000D02*
X160800000Y-80200000D01*
X168450000Y-84265000D02*
X168490000Y-84225000D01*
D36*
X168450000Y-85850000D02*
X168450000Y-84265000D01*
X173250000Y-91700000D02*
X171800000Y-90250000D01*
X171800000Y-90250000D02*
X170400000Y-90250000D01*
X168450000Y-88300000D02*
X168450000Y-87100000D01*
X170400000Y-90250000D02*
X168450000Y-88300000D01*
D37*
X168450000Y-87250000D02*
X168450000Y-87100000D01*
D36*
X168450000Y-87100000D02*
X168450000Y-85850000D01*
X173150000Y-92850000D02*
X173250000Y-92950000D01*
X171250000Y-92850000D02*
X173150000Y-92850000D01*
X173250000Y-99100000D02*
X173250000Y-92950000D01*
X173250000Y-92950000D02*
X173250000Y-91700000D01*
D37*
X157225000Y-80675000D02*
X157225000Y-79650000D01*
X158000000Y-81450000D02*
X157225000Y-80675000D01*
X162150000Y-80100000D02*
X160800000Y-81450000D01*
X162150000Y-77676054D02*
X162150000Y-80100000D01*
X160800000Y-81450000D02*
X158000000Y-81450000D01*
X171030000Y-77557500D02*
X171000000Y-77527500D01*
X171030000Y-77875000D02*
X171030000Y-77557500D01*
X171000000Y-77527500D02*
X171000000Y-76900000D01*
X171000000Y-76900000D02*
X169450000Y-75150000D01*
X169450000Y-75150000D02*
X164850000Y-75150000D01*
X164850000Y-75150000D02*
X162150000Y-77676054D01*
X171055000Y-77900000D02*
X171030000Y-77875000D01*
X173000000Y-77900000D02*
X171055000Y-77900000D01*
D36*
X171250000Y-95830000D02*
X171250000Y-99100000D01*
X171250000Y-95050000D02*
X171250000Y-95830000D01*
D37*
X156575000Y-80400000D02*
X156575000Y-79650000D01*
X156575000Y-80590699D02*
X156575000Y-80400000D01*
X157934301Y-81950000D02*
X156575000Y-80590699D01*
X169760000Y-77875000D02*
X169760000Y-76919998D01*
X168600000Y-75650000D02*
X166000000Y-75650000D01*
X166000000Y-75650000D02*
X162650000Y-79000000D01*
X169760000Y-76919998D02*
X168600000Y-75650000D01*
X162650000Y-79000000D02*
X162650000Y-80165698D01*
X162650000Y-80165698D02*
X160865698Y-81950000D01*
X159900000Y-82134315D02*
X159900000Y-81950000D01*
X159900000Y-82700000D02*
X159900000Y-82134315D01*
X160865698Y-81950000D02*
X159900000Y-81950000D01*
X159900000Y-81950000D02*
X157934301Y-81950000D01*
D36*
X169250000Y-98145406D02*
X170300000Y-97095406D01*
X169250000Y-99100000D02*
X169250000Y-98145406D01*
X170300000Y-97095406D02*
X170300000Y-95050000D01*
D37*
X166766000Y-84225000D02*
X163891000Y-81350000D01*
X167220000Y-84225000D02*
X166766000Y-84225000D01*
X158875000Y-78750000D02*
X161100000Y-78750000D01*
X161100000Y-78750000D02*
X161150000Y-78800000D01*
X163884315Y-81350000D02*
X163891000Y-81350000D01*
X163500000Y-80965685D02*
X163884315Y-81350000D01*
X163500000Y-80400000D02*
X163500000Y-80965685D01*
X167200000Y-84245000D02*
X167220000Y-84225000D01*
D36*
X167250000Y-84255000D02*
X167220000Y-84225000D01*
X167300000Y-95050000D02*
X167250000Y-95000000D01*
X169350000Y-95050000D02*
X167300000Y-95050000D01*
X167250000Y-99100000D02*
X167250000Y-95000000D01*
X167250000Y-95000000D02*
X167250000Y-84255000D01*
X152425000Y-85575000D02*
X152425000Y-84375000D01*
X154125000Y-82675000D02*
X154125000Y-81550000D01*
X152425000Y-84375000D02*
X154125000Y-82675000D01*
X155925000Y-80450000D02*
X155925000Y-79650000D01*
X154825000Y-81550000D02*
X155925000Y-80450000D01*
X154125000Y-81550000D02*
X154825000Y-81550000D01*
X169350000Y-92850000D02*
X169350000Y-92700000D01*
X169350000Y-92850000D02*
X169350000Y-91650000D01*
X169200000Y-91500000D02*
X168150000Y-91500000D01*
X169350000Y-91650000D02*
X169200000Y-91500000D01*
X169250000Y-101100000D02*
X169250000Y-103000000D01*
X169250000Y-103000000D02*
X168700000Y-103550000D01*
X168700000Y-103550000D02*
X164850000Y-103550000D01*
X163650000Y-102350000D02*
X163650000Y-91500000D01*
X164850000Y-103550000D02*
X163650000Y-102350000D01*
X162975000Y-86200000D02*
X164325000Y-86200000D01*
X164325000Y-84900000D02*
X162975000Y-84900000D01*
X169775000Y-84240000D02*
X169760000Y-84225000D01*
X169775000Y-86200000D02*
X169775000Y-84240000D01*
X169775000Y-87300000D02*
X169775000Y-86200000D01*
X161174999Y-72174999D02*
X156800001Y-72174999D01*
X162250000Y-72800000D02*
X161800000Y-72800000D01*
X161800000Y-72800000D02*
X161174999Y-72174999D01*
X156575000Y-74450000D02*
X156575000Y-75250000D01*
X156549999Y-74424999D02*
X156575000Y-74450000D01*
X156549999Y-72425001D02*
X156549999Y-74424999D01*
X156800001Y-72174999D02*
X156549999Y-72425001D01*
X159675000Y-78100000D02*
X159825000Y-77950000D01*
X158875000Y-78100000D02*
X159675000Y-78100000D01*
X159825000Y-77950000D02*
X161275000Y-77950000D01*
X162150000Y-77075000D02*
X162150000Y-75550000D01*
X161275000Y-77950000D02*
X162150000Y-77075000D01*
X168490000Y-76690000D02*
X168175000Y-76375000D01*
X168490000Y-77875000D02*
X168490000Y-76690000D01*
X158275000Y-75250000D02*
X157875000Y-75250000D01*
X158900000Y-74625000D02*
X158275000Y-75250000D01*
X158900000Y-72900000D02*
X158900000Y-74625000D01*
D37*
X154135000Y-88448000D02*
X154135000Y-85765000D01*
X154135000Y-85765000D02*
X157100000Y-82800000D01*
X157100000Y-82800000D02*
X157100000Y-82600000D01*
D36*
X157275000Y-75200000D02*
X157225000Y-75250000D01*
X157275000Y-73550000D02*
X157275000Y-75200000D01*
D37*
X155405000Y-88448000D02*
X155405000Y-85845000D01*
X155405000Y-85845000D02*
X155550000Y-85700000D01*
D36*
X159215000Y-86640000D02*
X159025000Y-86450000D01*
X159215000Y-88448000D02*
X159215000Y-86640000D01*
X158475000Y-84900000D02*
X159025000Y-84900000D01*
X157945000Y-85430000D02*
X158475000Y-84900000D01*
X157945000Y-88448000D02*
X157945000Y-85430000D01*
X155975000Y-98250000D02*
X155925000Y-98200000D01*
D37*
X155875000Y-105937499D02*
X155975000Y-105837499D01*
X155875000Y-106950000D02*
X155875000Y-105937499D01*
X155499999Y-103686001D02*
X155499999Y-101550002D01*
X155850000Y-101200001D02*
X155850000Y-100975000D01*
X155863999Y-104050001D02*
X155499999Y-103686001D01*
X155499999Y-101550002D02*
X155850000Y-101200001D01*
X155975000Y-104161002D02*
X155863999Y-104050001D01*
X155975000Y-105837499D02*
X155975000Y-104161002D01*
X155925000Y-98650001D02*
X155925000Y-98200000D01*
X155850000Y-100975000D02*
X156099999Y-100725001D01*
X156099999Y-100725001D02*
X156099999Y-98825000D01*
X156099999Y-98825000D02*
X155925000Y-98650001D01*
X156550000Y-101200001D02*
X156550000Y-100975000D01*
X156525000Y-105937499D02*
X156425000Y-105837499D01*
X156425000Y-105837499D02*
X156425000Y-104161002D01*
X156525000Y-106950000D02*
X156525000Y-105937499D01*
X156425000Y-104161002D02*
X156900001Y-103686001D01*
X156900001Y-103686001D02*
X156900001Y-101550002D01*
X156900001Y-101550002D02*
X156550000Y-101200001D01*
X156550000Y-99300001D02*
X157200000Y-98650001D01*
X156550000Y-100975000D02*
X156550000Y-99300001D01*
X157200000Y-98650001D02*
X157200000Y-98200000D01*
X159215000Y-95885000D02*
X159215000Y-94798000D01*
X157200000Y-96900000D02*
X157600000Y-96500000D01*
X157200000Y-97300000D02*
X157200000Y-96900000D01*
X158600000Y-96500000D02*
X159215000Y-95885000D01*
X157600000Y-96500000D02*
X158600000Y-96500000D01*
X155925000Y-97300000D02*
X155925000Y-96975000D01*
X155925000Y-96975000D02*
X156900000Y-96000000D01*
X157945000Y-95555000D02*
X157945000Y-94798000D01*
X157500000Y-96000000D02*
X157945000Y-95555000D01*
X156900000Y-96000000D02*
X157500000Y-96000000D01*
D40*
G36*
X171614830Y-72110225D02*
G01*
X173425000Y-73920395D01*
X175235170Y-72110225D01*
X175111002Y-71910000D01*
X175765001Y-71910000D01*
X175765001Y-72507020D01*
X175414775Y-72289830D01*
X173604605Y-74100000D01*
X175414775Y-75910170D01*
X175765001Y-75692980D01*
X175765000Y-106657020D01*
X175414775Y-106439830D01*
X173604605Y-108250000D01*
X175414775Y-110060170D01*
X175765000Y-109842980D01*
X175765000Y-110440000D01*
X175111002Y-110440000D01*
X175235170Y-110239775D01*
X173425000Y-108429605D01*
X171614830Y-110239775D01*
X171738998Y-110440000D01*
X161180256Y-110440000D01*
X161211493Y-110365496D01*
X161260000Y-110127000D01*
X161260000Y-109777000D01*
X157652000Y-109777000D01*
X157652000Y-109797000D01*
X157398000Y-109797000D01*
X157398000Y-109777000D01*
X155652000Y-109777000D01*
X155652000Y-109797000D01*
X155398000Y-109797000D01*
X155398000Y-109777000D01*
X155378000Y-109777000D01*
X155378000Y-109523000D01*
X155398000Y-109523000D01*
X155398000Y-109503000D01*
X155652000Y-109503000D01*
X155652000Y-109523000D01*
X157398000Y-109523000D01*
X157398000Y-109503000D01*
X157652000Y-109503000D01*
X157652000Y-109523000D01*
X161260000Y-109523000D01*
X161260000Y-109173000D01*
X161211493Y-108934504D01*
X161117390Y-108710054D01*
X161017816Y-108562408D01*
X164453000Y-108562408D01*
X164453000Y-108837592D01*
X164506686Y-109107490D01*
X164611995Y-109361727D01*
X164764880Y-109590535D01*
X164959465Y-109785120D01*
X165188273Y-109938005D01*
X165442510Y-110043314D01*
X165712408Y-110097000D01*
X165987592Y-110097000D01*
X166257490Y-110043314D01*
X166511727Y-109938005D01*
X166740535Y-109785120D01*
X166935120Y-109590535D01*
X167088005Y-109361727D01*
X167193314Y-109107490D01*
X167247000Y-108837592D01*
X167247000Y-108562408D01*
X167193314Y-108292510D01*
X167181991Y-108265174D01*
X170576322Y-108265174D01*
X170634019Y-108820632D01*
X170798972Y-109354161D01*
X171047982Y-109820024D01*
X171435225Y-110060170D01*
X173245395Y-108250000D01*
X171435225Y-106439830D01*
X171047982Y-106679976D01*
X170787359Y-107173877D01*
X170628099Y-107709133D01*
X170576322Y-108265174D01*
X167181991Y-108265174D01*
X167088005Y-108038273D01*
X166935120Y-107809465D01*
X166740535Y-107614880D01*
X166511727Y-107461995D01*
X166257490Y-107356686D01*
X165987592Y-107303000D01*
X165712408Y-107303000D01*
X165442510Y-107356686D01*
X165188273Y-107461995D01*
X164959465Y-107614880D01*
X164764880Y-107809465D01*
X164611995Y-108038273D01*
X164506686Y-108292510D01*
X164453000Y-108562408D01*
X161017816Y-108562408D01*
X160981307Y-108508275D01*
X160808474Y-108336922D01*
X160605533Y-108202579D01*
X160380282Y-108110409D01*
X160342609Y-108106538D01*
X160306265Y-108130321D01*
X160269180Y-108110498D01*
X160152002Y-108074952D01*
X160152002Y-108065000D01*
X160056192Y-108065000D01*
X160025000Y-108061928D01*
X159738091Y-108064733D01*
X159784528Y-107889133D01*
X159025000Y-107129605D01*
X159010858Y-107143748D01*
X158831253Y-106964143D01*
X158845395Y-106950000D01*
X159204605Y-106950000D01*
X159964133Y-107709528D01*
X160200450Y-107647035D01*
X160313850Y-107404322D01*
X160377719Y-107144151D01*
X160389604Y-106876518D01*
X160349048Y-106611709D01*
X160257609Y-106359900D01*
X160204331Y-106260225D01*
X171614830Y-106260225D01*
X173425000Y-108070395D01*
X175235170Y-106260225D01*
X174995024Y-105872982D01*
X174501123Y-105612359D01*
X173965867Y-105453099D01*
X173409826Y-105401322D01*
X172854368Y-105459019D01*
X172320839Y-105623972D01*
X171854976Y-105872982D01*
X171614830Y-106260225D01*
X160204331Y-106260225D01*
X160200450Y-106252965D01*
X159964133Y-106190472D01*
X159204605Y-106950000D01*
X158845395Y-106950000D01*
X158831253Y-106935858D01*
X159010858Y-106756253D01*
X159025000Y-106770395D01*
X159784528Y-106010867D01*
X159722035Y-105774550D01*
X159479322Y-105661150D01*
X159219151Y-105597281D01*
X158951518Y-105585396D01*
X158686709Y-105625952D01*
X158434900Y-105717391D01*
X158380864Y-105746275D01*
X158278576Y-105689479D01*
X158159474Y-105651259D01*
X158056750Y-105640000D01*
X157898000Y-105798750D01*
X157898000Y-105911322D01*
X157826185Y-105823815D01*
X157729494Y-105744463D01*
X157661218Y-105707968D01*
X157593250Y-105640000D01*
X157502120Y-105649988D01*
X157499482Y-105649188D01*
X157375000Y-105636928D01*
X157197749Y-105636928D01*
X157160000Y-105566305D01*
X157160000Y-104465448D01*
X157394193Y-104231255D01*
X157422238Y-104208239D01*
X157514088Y-104096321D01*
X157582338Y-103968634D01*
X157624366Y-103830086D01*
X157635001Y-103722106D01*
X157635001Y-103722105D01*
X157638557Y-103686001D01*
X157635001Y-103649896D01*
X157635001Y-101586098D01*
X157638556Y-101550001D01*
X157635001Y-101513904D01*
X157635001Y-101513897D01*
X157624366Y-101405917D01*
X157616175Y-101378913D01*
X157605610Y-101344086D01*
X157582338Y-101267369D01*
X157514088Y-101139682D01*
X157422239Y-101027764D01*
X157394188Y-101004743D01*
X157338072Y-100948627D01*
X157338072Y-100825000D01*
X157325812Y-100700518D01*
X157289502Y-100580820D01*
X157285000Y-100572397D01*
X157285000Y-99604447D01*
X157694197Y-99195251D01*
X157722237Y-99172239D01*
X157745250Y-99144198D01*
X157745253Y-99144195D01*
X157814087Y-99060321D01*
X157839019Y-99013676D01*
X157882337Y-98932634D01*
X157892413Y-98899418D01*
X157951185Y-98851185D01*
X158030537Y-98754494D01*
X158089502Y-98644180D01*
X158125812Y-98524482D01*
X158138072Y-98400000D01*
X158138072Y-98000000D01*
X158125812Y-97875518D01*
X158089502Y-97755820D01*
X158086391Y-97750000D01*
X158089502Y-97744180D01*
X158125812Y-97624482D01*
X158138072Y-97500000D01*
X158138072Y-97235000D01*
X158563895Y-97235000D01*
X158600000Y-97238556D01*
X158636105Y-97235000D01*
X158744085Y-97224365D01*
X158882633Y-97182337D01*
X159010320Y-97114087D01*
X159122238Y-97022238D01*
X159145258Y-96994188D01*
X159709197Y-96430250D01*
X159737237Y-96407238D01*
X159760250Y-96379197D01*
X159760253Y-96379194D01*
X159829086Y-96295321D01*
X159829087Y-96295320D01*
X159897337Y-96167633D01*
X159939365Y-96029085D01*
X159948249Y-95938885D01*
X159976334Y-95954548D01*
X160095365Y-95992989D01*
X160199250Y-96004500D01*
X160358000Y-95845750D01*
X160358000Y-94925000D01*
X160612000Y-94925000D01*
X160612000Y-95845750D01*
X160770750Y-96004500D01*
X160874635Y-95992989D01*
X160993666Y-95954548D01*
X161102910Y-95893624D01*
X161198169Y-95812558D01*
X161275782Y-95714465D01*
X161332767Y-95603116D01*
X161366934Y-95482788D01*
X161376970Y-95358108D01*
X161374000Y-95083750D01*
X161215250Y-94925000D01*
X160612000Y-94925000D01*
X160358000Y-94925000D01*
X160338000Y-94925000D01*
X160338000Y-94671000D01*
X160358000Y-94671000D01*
X160358000Y-93750250D01*
X160612000Y-93750250D01*
X160612000Y-94671000D01*
X161215250Y-94671000D01*
X161374000Y-94512250D01*
X161376970Y-94237892D01*
X161366934Y-94113212D01*
X161332767Y-93992884D01*
X161275782Y-93881535D01*
X161198169Y-93783442D01*
X161102910Y-93702376D01*
X160993666Y-93641452D01*
X160874635Y-93603011D01*
X160770750Y-93591500D01*
X160612000Y-93750250D01*
X160358000Y-93750250D01*
X160199250Y-93591500D01*
X160095365Y-93603011D01*
X159976334Y-93641452D01*
X159867090Y-93702376D01*
X159849524Y-93717325D01*
X159823494Y-93695963D01*
X159713180Y-93636998D01*
X159593482Y-93600688D01*
X159469000Y-93588428D01*
X158961000Y-93588428D01*
X158836518Y-93600688D01*
X158716820Y-93636998D01*
X158606506Y-93695963D01*
X158580000Y-93717716D01*
X158553494Y-93695963D01*
X158443180Y-93636998D01*
X158323482Y-93600688D01*
X158199000Y-93588428D01*
X157691000Y-93588428D01*
X157566518Y-93600688D01*
X157446820Y-93636998D01*
X157336506Y-93695963D01*
X157310000Y-93717716D01*
X157283494Y-93695963D01*
X157173180Y-93636998D01*
X157053482Y-93600688D01*
X156929000Y-93588428D01*
X156421000Y-93588428D01*
X156296518Y-93600688D01*
X156176820Y-93636998D01*
X156066506Y-93695963D01*
X156040000Y-93717716D01*
X156013494Y-93695963D01*
X155903180Y-93636998D01*
X155783482Y-93600688D01*
X155659000Y-93588428D01*
X155151000Y-93588428D01*
X155026518Y-93600688D01*
X154906820Y-93636998D01*
X154796506Y-93695963D01*
X154770000Y-93717716D01*
X154743494Y-93695963D01*
X154633180Y-93636998D01*
X154513482Y-93600688D01*
X154389000Y-93588428D01*
X153881000Y-93588428D01*
X153756518Y-93600688D01*
X153636820Y-93636998D01*
X153526506Y-93695963D01*
X153500000Y-93717716D01*
X153473494Y-93695963D01*
X153363180Y-93636998D01*
X153243482Y-93600688D01*
X153119000Y-93588428D01*
X152611000Y-93588428D01*
X152486518Y-93600688D01*
X152366820Y-93636998D01*
X152256506Y-93695963D01*
X152159815Y-93775315D01*
X152080463Y-93872006D01*
X152021498Y-93982320D01*
X152004608Y-94038000D01*
X151587802Y-94038000D01*
X150608804Y-93059003D01*
X150585001Y-93029999D01*
X150469276Y-92935026D01*
X150337247Y-92864454D01*
X150193986Y-92820997D01*
X150082333Y-92810000D01*
X150082322Y-92810000D01*
X150045000Y-92806324D01*
X150007678Y-92810000D01*
X140911559Y-92810000D01*
X140890706Y-92770986D01*
X140705134Y-92544866D01*
X140675313Y-92520393D01*
X140744180Y-92499502D01*
X140854494Y-92440537D01*
X140951185Y-92361185D01*
X141030537Y-92264494D01*
X141089502Y-92154180D01*
X141125812Y-92034482D01*
X141138072Y-91910000D01*
X141138072Y-91790000D01*
X148182678Y-91790000D01*
X148220000Y-91793676D01*
X148257322Y-91790000D01*
X148257333Y-91790000D01*
X148368986Y-91779003D01*
X148512247Y-91735546D01*
X148644276Y-91664974D01*
X148760001Y-91570001D01*
X148783804Y-91540997D01*
X151116803Y-89208000D01*
X152004608Y-89208000D01*
X152021498Y-89263680D01*
X152080463Y-89373994D01*
X152159815Y-89470685D01*
X152256506Y-89550037D01*
X152366820Y-89609002D01*
X152486518Y-89645312D01*
X152611000Y-89657572D01*
X153119000Y-89657572D01*
X153243482Y-89645312D01*
X153363180Y-89609002D01*
X153473494Y-89550037D01*
X153500000Y-89528284D01*
X153526506Y-89550037D01*
X153636820Y-89609002D01*
X153756518Y-89645312D01*
X153881000Y-89657572D01*
X154389000Y-89657572D01*
X154513482Y-89645312D01*
X154633180Y-89609002D01*
X154743494Y-89550037D01*
X154770000Y-89528284D01*
X154796506Y-89550037D01*
X154906820Y-89609002D01*
X155026518Y-89645312D01*
X155151000Y-89657572D01*
X155659000Y-89657572D01*
X155783482Y-89645312D01*
X155903180Y-89609002D01*
X156013494Y-89550037D01*
X156040000Y-89528284D01*
X156066506Y-89550037D01*
X156176820Y-89609002D01*
X156296518Y-89645312D01*
X156421000Y-89657572D01*
X156929000Y-89657572D01*
X157053482Y-89645312D01*
X157173180Y-89609002D01*
X157283494Y-89550037D01*
X157310000Y-89528284D01*
X157336506Y-89550037D01*
X157446820Y-89609002D01*
X157566518Y-89645312D01*
X157691000Y-89657572D01*
X158199000Y-89657572D01*
X158323482Y-89645312D01*
X158443180Y-89609002D01*
X158553494Y-89550037D01*
X158580000Y-89528284D01*
X158606506Y-89550037D01*
X158716820Y-89609002D01*
X158836518Y-89645312D01*
X158961000Y-89657572D01*
X159469000Y-89657572D01*
X159593482Y-89645312D01*
X159713180Y-89609002D01*
X159823494Y-89550037D01*
X159850000Y-89528284D01*
X159876506Y-89550037D01*
X159986820Y-89609002D01*
X160106518Y-89645312D01*
X160231000Y-89657572D01*
X160739000Y-89657572D01*
X160863482Y-89645312D01*
X160983180Y-89609002D01*
X161093494Y-89550037D01*
X161190185Y-89470685D01*
X161269537Y-89373994D01*
X161291449Y-89333000D01*
X161490000Y-89333000D01*
X161490000Y-89406531D01*
X161485719Y-89450000D01*
X161490000Y-89493469D01*
X161490000Y-89493476D01*
X161502805Y-89623489D01*
X161553411Y-89790312D01*
X161635589Y-89944058D01*
X161746183Y-90078817D01*
X161779956Y-90106534D01*
X162168466Y-90495044D01*
X162196183Y-90528817D01*
X162330941Y-90639411D01*
X162484687Y-90721589D01*
X162651510Y-90772195D01*
X162781523Y-90785000D01*
X162781533Y-90785000D01*
X162824999Y-90789281D01*
X162868465Y-90785000D01*
X162901289Y-90785000D01*
X162846063Y-90840226D01*
X162732795Y-91009744D01*
X162654774Y-91198102D01*
X162615000Y-91398061D01*
X162615000Y-91601939D01*
X162654774Y-91801898D01*
X162732795Y-91990256D01*
X162846063Y-92159774D01*
X162890001Y-92203712D01*
X162890000Y-102312678D01*
X162886324Y-102350000D01*
X162890000Y-102387322D01*
X162890000Y-102387332D01*
X162900997Y-102498985D01*
X162944454Y-102642246D01*
X163015026Y-102774276D01*
X163041644Y-102806710D01*
X163109999Y-102890001D01*
X163139003Y-102913804D01*
X164286201Y-104061003D01*
X164309999Y-104090001D01*
X164425724Y-104184974D01*
X164557753Y-104255546D01*
X164701014Y-104299003D01*
X164812667Y-104310000D01*
X164812676Y-104310000D01*
X164849999Y-104313676D01*
X164887322Y-104310000D01*
X168662678Y-104310000D01*
X168700000Y-104313676D01*
X168737322Y-104310000D01*
X168737333Y-104310000D01*
X168848986Y-104299003D01*
X168992247Y-104255546D01*
X169124276Y-104184974D01*
X169240001Y-104090001D01*
X169263803Y-104060998D01*
X169761007Y-103563795D01*
X169790001Y-103540001D01*
X169813795Y-103511008D01*
X169813799Y-103511004D01*
X169884973Y-103424277D01*
X169885952Y-103422446D01*
X169955546Y-103292247D01*
X169999003Y-103148986D01*
X170010000Y-103037333D01*
X170010000Y-103037324D01*
X170013676Y-103000001D01*
X170010000Y-102962678D01*
X170010000Y-102170956D01*
X170180792Y-102030792D01*
X170253372Y-101942352D01*
X170378773Y-102078303D01*
X170586371Y-102229473D01*
X170819472Y-102337238D01*
X170920600Y-102367910D01*
X171123000Y-102244224D01*
X171123000Y-101227000D01*
X171377000Y-101227000D01*
X171377000Y-102244224D01*
X171579400Y-102367910D01*
X171680528Y-102337238D01*
X171913629Y-102229473D01*
X172121227Y-102078303D01*
X172250000Y-101938696D01*
X172378773Y-102078303D01*
X172586371Y-102229473D01*
X172819472Y-102337238D01*
X172920600Y-102367910D01*
X173123000Y-102244224D01*
X173123000Y-101227000D01*
X173377000Y-101227000D01*
X173377000Y-102244224D01*
X173579400Y-102367910D01*
X173680528Y-102337238D01*
X173913629Y-102229473D01*
X174121227Y-102078303D01*
X174295344Y-101889537D01*
X174429289Y-101670430D01*
X174517915Y-101429401D01*
X174395085Y-101227000D01*
X173377000Y-101227000D01*
X173123000Y-101227000D01*
X171377000Y-101227000D01*
X171123000Y-101227000D01*
X171103000Y-101227000D01*
X171103000Y-100973000D01*
X171123000Y-100973000D01*
X171123000Y-100953000D01*
X171377000Y-100953000D01*
X171377000Y-100973000D01*
X173123000Y-100973000D01*
X173123000Y-100953000D01*
X173377000Y-100953000D01*
X173377000Y-100973000D01*
X174395085Y-100973000D01*
X174517915Y-100770599D01*
X174429289Y-100529570D01*
X174295344Y-100310463D01*
X174121227Y-100121697D01*
X174094096Y-100101941D01*
X174180792Y-100030792D01*
X174344495Y-99831318D01*
X174466138Y-99603741D01*
X174541045Y-99356805D01*
X174566338Y-99100000D01*
X174541045Y-98843195D01*
X174466138Y-98596259D01*
X174344495Y-98368682D01*
X174180792Y-98169208D01*
X174010000Y-98029044D01*
X174010000Y-92987322D01*
X174013676Y-92949999D01*
X174010000Y-92912677D01*
X174010000Y-91737325D01*
X174013676Y-91700000D01*
X174010000Y-91662675D01*
X174010000Y-91662667D01*
X173999003Y-91551014D01*
X173955546Y-91407753D01*
X173884974Y-91275724D01*
X173790001Y-91159999D01*
X173761003Y-91136201D01*
X172363804Y-89739003D01*
X172340001Y-89709999D01*
X172224276Y-89615026D01*
X172092247Y-89544454D01*
X171948986Y-89500997D01*
X171837333Y-89490000D01*
X171837322Y-89490000D01*
X171800000Y-89486324D01*
X171762678Y-89490000D01*
X170714803Y-89490000D01*
X169450624Y-88225822D01*
X169575000Y-88238072D01*
X169975000Y-88238072D01*
X170099482Y-88225812D01*
X170219180Y-88189502D01*
X170225337Y-88186211D01*
X170334476Y-88222406D01*
X170443250Y-88235000D01*
X170602000Y-88076250D01*
X170602000Y-87712420D01*
X170613072Y-87600000D01*
X170613072Y-87427000D01*
X170748000Y-87427000D01*
X170748000Y-88076250D01*
X170906750Y-88235000D01*
X171015524Y-88222406D01*
X171134249Y-88183032D01*
X171243012Y-88121252D01*
X171337631Y-88039441D01*
X171414473Y-87940742D01*
X171470582Y-87828949D01*
X171503804Y-87708357D01*
X171510000Y-87585750D01*
X171351250Y-87427000D01*
X170748000Y-87427000D01*
X170613072Y-87427000D01*
X170613072Y-87153000D01*
X170748000Y-87153000D01*
X170748000Y-87173000D01*
X171198734Y-87173000D01*
X171373102Y-87245226D01*
X171573061Y-87285000D01*
X171776939Y-87285000D01*
X171976898Y-87245226D01*
X172165256Y-87167205D01*
X172334774Y-87053937D01*
X172478937Y-86909774D01*
X172592205Y-86740256D01*
X172670226Y-86551898D01*
X172710000Y-86351939D01*
X172710000Y-86148061D01*
X172670226Y-85948102D01*
X172592205Y-85759744D01*
X172478937Y-85590226D01*
X172334774Y-85446063D01*
X172165256Y-85332795D01*
X171976898Y-85254774D01*
X171776939Y-85215000D01*
X171762600Y-85215000D01*
X171820782Y-85141465D01*
X171877767Y-85030116D01*
X171911934Y-84909788D01*
X171921970Y-84785108D01*
X171919000Y-84510750D01*
X171760250Y-84352000D01*
X171157000Y-84352000D01*
X171157000Y-84372000D01*
X170903000Y-84372000D01*
X170903000Y-84352000D01*
X170883000Y-84352000D01*
X170883000Y-84098000D01*
X170903000Y-84098000D01*
X170903000Y-83177250D01*
X171157000Y-83177250D01*
X171157000Y-84098000D01*
X171760250Y-84098000D01*
X171919000Y-83939250D01*
X171921970Y-83664892D01*
X171911934Y-83540212D01*
X171877767Y-83419884D01*
X171820782Y-83308535D01*
X171743169Y-83210442D01*
X171647910Y-83129376D01*
X171538666Y-83068452D01*
X171419635Y-83030011D01*
X171315750Y-83018500D01*
X171157000Y-83177250D01*
X170903000Y-83177250D01*
X170744250Y-83018500D01*
X170640365Y-83030011D01*
X170521334Y-83068452D01*
X170412090Y-83129376D01*
X170394524Y-83144325D01*
X170368494Y-83122963D01*
X170258180Y-83063998D01*
X170138482Y-83027688D01*
X170014000Y-83015428D01*
X169506000Y-83015428D01*
X169381518Y-83027688D01*
X169261820Y-83063998D01*
X169151506Y-83122963D01*
X169125000Y-83144716D01*
X169098494Y-83122963D01*
X168988180Y-83063998D01*
X168868482Y-83027688D01*
X168744000Y-83015428D01*
X168236000Y-83015428D01*
X168111518Y-83027688D01*
X167991820Y-83063998D01*
X167881506Y-83122963D01*
X167855000Y-83144716D01*
X167828494Y-83122963D01*
X167718180Y-83063998D01*
X167598482Y-83027688D01*
X167474000Y-83015428D01*
X166966000Y-83015428D01*
X166841518Y-83027688D01*
X166721820Y-83063998D01*
X166671397Y-83090950D01*
X164436259Y-80855813D01*
X164433078Y-80851937D01*
X164495226Y-80701898D01*
X164533247Y-80510750D01*
X164740000Y-80510750D01*
X164746196Y-80633357D01*
X164779418Y-80753949D01*
X164835527Y-80865742D01*
X164912369Y-80964441D01*
X165006988Y-81046252D01*
X165115751Y-81108032D01*
X165234476Y-81147406D01*
X165343250Y-81160000D01*
X165502000Y-81001250D01*
X165502000Y-80352000D01*
X165748000Y-80352000D01*
X165748000Y-81001250D01*
X165906750Y-81160000D01*
X166015524Y-81147406D01*
X166134249Y-81108032D01*
X166243012Y-81046252D01*
X166337631Y-80964441D01*
X166414473Y-80865742D01*
X166470582Y-80753949D01*
X166503804Y-80633357D01*
X166510000Y-80510750D01*
X166351250Y-80352000D01*
X165748000Y-80352000D01*
X165502000Y-80352000D01*
X164898750Y-80352000D01*
X164740000Y-80510750D01*
X164533247Y-80510750D01*
X164535000Y-80501939D01*
X164535000Y-80298061D01*
X164495226Y-80098102D01*
X164465897Y-80027295D01*
X164490256Y-80017205D01*
X164659774Y-79903937D01*
X164678711Y-79885000D01*
X164742742Y-79885000D01*
X164740000Y-79939250D01*
X164898750Y-80098000D01*
X165502000Y-80098000D01*
X165502000Y-80078000D01*
X165748000Y-80078000D01*
X165748000Y-80098000D01*
X166351250Y-80098000D01*
X166510000Y-79939250D01*
X166503804Y-79816643D01*
X166470582Y-79696051D01*
X166460682Y-79676326D01*
X166464502Y-79669180D01*
X166500812Y-79549482D01*
X166513072Y-79425000D01*
X166513072Y-78895561D01*
X166514815Y-78897685D01*
X166611506Y-78977037D01*
X166721820Y-79036002D01*
X166841518Y-79072312D01*
X166966000Y-79084572D01*
X167474000Y-79084572D01*
X167598482Y-79072312D01*
X167718180Y-79036002D01*
X167828494Y-78977037D01*
X167855000Y-78955284D01*
X167881506Y-78977037D01*
X167991820Y-79036002D01*
X168111518Y-79072312D01*
X168236000Y-79084572D01*
X168744000Y-79084572D01*
X168868482Y-79072312D01*
X168988180Y-79036002D01*
X169098494Y-78977037D01*
X169125000Y-78955284D01*
X169151506Y-78977037D01*
X169261820Y-79036002D01*
X169381518Y-79072312D01*
X169506000Y-79084572D01*
X170014000Y-79084572D01*
X170138482Y-79072312D01*
X170258180Y-79036002D01*
X170368494Y-78977037D01*
X170395000Y-78955284D01*
X170421506Y-78977037D01*
X170531820Y-79036002D01*
X170651518Y-79072312D01*
X170776000Y-79084572D01*
X171284000Y-79084572D01*
X171408482Y-79072312D01*
X171528180Y-79036002D01*
X171638494Y-78977037D01*
X171735185Y-78897685D01*
X171814537Y-78800994D01*
X171873502Y-78690680D01*
X171890392Y-78635000D01*
X172271289Y-78635000D01*
X172340226Y-78703937D01*
X172509744Y-78817205D01*
X172698102Y-78895226D01*
X172898061Y-78935000D01*
X173101939Y-78935000D01*
X173301898Y-78895226D01*
X173490256Y-78817205D01*
X173659774Y-78703937D01*
X173803937Y-78559774D01*
X173917205Y-78390256D01*
X173995226Y-78201898D01*
X174035000Y-78001939D01*
X174035000Y-77798061D01*
X173995226Y-77598102D01*
X173917205Y-77409744D01*
X173803937Y-77240226D01*
X173659774Y-77096063D01*
X173490256Y-76982795D01*
X173398529Y-76944800D01*
X173440174Y-76948678D01*
X173995632Y-76890981D01*
X174529161Y-76726028D01*
X174995024Y-76477018D01*
X175235170Y-76089775D01*
X173425000Y-74279605D01*
X171614830Y-76089775D01*
X171854976Y-76477018D01*
X172348877Y-76737641D01*
X172825455Y-76879442D01*
X172698102Y-76904774D01*
X172509744Y-76982795D01*
X172340226Y-77096063D01*
X172271289Y-77165000D01*
X171905560Y-77165000D01*
X171873502Y-77059320D01*
X171814537Y-76949006D01*
X171735185Y-76852315D01*
X171733743Y-76851132D01*
X171733641Y-76850093D01*
X171731754Y-76799999D01*
X171726561Y-76778212D01*
X171724365Y-76755915D01*
X171709809Y-76707931D01*
X171698185Y-76659162D01*
X171688840Y-76638803D01*
X171682337Y-76617367D01*
X171658701Y-76573147D01*
X171637784Y-76527580D01*
X171624647Y-76509436D01*
X171614087Y-76489680D01*
X171582281Y-76450924D01*
X171574151Y-76439696D01*
X171559375Y-76423013D01*
X171522238Y-76377762D01*
X171511463Y-76368919D01*
X170009395Y-74673037D01*
X169972238Y-74627762D01*
X169933468Y-74595944D01*
X169896717Y-74561861D01*
X169877643Y-74550129D01*
X169860320Y-74535913D01*
X169816090Y-74512271D01*
X169773393Y-74486011D01*
X169752392Y-74478225D01*
X169732633Y-74467663D01*
X169684649Y-74453107D01*
X169637641Y-74435678D01*
X169615522Y-74432138D01*
X169594085Y-74425635D01*
X169544182Y-74420720D01*
X169494678Y-74412797D01*
X169436185Y-74415000D01*
X164898373Y-74415000D01*
X164874569Y-74411853D01*
X164826148Y-74415000D01*
X164813895Y-74415000D01*
X164790122Y-74417341D01*
X164730091Y-74421243D01*
X164718183Y-74424427D01*
X164705915Y-74425635D01*
X164648340Y-74443100D01*
X164590221Y-74458639D01*
X164579163Y-74464085D01*
X164567367Y-74467663D01*
X164514300Y-74496028D01*
X164460335Y-74522604D01*
X164450554Y-74530101D01*
X164439680Y-74535913D01*
X164393166Y-74574086D01*
X164374218Y-74588609D01*
X164365276Y-74596975D01*
X164327762Y-74627762D01*
X164312528Y-74646325D01*
X163083527Y-75796149D01*
X163088072Y-75750000D01*
X163088072Y-75350000D01*
X163083799Y-75306610D01*
X163124276Y-75284974D01*
X163240001Y-75190001D01*
X163263804Y-75160997D01*
X163660998Y-74763803D01*
X163690001Y-74740001D01*
X163750031Y-74666854D01*
X163784974Y-74624277D01*
X163855546Y-74492247D01*
X163868361Y-74450000D01*
X163899003Y-74348986D01*
X163910000Y-74237333D01*
X163910000Y-74237324D01*
X163913676Y-74200001D01*
X163910000Y-74162678D01*
X163910000Y-74115174D01*
X170576322Y-74115174D01*
X170634019Y-74670632D01*
X170798972Y-75204161D01*
X171047982Y-75670024D01*
X171435225Y-75910170D01*
X173245395Y-74100000D01*
X171435225Y-72289830D01*
X171047982Y-72529976D01*
X170787359Y-73023877D01*
X170628099Y-73559133D01*
X170576322Y-74115174D01*
X163910000Y-74115174D01*
X163910000Y-73792484D01*
X163998061Y-73810000D01*
X164201939Y-73810000D01*
X164401898Y-73770226D01*
X164590256Y-73692205D01*
X164759774Y-73578937D01*
X164903937Y-73434774D01*
X165017205Y-73265256D01*
X165095226Y-73076898D01*
X165135000Y-72876939D01*
X165135000Y-72673061D01*
X165095226Y-72473102D01*
X165017205Y-72284744D01*
X164903937Y-72115226D01*
X164759774Y-71971063D01*
X164668387Y-71910000D01*
X171738998Y-71910000D01*
X171614830Y-72110225D01*
X171614830Y-72110225D01*
G37*
X171614830Y-72110225D02*
X173425000Y-73920395D01*
X175235170Y-72110225D01*
X175111002Y-71910000D01*
X175765001Y-71910000D01*
X175765001Y-72507020D01*
X175414775Y-72289830D01*
X173604605Y-74100000D01*
X175414775Y-75910170D01*
X175765001Y-75692980D01*
X175765000Y-106657020D01*
X175414775Y-106439830D01*
X173604605Y-108250000D01*
X175414775Y-110060170D01*
X175765000Y-109842980D01*
X175765000Y-110440000D01*
X175111002Y-110440000D01*
X175235170Y-110239775D01*
X173425000Y-108429605D01*
X171614830Y-110239775D01*
X171738998Y-110440000D01*
X161180256Y-110440000D01*
X161211493Y-110365496D01*
X161260000Y-110127000D01*
X161260000Y-109777000D01*
X157652000Y-109777000D01*
X157652000Y-109797000D01*
X157398000Y-109797000D01*
X157398000Y-109777000D01*
X155652000Y-109777000D01*
X155652000Y-109797000D01*
X155398000Y-109797000D01*
X155398000Y-109777000D01*
X155378000Y-109777000D01*
X155378000Y-109523000D01*
X155398000Y-109523000D01*
X155398000Y-109503000D01*
X155652000Y-109503000D01*
X155652000Y-109523000D01*
X157398000Y-109523000D01*
X157398000Y-109503000D01*
X157652000Y-109503000D01*
X157652000Y-109523000D01*
X161260000Y-109523000D01*
X161260000Y-109173000D01*
X161211493Y-108934504D01*
X161117390Y-108710054D01*
X161017816Y-108562408D01*
X164453000Y-108562408D01*
X164453000Y-108837592D01*
X164506686Y-109107490D01*
X164611995Y-109361727D01*
X164764880Y-109590535D01*
X164959465Y-109785120D01*
X165188273Y-109938005D01*
X165442510Y-110043314D01*
X165712408Y-110097000D01*
X165987592Y-110097000D01*
X166257490Y-110043314D01*
X166511727Y-109938005D01*
X166740535Y-109785120D01*
X166935120Y-109590535D01*
X167088005Y-109361727D01*
X167193314Y-109107490D01*
X167247000Y-108837592D01*
X167247000Y-108562408D01*
X167193314Y-108292510D01*
X167181991Y-108265174D01*
X170576322Y-108265174D01*
X170634019Y-108820632D01*
X170798972Y-109354161D01*
X171047982Y-109820024D01*
X171435225Y-110060170D01*
X173245395Y-108250000D01*
X171435225Y-106439830D01*
X171047982Y-106679976D01*
X170787359Y-107173877D01*
X170628099Y-107709133D01*
X170576322Y-108265174D01*
X167181991Y-108265174D01*
X167088005Y-108038273D01*
X166935120Y-107809465D01*
X166740535Y-107614880D01*
X166511727Y-107461995D01*
X166257490Y-107356686D01*
X165987592Y-107303000D01*
X165712408Y-107303000D01*
X165442510Y-107356686D01*
X165188273Y-107461995D01*
X164959465Y-107614880D01*
X164764880Y-107809465D01*
X164611995Y-108038273D01*
X164506686Y-108292510D01*
X164453000Y-108562408D01*
X161017816Y-108562408D01*
X160981307Y-108508275D01*
X160808474Y-108336922D01*
X160605533Y-108202579D01*
X160380282Y-108110409D01*
X160342609Y-108106538D01*
X160306265Y-108130321D01*
X160269180Y-108110498D01*
X160152002Y-108074952D01*
X160152002Y-108065000D01*
X160056192Y-108065000D01*
X160025000Y-108061928D01*
X159738091Y-108064733D01*
X159784528Y-107889133D01*
X159025000Y-107129605D01*
X159010858Y-107143748D01*
X158831253Y-106964143D01*
X158845395Y-106950000D01*
X159204605Y-106950000D01*
X159964133Y-107709528D01*
X160200450Y-107647035D01*
X160313850Y-107404322D01*
X160377719Y-107144151D01*
X160389604Y-106876518D01*
X160349048Y-106611709D01*
X160257609Y-106359900D01*
X160204331Y-106260225D01*
X171614830Y-106260225D01*
X173425000Y-108070395D01*
X175235170Y-106260225D01*
X174995024Y-105872982D01*
X174501123Y-105612359D01*
X173965867Y-105453099D01*
X173409826Y-105401322D01*
X172854368Y-105459019D01*
X172320839Y-105623972D01*
X171854976Y-105872982D01*
X171614830Y-106260225D01*
X160204331Y-106260225D01*
X160200450Y-106252965D01*
X159964133Y-106190472D01*
X159204605Y-106950000D01*
X158845395Y-106950000D01*
X158831253Y-106935858D01*
X159010858Y-106756253D01*
X159025000Y-106770395D01*
X159784528Y-106010867D01*
X159722035Y-105774550D01*
X159479322Y-105661150D01*
X159219151Y-105597281D01*
X158951518Y-105585396D01*
X158686709Y-105625952D01*
X158434900Y-105717391D01*
X158380864Y-105746275D01*
X158278576Y-105689479D01*
X158159474Y-105651259D01*
X158056750Y-105640000D01*
X157898000Y-105798750D01*
X157898000Y-105911322D01*
X157826185Y-105823815D01*
X157729494Y-105744463D01*
X157661218Y-105707968D01*
X157593250Y-105640000D01*
X157502120Y-105649988D01*
X157499482Y-105649188D01*
X157375000Y-105636928D01*
X157197749Y-105636928D01*
X157160000Y-105566305D01*
X157160000Y-104465448D01*
X157394193Y-104231255D01*
X157422238Y-104208239D01*
X157514088Y-104096321D01*
X157582338Y-103968634D01*
X157624366Y-103830086D01*
X157635001Y-103722106D01*
X157635001Y-103722105D01*
X157638557Y-103686001D01*
X157635001Y-103649896D01*
X157635001Y-101586098D01*
X157638556Y-101550001D01*
X157635001Y-101513904D01*
X157635001Y-101513897D01*
X157624366Y-101405917D01*
X157616175Y-101378913D01*
X157605610Y-101344086D01*
X157582338Y-101267369D01*
X157514088Y-101139682D01*
X157422239Y-101027764D01*
X157394188Y-101004743D01*
X157338072Y-100948627D01*
X157338072Y-100825000D01*
X157325812Y-100700518D01*
X157289502Y-100580820D01*
X157285000Y-100572397D01*
X157285000Y-99604447D01*
X157694197Y-99195251D01*
X157722237Y-99172239D01*
X157745250Y-99144198D01*
X157745253Y-99144195D01*
X157814087Y-99060321D01*
X157839019Y-99013676D01*
X157882337Y-98932634D01*
X157892413Y-98899418D01*
X157951185Y-98851185D01*
X158030537Y-98754494D01*
X158089502Y-98644180D01*
X158125812Y-98524482D01*
X158138072Y-98400000D01*
X158138072Y-98000000D01*
X158125812Y-97875518D01*
X158089502Y-97755820D01*
X158086391Y-97750000D01*
X158089502Y-97744180D01*
X158125812Y-97624482D01*
X158138072Y-97500000D01*
X158138072Y-97235000D01*
X158563895Y-97235000D01*
X158600000Y-97238556D01*
X158636105Y-97235000D01*
X158744085Y-97224365D01*
X158882633Y-97182337D01*
X159010320Y-97114087D01*
X159122238Y-97022238D01*
X159145258Y-96994188D01*
X159709197Y-96430250D01*
X159737237Y-96407238D01*
X159760250Y-96379197D01*
X159760253Y-96379194D01*
X159829086Y-96295321D01*
X159829087Y-96295320D01*
X159897337Y-96167633D01*
X159939365Y-96029085D01*
X159948249Y-95938885D01*
X159976334Y-95954548D01*
X160095365Y-95992989D01*
X160199250Y-96004500D01*
X160358000Y-95845750D01*
X160358000Y-94925000D01*
X160612000Y-94925000D01*
X160612000Y-95845750D01*
X160770750Y-96004500D01*
X160874635Y-95992989D01*
X160993666Y-95954548D01*
X161102910Y-95893624D01*
X161198169Y-95812558D01*
X161275782Y-95714465D01*
X161332767Y-95603116D01*
X161366934Y-95482788D01*
X161376970Y-95358108D01*
X161374000Y-95083750D01*
X161215250Y-94925000D01*
X160612000Y-94925000D01*
X160358000Y-94925000D01*
X160338000Y-94925000D01*
X160338000Y-94671000D01*
X160358000Y-94671000D01*
X160358000Y-93750250D01*
X160612000Y-93750250D01*
X160612000Y-94671000D01*
X161215250Y-94671000D01*
X161374000Y-94512250D01*
X161376970Y-94237892D01*
X161366934Y-94113212D01*
X161332767Y-93992884D01*
X161275782Y-93881535D01*
X161198169Y-93783442D01*
X161102910Y-93702376D01*
X160993666Y-93641452D01*
X160874635Y-93603011D01*
X160770750Y-93591500D01*
X160612000Y-93750250D01*
X160358000Y-93750250D01*
X160199250Y-93591500D01*
X160095365Y-93603011D01*
X159976334Y-93641452D01*
X159867090Y-93702376D01*
X159849524Y-93717325D01*
X159823494Y-93695963D01*
X159713180Y-93636998D01*
X159593482Y-93600688D01*
X159469000Y-93588428D01*
X158961000Y-93588428D01*
X158836518Y-93600688D01*
X158716820Y-93636998D01*
X158606506Y-93695963D01*
X158580000Y-93717716D01*
X158553494Y-93695963D01*
X158443180Y-93636998D01*
X158323482Y-93600688D01*
X158199000Y-93588428D01*
X157691000Y-93588428D01*
X157566518Y-93600688D01*
X157446820Y-93636998D01*
X157336506Y-93695963D01*
X157310000Y-93717716D01*
X157283494Y-93695963D01*
X157173180Y-93636998D01*
X157053482Y-93600688D01*
X156929000Y-93588428D01*
X156421000Y-93588428D01*
X156296518Y-93600688D01*
X156176820Y-93636998D01*
X156066506Y-93695963D01*
X156040000Y-93717716D01*
X156013494Y-93695963D01*
X155903180Y-93636998D01*
X155783482Y-93600688D01*
X155659000Y-93588428D01*
X155151000Y-93588428D01*
X155026518Y-93600688D01*
X154906820Y-93636998D01*
X154796506Y-93695963D01*
X154770000Y-93717716D01*
X154743494Y-93695963D01*
X154633180Y-93636998D01*
X154513482Y-93600688D01*
X154389000Y-93588428D01*
X153881000Y-93588428D01*
X153756518Y-93600688D01*
X153636820Y-93636998D01*
X153526506Y-93695963D01*
X153500000Y-93717716D01*
X153473494Y-93695963D01*
X153363180Y-93636998D01*
X153243482Y-93600688D01*
X153119000Y-93588428D01*
X152611000Y-93588428D01*
X152486518Y-93600688D01*
X152366820Y-93636998D01*
X152256506Y-93695963D01*
X152159815Y-93775315D01*
X152080463Y-93872006D01*
X152021498Y-93982320D01*
X152004608Y-94038000D01*
X151587802Y-94038000D01*
X150608804Y-93059003D01*
X150585001Y-93029999D01*
X150469276Y-92935026D01*
X150337247Y-92864454D01*
X150193986Y-92820997D01*
X150082333Y-92810000D01*
X150082322Y-92810000D01*
X150045000Y-92806324D01*
X150007678Y-92810000D01*
X140911559Y-92810000D01*
X140890706Y-92770986D01*
X140705134Y-92544866D01*
X140675313Y-92520393D01*
X140744180Y-92499502D01*
X140854494Y-92440537D01*
X140951185Y-92361185D01*
X141030537Y-92264494D01*
X141089502Y-92154180D01*
X141125812Y-92034482D01*
X141138072Y-91910000D01*
X141138072Y-91790000D01*
X148182678Y-91790000D01*
X148220000Y-91793676D01*
X148257322Y-91790000D01*
X148257333Y-91790000D01*
X148368986Y-91779003D01*
X148512247Y-91735546D01*
X148644276Y-91664974D01*
X148760001Y-91570001D01*
X148783804Y-91540997D01*
X151116803Y-89208000D01*
X152004608Y-89208000D01*
X152021498Y-89263680D01*
X152080463Y-89373994D01*
X152159815Y-89470685D01*
X152256506Y-89550037D01*
X152366820Y-89609002D01*
X152486518Y-89645312D01*
X152611000Y-89657572D01*
X153119000Y-89657572D01*
X153243482Y-89645312D01*
X153363180Y-89609002D01*
X153473494Y-89550037D01*
X153500000Y-89528284D01*
X153526506Y-89550037D01*
X153636820Y-89609002D01*
X153756518Y-89645312D01*
X153881000Y-89657572D01*
X154389000Y-89657572D01*
X154513482Y-89645312D01*
X154633180Y-89609002D01*
X154743494Y-89550037D01*
X154770000Y-89528284D01*
X154796506Y-89550037D01*
X154906820Y-89609002D01*
X155026518Y-89645312D01*
X155151000Y-89657572D01*
X155659000Y-89657572D01*
X155783482Y-89645312D01*
X155903180Y-89609002D01*
X156013494Y-89550037D01*
X156040000Y-89528284D01*
X156066506Y-89550037D01*
X156176820Y-89609002D01*
X156296518Y-89645312D01*
X156421000Y-89657572D01*
X156929000Y-89657572D01*
X157053482Y-89645312D01*
X157173180Y-89609002D01*
X157283494Y-89550037D01*
X157310000Y-89528284D01*
X157336506Y-89550037D01*
X157446820Y-89609002D01*
X157566518Y-89645312D01*
X157691000Y-89657572D01*
X158199000Y-89657572D01*
X158323482Y-89645312D01*
X158443180Y-89609002D01*
X158553494Y-89550037D01*
X158580000Y-89528284D01*
X158606506Y-89550037D01*
X158716820Y-89609002D01*
X158836518Y-89645312D01*
X158961000Y-89657572D01*
X159469000Y-89657572D01*
X159593482Y-89645312D01*
X159713180Y-89609002D01*
X159823494Y-89550037D01*
X159850000Y-89528284D01*
X159876506Y-89550037D01*
X159986820Y-89609002D01*
X160106518Y-89645312D01*
X160231000Y-89657572D01*
X160739000Y-89657572D01*
X160863482Y-89645312D01*
X160983180Y-89609002D01*
X161093494Y-89550037D01*
X161190185Y-89470685D01*
X161269537Y-89373994D01*
X161291449Y-89333000D01*
X161490000Y-89333000D01*
X161490000Y-89406531D01*
X161485719Y-89450000D01*
X161490000Y-89493469D01*
X161490000Y-89493476D01*
X161502805Y-89623489D01*
X161553411Y-89790312D01*
X161635589Y-89944058D01*
X161746183Y-90078817D01*
X161779956Y-90106534D01*
X162168466Y-90495044D01*
X162196183Y-90528817D01*
X162330941Y-90639411D01*
X162484687Y-90721589D01*
X162651510Y-90772195D01*
X162781523Y-90785000D01*
X162781533Y-90785000D01*
X162824999Y-90789281D01*
X162868465Y-90785000D01*
X162901289Y-90785000D01*
X162846063Y-90840226D01*
X162732795Y-91009744D01*
X162654774Y-91198102D01*
X162615000Y-91398061D01*
X162615000Y-91601939D01*
X162654774Y-91801898D01*
X162732795Y-91990256D01*
X162846063Y-92159774D01*
X162890001Y-92203712D01*
X162890000Y-102312678D01*
X162886324Y-102350000D01*
X162890000Y-102387322D01*
X162890000Y-102387332D01*
X162900997Y-102498985D01*
X162944454Y-102642246D01*
X163015026Y-102774276D01*
X163041644Y-102806710D01*
X163109999Y-102890001D01*
X163139003Y-102913804D01*
X164286201Y-104061003D01*
X164309999Y-104090001D01*
X164425724Y-104184974D01*
X164557753Y-104255546D01*
X164701014Y-104299003D01*
X164812667Y-104310000D01*
X164812676Y-104310000D01*
X164849999Y-104313676D01*
X164887322Y-104310000D01*
X168662678Y-104310000D01*
X168700000Y-104313676D01*
X168737322Y-104310000D01*
X168737333Y-104310000D01*
X168848986Y-104299003D01*
X168992247Y-104255546D01*
X169124276Y-104184974D01*
X169240001Y-104090001D01*
X169263803Y-104060998D01*
X169761007Y-103563795D01*
X169790001Y-103540001D01*
X169813795Y-103511008D01*
X169813799Y-103511004D01*
X169884973Y-103424277D01*
X169885952Y-103422446D01*
X169955546Y-103292247D01*
X169999003Y-103148986D01*
X170010000Y-103037333D01*
X170010000Y-103037324D01*
X170013676Y-103000001D01*
X170010000Y-102962678D01*
X170010000Y-102170956D01*
X170180792Y-102030792D01*
X170253372Y-101942352D01*
X170378773Y-102078303D01*
X170586371Y-102229473D01*
X170819472Y-102337238D01*
X170920600Y-102367910D01*
X171123000Y-102244224D01*
X171123000Y-101227000D01*
X171377000Y-101227000D01*
X171377000Y-102244224D01*
X171579400Y-102367910D01*
X171680528Y-102337238D01*
X171913629Y-102229473D01*
X172121227Y-102078303D01*
X172250000Y-101938696D01*
X172378773Y-102078303D01*
X172586371Y-102229473D01*
X172819472Y-102337238D01*
X172920600Y-102367910D01*
X173123000Y-102244224D01*
X173123000Y-101227000D01*
X173377000Y-101227000D01*
X173377000Y-102244224D01*
X173579400Y-102367910D01*
X173680528Y-102337238D01*
X173913629Y-102229473D01*
X174121227Y-102078303D01*
X174295344Y-101889537D01*
X174429289Y-101670430D01*
X174517915Y-101429401D01*
X174395085Y-101227000D01*
X173377000Y-101227000D01*
X173123000Y-101227000D01*
X171377000Y-101227000D01*
X171123000Y-101227000D01*
X171103000Y-101227000D01*
X171103000Y-100973000D01*
X171123000Y-100973000D01*
X171123000Y-100953000D01*
X171377000Y-100953000D01*
X171377000Y-100973000D01*
X173123000Y-100973000D01*
X173123000Y-100953000D01*
X173377000Y-100953000D01*
X173377000Y-100973000D01*
X174395085Y-100973000D01*
X174517915Y-100770599D01*
X174429289Y-100529570D01*
X174295344Y-100310463D01*
X174121227Y-100121697D01*
X174094096Y-100101941D01*
X174180792Y-100030792D01*
X174344495Y-99831318D01*
X174466138Y-99603741D01*
X174541045Y-99356805D01*
X174566338Y-99100000D01*
X174541045Y-98843195D01*
X174466138Y-98596259D01*
X174344495Y-98368682D01*
X174180792Y-98169208D01*
X174010000Y-98029044D01*
X174010000Y-92987322D01*
X174013676Y-92949999D01*
X174010000Y-92912677D01*
X174010000Y-91737325D01*
X174013676Y-91700000D01*
X174010000Y-91662675D01*
X174010000Y-91662667D01*
X173999003Y-91551014D01*
X173955546Y-91407753D01*
X173884974Y-91275724D01*
X173790001Y-91159999D01*
X173761003Y-91136201D01*
X172363804Y-89739003D01*
X172340001Y-89709999D01*
X172224276Y-89615026D01*
X172092247Y-89544454D01*
X171948986Y-89500997D01*
X171837333Y-89490000D01*
X171837322Y-89490000D01*
X171800000Y-89486324D01*
X171762678Y-89490000D01*
X170714803Y-89490000D01*
X169450624Y-88225822D01*
X169575000Y-88238072D01*
X169975000Y-88238072D01*
X170099482Y-88225812D01*
X170219180Y-88189502D01*
X170225337Y-88186211D01*
X170334476Y-88222406D01*
X170443250Y-88235000D01*
X170602000Y-88076250D01*
X170602000Y-87712420D01*
X170613072Y-87600000D01*
X170613072Y-87427000D01*
X170748000Y-87427000D01*
X170748000Y-88076250D01*
X170906750Y-88235000D01*
X171015524Y-88222406D01*
X171134249Y-88183032D01*
X171243012Y-88121252D01*
X171337631Y-88039441D01*
X171414473Y-87940742D01*
X171470582Y-87828949D01*
X171503804Y-87708357D01*
X171510000Y-87585750D01*
X171351250Y-87427000D01*
X170748000Y-87427000D01*
X170613072Y-87427000D01*
X170613072Y-87153000D01*
X170748000Y-87153000D01*
X170748000Y-87173000D01*
X171198734Y-87173000D01*
X171373102Y-87245226D01*
X171573061Y-87285000D01*
X171776939Y-87285000D01*
X171976898Y-87245226D01*
X172165256Y-87167205D01*
X172334774Y-87053937D01*
X172478937Y-86909774D01*
X172592205Y-86740256D01*
X172670226Y-86551898D01*
X172710000Y-86351939D01*
X172710000Y-86148061D01*
X172670226Y-85948102D01*
X172592205Y-85759744D01*
X172478937Y-85590226D01*
X172334774Y-85446063D01*
X172165256Y-85332795D01*
X171976898Y-85254774D01*
X171776939Y-85215000D01*
X171762600Y-85215000D01*
X171820782Y-85141465D01*
X171877767Y-85030116D01*
X171911934Y-84909788D01*
X171921970Y-84785108D01*
X171919000Y-84510750D01*
X171760250Y-84352000D01*
X171157000Y-84352000D01*
X171157000Y-84372000D01*
X170903000Y-84372000D01*
X170903000Y-84352000D01*
X170883000Y-84352000D01*
X170883000Y-84098000D01*
X170903000Y-84098000D01*
X170903000Y-83177250D01*
X171157000Y-83177250D01*
X171157000Y-84098000D01*
X171760250Y-84098000D01*
X171919000Y-83939250D01*
X171921970Y-83664892D01*
X171911934Y-83540212D01*
X171877767Y-83419884D01*
X171820782Y-83308535D01*
X171743169Y-83210442D01*
X171647910Y-83129376D01*
X171538666Y-83068452D01*
X171419635Y-83030011D01*
X171315750Y-83018500D01*
X171157000Y-83177250D01*
X170903000Y-83177250D01*
X170744250Y-83018500D01*
X170640365Y-83030011D01*
X170521334Y-83068452D01*
X170412090Y-83129376D01*
X170394524Y-83144325D01*
X170368494Y-83122963D01*
X170258180Y-83063998D01*
X170138482Y-83027688D01*
X170014000Y-83015428D01*
X169506000Y-83015428D01*
X169381518Y-83027688D01*
X169261820Y-83063998D01*
X169151506Y-83122963D01*
X169125000Y-83144716D01*
X169098494Y-83122963D01*
X168988180Y-83063998D01*
X168868482Y-83027688D01*
X168744000Y-83015428D01*
X168236000Y-83015428D01*
X168111518Y-83027688D01*
X167991820Y-83063998D01*
X167881506Y-83122963D01*
X167855000Y-83144716D01*
X167828494Y-83122963D01*
X167718180Y-83063998D01*
X167598482Y-83027688D01*
X167474000Y-83015428D01*
X166966000Y-83015428D01*
X166841518Y-83027688D01*
X166721820Y-83063998D01*
X166671397Y-83090950D01*
X164436259Y-80855813D01*
X164433078Y-80851937D01*
X164495226Y-80701898D01*
X164533247Y-80510750D01*
X164740000Y-80510750D01*
X164746196Y-80633357D01*
X164779418Y-80753949D01*
X164835527Y-80865742D01*
X164912369Y-80964441D01*
X165006988Y-81046252D01*
X165115751Y-81108032D01*
X165234476Y-81147406D01*
X165343250Y-81160000D01*
X165502000Y-81001250D01*
X165502000Y-80352000D01*
X165748000Y-80352000D01*
X165748000Y-81001250D01*
X165906750Y-81160000D01*
X166015524Y-81147406D01*
X166134249Y-81108032D01*
X166243012Y-81046252D01*
X166337631Y-80964441D01*
X166414473Y-80865742D01*
X166470582Y-80753949D01*
X166503804Y-80633357D01*
X166510000Y-80510750D01*
X166351250Y-80352000D01*
X165748000Y-80352000D01*
X165502000Y-80352000D01*
X164898750Y-80352000D01*
X164740000Y-80510750D01*
X164533247Y-80510750D01*
X164535000Y-80501939D01*
X164535000Y-80298061D01*
X164495226Y-80098102D01*
X164465897Y-80027295D01*
X164490256Y-80017205D01*
X164659774Y-79903937D01*
X164678711Y-79885000D01*
X164742742Y-79885000D01*
X164740000Y-79939250D01*
X164898750Y-80098000D01*
X165502000Y-80098000D01*
X165502000Y-80078000D01*
X165748000Y-80078000D01*
X165748000Y-80098000D01*
X166351250Y-80098000D01*
X166510000Y-79939250D01*
X166503804Y-79816643D01*
X166470582Y-79696051D01*
X166460682Y-79676326D01*
X166464502Y-79669180D01*
X166500812Y-79549482D01*
X166513072Y-79425000D01*
X166513072Y-78895561D01*
X166514815Y-78897685D01*
X166611506Y-78977037D01*
X166721820Y-79036002D01*
X166841518Y-79072312D01*
X166966000Y-79084572D01*
X167474000Y-79084572D01*
X167598482Y-79072312D01*
X167718180Y-79036002D01*
X167828494Y-78977037D01*
X167855000Y-78955284D01*
X167881506Y-78977037D01*
X167991820Y-79036002D01*
X168111518Y-79072312D01*
X168236000Y-79084572D01*
X168744000Y-79084572D01*
X168868482Y-79072312D01*
X168988180Y-79036002D01*
X169098494Y-78977037D01*
X169125000Y-78955284D01*
X169151506Y-78977037D01*
X169261820Y-79036002D01*
X169381518Y-79072312D01*
X169506000Y-79084572D01*
X170014000Y-79084572D01*
X170138482Y-79072312D01*
X170258180Y-79036002D01*
X170368494Y-78977037D01*
X170395000Y-78955284D01*
X170421506Y-78977037D01*
X170531820Y-79036002D01*
X170651518Y-79072312D01*
X170776000Y-79084572D01*
X171284000Y-79084572D01*
X171408482Y-79072312D01*
X171528180Y-79036002D01*
X171638494Y-78977037D01*
X171735185Y-78897685D01*
X171814537Y-78800994D01*
X171873502Y-78690680D01*
X171890392Y-78635000D01*
X172271289Y-78635000D01*
X172340226Y-78703937D01*
X172509744Y-78817205D01*
X172698102Y-78895226D01*
X172898061Y-78935000D01*
X173101939Y-78935000D01*
X173301898Y-78895226D01*
X173490256Y-78817205D01*
X173659774Y-78703937D01*
X173803937Y-78559774D01*
X173917205Y-78390256D01*
X173995226Y-78201898D01*
X174035000Y-78001939D01*
X174035000Y-77798061D01*
X173995226Y-77598102D01*
X173917205Y-77409744D01*
X173803937Y-77240226D01*
X173659774Y-77096063D01*
X173490256Y-76982795D01*
X173398529Y-76944800D01*
X173440174Y-76948678D01*
X173995632Y-76890981D01*
X174529161Y-76726028D01*
X174995024Y-76477018D01*
X175235170Y-76089775D01*
X173425000Y-74279605D01*
X171614830Y-76089775D01*
X171854976Y-76477018D01*
X172348877Y-76737641D01*
X172825455Y-76879442D01*
X172698102Y-76904774D01*
X172509744Y-76982795D01*
X172340226Y-77096063D01*
X172271289Y-77165000D01*
X171905560Y-77165000D01*
X171873502Y-77059320D01*
X171814537Y-76949006D01*
X171735185Y-76852315D01*
X171733743Y-76851132D01*
X171733641Y-76850093D01*
X171731754Y-76799999D01*
X171726561Y-76778212D01*
X171724365Y-76755915D01*
X171709809Y-76707931D01*
X171698185Y-76659162D01*
X171688840Y-76638803D01*
X171682337Y-76617367D01*
X171658701Y-76573147D01*
X171637784Y-76527580D01*
X171624647Y-76509436D01*
X171614087Y-76489680D01*
X171582281Y-76450924D01*
X171574151Y-76439696D01*
X171559375Y-76423013D01*
X171522238Y-76377762D01*
X171511463Y-76368919D01*
X170009395Y-74673037D01*
X169972238Y-74627762D01*
X169933468Y-74595944D01*
X169896717Y-74561861D01*
X169877643Y-74550129D01*
X169860320Y-74535913D01*
X169816090Y-74512271D01*
X169773393Y-74486011D01*
X169752392Y-74478225D01*
X169732633Y-74467663D01*
X169684649Y-74453107D01*
X169637641Y-74435678D01*
X169615522Y-74432138D01*
X169594085Y-74425635D01*
X169544182Y-74420720D01*
X169494678Y-74412797D01*
X169436185Y-74415000D01*
X164898373Y-74415000D01*
X164874569Y-74411853D01*
X164826148Y-74415000D01*
X164813895Y-74415000D01*
X164790122Y-74417341D01*
X164730091Y-74421243D01*
X164718183Y-74424427D01*
X164705915Y-74425635D01*
X164648340Y-74443100D01*
X164590221Y-74458639D01*
X164579163Y-74464085D01*
X164567367Y-74467663D01*
X164514300Y-74496028D01*
X164460335Y-74522604D01*
X164450554Y-74530101D01*
X164439680Y-74535913D01*
X164393166Y-74574086D01*
X164374218Y-74588609D01*
X164365276Y-74596975D01*
X164327762Y-74627762D01*
X164312528Y-74646325D01*
X163083527Y-75796149D01*
X163088072Y-75750000D01*
X163088072Y-75350000D01*
X163083799Y-75306610D01*
X163124276Y-75284974D01*
X163240001Y-75190001D01*
X163263804Y-75160997D01*
X163660998Y-74763803D01*
X163690001Y-74740001D01*
X163750031Y-74666854D01*
X163784974Y-74624277D01*
X163855546Y-74492247D01*
X163868361Y-74450000D01*
X163899003Y-74348986D01*
X163910000Y-74237333D01*
X163910000Y-74237324D01*
X163913676Y-74200001D01*
X163910000Y-74162678D01*
X163910000Y-74115174D01*
X170576322Y-74115174D01*
X170634019Y-74670632D01*
X170798972Y-75204161D01*
X171047982Y-75670024D01*
X171435225Y-75910170D01*
X173245395Y-74100000D01*
X171435225Y-72289830D01*
X171047982Y-72529976D01*
X170787359Y-73023877D01*
X170628099Y-73559133D01*
X170576322Y-74115174D01*
X163910000Y-74115174D01*
X163910000Y-73792484D01*
X163998061Y-73810000D01*
X164201939Y-73810000D01*
X164401898Y-73770226D01*
X164590256Y-73692205D01*
X164759774Y-73578937D01*
X164903937Y-73434774D01*
X165017205Y-73265256D01*
X165095226Y-73076898D01*
X165135000Y-72876939D01*
X165135000Y-72673061D01*
X165095226Y-72473102D01*
X165017205Y-72284744D01*
X164903937Y-72115226D01*
X164759774Y-71971063D01*
X164668387Y-71910000D01*
X171738998Y-71910000D01*
X171614830Y-72110225D01*
G36*
X137964830Y-72110225D02*
G01*
X139775000Y-73920395D01*
X141585170Y-72110225D01*
X141461002Y-71910000D01*
X154801289Y-71910000D01*
X154721063Y-71990226D01*
X154607795Y-72159744D01*
X154529774Y-72348102D01*
X154503663Y-72479374D01*
X154498490Y-72477805D01*
X154368477Y-72465000D01*
X154368469Y-72465000D01*
X154325000Y-72460719D01*
X154281531Y-72465000D01*
X150518465Y-72465000D01*
X150474999Y-72460719D01*
X150431533Y-72465000D01*
X150431523Y-72465000D01*
X150301510Y-72477805D01*
X150134687Y-72528411D01*
X149980941Y-72610589D01*
X149980939Y-72610590D01*
X149980940Y-72610590D01*
X149879953Y-72693468D01*
X149879951Y-72693470D01*
X149846183Y-72721183D01*
X149818470Y-72754951D01*
X148498011Y-74075410D01*
X148476185Y-74048815D01*
X148379494Y-73969463D01*
X148269180Y-73910498D01*
X148149482Y-73874188D01*
X148025000Y-73861928D01*
X147025000Y-73861928D01*
X146900518Y-73874188D01*
X146780820Y-73910498D01*
X146670506Y-73969463D01*
X146573815Y-74048815D01*
X146494463Y-74145506D01*
X146435498Y-74255820D01*
X146399188Y-74375518D01*
X146386928Y-74500000D01*
X146386928Y-76100000D01*
X146399188Y-76224482D01*
X146435498Y-76344180D01*
X146494463Y-76454494D01*
X146573815Y-76551185D01*
X146670506Y-76630537D01*
X146780820Y-76689502D01*
X146900518Y-76725812D01*
X147025000Y-76738072D01*
X148025000Y-76738072D01*
X148149482Y-76725812D01*
X148269180Y-76689502D01*
X148379494Y-76630537D01*
X148476185Y-76551185D01*
X148555537Y-76454494D01*
X148614502Y-76344180D01*
X148650812Y-76224482D01*
X148655545Y-76176425D01*
X148698490Y-76172195D01*
X148865313Y-76121589D01*
X149019059Y-76039411D01*
X149054109Y-76010646D01*
X149107795Y-76140256D01*
X149200130Y-76278446D01*
X149185498Y-76305820D01*
X149149188Y-76425518D01*
X149136928Y-76550000D01*
X149136928Y-77150000D01*
X149149188Y-77274482D01*
X149185498Y-77394180D01*
X149189318Y-77401326D01*
X149179418Y-77421051D01*
X149146196Y-77541643D01*
X149140000Y-77664250D01*
X149298750Y-77823000D01*
X149902000Y-77823000D01*
X149902000Y-77803000D01*
X150148000Y-77803000D01*
X150148000Y-77823000D01*
X150751250Y-77823000D01*
X150910000Y-77664250D01*
X150907258Y-77610000D01*
X150966478Y-77610000D01*
X150965000Y-77639250D01*
X151123750Y-77798000D01*
X151727000Y-77798000D01*
X151727000Y-77778000D01*
X151965348Y-77778000D01*
X151960719Y-77825000D01*
X151965001Y-77868479D01*
X151965000Y-78883421D01*
X151833422Y-79015000D01*
X147634981Y-79015000D01*
X147579494Y-78969463D01*
X147469180Y-78910498D01*
X147349482Y-78874188D01*
X147225000Y-78861928D01*
X146625000Y-78861928D01*
X146500518Y-78874188D01*
X146380820Y-78910498D01*
X146270506Y-78969463D01*
X146173815Y-79048815D01*
X146094463Y-79145506D01*
X146075000Y-79181918D01*
X146055537Y-79145506D01*
X145976185Y-79048815D01*
X145879494Y-78969463D01*
X145769180Y-78910498D01*
X145649482Y-78874188D01*
X145525000Y-78861928D01*
X144925000Y-78861928D01*
X144800518Y-78874188D01*
X144680820Y-78910498D01*
X144570506Y-78969463D01*
X144473815Y-79048815D01*
X144394463Y-79145506D01*
X144335498Y-79255820D01*
X144299188Y-79375518D01*
X144286928Y-79500000D01*
X144286928Y-80300000D01*
X144299188Y-80424482D01*
X144335498Y-80544180D01*
X144340001Y-80552603D01*
X144340001Y-80661545D01*
X144307795Y-80709744D01*
X144229774Y-80898102D01*
X144190000Y-81098061D01*
X144190000Y-81301939D01*
X144229774Y-81501898D01*
X144307795Y-81690256D01*
X144421063Y-81859774D01*
X144565226Y-82003937D01*
X144734744Y-82117205D01*
X144923102Y-82195226D01*
X145123061Y-82235000D01*
X145326939Y-82235000D01*
X145526898Y-82195226D01*
X145715256Y-82117205D01*
X145884774Y-82003937D01*
X146028937Y-81859774D01*
X146142205Y-81690256D01*
X146220226Y-81501898D01*
X146260000Y-81301939D01*
X146260000Y-81098061D01*
X146220226Y-80898102D01*
X146144650Y-80715648D01*
X146173815Y-80751185D01*
X146270506Y-80830537D01*
X146380820Y-80889502D01*
X146500518Y-80925812D01*
X146625000Y-80938072D01*
X147225000Y-80938072D01*
X147349482Y-80925812D01*
X147469180Y-80889502D01*
X147579494Y-80830537D01*
X147634981Y-80785000D01*
X151601289Y-80785000D01*
X151471063Y-80915226D01*
X151357795Y-81084744D01*
X151279774Y-81273102D01*
X151240000Y-81473061D01*
X151240000Y-81676939D01*
X151279774Y-81876898D01*
X151357795Y-82065256D01*
X151471063Y-82234774D01*
X151615226Y-82378937D01*
X151784744Y-82492205D01*
X151973102Y-82570226D01*
X152173061Y-82610000D01*
X152376939Y-82610000D01*
X152576898Y-82570226D01*
X152765256Y-82492205D01*
X152824363Y-82452711D01*
X152900518Y-82475812D01*
X153025000Y-82488072D01*
X153237126Y-82488072D01*
X151913998Y-83811201D01*
X151885000Y-83834999D01*
X151861202Y-83863997D01*
X151861201Y-83863998D01*
X151790026Y-83950724D01*
X151719454Y-84082754D01*
X151698754Y-84150997D01*
X151676306Y-84225001D01*
X151675998Y-84226015D01*
X151661324Y-84375000D01*
X151665001Y-84412332D01*
X151665001Y-84871288D01*
X151621063Y-84915226D01*
X151507795Y-85084744D01*
X151429774Y-85273102D01*
X151390000Y-85473061D01*
X151390000Y-85676939D01*
X151429774Y-85876898D01*
X151507795Y-86065256D01*
X151621063Y-86234774D01*
X151765226Y-86378937D01*
X151934744Y-86492205D01*
X152123102Y-86570226D01*
X152323061Y-86610000D01*
X152526939Y-86610000D01*
X152726898Y-86570226D01*
X152915256Y-86492205D01*
X153084774Y-86378937D01*
X153228937Y-86234774D01*
X153342205Y-86065256D01*
X153400001Y-85925725D01*
X153400000Y-87306679D01*
X153363180Y-87286998D01*
X153243482Y-87250688D01*
X153119000Y-87238428D01*
X152611000Y-87238428D01*
X152486518Y-87250688D01*
X152366820Y-87286998D01*
X152256506Y-87345963D01*
X152159815Y-87425315D01*
X152080463Y-87522006D01*
X152021498Y-87632320D01*
X152004608Y-87688000D01*
X150839322Y-87688000D01*
X150801999Y-87684324D01*
X150764676Y-87688000D01*
X150764667Y-87688000D01*
X150653014Y-87698997D01*
X150509753Y-87742454D01*
X150377724Y-87813026D01*
X150377722Y-87813027D01*
X150377723Y-87813027D01*
X150290996Y-87884201D01*
X150290992Y-87884205D01*
X150261999Y-87907999D01*
X150238205Y-87936992D01*
X147905199Y-90270000D01*
X141138072Y-90270000D01*
X141138072Y-90210000D01*
X141125812Y-90085518D01*
X141089502Y-89965820D01*
X141030537Y-89855506D01*
X140951185Y-89758815D01*
X140854494Y-89679463D01*
X140744180Y-89620498D01*
X140624482Y-89584188D01*
X140500000Y-89571928D01*
X138800000Y-89571928D01*
X138675518Y-89584188D01*
X138555820Y-89620498D01*
X138445506Y-89679463D01*
X138348815Y-89758815D01*
X138269463Y-89855506D01*
X138210498Y-89965820D01*
X138174188Y-90085518D01*
X138161928Y-90210000D01*
X138161928Y-91910000D01*
X138174188Y-92034482D01*
X138210498Y-92154180D01*
X138269463Y-92264494D01*
X138348815Y-92361185D01*
X138445506Y-92440537D01*
X138555820Y-92499502D01*
X138624687Y-92520393D01*
X138594866Y-92544866D01*
X138409294Y-92770986D01*
X138271401Y-93028966D01*
X138186487Y-93308889D01*
X138157815Y-93600000D01*
X138186487Y-93891111D01*
X138271401Y-94171034D01*
X138409294Y-94429014D01*
X138594866Y-94655134D01*
X138820986Y-94840706D01*
X139078966Y-94978599D01*
X139358889Y-95063513D01*
X139577050Y-95085000D01*
X139722950Y-95085000D01*
X139941111Y-95063513D01*
X140221034Y-94978599D01*
X140479014Y-94840706D01*
X140705134Y-94655134D01*
X140890706Y-94429014D01*
X140943630Y-94330000D01*
X146181289Y-94330000D01*
X146071063Y-94440226D01*
X145957795Y-94609744D01*
X145879774Y-94798102D01*
X145840000Y-94998061D01*
X145840000Y-95201939D01*
X145879774Y-95401898D01*
X145957795Y-95590256D01*
X146007737Y-95665000D01*
X145938454Y-95665000D01*
X145890256Y-95632795D01*
X145701898Y-95554774D01*
X145501939Y-95515000D01*
X145298061Y-95515000D01*
X145098102Y-95554774D01*
X144909744Y-95632795D01*
X144740226Y-95746063D01*
X144596063Y-95890226D01*
X144482795Y-96059744D01*
X144404774Y-96248102D01*
X144365000Y-96448061D01*
X144365000Y-96651939D01*
X144404774Y-96851898D01*
X144482795Y-97040256D01*
X144596063Y-97209774D01*
X144740226Y-97353937D01*
X144909744Y-97467205D01*
X145098102Y-97545226D01*
X145298061Y-97585000D01*
X145501939Y-97585000D01*
X145701898Y-97545226D01*
X145890256Y-97467205D01*
X145938454Y-97435000D01*
X146090001Y-97435000D01*
X146090000Y-97703855D01*
X146035498Y-97805820D01*
X145999188Y-97925518D01*
X145986928Y-98050000D01*
X145986928Y-98750000D01*
X145999188Y-98874482D01*
X146035498Y-98994180D01*
X146090000Y-99096145D01*
X146090000Y-99103855D01*
X146035498Y-99205820D01*
X145999188Y-99325518D01*
X145986928Y-99450000D01*
X145986928Y-99950000D01*
X145999188Y-100074482D01*
X146035498Y-100194180D01*
X146090001Y-100296146D01*
X146090000Y-100618007D01*
X146040506Y-100644463D01*
X145943815Y-100723815D01*
X145864463Y-100820506D01*
X145825000Y-100894335D01*
X145785537Y-100820506D01*
X145706185Y-100723815D01*
X145609494Y-100644463D01*
X145499180Y-100585498D01*
X145379482Y-100549188D01*
X145255000Y-100536928D01*
X144195000Y-100536928D01*
X144070518Y-100549188D01*
X143950820Y-100585498D01*
X143840506Y-100644463D01*
X143815482Y-100665000D01*
X143266018Y-100665000D01*
X143225000Y-100660960D01*
X143183982Y-100665000D01*
X143183981Y-100665000D01*
X143061311Y-100677082D01*
X142903913Y-100724828D01*
X142758854Y-100802364D01*
X142631709Y-100906709D01*
X142605558Y-100938575D01*
X142463573Y-101080560D01*
X142431710Y-101106709D01*
X142327364Y-101233854D01*
X142249828Y-101378913D01*
X142210160Y-101509681D01*
X142185498Y-101555820D01*
X142149188Y-101675518D01*
X142136928Y-101800000D01*
X142136928Y-102400000D01*
X142149188Y-102524482D01*
X142185498Y-102644180D01*
X142189318Y-102651326D01*
X142179418Y-102671051D01*
X142146196Y-102791643D01*
X142140000Y-102914250D01*
X142298750Y-103073000D01*
X142902000Y-103073000D01*
X142902000Y-103053000D01*
X143148000Y-103053000D01*
X143148000Y-103073000D01*
X143172000Y-103073000D01*
X143172000Y-103327000D01*
X143148000Y-103327000D01*
X143148000Y-103976250D01*
X143306750Y-104135000D01*
X143415524Y-104122406D01*
X143534249Y-104083032D01*
X143635586Y-104025470D01*
X143664463Y-104079494D01*
X143743815Y-104176185D01*
X143840506Y-104255537D01*
X143950820Y-104314502D01*
X144070518Y-104350812D01*
X144195000Y-104363072D01*
X144439250Y-104360000D01*
X144598000Y-104201250D01*
X144598000Y-103527000D01*
X144578000Y-103527000D01*
X144578000Y-103273000D01*
X144598000Y-103273000D01*
X144598000Y-103253000D01*
X144852000Y-103253000D01*
X144852000Y-103273000D01*
X144872000Y-103273000D01*
X144872000Y-103527000D01*
X144852000Y-103527000D01*
X144852000Y-104201250D01*
X145010750Y-104360000D01*
X145255000Y-104363072D01*
X145379482Y-104350812D01*
X145499180Y-104314502D01*
X145609494Y-104255537D01*
X145706185Y-104176185D01*
X145785537Y-104079494D01*
X145825000Y-104005665D01*
X145864463Y-104079494D01*
X145943815Y-104176185D01*
X146040506Y-104255537D01*
X146150820Y-104314502D01*
X146270518Y-104350812D01*
X146395000Y-104363072D01*
X147455000Y-104363072D01*
X147579482Y-104350812D01*
X147649523Y-104329565D01*
X147646196Y-104341643D01*
X147640000Y-104464250D01*
X147798750Y-104623000D01*
X148402000Y-104623000D01*
X148402000Y-104603000D01*
X148648000Y-104603000D01*
X148648000Y-104623000D01*
X148672000Y-104623000D01*
X148672000Y-104877000D01*
X148648000Y-104877000D01*
X148648000Y-105526250D01*
X148806750Y-105685000D01*
X148915524Y-105672406D01*
X149034249Y-105633032D01*
X149109994Y-105590007D01*
X149144463Y-105654494D01*
X149223815Y-105751185D01*
X149320506Y-105830537D01*
X149430820Y-105889502D01*
X149550518Y-105925812D01*
X149675000Y-105938072D01*
X149739250Y-105935000D01*
X149898000Y-105776250D01*
X149898000Y-105127000D01*
X150152000Y-105127000D01*
X150152000Y-105776250D01*
X150310750Y-105935000D01*
X150375000Y-105938072D01*
X150499482Y-105925812D01*
X150619180Y-105889502D01*
X150729494Y-105830537D01*
X150826185Y-105751185D01*
X150905537Y-105654494D01*
X150964502Y-105544180D01*
X151000812Y-105424482D01*
X151013072Y-105300000D01*
X151010000Y-105285750D01*
X150851250Y-105127000D01*
X150152000Y-105127000D01*
X149898000Y-105127000D01*
X149878000Y-105127000D01*
X149878000Y-104873000D01*
X149898000Y-104873000D01*
X149898000Y-104853000D01*
X150152000Y-104853000D01*
X150152000Y-104873000D01*
X150851250Y-104873000D01*
X151010000Y-104714250D01*
X151013072Y-104700000D01*
X151000812Y-104575518D01*
X150964502Y-104455820D01*
X150953373Y-104435000D01*
X153854132Y-104435000D01*
X154390000Y-104970869D01*
X154390001Y-105639223D01*
X154219151Y-105597281D01*
X153951518Y-105585396D01*
X153686709Y-105625952D01*
X153434900Y-105717391D01*
X153327965Y-105774550D01*
X153265472Y-106010867D01*
X154025000Y-106770395D01*
X154039143Y-106756253D01*
X154218748Y-106935858D01*
X154204605Y-106950000D01*
X154218748Y-106964143D01*
X154039143Y-107143748D01*
X154025000Y-107129605D01*
X153265472Y-107889133D01*
X153311909Y-108064733D01*
X153057722Y-108062248D01*
X153025000Y-108059025D01*
X152782899Y-108082870D01*
X152550100Y-108153489D01*
X152335552Y-108268167D01*
X152147499Y-108422498D01*
X151993168Y-108610551D01*
X151878489Y-108825099D01*
X151807870Y-109057898D01*
X151790000Y-109239335D01*
X151790000Y-110060664D01*
X151807870Y-110242101D01*
X151867902Y-110440000D01*
X141461002Y-110440000D01*
X141585170Y-110239775D01*
X139775000Y-108429605D01*
X137964830Y-110239775D01*
X138088998Y-110440000D01*
X137285000Y-110440000D01*
X137285000Y-109608650D01*
X137397982Y-109820024D01*
X137785225Y-110060170D01*
X139595395Y-108250000D01*
X139954605Y-108250000D01*
X141764775Y-110060170D01*
X142152018Y-109820024D01*
X142412641Y-109326123D01*
X142571901Y-108790867D01*
X142623678Y-108234826D01*
X142565981Y-107679368D01*
X142401028Y-107145839D01*
X142335627Y-107023482D01*
X152660396Y-107023482D01*
X152700952Y-107288291D01*
X152792391Y-107540100D01*
X152849550Y-107647035D01*
X153085867Y-107709528D01*
X153845395Y-106950000D01*
X153085867Y-106190472D01*
X152849550Y-106252965D01*
X152736150Y-106495678D01*
X152672281Y-106755849D01*
X152660396Y-107023482D01*
X142335627Y-107023482D01*
X142152018Y-106679976D01*
X141764775Y-106439830D01*
X139954605Y-108250000D01*
X139595395Y-108250000D01*
X137785225Y-106439830D01*
X137397982Y-106679976D01*
X137285000Y-106894086D01*
X137285000Y-106260225D01*
X137964830Y-106260225D01*
X139775000Y-108070395D01*
X141585170Y-106260225D01*
X141345024Y-105872982D01*
X140851123Y-105612359D01*
X140315867Y-105453099D01*
X139759826Y-105401322D01*
X139204368Y-105459019D01*
X138670839Y-105623972D01*
X138204976Y-105872982D01*
X137964830Y-106260225D01*
X137285000Y-106260225D01*
X137285000Y-105035750D01*
X147640000Y-105035750D01*
X147646196Y-105158357D01*
X147679418Y-105278949D01*
X147735527Y-105390742D01*
X147812369Y-105489441D01*
X147906988Y-105571252D01*
X148015751Y-105633032D01*
X148134476Y-105672406D01*
X148243250Y-105685000D01*
X148402000Y-105526250D01*
X148402000Y-104877000D01*
X147798750Y-104877000D01*
X147640000Y-105035750D01*
X137285000Y-105035750D01*
X137285000Y-101962408D01*
X138203000Y-101962408D01*
X138203000Y-102237592D01*
X138256686Y-102507490D01*
X138361995Y-102761727D01*
X138514880Y-102990535D01*
X138709465Y-103185120D01*
X138938273Y-103338005D01*
X139192510Y-103443314D01*
X139462408Y-103497000D01*
X139737592Y-103497000D01*
X139794149Y-103485750D01*
X142140000Y-103485750D01*
X142146196Y-103608357D01*
X142179418Y-103728949D01*
X142235527Y-103840742D01*
X142312369Y-103939441D01*
X142406988Y-104021252D01*
X142515751Y-104083032D01*
X142634476Y-104122406D01*
X142743250Y-104135000D01*
X142902000Y-103976250D01*
X142902000Y-103327000D01*
X142298750Y-103327000D01*
X142140000Y-103485750D01*
X139794149Y-103485750D01*
X140007490Y-103443314D01*
X140261727Y-103338005D01*
X140490535Y-103185120D01*
X140685120Y-102990535D01*
X140838005Y-102761727D01*
X140943314Y-102507490D01*
X140997000Y-102237592D01*
X140997000Y-101962408D01*
X140943314Y-101692510D01*
X140838005Y-101438273D01*
X140685120Y-101209465D01*
X140490535Y-101014880D01*
X140261727Y-100861995D01*
X140007490Y-100756686D01*
X139737592Y-100703000D01*
X139462408Y-100703000D01*
X139192510Y-100756686D01*
X138938273Y-100861995D01*
X138709465Y-101014880D01*
X138514880Y-101209465D01*
X138361995Y-101438273D01*
X138256686Y-101692510D01*
X138203000Y-101962408D01*
X137285000Y-101962408D01*
X137285000Y-80412408D01*
X138353000Y-80412408D01*
X138353000Y-80687592D01*
X138406686Y-80957490D01*
X138511995Y-81211727D01*
X138664880Y-81440535D01*
X138859465Y-81635120D01*
X139088273Y-81788005D01*
X139342510Y-81893314D01*
X139612408Y-81947000D01*
X139887592Y-81947000D01*
X140157490Y-81893314D01*
X140411727Y-81788005D01*
X140640535Y-81635120D01*
X140835120Y-81440535D01*
X140988005Y-81211727D01*
X141093314Y-80957490D01*
X141147000Y-80687592D01*
X141147000Y-80412408D01*
X141093314Y-80142510D01*
X140988005Y-79888273D01*
X140835120Y-79659465D01*
X140640535Y-79464880D01*
X140411727Y-79311995D01*
X140157490Y-79206686D01*
X139887592Y-79153000D01*
X139612408Y-79153000D01*
X139342510Y-79206686D01*
X139088273Y-79311995D01*
X138859465Y-79464880D01*
X138664880Y-79659465D01*
X138511995Y-79888273D01*
X138406686Y-80142510D01*
X138353000Y-80412408D01*
X137285000Y-80412408D01*
X137285000Y-78235750D01*
X149140000Y-78235750D01*
X149146196Y-78358357D01*
X149179418Y-78478949D01*
X149235527Y-78590742D01*
X149312369Y-78689441D01*
X149406988Y-78771252D01*
X149515751Y-78833032D01*
X149634476Y-78872406D01*
X149743250Y-78885000D01*
X149902000Y-78726250D01*
X149902000Y-78077000D01*
X150148000Y-78077000D01*
X150148000Y-78726250D01*
X150306750Y-78885000D01*
X150415524Y-78872406D01*
X150534249Y-78833032D01*
X150643012Y-78771252D01*
X150737631Y-78689441D01*
X150814473Y-78590742D01*
X150870582Y-78478949D01*
X150903804Y-78358357D01*
X150910000Y-78235750D01*
X150885000Y-78210750D01*
X150965000Y-78210750D01*
X150971196Y-78333357D01*
X151004418Y-78453949D01*
X151060527Y-78565742D01*
X151137369Y-78664441D01*
X151231988Y-78746252D01*
X151340751Y-78808032D01*
X151459476Y-78847406D01*
X151568250Y-78860000D01*
X151727000Y-78701250D01*
X151727000Y-78052000D01*
X151123750Y-78052000D01*
X150965000Y-78210750D01*
X150885000Y-78210750D01*
X150751250Y-78077000D01*
X150148000Y-78077000D01*
X149902000Y-78077000D01*
X149298750Y-78077000D01*
X149140000Y-78235750D01*
X137285000Y-78235750D01*
X137285000Y-76089775D01*
X137964830Y-76089775D01*
X138204976Y-76477018D01*
X138698877Y-76737641D01*
X139234133Y-76896901D01*
X139790174Y-76948678D01*
X140345632Y-76890981D01*
X140879161Y-76726028D01*
X141345024Y-76477018D01*
X141585170Y-76089775D01*
X139775000Y-74279605D01*
X137964830Y-76089775D01*
X137285000Y-76089775D01*
X137285000Y-75458650D01*
X137397982Y-75670024D01*
X137785225Y-75910170D01*
X139595395Y-74100000D01*
X139954605Y-74100000D01*
X141764775Y-75910170D01*
X142152018Y-75670024D01*
X142412641Y-75176123D01*
X142571901Y-74640867D01*
X142585018Y-74500000D01*
X143386928Y-74500000D01*
X143386928Y-76100000D01*
X143399188Y-76224482D01*
X143435498Y-76344180D01*
X143494463Y-76454494D01*
X143573815Y-76551185D01*
X143601820Y-76574168D01*
X143529774Y-76748102D01*
X143490000Y-76948061D01*
X143490000Y-77151939D01*
X143529774Y-77351898D01*
X143607795Y-77540256D01*
X143721063Y-77709774D01*
X143865226Y-77853937D01*
X144034744Y-77967205D01*
X144223102Y-78045226D01*
X144423061Y-78085000D01*
X144626939Y-78085000D01*
X144826898Y-78045226D01*
X145015256Y-77967205D01*
X145184774Y-77853937D01*
X145328937Y-77709774D01*
X145442205Y-77540256D01*
X145520226Y-77351898D01*
X145560000Y-77151939D01*
X145560000Y-76948061D01*
X145520226Y-76748102D01*
X145448180Y-76574168D01*
X145476185Y-76551185D01*
X145555537Y-76454494D01*
X145614502Y-76344180D01*
X145650812Y-76224482D01*
X145663072Y-76100000D01*
X145663072Y-74500000D01*
X145650812Y-74375518D01*
X145614502Y-74255820D01*
X145555537Y-74145506D01*
X145476185Y-74048815D01*
X145379494Y-73969463D01*
X145269180Y-73910498D01*
X145149482Y-73874188D01*
X145025000Y-73861928D01*
X144025000Y-73861928D01*
X143900518Y-73874188D01*
X143780820Y-73910498D01*
X143670506Y-73969463D01*
X143573815Y-74048815D01*
X143494463Y-74145506D01*
X143435498Y-74255820D01*
X143399188Y-74375518D01*
X143386928Y-74500000D01*
X142585018Y-74500000D01*
X142623678Y-74084826D01*
X142565981Y-73529368D01*
X142401028Y-72995839D01*
X142152018Y-72529976D01*
X141764775Y-72289830D01*
X139954605Y-74100000D01*
X139595395Y-74100000D01*
X137785225Y-72289830D01*
X137397982Y-72529976D01*
X137285000Y-72744086D01*
X137285000Y-71910000D01*
X138088998Y-71910000D01*
X137964830Y-72110225D01*
X137964830Y-72110225D01*
G37*
X137964830Y-72110225D02*
X139775000Y-73920395D01*
X141585170Y-72110225D01*
X141461002Y-71910000D01*
X154801289Y-71910000D01*
X154721063Y-71990226D01*
X154607795Y-72159744D01*
X154529774Y-72348102D01*
X154503663Y-72479374D01*
X154498490Y-72477805D01*
X154368477Y-72465000D01*
X154368469Y-72465000D01*
X154325000Y-72460719D01*
X154281531Y-72465000D01*
X150518465Y-72465000D01*
X150474999Y-72460719D01*
X150431533Y-72465000D01*
X150431523Y-72465000D01*
X150301510Y-72477805D01*
X150134687Y-72528411D01*
X149980941Y-72610589D01*
X149980939Y-72610590D01*
X149980940Y-72610590D01*
X149879953Y-72693468D01*
X149879951Y-72693470D01*
X149846183Y-72721183D01*
X149818470Y-72754951D01*
X148498011Y-74075410D01*
X148476185Y-74048815D01*
X148379494Y-73969463D01*
X148269180Y-73910498D01*
X148149482Y-73874188D01*
X148025000Y-73861928D01*
X147025000Y-73861928D01*
X146900518Y-73874188D01*
X146780820Y-73910498D01*
X146670506Y-73969463D01*
X146573815Y-74048815D01*
X146494463Y-74145506D01*
X146435498Y-74255820D01*
X146399188Y-74375518D01*
X146386928Y-74500000D01*
X146386928Y-76100000D01*
X146399188Y-76224482D01*
X146435498Y-76344180D01*
X146494463Y-76454494D01*
X146573815Y-76551185D01*
X146670506Y-76630537D01*
X146780820Y-76689502D01*
X146900518Y-76725812D01*
X147025000Y-76738072D01*
X148025000Y-76738072D01*
X148149482Y-76725812D01*
X148269180Y-76689502D01*
X148379494Y-76630537D01*
X148476185Y-76551185D01*
X148555537Y-76454494D01*
X148614502Y-76344180D01*
X148650812Y-76224482D01*
X148655545Y-76176425D01*
X148698490Y-76172195D01*
X148865313Y-76121589D01*
X149019059Y-76039411D01*
X149054109Y-76010646D01*
X149107795Y-76140256D01*
X149200130Y-76278446D01*
X149185498Y-76305820D01*
X149149188Y-76425518D01*
X149136928Y-76550000D01*
X149136928Y-77150000D01*
X149149188Y-77274482D01*
X149185498Y-77394180D01*
X149189318Y-77401326D01*
X149179418Y-77421051D01*
X149146196Y-77541643D01*
X149140000Y-77664250D01*
X149298750Y-77823000D01*
X149902000Y-77823000D01*
X149902000Y-77803000D01*
X150148000Y-77803000D01*
X150148000Y-77823000D01*
X150751250Y-77823000D01*
X150910000Y-77664250D01*
X150907258Y-77610000D01*
X150966478Y-77610000D01*
X150965000Y-77639250D01*
X151123750Y-77798000D01*
X151727000Y-77798000D01*
X151727000Y-77778000D01*
X151965348Y-77778000D01*
X151960719Y-77825000D01*
X151965001Y-77868479D01*
X151965000Y-78883421D01*
X151833422Y-79015000D01*
X147634981Y-79015000D01*
X147579494Y-78969463D01*
X147469180Y-78910498D01*
X147349482Y-78874188D01*
X147225000Y-78861928D01*
X146625000Y-78861928D01*
X146500518Y-78874188D01*
X146380820Y-78910498D01*
X146270506Y-78969463D01*
X146173815Y-79048815D01*
X146094463Y-79145506D01*
X146075000Y-79181918D01*
X146055537Y-79145506D01*
X145976185Y-79048815D01*
X145879494Y-78969463D01*
X145769180Y-78910498D01*
X145649482Y-78874188D01*
X145525000Y-78861928D01*
X144925000Y-78861928D01*
X144800518Y-78874188D01*
X144680820Y-78910498D01*
X144570506Y-78969463D01*
X144473815Y-79048815D01*
X144394463Y-79145506D01*
X144335498Y-79255820D01*
X144299188Y-79375518D01*
X144286928Y-79500000D01*
X144286928Y-80300000D01*
X144299188Y-80424482D01*
X144335498Y-80544180D01*
X144340001Y-80552603D01*
X144340001Y-80661545D01*
X144307795Y-80709744D01*
X144229774Y-80898102D01*
X144190000Y-81098061D01*
X144190000Y-81301939D01*
X144229774Y-81501898D01*
X144307795Y-81690256D01*
X144421063Y-81859774D01*
X144565226Y-82003937D01*
X144734744Y-82117205D01*
X144923102Y-82195226D01*
X145123061Y-82235000D01*
X145326939Y-82235000D01*
X145526898Y-82195226D01*
X145715256Y-82117205D01*
X145884774Y-82003937D01*
X146028937Y-81859774D01*
X146142205Y-81690256D01*
X146220226Y-81501898D01*
X146260000Y-81301939D01*
X146260000Y-81098061D01*
X146220226Y-80898102D01*
X146144650Y-80715648D01*
X146173815Y-80751185D01*
X146270506Y-80830537D01*
X146380820Y-80889502D01*
X146500518Y-80925812D01*
X146625000Y-80938072D01*
X147225000Y-80938072D01*
X147349482Y-80925812D01*
X147469180Y-80889502D01*
X147579494Y-80830537D01*
X147634981Y-80785000D01*
X151601289Y-80785000D01*
X151471063Y-80915226D01*
X151357795Y-81084744D01*
X151279774Y-81273102D01*
X151240000Y-81473061D01*
X151240000Y-81676939D01*
X151279774Y-81876898D01*
X151357795Y-82065256D01*
X151471063Y-82234774D01*
X151615226Y-82378937D01*
X151784744Y-82492205D01*
X151973102Y-82570226D01*
X152173061Y-82610000D01*
X152376939Y-82610000D01*
X152576898Y-82570226D01*
X152765256Y-82492205D01*
X152824363Y-82452711D01*
X152900518Y-82475812D01*
X153025000Y-82488072D01*
X153237126Y-82488072D01*
X151913998Y-83811201D01*
X151885000Y-83834999D01*
X151861202Y-83863997D01*
X151861201Y-83863998D01*
X151790026Y-83950724D01*
X151719454Y-84082754D01*
X151698754Y-84150997D01*
X151676306Y-84225001D01*
X151675998Y-84226015D01*
X151661324Y-84375000D01*
X151665001Y-84412332D01*
X151665001Y-84871288D01*
X151621063Y-84915226D01*
X151507795Y-85084744D01*
X151429774Y-85273102D01*
X151390000Y-85473061D01*
X151390000Y-85676939D01*
X151429774Y-85876898D01*
X151507795Y-86065256D01*
X151621063Y-86234774D01*
X151765226Y-86378937D01*
X151934744Y-86492205D01*
X152123102Y-86570226D01*
X152323061Y-86610000D01*
X152526939Y-86610000D01*
X152726898Y-86570226D01*
X152915256Y-86492205D01*
X153084774Y-86378937D01*
X153228937Y-86234774D01*
X153342205Y-86065256D01*
X153400001Y-85925725D01*
X153400000Y-87306679D01*
X153363180Y-87286998D01*
X153243482Y-87250688D01*
X153119000Y-87238428D01*
X152611000Y-87238428D01*
X152486518Y-87250688D01*
X152366820Y-87286998D01*
X152256506Y-87345963D01*
X152159815Y-87425315D01*
X152080463Y-87522006D01*
X152021498Y-87632320D01*
X152004608Y-87688000D01*
X150839322Y-87688000D01*
X150801999Y-87684324D01*
X150764676Y-87688000D01*
X150764667Y-87688000D01*
X150653014Y-87698997D01*
X150509753Y-87742454D01*
X150377724Y-87813026D01*
X150377722Y-87813027D01*
X150377723Y-87813027D01*
X150290996Y-87884201D01*
X150290992Y-87884205D01*
X150261999Y-87907999D01*
X150238205Y-87936992D01*
X147905199Y-90270000D01*
X141138072Y-90270000D01*
X141138072Y-90210000D01*
X141125812Y-90085518D01*
X141089502Y-89965820D01*
X141030537Y-89855506D01*
X140951185Y-89758815D01*
X140854494Y-89679463D01*
X140744180Y-89620498D01*
X140624482Y-89584188D01*
X140500000Y-89571928D01*
X138800000Y-89571928D01*
X138675518Y-89584188D01*
X138555820Y-89620498D01*
X138445506Y-89679463D01*
X138348815Y-89758815D01*
X138269463Y-89855506D01*
X138210498Y-89965820D01*
X138174188Y-90085518D01*
X138161928Y-90210000D01*
X138161928Y-91910000D01*
X138174188Y-92034482D01*
X138210498Y-92154180D01*
X138269463Y-92264494D01*
X138348815Y-92361185D01*
X138445506Y-92440537D01*
X138555820Y-92499502D01*
X138624687Y-92520393D01*
X138594866Y-92544866D01*
X138409294Y-92770986D01*
X138271401Y-93028966D01*
X138186487Y-93308889D01*
X138157815Y-93600000D01*
X138186487Y-93891111D01*
X138271401Y-94171034D01*
X138409294Y-94429014D01*
X138594866Y-94655134D01*
X138820986Y-94840706D01*
X139078966Y-94978599D01*
X139358889Y-95063513D01*
X139577050Y-95085000D01*
X139722950Y-95085000D01*
X139941111Y-95063513D01*
X140221034Y-94978599D01*
X140479014Y-94840706D01*
X140705134Y-94655134D01*
X140890706Y-94429014D01*
X140943630Y-94330000D01*
X146181289Y-94330000D01*
X146071063Y-94440226D01*
X145957795Y-94609744D01*
X145879774Y-94798102D01*
X145840000Y-94998061D01*
X145840000Y-95201939D01*
X145879774Y-95401898D01*
X145957795Y-95590256D01*
X146007737Y-95665000D01*
X145938454Y-95665000D01*
X145890256Y-95632795D01*
X145701898Y-95554774D01*
X145501939Y-95515000D01*
X145298061Y-95515000D01*
X145098102Y-95554774D01*
X144909744Y-95632795D01*
X144740226Y-95746063D01*
X144596063Y-95890226D01*
X144482795Y-96059744D01*
X144404774Y-96248102D01*
X144365000Y-96448061D01*
X144365000Y-96651939D01*
X144404774Y-96851898D01*
X144482795Y-97040256D01*
X144596063Y-97209774D01*
X144740226Y-97353937D01*
X144909744Y-97467205D01*
X145098102Y-97545226D01*
X145298061Y-97585000D01*
X145501939Y-97585000D01*
X145701898Y-97545226D01*
X145890256Y-97467205D01*
X145938454Y-97435000D01*
X146090001Y-97435000D01*
X146090000Y-97703855D01*
X146035498Y-97805820D01*
X145999188Y-97925518D01*
X145986928Y-98050000D01*
X145986928Y-98750000D01*
X145999188Y-98874482D01*
X146035498Y-98994180D01*
X146090000Y-99096145D01*
X146090000Y-99103855D01*
X146035498Y-99205820D01*
X145999188Y-99325518D01*
X145986928Y-99450000D01*
X145986928Y-99950000D01*
X145999188Y-100074482D01*
X146035498Y-100194180D01*
X146090001Y-100296146D01*
X146090000Y-100618007D01*
X146040506Y-100644463D01*
X145943815Y-100723815D01*
X145864463Y-100820506D01*
X145825000Y-100894335D01*
X145785537Y-100820506D01*
X145706185Y-100723815D01*
X145609494Y-100644463D01*
X145499180Y-100585498D01*
X145379482Y-100549188D01*
X145255000Y-100536928D01*
X144195000Y-100536928D01*
X144070518Y-100549188D01*
X143950820Y-100585498D01*
X143840506Y-100644463D01*
X143815482Y-100665000D01*
X143266018Y-100665000D01*
X143225000Y-100660960D01*
X143183982Y-100665000D01*
X143183981Y-100665000D01*
X143061311Y-100677082D01*
X142903913Y-100724828D01*
X142758854Y-100802364D01*
X142631709Y-100906709D01*
X142605558Y-100938575D01*
X142463573Y-101080560D01*
X142431710Y-101106709D01*
X142327364Y-101233854D01*
X142249828Y-101378913D01*
X142210160Y-101509681D01*
X142185498Y-101555820D01*
X142149188Y-101675518D01*
X142136928Y-101800000D01*
X142136928Y-102400000D01*
X142149188Y-102524482D01*
X142185498Y-102644180D01*
X142189318Y-102651326D01*
X142179418Y-102671051D01*
X142146196Y-102791643D01*
X142140000Y-102914250D01*
X142298750Y-103073000D01*
X142902000Y-103073000D01*
X142902000Y-103053000D01*
X143148000Y-103053000D01*
X143148000Y-103073000D01*
X143172000Y-103073000D01*
X143172000Y-103327000D01*
X143148000Y-103327000D01*
X143148000Y-103976250D01*
X143306750Y-104135000D01*
X143415524Y-104122406D01*
X143534249Y-104083032D01*
X143635586Y-104025470D01*
X143664463Y-104079494D01*
X143743815Y-104176185D01*
X143840506Y-104255537D01*
X143950820Y-104314502D01*
X144070518Y-104350812D01*
X144195000Y-104363072D01*
X144439250Y-104360000D01*
X144598000Y-104201250D01*
X144598000Y-103527000D01*
X144578000Y-103527000D01*
X144578000Y-103273000D01*
X144598000Y-103273000D01*
X144598000Y-103253000D01*
X144852000Y-103253000D01*
X144852000Y-103273000D01*
X144872000Y-103273000D01*
X144872000Y-103527000D01*
X144852000Y-103527000D01*
X144852000Y-104201250D01*
X145010750Y-104360000D01*
X145255000Y-104363072D01*
X145379482Y-104350812D01*
X145499180Y-104314502D01*
X145609494Y-104255537D01*
X145706185Y-104176185D01*
X145785537Y-104079494D01*
X145825000Y-104005665D01*
X145864463Y-104079494D01*
X145943815Y-104176185D01*
X146040506Y-104255537D01*
X146150820Y-104314502D01*
X146270518Y-104350812D01*
X146395000Y-104363072D01*
X147455000Y-104363072D01*
X147579482Y-104350812D01*
X147649523Y-104329565D01*
X147646196Y-104341643D01*
X147640000Y-104464250D01*
X147798750Y-104623000D01*
X148402000Y-104623000D01*
X148402000Y-104603000D01*
X148648000Y-104603000D01*
X148648000Y-104623000D01*
X148672000Y-104623000D01*
X148672000Y-104877000D01*
X148648000Y-104877000D01*
X148648000Y-105526250D01*
X148806750Y-105685000D01*
X148915524Y-105672406D01*
X149034249Y-105633032D01*
X149109994Y-105590007D01*
X149144463Y-105654494D01*
X149223815Y-105751185D01*
X149320506Y-105830537D01*
X149430820Y-105889502D01*
X149550518Y-105925812D01*
X149675000Y-105938072D01*
X149739250Y-105935000D01*
X149898000Y-105776250D01*
X149898000Y-105127000D01*
X150152000Y-105127000D01*
X150152000Y-105776250D01*
X150310750Y-105935000D01*
X150375000Y-105938072D01*
X150499482Y-105925812D01*
X150619180Y-105889502D01*
X150729494Y-105830537D01*
X150826185Y-105751185D01*
X150905537Y-105654494D01*
X150964502Y-105544180D01*
X151000812Y-105424482D01*
X151013072Y-105300000D01*
X151010000Y-105285750D01*
X150851250Y-105127000D01*
X150152000Y-105127000D01*
X149898000Y-105127000D01*
X149878000Y-105127000D01*
X149878000Y-104873000D01*
X149898000Y-104873000D01*
X149898000Y-104853000D01*
X150152000Y-104853000D01*
X150152000Y-104873000D01*
X150851250Y-104873000D01*
X151010000Y-104714250D01*
X151013072Y-104700000D01*
X151000812Y-104575518D01*
X150964502Y-104455820D01*
X150953373Y-104435000D01*
X153854132Y-104435000D01*
X154390000Y-104970869D01*
X154390001Y-105639223D01*
X154219151Y-105597281D01*
X153951518Y-105585396D01*
X153686709Y-105625952D01*
X153434900Y-105717391D01*
X153327965Y-105774550D01*
X153265472Y-106010867D01*
X154025000Y-106770395D01*
X154039143Y-106756253D01*
X154218748Y-106935858D01*
X154204605Y-106950000D01*
X154218748Y-106964143D01*
X154039143Y-107143748D01*
X154025000Y-107129605D01*
X153265472Y-107889133D01*
X153311909Y-108064733D01*
X153057722Y-108062248D01*
X153025000Y-108059025D01*
X152782899Y-108082870D01*
X152550100Y-108153489D01*
X152335552Y-108268167D01*
X152147499Y-108422498D01*
X151993168Y-108610551D01*
X151878489Y-108825099D01*
X151807870Y-109057898D01*
X151790000Y-109239335D01*
X151790000Y-110060664D01*
X151807870Y-110242101D01*
X151867902Y-110440000D01*
X141461002Y-110440000D01*
X141585170Y-110239775D01*
X139775000Y-108429605D01*
X137964830Y-110239775D01*
X138088998Y-110440000D01*
X137285000Y-110440000D01*
X137285000Y-109608650D01*
X137397982Y-109820024D01*
X137785225Y-110060170D01*
X139595395Y-108250000D01*
X139954605Y-108250000D01*
X141764775Y-110060170D01*
X142152018Y-109820024D01*
X142412641Y-109326123D01*
X142571901Y-108790867D01*
X142623678Y-108234826D01*
X142565981Y-107679368D01*
X142401028Y-107145839D01*
X142335627Y-107023482D01*
X152660396Y-107023482D01*
X152700952Y-107288291D01*
X152792391Y-107540100D01*
X152849550Y-107647035D01*
X153085867Y-107709528D01*
X153845395Y-106950000D01*
X153085867Y-106190472D01*
X152849550Y-106252965D01*
X152736150Y-106495678D01*
X152672281Y-106755849D01*
X152660396Y-107023482D01*
X142335627Y-107023482D01*
X142152018Y-106679976D01*
X141764775Y-106439830D01*
X139954605Y-108250000D01*
X139595395Y-108250000D01*
X137785225Y-106439830D01*
X137397982Y-106679976D01*
X137285000Y-106894086D01*
X137285000Y-106260225D01*
X137964830Y-106260225D01*
X139775000Y-108070395D01*
X141585170Y-106260225D01*
X141345024Y-105872982D01*
X140851123Y-105612359D01*
X140315867Y-105453099D01*
X139759826Y-105401322D01*
X139204368Y-105459019D01*
X138670839Y-105623972D01*
X138204976Y-105872982D01*
X137964830Y-106260225D01*
X137285000Y-106260225D01*
X137285000Y-105035750D01*
X147640000Y-105035750D01*
X147646196Y-105158357D01*
X147679418Y-105278949D01*
X147735527Y-105390742D01*
X147812369Y-105489441D01*
X147906988Y-105571252D01*
X148015751Y-105633032D01*
X148134476Y-105672406D01*
X148243250Y-105685000D01*
X148402000Y-105526250D01*
X148402000Y-104877000D01*
X147798750Y-104877000D01*
X147640000Y-105035750D01*
X137285000Y-105035750D01*
X137285000Y-101962408D01*
X138203000Y-101962408D01*
X138203000Y-102237592D01*
X138256686Y-102507490D01*
X138361995Y-102761727D01*
X138514880Y-102990535D01*
X138709465Y-103185120D01*
X138938273Y-103338005D01*
X139192510Y-103443314D01*
X139462408Y-103497000D01*
X139737592Y-103497000D01*
X139794149Y-103485750D01*
X142140000Y-103485750D01*
X142146196Y-103608357D01*
X142179418Y-103728949D01*
X142235527Y-103840742D01*
X142312369Y-103939441D01*
X142406988Y-104021252D01*
X142515751Y-104083032D01*
X142634476Y-104122406D01*
X142743250Y-104135000D01*
X142902000Y-103976250D01*
X142902000Y-103327000D01*
X142298750Y-103327000D01*
X142140000Y-103485750D01*
X139794149Y-103485750D01*
X140007490Y-103443314D01*
X140261727Y-103338005D01*
X140490535Y-103185120D01*
X140685120Y-102990535D01*
X140838005Y-102761727D01*
X140943314Y-102507490D01*
X140997000Y-102237592D01*
X140997000Y-101962408D01*
X140943314Y-101692510D01*
X140838005Y-101438273D01*
X140685120Y-101209465D01*
X140490535Y-101014880D01*
X140261727Y-100861995D01*
X140007490Y-100756686D01*
X139737592Y-100703000D01*
X139462408Y-100703000D01*
X139192510Y-100756686D01*
X138938273Y-100861995D01*
X138709465Y-101014880D01*
X138514880Y-101209465D01*
X138361995Y-101438273D01*
X138256686Y-101692510D01*
X138203000Y-101962408D01*
X137285000Y-101962408D01*
X137285000Y-80412408D01*
X138353000Y-80412408D01*
X138353000Y-80687592D01*
X138406686Y-80957490D01*
X138511995Y-81211727D01*
X138664880Y-81440535D01*
X138859465Y-81635120D01*
X139088273Y-81788005D01*
X139342510Y-81893314D01*
X139612408Y-81947000D01*
X139887592Y-81947000D01*
X140157490Y-81893314D01*
X140411727Y-81788005D01*
X140640535Y-81635120D01*
X140835120Y-81440535D01*
X140988005Y-81211727D01*
X141093314Y-80957490D01*
X141147000Y-80687592D01*
X141147000Y-80412408D01*
X141093314Y-80142510D01*
X140988005Y-79888273D01*
X140835120Y-79659465D01*
X140640535Y-79464880D01*
X140411727Y-79311995D01*
X140157490Y-79206686D01*
X139887592Y-79153000D01*
X139612408Y-79153000D01*
X139342510Y-79206686D01*
X139088273Y-79311995D01*
X138859465Y-79464880D01*
X138664880Y-79659465D01*
X138511995Y-79888273D01*
X138406686Y-80142510D01*
X138353000Y-80412408D01*
X137285000Y-80412408D01*
X137285000Y-78235750D01*
X149140000Y-78235750D01*
X149146196Y-78358357D01*
X149179418Y-78478949D01*
X149235527Y-78590742D01*
X149312369Y-78689441D01*
X149406988Y-78771252D01*
X149515751Y-78833032D01*
X149634476Y-78872406D01*
X149743250Y-78885000D01*
X149902000Y-78726250D01*
X149902000Y-78077000D01*
X150148000Y-78077000D01*
X150148000Y-78726250D01*
X150306750Y-78885000D01*
X150415524Y-78872406D01*
X150534249Y-78833032D01*
X150643012Y-78771252D01*
X150737631Y-78689441D01*
X150814473Y-78590742D01*
X150870582Y-78478949D01*
X150903804Y-78358357D01*
X150910000Y-78235750D01*
X150885000Y-78210750D01*
X150965000Y-78210750D01*
X150971196Y-78333357D01*
X151004418Y-78453949D01*
X151060527Y-78565742D01*
X151137369Y-78664441D01*
X151231988Y-78746252D01*
X151340751Y-78808032D01*
X151459476Y-78847406D01*
X151568250Y-78860000D01*
X151727000Y-78701250D01*
X151727000Y-78052000D01*
X151123750Y-78052000D01*
X150965000Y-78210750D01*
X150885000Y-78210750D01*
X150751250Y-78077000D01*
X150148000Y-78077000D01*
X149902000Y-78077000D01*
X149298750Y-78077000D01*
X149140000Y-78235750D01*
X137285000Y-78235750D01*
X137285000Y-76089775D01*
X137964830Y-76089775D01*
X138204976Y-76477018D01*
X138698877Y-76737641D01*
X139234133Y-76896901D01*
X139790174Y-76948678D01*
X140345632Y-76890981D01*
X140879161Y-76726028D01*
X141345024Y-76477018D01*
X141585170Y-76089775D01*
X139775000Y-74279605D01*
X137964830Y-76089775D01*
X137285000Y-76089775D01*
X137285000Y-75458650D01*
X137397982Y-75670024D01*
X137785225Y-75910170D01*
X139595395Y-74100000D01*
X139954605Y-74100000D01*
X141764775Y-75910170D01*
X142152018Y-75670024D01*
X142412641Y-75176123D01*
X142571901Y-74640867D01*
X142585018Y-74500000D01*
X143386928Y-74500000D01*
X143386928Y-76100000D01*
X143399188Y-76224482D01*
X143435498Y-76344180D01*
X143494463Y-76454494D01*
X143573815Y-76551185D01*
X143601820Y-76574168D01*
X143529774Y-76748102D01*
X143490000Y-76948061D01*
X143490000Y-77151939D01*
X143529774Y-77351898D01*
X143607795Y-77540256D01*
X143721063Y-77709774D01*
X143865226Y-77853937D01*
X144034744Y-77967205D01*
X144223102Y-78045226D01*
X144423061Y-78085000D01*
X144626939Y-78085000D01*
X144826898Y-78045226D01*
X145015256Y-77967205D01*
X145184774Y-77853937D01*
X145328937Y-77709774D01*
X145442205Y-77540256D01*
X145520226Y-77351898D01*
X145560000Y-77151939D01*
X145560000Y-76948061D01*
X145520226Y-76748102D01*
X145448180Y-76574168D01*
X145476185Y-76551185D01*
X145555537Y-76454494D01*
X145614502Y-76344180D01*
X145650812Y-76224482D01*
X145663072Y-76100000D01*
X145663072Y-74500000D01*
X145650812Y-74375518D01*
X145614502Y-74255820D01*
X145555537Y-74145506D01*
X145476185Y-74048815D01*
X145379494Y-73969463D01*
X145269180Y-73910498D01*
X145149482Y-73874188D01*
X145025000Y-73861928D01*
X144025000Y-73861928D01*
X143900518Y-73874188D01*
X143780820Y-73910498D01*
X143670506Y-73969463D01*
X143573815Y-74048815D01*
X143494463Y-74145506D01*
X143435498Y-74255820D01*
X143399188Y-74375518D01*
X143386928Y-74500000D01*
X142585018Y-74500000D01*
X142623678Y-74084826D01*
X142565981Y-73529368D01*
X142401028Y-72995839D01*
X142152018Y-72529976D01*
X141764775Y-72289830D01*
X139954605Y-74100000D01*
X139595395Y-74100000D01*
X137785225Y-72289830D01*
X137397982Y-72529976D01*
X137285000Y-72744086D01*
X137285000Y-71910000D01*
X138088998Y-71910000D01*
X137964830Y-72110225D01*
G36*
X150709201Y-95309003D02*
G01*
X150732999Y-95338001D01*
X150848724Y-95432974D01*
X150980753Y-95503546D01*
X151124014Y-95547003D01*
X151235667Y-95558000D01*
X151235676Y-95558000D01*
X151272999Y-95561676D01*
X151310322Y-95558000D01*
X152004608Y-95558000D01*
X152021498Y-95613680D01*
X152080463Y-95723994D01*
X152159815Y-95820685D01*
X152256506Y-95900037D01*
X152366820Y-95959002D01*
X152486518Y-95995312D01*
X152611000Y-96007572D01*
X153119000Y-96007572D01*
X153243482Y-95995312D01*
X153363180Y-95959002D01*
X153473494Y-95900037D01*
X153500000Y-95878284D01*
X153526506Y-95900037D01*
X153636820Y-95959002D01*
X153756518Y-95995312D01*
X153881000Y-96007572D01*
X154389000Y-96007572D01*
X154513482Y-95995312D01*
X154633180Y-95959002D01*
X154743494Y-95900037D01*
X154770000Y-95878284D01*
X154796506Y-95900037D01*
X154906820Y-95959002D01*
X155026518Y-95995312D01*
X155151000Y-96007572D01*
X155152982Y-96007572D01*
X154812240Y-96348314D01*
X154727833Y-96340000D01*
X154104518Y-96340000D01*
X154079494Y-96319463D01*
X153969180Y-96260498D01*
X153849482Y-96224188D01*
X153725000Y-96211928D01*
X153125000Y-96211928D01*
X153000518Y-96224188D01*
X152880820Y-96260498D01*
X152873674Y-96264318D01*
X152853949Y-96254418D01*
X152733357Y-96221196D01*
X152610750Y-96215000D01*
X152452000Y-96373750D01*
X152452000Y-96977000D01*
X152472000Y-96977000D01*
X152472000Y-97223000D01*
X152452000Y-97223000D01*
X152452000Y-97826250D01*
X152610750Y-97985000D01*
X152733357Y-97978804D01*
X152853949Y-97945582D01*
X152873674Y-97935682D01*
X152880820Y-97939502D01*
X153000518Y-97975812D01*
X153125000Y-97988072D01*
X153725000Y-97988072D01*
X153849482Y-97975812D01*
X153969180Y-97939502D01*
X154079494Y-97880537D01*
X154104518Y-97860000D01*
X154727833Y-97860000D01*
X154839486Y-97849003D01*
X154885649Y-97835000D01*
X155011479Y-97835000D01*
X154999188Y-97875518D01*
X154986928Y-98000000D01*
X154986928Y-98400000D01*
X154999188Y-98524482D01*
X155035498Y-98644180D01*
X155094463Y-98754494D01*
X155173815Y-98851185D01*
X155232587Y-98899418D01*
X155242663Y-98932633D01*
X155310913Y-99060320D01*
X155365000Y-99126225D01*
X155364999Y-100284043D01*
X155345506Y-100294463D01*
X155248815Y-100373815D01*
X155169463Y-100470506D01*
X155110498Y-100580820D01*
X155074188Y-100700518D01*
X155061928Y-100825000D01*
X155061928Y-100948627D01*
X155005807Y-101004748D01*
X154977762Y-101027764D01*
X154885913Y-101139682D01*
X154832620Y-101239387D01*
X154817663Y-101267369D01*
X154775634Y-101405917D01*
X154761443Y-101550002D01*
X154765000Y-101586117D01*
X154764999Y-102983491D01*
X154666146Y-102902364D01*
X154521087Y-102824828D01*
X154363689Y-102777082D01*
X154241019Y-102765000D01*
X154241018Y-102765000D01*
X154200000Y-102760960D01*
X154158982Y-102765000D01*
X151167263Y-102765000D01*
X151217205Y-102690256D01*
X151295226Y-102501898D01*
X151335000Y-102301939D01*
X151335000Y-102098061D01*
X151295226Y-101898102D01*
X151217205Y-101709744D01*
X151103937Y-101540226D01*
X150959774Y-101396063D01*
X150790256Y-101282795D01*
X150601898Y-101204774D01*
X150401939Y-101165000D01*
X150198061Y-101165000D01*
X149998102Y-101204774D01*
X149809744Y-101282795D01*
X149640226Y-101396063D01*
X149496063Y-101540226D01*
X149382795Y-101709744D01*
X149304774Y-101898102D01*
X149289162Y-101976588D01*
X149285590Y-101980941D01*
X149226609Y-102091287D01*
X149222636Y-102083854D01*
X149118291Y-101956709D01*
X149086422Y-101930555D01*
X149044446Y-101888579D01*
X149018291Y-101856709D01*
X148891146Y-101752364D01*
X148746087Y-101674828D01*
X148588689Y-101627082D01*
X148466019Y-101615000D01*
X148466018Y-101615000D01*
X148425000Y-101610960D01*
X148383982Y-101615000D01*
X148093072Y-101615000D01*
X148093072Y-101175000D01*
X148080812Y-101050518D01*
X148044502Y-100930820D01*
X147985537Y-100820506D01*
X147906185Y-100723815D01*
X147809494Y-100644463D01*
X147760000Y-100618007D01*
X147760000Y-100564250D01*
X147898000Y-100426250D01*
X147898000Y-99823000D01*
X148152000Y-99823000D01*
X148152000Y-100426250D01*
X148310750Y-100585000D01*
X148433357Y-100578804D01*
X148553949Y-100545582D01*
X148665742Y-100489473D01*
X148764441Y-100412631D01*
X148846252Y-100318012D01*
X148908032Y-100209249D01*
X148947406Y-100090524D01*
X148960000Y-99981750D01*
X148801250Y-99823000D01*
X148152000Y-99823000D01*
X147898000Y-99823000D01*
X147878000Y-99823000D01*
X147878000Y-99577000D01*
X147898000Y-99577000D01*
X147898000Y-99553000D01*
X148152000Y-99553000D01*
X148152000Y-99577000D01*
X148801250Y-99577000D01*
X148960000Y-99418250D01*
X148947406Y-99309476D01*
X148944085Y-99299464D01*
X148979494Y-99280537D01*
X149076185Y-99201185D01*
X149155537Y-99104494D01*
X149214502Y-98994180D01*
X149250812Y-98874482D01*
X149263072Y-98750000D01*
X149260000Y-98685750D01*
X149101250Y-98527000D01*
X148452000Y-98527000D01*
X148452000Y-98547000D01*
X148198000Y-98547000D01*
X148198000Y-98527000D01*
X148178000Y-98527000D01*
X148178000Y-98273000D01*
X148198000Y-98273000D01*
X148198000Y-97573750D01*
X148099250Y-97475000D01*
X148198000Y-97376250D01*
X148198000Y-96677000D01*
X148452000Y-96677000D01*
X148452000Y-97376250D01*
X148550750Y-97475000D01*
X148452000Y-97573750D01*
X148452000Y-98273000D01*
X149101250Y-98273000D01*
X149260000Y-98114250D01*
X149263072Y-98050000D01*
X149250812Y-97925518D01*
X149214502Y-97805820D01*
X149155537Y-97695506D01*
X149076185Y-97598815D01*
X148979494Y-97519463D01*
X148896311Y-97475000D01*
X148979494Y-97430537D01*
X149038941Y-97381750D01*
X151390000Y-97381750D01*
X151402594Y-97490524D01*
X151441968Y-97609249D01*
X151503748Y-97718012D01*
X151585559Y-97812631D01*
X151684258Y-97889473D01*
X151796051Y-97945582D01*
X151916643Y-97978804D01*
X152039250Y-97985000D01*
X152198000Y-97826250D01*
X152198000Y-97223000D01*
X151548750Y-97223000D01*
X151390000Y-97381750D01*
X149038941Y-97381750D01*
X149076185Y-97351185D01*
X149155537Y-97254494D01*
X149214502Y-97144180D01*
X149250812Y-97024482D01*
X149263072Y-96900000D01*
X149260000Y-96835750D01*
X149242500Y-96818250D01*
X151390000Y-96818250D01*
X151548750Y-96977000D01*
X152198000Y-96977000D01*
X152198000Y-96373750D01*
X152039250Y-96215000D01*
X151916643Y-96221196D01*
X151796051Y-96254418D01*
X151684258Y-96310527D01*
X151585559Y-96387369D01*
X151503748Y-96481988D01*
X151441968Y-96590751D01*
X151402594Y-96709476D01*
X151390000Y-96818250D01*
X149242500Y-96818250D01*
X149101250Y-96677000D01*
X148452000Y-96677000D01*
X148198000Y-96677000D01*
X148178000Y-96677000D01*
X148178000Y-96423000D01*
X148198000Y-96423000D01*
X148198000Y-95723750D01*
X148452000Y-95723750D01*
X148452000Y-96423000D01*
X149101250Y-96423000D01*
X149260000Y-96264250D01*
X149263072Y-96200000D01*
X149250812Y-96075518D01*
X149214502Y-95955820D01*
X149155537Y-95845506D01*
X149076185Y-95748815D01*
X148979494Y-95669463D01*
X148869180Y-95610498D01*
X148749482Y-95574188D01*
X148625000Y-95561928D01*
X148610750Y-95565000D01*
X148452000Y-95723750D01*
X148198000Y-95723750D01*
X148039250Y-95565000D01*
X148025000Y-95561928D01*
X147900518Y-95574188D01*
X147780820Y-95610498D01*
X147777491Y-95612278D01*
X147792205Y-95590256D01*
X147870226Y-95401898D01*
X147910000Y-95201939D01*
X147910000Y-94998061D01*
X147870226Y-94798102D01*
X147792205Y-94609744D01*
X147678937Y-94440226D01*
X147568711Y-94330000D01*
X149730199Y-94330000D01*
X150709201Y-95309003D01*
X150709201Y-95309003D01*
G37*
X150709201Y-95309003D02*
X150732999Y-95338001D01*
X150848724Y-95432974D01*
X150980753Y-95503546D01*
X151124014Y-95547003D01*
X151235667Y-95558000D01*
X151235676Y-95558000D01*
X151272999Y-95561676D01*
X151310322Y-95558000D01*
X152004608Y-95558000D01*
X152021498Y-95613680D01*
X152080463Y-95723994D01*
X152159815Y-95820685D01*
X152256506Y-95900037D01*
X152366820Y-95959002D01*
X152486518Y-95995312D01*
X152611000Y-96007572D01*
X153119000Y-96007572D01*
X153243482Y-95995312D01*
X153363180Y-95959002D01*
X153473494Y-95900037D01*
X153500000Y-95878284D01*
X153526506Y-95900037D01*
X153636820Y-95959002D01*
X153756518Y-95995312D01*
X153881000Y-96007572D01*
X154389000Y-96007572D01*
X154513482Y-95995312D01*
X154633180Y-95959002D01*
X154743494Y-95900037D01*
X154770000Y-95878284D01*
X154796506Y-95900037D01*
X154906820Y-95959002D01*
X155026518Y-95995312D01*
X155151000Y-96007572D01*
X155152982Y-96007572D01*
X154812240Y-96348314D01*
X154727833Y-96340000D01*
X154104518Y-96340000D01*
X154079494Y-96319463D01*
X153969180Y-96260498D01*
X153849482Y-96224188D01*
X153725000Y-96211928D01*
X153125000Y-96211928D01*
X153000518Y-96224188D01*
X152880820Y-96260498D01*
X152873674Y-96264318D01*
X152853949Y-96254418D01*
X152733357Y-96221196D01*
X152610750Y-96215000D01*
X152452000Y-96373750D01*
X152452000Y-96977000D01*
X152472000Y-96977000D01*
X152472000Y-97223000D01*
X152452000Y-97223000D01*
X152452000Y-97826250D01*
X152610750Y-97985000D01*
X152733357Y-97978804D01*
X152853949Y-97945582D01*
X152873674Y-97935682D01*
X152880820Y-97939502D01*
X153000518Y-97975812D01*
X153125000Y-97988072D01*
X153725000Y-97988072D01*
X153849482Y-97975812D01*
X153969180Y-97939502D01*
X154079494Y-97880537D01*
X154104518Y-97860000D01*
X154727833Y-97860000D01*
X154839486Y-97849003D01*
X154885649Y-97835000D01*
X155011479Y-97835000D01*
X154999188Y-97875518D01*
X154986928Y-98000000D01*
X154986928Y-98400000D01*
X154999188Y-98524482D01*
X155035498Y-98644180D01*
X155094463Y-98754494D01*
X155173815Y-98851185D01*
X155232587Y-98899418D01*
X155242663Y-98932633D01*
X155310913Y-99060320D01*
X155365000Y-99126225D01*
X155364999Y-100284043D01*
X155345506Y-100294463D01*
X155248815Y-100373815D01*
X155169463Y-100470506D01*
X155110498Y-100580820D01*
X155074188Y-100700518D01*
X155061928Y-100825000D01*
X155061928Y-100948627D01*
X155005807Y-101004748D01*
X154977762Y-101027764D01*
X154885913Y-101139682D01*
X154832620Y-101239387D01*
X154817663Y-101267369D01*
X154775634Y-101405917D01*
X154761443Y-101550002D01*
X154765000Y-101586117D01*
X154764999Y-102983491D01*
X154666146Y-102902364D01*
X154521087Y-102824828D01*
X154363689Y-102777082D01*
X154241019Y-102765000D01*
X154241018Y-102765000D01*
X154200000Y-102760960D01*
X154158982Y-102765000D01*
X151167263Y-102765000D01*
X151217205Y-102690256D01*
X151295226Y-102501898D01*
X151335000Y-102301939D01*
X151335000Y-102098061D01*
X151295226Y-101898102D01*
X151217205Y-101709744D01*
X151103937Y-101540226D01*
X150959774Y-101396063D01*
X150790256Y-101282795D01*
X150601898Y-101204774D01*
X150401939Y-101165000D01*
X150198061Y-101165000D01*
X149998102Y-101204774D01*
X149809744Y-101282795D01*
X149640226Y-101396063D01*
X149496063Y-101540226D01*
X149382795Y-101709744D01*
X149304774Y-101898102D01*
X149289162Y-101976588D01*
X149285590Y-101980941D01*
X149226609Y-102091287D01*
X149222636Y-102083854D01*
X149118291Y-101956709D01*
X149086422Y-101930555D01*
X149044446Y-101888579D01*
X149018291Y-101856709D01*
X148891146Y-101752364D01*
X148746087Y-101674828D01*
X148588689Y-101627082D01*
X148466019Y-101615000D01*
X148466018Y-101615000D01*
X148425000Y-101610960D01*
X148383982Y-101615000D01*
X148093072Y-101615000D01*
X148093072Y-101175000D01*
X148080812Y-101050518D01*
X148044502Y-100930820D01*
X147985537Y-100820506D01*
X147906185Y-100723815D01*
X147809494Y-100644463D01*
X147760000Y-100618007D01*
X147760000Y-100564250D01*
X147898000Y-100426250D01*
X147898000Y-99823000D01*
X148152000Y-99823000D01*
X148152000Y-100426250D01*
X148310750Y-100585000D01*
X148433357Y-100578804D01*
X148553949Y-100545582D01*
X148665742Y-100489473D01*
X148764441Y-100412631D01*
X148846252Y-100318012D01*
X148908032Y-100209249D01*
X148947406Y-100090524D01*
X148960000Y-99981750D01*
X148801250Y-99823000D01*
X148152000Y-99823000D01*
X147898000Y-99823000D01*
X147878000Y-99823000D01*
X147878000Y-99577000D01*
X147898000Y-99577000D01*
X147898000Y-99553000D01*
X148152000Y-99553000D01*
X148152000Y-99577000D01*
X148801250Y-99577000D01*
X148960000Y-99418250D01*
X148947406Y-99309476D01*
X148944085Y-99299464D01*
X148979494Y-99280537D01*
X149076185Y-99201185D01*
X149155537Y-99104494D01*
X149214502Y-98994180D01*
X149250812Y-98874482D01*
X149263072Y-98750000D01*
X149260000Y-98685750D01*
X149101250Y-98527000D01*
X148452000Y-98527000D01*
X148452000Y-98547000D01*
X148198000Y-98547000D01*
X148198000Y-98527000D01*
X148178000Y-98527000D01*
X148178000Y-98273000D01*
X148198000Y-98273000D01*
X148198000Y-97573750D01*
X148099250Y-97475000D01*
X148198000Y-97376250D01*
X148198000Y-96677000D01*
X148452000Y-96677000D01*
X148452000Y-97376250D01*
X148550750Y-97475000D01*
X148452000Y-97573750D01*
X148452000Y-98273000D01*
X149101250Y-98273000D01*
X149260000Y-98114250D01*
X149263072Y-98050000D01*
X149250812Y-97925518D01*
X149214502Y-97805820D01*
X149155537Y-97695506D01*
X149076185Y-97598815D01*
X148979494Y-97519463D01*
X148896311Y-97475000D01*
X148979494Y-97430537D01*
X149038941Y-97381750D01*
X151390000Y-97381750D01*
X151402594Y-97490524D01*
X151441968Y-97609249D01*
X151503748Y-97718012D01*
X151585559Y-97812631D01*
X151684258Y-97889473D01*
X151796051Y-97945582D01*
X151916643Y-97978804D01*
X152039250Y-97985000D01*
X152198000Y-97826250D01*
X152198000Y-97223000D01*
X151548750Y-97223000D01*
X151390000Y-97381750D01*
X149038941Y-97381750D01*
X149076185Y-97351185D01*
X149155537Y-97254494D01*
X149214502Y-97144180D01*
X149250812Y-97024482D01*
X149263072Y-96900000D01*
X149260000Y-96835750D01*
X149242500Y-96818250D01*
X151390000Y-96818250D01*
X151548750Y-96977000D01*
X152198000Y-96977000D01*
X152198000Y-96373750D01*
X152039250Y-96215000D01*
X151916643Y-96221196D01*
X151796051Y-96254418D01*
X151684258Y-96310527D01*
X151585559Y-96387369D01*
X151503748Y-96481988D01*
X151441968Y-96590751D01*
X151402594Y-96709476D01*
X151390000Y-96818250D01*
X149242500Y-96818250D01*
X149101250Y-96677000D01*
X148452000Y-96677000D01*
X148198000Y-96677000D01*
X148178000Y-96677000D01*
X148178000Y-96423000D01*
X148198000Y-96423000D01*
X148198000Y-95723750D01*
X148452000Y-95723750D01*
X148452000Y-96423000D01*
X149101250Y-96423000D01*
X149260000Y-96264250D01*
X149263072Y-96200000D01*
X149250812Y-96075518D01*
X149214502Y-95955820D01*
X149155537Y-95845506D01*
X149076185Y-95748815D01*
X148979494Y-95669463D01*
X148869180Y-95610498D01*
X148749482Y-95574188D01*
X148625000Y-95561928D01*
X148610750Y-95565000D01*
X148452000Y-95723750D01*
X148198000Y-95723750D01*
X148039250Y-95565000D01*
X148025000Y-95561928D01*
X147900518Y-95574188D01*
X147780820Y-95610498D01*
X147777491Y-95612278D01*
X147792205Y-95590256D01*
X147870226Y-95401898D01*
X147910000Y-95201939D01*
X147910000Y-94998061D01*
X147870226Y-94798102D01*
X147792205Y-94609744D01*
X147678937Y-94440226D01*
X147568711Y-94330000D01*
X149730199Y-94330000D01*
X150709201Y-95309003D01*
G36*
X166220746Y-84719193D02*
G01*
X166243762Y-84747238D01*
X166330051Y-84818054D01*
X166340188Y-84920982D01*
X166376498Y-85040680D01*
X166435463Y-85150994D01*
X166490001Y-85217449D01*
X166490000Y-94962678D01*
X166486324Y-95000000D01*
X166490000Y-95037322D01*
X166490000Y-95037332D01*
X166490001Y-95037342D01*
X166490000Y-98029043D01*
X166319208Y-98169208D01*
X166155505Y-98368682D01*
X166033862Y-98596259D01*
X165958955Y-98843195D01*
X165933662Y-99100000D01*
X165958955Y-99356805D01*
X166033862Y-99603741D01*
X166155505Y-99831318D01*
X166212631Y-99900926D01*
X166123815Y-99973815D01*
X166044463Y-100070506D01*
X165985498Y-100180820D01*
X165949188Y-100300518D01*
X165936928Y-100425000D01*
X165936928Y-101775000D01*
X165949188Y-101899482D01*
X165985498Y-102019180D01*
X166044463Y-102129494D01*
X166123815Y-102226185D01*
X166220506Y-102305537D01*
X166330820Y-102364502D01*
X166450518Y-102400812D01*
X166575000Y-102413072D01*
X167925000Y-102413072D01*
X168049482Y-102400812D01*
X168169180Y-102364502D01*
X168279494Y-102305537D01*
X168376185Y-102226185D01*
X168449074Y-102137369D01*
X168490001Y-102170957D01*
X168490001Y-102685197D01*
X168385198Y-102790000D01*
X165164802Y-102790000D01*
X164410000Y-102035199D01*
X164410000Y-92203711D01*
X164453937Y-92159774D01*
X164567205Y-91990256D01*
X164645226Y-91801898D01*
X164685000Y-91601939D01*
X164685000Y-91398061D01*
X164645226Y-91198102D01*
X164567205Y-91009744D01*
X164504878Y-90916465D01*
X164598061Y-90935000D01*
X164801939Y-90935000D01*
X165001898Y-90895226D01*
X165190256Y-90817205D01*
X165359774Y-90703937D01*
X165503937Y-90559774D01*
X165617205Y-90390256D01*
X165695226Y-90201898D01*
X165735000Y-90001939D01*
X165735000Y-89798061D01*
X165695226Y-89598102D01*
X165617205Y-89409744D01*
X165503937Y-89240226D01*
X165359774Y-89096063D01*
X165190256Y-88982795D01*
X165001898Y-88904774D01*
X164801939Y-88865000D01*
X164598061Y-88865000D01*
X164398102Y-88904774D01*
X164352085Y-88923835D01*
X164251250Y-88823000D01*
X163602000Y-88823000D01*
X163602000Y-88847000D01*
X163348000Y-88847000D01*
X163348000Y-88823000D01*
X163328000Y-88823000D01*
X163328000Y-88577000D01*
X163348000Y-88577000D01*
X163348000Y-87973750D01*
X163189250Y-87815000D01*
X163066643Y-87821196D01*
X162946051Y-87854418D01*
X162926326Y-87864318D01*
X162919180Y-87860498D01*
X162799482Y-87824188D01*
X162752094Y-87819521D01*
X162751817Y-87819183D01*
X162617059Y-87708589D01*
X162463313Y-87626411D01*
X162296490Y-87575805D01*
X162166477Y-87563000D01*
X162166469Y-87563000D01*
X162123000Y-87558719D01*
X162079531Y-87563000D01*
X161291449Y-87563000D01*
X161269537Y-87522006D01*
X161215253Y-87455861D01*
X161269180Y-87439502D01*
X161379494Y-87380537D01*
X161476185Y-87301185D01*
X161555537Y-87204494D01*
X161574822Y-87168415D01*
X161617247Y-87155546D01*
X161700985Y-87110786D01*
X161750518Y-87125812D01*
X161875000Y-87138072D01*
X162275000Y-87138072D01*
X162399482Y-87125812D01*
X162519180Y-87089502D01*
X162525000Y-87086391D01*
X162530820Y-87089502D01*
X162650518Y-87125812D01*
X162775000Y-87138072D01*
X163175000Y-87138072D01*
X163299482Y-87125812D01*
X163419180Y-87089502D01*
X163529494Y-87030537D01*
X163615444Y-86960000D01*
X163684556Y-86960000D01*
X163770506Y-87030537D01*
X163880820Y-87089502D01*
X163886810Y-87091319D01*
X163857795Y-87134744D01*
X163779774Y-87323102D01*
X163740000Y-87523061D01*
X163740000Y-87726939D01*
X163758053Y-87817697D01*
X163602000Y-87973750D01*
X163602000Y-88577000D01*
X164251250Y-88577000D01*
X164285664Y-88542586D01*
X164473102Y-88620226D01*
X164673061Y-88660000D01*
X164876939Y-88660000D01*
X165076898Y-88620226D01*
X165265256Y-88542205D01*
X165434774Y-88428937D01*
X165578937Y-88284774D01*
X165692205Y-88115256D01*
X165770226Y-87926898D01*
X165810000Y-87726939D01*
X165810000Y-87620762D01*
X165839087Y-87585320D01*
X165907337Y-87457633D01*
X165941338Y-87345546D01*
X165949365Y-87319086D01*
X165952722Y-87285000D01*
X165960000Y-87211105D01*
X165960000Y-87211098D01*
X165963555Y-87175001D01*
X165960000Y-87138904D01*
X165960000Y-86846144D01*
X166014502Y-86744180D01*
X166050812Y-86624482D01*
X166063072Y-86500000D01*
X166063072Y-85900000D01*
X166050812Y-85775518D01*
X166014502Y-85655820D01*
X165960000Y-85553856D01*
X165960000Y-85546144D01*
X166014502Y-85444180D01*
X166050812Y-85324482D01*
X166063072Y-85200000D01*
X166063072Y-84600000D01*
X166058868Y-84557315D01*
X166220746Y-84719193D01*
X166220746Y-84719193D01*
G37*
X166220746Y-84719193D02*
X166243762Y-84747238D01*
X166330051Y-84818054D01*
X166340188Y-84920982D01*
X166376498Y-85040680D01*
X166435463Y-85150994D01*
X166490001Y-85217449D01*
X166490000Y-94962678D01*
X166486324Y-95000000D01*
X166490000Y-95037322D01*
X166490000Y-95037332D01*
X166490001Y-95037342D01*
X166490000Y-98029043D01*
X166319208Y-98169208D01*
X166155505Y-98368682D01*
X166033862Y-98596259D01*
X165958955Y-98843195D01*
X165933662Y-99100000D01*
X165958955Y-99356805D01*
X166033862Y-99603741D01*
X166155505Y-99831318D01*
X166212631Y-99900926D01*
X166123815Y-99973815D01*
X166044463Y-100070506D01*
X165985498Y-100180820D01*
X165949188Y-100300518D01*
X165936928Y-100425000D01*
X165936928Y-101775000D01*
X165949188Y-101899482D01*
X165985498Y-102019180D01*
X166044463Y-102129494D01*
X166123815Y-102226185D01*
X166220506Y-102305537D01*
X166330820Y-102364502D01*
X166450518Y-102400812D01*
X166575000Y-102413072D01*
X167925000Y-102413072D01*
X168049482Y-102400812D01*
X168169180Y-102364502D01*
X168279494Y-102305537D01*
X168376185Y-102226185D01*
X168449074Y-102137369D01*
X168490001Y-102170957D01*
X168490001Y-102685197D01*
X168385198Y-102790000D01*
X165164802Y-102790000D01*
X164410000Y-102035199D01*
X164410000Y-92203711D01*
X164453937Y-92159774D01*
X164567205Y-91990256D01*
X164645226Y-91801898D01*
X164685000Y-91601939D01*
X164685000Y-91398061D01*
X164645226Y-91198102D01*
X164567205Y-91009744D01*
X164504878Y-90916465D01*
X164598061Y-90935000D01*
X164801939Y-90935000D01*
X165001898Y-90895226D01*
X165190256Y-90817205D01*
X165359774Y-90703937D01*
X165503937Y-90559774D01*
X165617205Y-90390256D01*
X165695226Y-90201898D01*
X165735000Y-90001939D01*
X165735000Y-89798061D01*
X165695226Y-89598102D01*
X165617205Y-89409744D01*
X165503937Y-89240226D01*
X165359774Y-89096063D01*
X165190256Y-88982795D01*
X165001898Y-88904774D01*
X164801939Y-88865000D01*
X164598061Y-88865000D01*
X164398102Y-88904774D01*
X164352085Y-88923835D01*
X164251250Y-88823000D01*
X163602000Y-88823000D01*
X163602000Y-88847000D01*
X163348000Y-88847000D01*
X163348000Y-88823000D01*
X163328000Y-88823000D01*
X163328000Y-88577000D01*
X163348000Y-88577000D01*
X163348000Y-87973750D01*
X163189250Y-87815000D01*
X163066643Y-87821196D01*
X162946051Y-87854418D01*
X162926326Y-87864318D01*
X162919180Y-87860498D01*
X162799482Y-87824188D01*
X162752094Y-87819521D01*
X162751817Y-87819183D01*
X162617059Y-87708589D01*
X162463313Y-87626411D01*
X162296490Y-87575805D01*
X162166477Y-87563000D01*
X162166469Y-87563000D01*
X162123000Y-87558719D01*
X162079531Y-87563000D01*
X161291449Y-87563000D01*
X161269537Y-87522006D01*
X161215253Y-87455861D01*
X161269180Y-87439502D01*
X161379494Y-87380537D01*
X161476185Y-87301185D01*
X161555537Y-87204494D01*
X161574822Y-87168415D01*
X161617247Y-87155546D01*
X161700985Y-87110786D01*
X161750518Y-87125812D01*
X161875000Y-87138072D01*
X162275000Y-87138072D01*
X162399482Y-87125812D01*
X162519180Y-87089502D01*
X162525000Y-87086391D01*
X162530820Y-87089502D01*
X162650518Y-87125812D01*
X162775000Y-87138072D01*
X163175000Y-87138072D01*
X163299482Y-87125812D01*
X163419180Y-87089502D01*
X163529494Y-87030537D01*
X163615444Y-86960000D01*
X163684556Y-86960000D01*
X163770506Y-87030537D01*
X163880820Y-87089502D01*
X163886810Y-87091319D01*
X163857795Y-87134744D01*
X163779774Y-87323102D01*
X163740000Y-87523061D01*
X163740000Y-87726939D01*
X163758053Y-87817697D01*
X163602000Y-87973750D01*
X163602000Y-88577000D01*
X164251250Y-88577000D01*
X164285664Y-88542586D01*
X164473102Y-88620226D01*
X164673061Y-88660000D01*
X164876939Y-88660000D01*
X165076898Y-88620226D01*
X165265256Y-88542205D01*
X165434774Y-88428937D01*
X165578937Y-88284774D01*
X165692205Y-88115256D01*
X165770226Y-87926898D01*
X165810000Y-87726939D01*
X165810000Y-87620762D01*
X165839087Y-87585320D01*
X165907337Y-87457633D01*
X165941338Y-87345546D01*
X165949365Y-87319086D01*
X165952722Y-87285000D01*
X165960000Y-87211105D01*
X165960000Y-87211098D01*
X165963555Y-87175001D01*
X165960000Y-87138904D01*
X165960000Y-86846144D01*
X166014502Y-86744180D01*
X166050812Y-86624482D01*
X166063072Y-86500000D01*
X166063072Y-85900000D01*
X166050812Y-85775518D01*
X166014502Y-85655820D01*
X165960000Y-85553856D01*
X165960000Y-85546144D01*
X166014502Y-85444180D01*
X166050812Y-85324482D01*
X166063072Y-85200000D01*
X166063072Y-84600000D01*
X166058868Y-84557315D01*
X166220746Y-84719193D01*
G36*
X169836205Y-90761008D02*
G01*
X169859999Y-90790001D01*
X169888992Y-90813795D01*
X169888996Y-90813799D01*
X169921198Y-90840226D01*
X169975724Y-90884974D01*
X170107753Y-90955546D01*
X170251014Y-90999003D01*
X170362667Y-91010000D01*
X170362676Y-91010000D01*
X170399999Y-91013676D01*
X170437322Y-91010000D01*
X171485199Y-91010000D01*
X172490001Y-92014803D01*
X172490001Y-92090000D01*
X172168803Y-92090000D01*
X172164502Y-92075820D01*
X172105537Y-91965506D01*
X172026185Y-91868815D01*
X171929494Y-91789463D01*
X171819180Y-91730498D01*
X171699482Y-91694188D01*
X171575000Y-91681928D01*
X170925000Y-91681928D01*
X170800518Y-91694188D01*
X170775000Y-91701929D01*
X170749482Y-91694188D01*
X170625000Y-91681928D01*
X170585750Y-91685000D01*
X170427000Y-91843750D01*
X170427000Y-91925859D01*
X170394463Y-91965506D01*
X170335498Y-92075820D01*
X170300000Y-92192841D01*
X170264502Y-92075820D01*
X170205537Y-91965506D01*
X170173000Y-91925859D01*
X170173000Y-91843750D01*
X170110000Y-91780750D01*
X170110000Y-91687322D01*
X170113676Y-91649999D01*
X170110000Y-91612676D01*
X170110000Y-91612667D01*
X170099003Y-91501014D01*
X170055546Y-91357753D01*
X169984974Y-91225724D01*
X169890001Y-91109999D01*
X169860997Y-91086196D01*
X169763804Y-90989003D01*
X169740001Y-90959999D01*
X169624276Y-90865026D01*
X169492247Y-90794454D01*
X169348986Y-90750997D01*
X169237333Y-90740000D01*
X169237322Y-90740000D01*
X169200000Y-90736324D01*
X169162678Y-90740000D01*
X168853711Y-90740000D01*
X168809774Y-90696063D01*
X168640256Y-90582795D01*
X168451898Y-90504774D01*
X168251939Y-90465000D01*
X168048061Y-90465000D01*
X168010000Y-90472571D01*
X168010000Y-88934801D01*
X169836205Y-90761008D01*
X169836205Y-90761008D01*
G37*
X169836205Y-90761008D02*
X169859999Y-90790001D01*
X169888992Y-90813795D01*
X169888996Y-90813799D01*
X169921198Y-90840226D01*
X169975724Y-90884974D01*
X170107753Y-90955546D01*
X170251014Y-90999003D01*
X170362667Y-91010000D01*
X170362676Y-91010000D01*
X170399999Y-91013676D01*
X170437322Y-91010000D01*
X171485199Y-91010000D01*
X172490001Y-92014803D01*
X172490001Y-92090000D01*
X172168803Y-92090000D01*
X172164502Y-92075820D01*
X172105537Y-91965506D01*
X172026185Y-91868815D01*
X171929494Y-91789463D01*
X171819180Y-91730498D01*
X171699482Y-91694188D01*
X171575000Y-91681928D01*
X170925000Y-91681928D01*
X170800518Y-91694188D01*
X170775000Y-91701929D01*
X170749482Y-91694188D01*
X170625000Y-91681928D01*
X170585750Y-91685000D01*
X170427000Y-91843750D01*
X170427000Y-91925859D01*
X170394463Y-91965506D01*
X170335498Y-92075820D01*
X170300000Y-92192841D01*
X170264502Y-92075820D01*
X170205537Y-91965506D01*
X170173000Y-91925859D01*
X170173000Y-91843750D01*
X170110000Y-91780750D01*
X170110000Y-91687322D01*
X170113676Y-91649999D01*
X170110000Y-91612676D01*
X170110000Y-91612667D01*
X170099003Y-91501014D01*
X170055546Y-91357753D01*
X169984974Y-91225724D01*
X169890001Y-91109999D01*
X169860997Y-91086196D01*
X169763804Y-90989003D01*
X169740001Y-90959999D01*
X169624276Y-90865026D01*
X169492247Y-90794454D01*
X169348986Y-90750997D01*
X169237333Y-90740000D01*
X169237322Y-90740000D01*
X169200000Y-90736324D01*
X169162678Y-90740000D01*
X168853711Y-90740000D01*
X168809774Y-90696063D01*
X168640256Y-90582795D01*
X168451898Y-90504774D01*
X168251939Y-90465000D01*
X168048061Y-90465000D01*
X168010000Y-90472571D01*
X168010000Y-88934801D01*
X169836205Y-90761008D01*
G36*
X162788513Y-81152224D02*
G01*
X162817663Y-81248318D01*
X162885914Y-81376005D01*
X162977763Y-81487923D01*
X163005808Y-81510939D01*
X163339056Y-81844187D01*
X163362077Y-81872238D01*
X163427407Y-81925853D01*
X165467685Y-83966132D01*
X165425000Y-83961928D01*
X165025000Y-83961928D01*
X164900518Y-83974188D01*
X164780820Y-84010498D01*
X164775000Y-84013609D01*
X164769180Y-84010498D01*
X164649482Y-83974188D01*
X164525000Y-83961928D01*
X164125000Y-83961928D01*
X164000518Y-83974188D01*
X163880820Y-84010498D01*
X163770506Y-84069463D01*
X163684556Y-84140000D01*
X163615444Y-84140000D01*
X163529494Y-84069463D01*
X163419180Y-84010498D01*
X163299482Y-83974188D01*
X163175000Y-83961928D01*
X162775000Y-83961928D01*
X162650518Y-83974188D01*
X162530820Y-84010498D01*
X162525000Y-84013609D01*
X162519180Y-84010498D01*
X162399482Y-83974188D01*
X162275000Y-83961928D01*
X161875000Y-83961928D01*
X161750518Y-83974188D01*
X161630820Y-84010498D01*
X161520506Y-84069463D01*
X161504148Y-84082888D01*
X161476185Y-84048815D01*
X161379494Y-83969463D01*
X161269180Y-83910498D01*
X161149482Y-83874188D01*
X161025000Y-83861928D01*
X160425000Y-83861928D01*
X160300518Y-83874188D01*
X160180820Y-83910498D01*
X160070506Y-83969463D01*
X159973815Y-84048815D01*
X159894463Y-84145506D01*
X159875000Y-84181918D01*
X159855537Y-84145506D01*
X159776185Y-84048815D01*
X159679494Y-83969463D01*
X159569180Y-83910498D01*
X159449482Y-83874188D01*
X159325000Y-83861928D01*
X158725000Y-83861928D01*
X158600518Y-83874188D01*
X158480820Y-83910498D01*
X158370506Y-83969463D01*
X158273815Y-84048815D01*
X158194463Y-84145506D01*
X158162518Y-84205270D01*
X158050724Y-84265026D01*
X157934999Y-84359999D01*
X157911200Y-84388998D01*
X157433998Y-84866201D01*
X157405000Y-84889999D01*
X157381202Y-84918997D01*
X157381201Y-84918998D01*
X157375920Y-84925433D01*
X157293012Y-84853748D01*
X157184249Y-84791968D01*
X157065524Y-84752594D01*
X156956750Y-84740000D01*
X156798000Y-84898750D01*
X156798000Y-85548000D01*
X156822000Y-85548000D01*
X156822000Y-85802000D01*
X156798000Y-85802000D01*
X156798000Y-85822000D01*
X156581009Y-85822000D01*
X156585000Y-85801939D01*
X156585000Y-85598061D01*
X156552000Y-85432157D01*
X156552000Y-84898750D01*
X156393250Y-84740000D01*
X156284476Y-84752594D01*
X156165751Y-84791968D01*
X156123451Y-84815995D01*
X157329900Y-83609547D01*
X157401898Y-83595226D01*
X157590256Y-83517205D01*
X157759774Y-83403937D01*
X157903937Y-83259774D01*
X158017205Y-83090256D01*
X158095226Y-82901898D01*
X158135000Y-82701939D01*
X158135000Y-82685000D01*
X158865000Y-82685000D01*
X158865000Y-82801939D01*
X158904774Y-83001898D01*
X158982795Y-83190256D01*
X159096063Y-83359774D01*
X159240226Y-83503937D01*
X159409744Y-83617205D01*
X159598102Y-83695226D01*
X159798061Y-83735000D01*
X160001939Y-83735000D01*
X160201898Y-83695226D01*
X160390256Y-83617205D01*
X160559774Y-83503937D01*
X160703937Y-83359774D01*
X160817205Y-83190256D01*
X160895226Y-83001898D01*
X160935000Y-82801939D01*
X160935000Y-82681730D01*
X161009783Y-82674365D01*
X161148331Y-82632337D01*
X161276018Y-82564087D01*
X161387936Y-82472238D01*
X161410956Y-82444188D01*
X162745717Y-81109428D01*
X162788513Y-81152224D01*
X162788513Y-81152224D01*
G37*
X162788513Y-81152224D02*
X162817663Y-81248318D01*
X162885914Y-81376005D01*
X162977763Y-81487923D01*
X163005808Y-81510939D01*
X163339056Y-81844187D01*
X163362077Y-81872238D01*
X163427407Y-81925853D01*
X165467685Y-83966132D01*
X165425000Y-83961928D01*
X165025000Y-83961928D01*
X164900518Y-83974188D01*
X164780820Y-84010498D01*
X164775000Y-84013609D01*
X164769180Y-84010498D01*
X164649482Y-83974188D01*
X164525000Y-83961928D01*
X164125000Y-83961928D01*
X164000518Y-83974188D01*
X163880820Y-84010498D01*
X163770506Y-84069463D01*
X163684556Y-84140000D01*
X163615444Y-84140000D01*
X163529494Y-84069463D01*
X163419180Y-84010498D01*
X163299482Y-83974188D01*
X163175000Y-83961928D01*
X162775000Y-83961928D01*
X162650518Y-83974188D01*
X162530820Y-84010498D01*
X162525000Y-84013609D01*
X162519180Y-84010498D01*
X162399482Y-83974188D01*
X162275000Y-83961928D01*
X161875000Y-83961928D01*
X161750518Y-83974188D01*
X161630820Y-84010498D01*
X161520506Y-84069463D01*
X161504148Y-84082888D01*
X161476185Y-84048815D01*
X161379494Y-83969463D01*
X161269180Y-83910498D01*
X161149482Y-83874188D01*
X161025000Y-83861928D01*
X160425000Y-83861928D01*
X160300518Y-83874188D01*
X160180820Y-83910498D01*
X160070506Y-83969463D01*
X159973815Y-84048815D01*
X159894463Y-84145506D01*
X159875000Y-84181918D01*
X159855537Y-84145506D01*
X159776185Y-84048815D01*
X159679494Y-83969463D01*
X159569180Y-83910498D01*
X159449482Y-83874188D01*
X159325000Y-83861928D01*
X158725000Y-83861928D01*
X158600518Y-83874188D01*
X158480820Y-83910498D01*
X158370506Y-83969463D01*
X158273815Y-84048815D01*
X158194463Y-84145506D01*
X158162518Y-84205270D01*
X158050724Y-84265026D01*
X157934999Y-84359999D01*
X157911200Y-84388998D01*
X157433998Y-84866201D01*
X157405000Y-84889999D01*
X157381202Y-84918997D01*
X157381201Y-84918998D01*
X157375920Y-84925433D01*
X157293012Y-84853748D01*
X157184249Y-84791968D01*
X157065524Y-84752594D01*
X156956750Y-84740000D01*
X156798000Y-84898750D01*
X156798000Y-85548000D01*
X156822000Y-85548000D01*
X156822000Y-85802000D01*
X156798000Y-85802000D01*
X156798000Y-85822000D01*
X156581009Y-85822000D01*
X156585000Y-85801939D01*
X156585000Y-85598061D01*
X156552000Y-85432157D01*
X156552000Y-84898750D01*
X156393250Y-84740000D01*
X156284476Y-84752594D01*
X156165751Y-84791968D01*
X156123451Y-84815995D01*
X157329900Y-83609547D01*
X157401898Y-83595226D01*
X157590256Y-83517205D01*
X157759774Y-83403937D01*
X157903937Y-83259774D01*
X158017205Y-83090256D01*
X158095226Y-82901898D01*
X158135000Y-82701939D01*
X158135000Y-82685000D01*
X158865000Y-82685000D01*
X158865000Y-82801939D01*
X158904774Y-83001898D01*
X158982795Y-83190256D01*
X159096063Y-83359774D01*
X159240226Y-83503937D01*
X159409744Y-83617205D01*
X159598102Y-83695226D01*
X159798061Y-83735000D01*
X160001939Y-83735000D01*
X160201898Y-83695226D01*
X160390256Y-83617205D01*
X160559774Y-83503937D01*
X160703937Y-83359774D01*
X160817205Y-83190256D01*
X160895226Y-83001898D01*
X160935000Y-82801939D01*
X160935000Y-82681730D01*
X161009783Y-82674365D01*
X161148331Y-82632337D01*
X161276018Y-82564087D01*
X161387936Y-82472238D01*
X161410956Y-82444188D01*
X162745717Y-81109428D01*
X162788513Y-81152224D01*
G36*
X161236200Y-73311002D02*
G01*
X161259999Y-73340001D01*
X161288997Y-73363799D01*
X161375723Y-73434974D01*
X161495478Y-73498985D01*
X161507753Y-73505546D01*
X161579129Y-73527197D01*
X161598815Y-73551185D01*
X161695506Y-73630537D01*
X161805820Y-73689502D01*
X161925518Y-73725812D01*
X162050000Y-73738072D01*
X162390000Y-73738072D01*
X162390000Y-73811928D01*
X161850000Y-73811928D01*
X161725518Y-73824188D01*
X161605820Y-73860498D01*
X161495506Y-73919463D01*
X161398815Y-73998815D01*
X161319463Y-74095506D01*
X161260498Y-74205820D01*
X161224188Y-74325518D01*
X161211928Y-74450000D01*
X161211928Y-74850000D01*
X161224188Y-74974482D01*
X161260498Y-75094180D01*
X161263609Y-75100000D01*
X161260498Y-75105820D01*
X161224188Y-75225518D01*
X161211928Y-75350000D01*
X161211928Y-75750000D01*
X161224188Y-75874482D01*
X161260498Y-75994180D01*
X161319463Y-76104494D01*
X161390001Y-76190445D01*
X161390000Y-76760198D01*
X160960199Y-77190000D01*
X160051307Y-77190000D01*
X160048429Y-77164089D01*
X160035632Y-77124524D01*
X160050812Y-77074482D01*
X160063072Y-76950000D01*
X160063072Y-76650000D01*
X160050812Y-76525518D01*
X160035488Y-76475000D01*
X160050812Y-76424482D01*
X160063072Y-76300000D01*
X160063072Y-76000000D01*
X160050812Y-75875518D01*
X160014502Y-75755820D01*
X159955537Y-75645506D01*
X159876185Y-75548815D01*
X159779494Y-75469463D01*
X159669180Y-75410498D01*
X159549482Y-75374188D01*
X159425000Y-75361928D01*
X159237874Y-75361928D01*
X159411008Y-75188795D01*
X159440001Y-75165001D01*
X159463795Y-75136008D01*
X159463799Y-75136004D01*
X159526195Y-75059973D01*
X159534974Y-75049276D01*
X159605546Y-74917247D01*
X159649003Y-74773986D01*
X159660000Y-74662333D01*
X159660000Y-74662324D01*
X159663676Y-74625001D01*
X159660000Y-74587678D01*
X159660000Y-73603711D01*
X159703937Y-73559774D01*
X159817205Y-73390256D01*
X159895226Y-73201898D01*
X159935000Y-73001939D01*
X159935000Y-72934999D01*
X160860198Y-72934999D01*
X161236200Y-73311002D01*
X161236200Y-73311002D01*
G37*
X161236200Y-73311002D02*
X161259999Y-73340001D01*
X161288997Y-73363799D01*
X161375723Y-73434974D01*
X161495478Y-73498985D01*
X161507753Y-73505546D01*
X161579129Y-73527197D01*
X161598815Y-73551185D01*
X161695506Y-73630537D01*
X161805820Y-73689502D01*
X161925518Y-73725812D01*
X162050000Y-73738072D01*
X162390000Y-73738072D01*
X162390000Y-73811928D01*
X161850000Y-73811928D01*
X161725518Y-73824188D01*
X161605820Y-73860498D01*
X161495506Y-73919463D01*
X161398815Y-73998815D01*
X161319463Y-74095506D01*
X161260498Y-74205820D01*
X161224188Y-74325518D01*
X161211928Y-74450000D01*
X161211928Y-74850000D01*
X161224188Y-74974482D01*
X161260498Y-75094180D01*
X161263609Y-75100000D01*
X161260498Y-75105820D01*
X161224188Y-75225518D01*
X161211928Y-75350000D01*
X161211928Y-75750000D01*
X161224188Y-75874482D01*
X161260498Y-75994180D01*
X161319463Y-76104494D01*
X161390001Y-76190445D01*
X161390000Y-76760198D01*
X160960199Y-77190000D01*
X160051307Y-77190000D01*
X160048429Y-77164089D01*
X160035632Y-77124524D01*
X160050812Y-77074482D01*
X160063072Y-76950000D01*
X160063072Y-76650000D01*
X160050812Y-76525518D01*
X160035488Y-76475000D01*
X160050812Y-76424482D01*
X160063072Y-76300000D01*
X160063072Y-76000000D01*
X160050812Y-75875518D01*
X160014502Y-75755820D01*
X159955537Y-75645506D01*
X159876185Y-75548815D01*
X159779494Y-75469463D01*
X159669180Y-75410498D01*
X159549482Y-75374188D01*
X159425000Y-75361928D01*
X159237874Y-75361928D01*
X159411008Y-75188795D01*
X159440001Y-75165001D01*
X159463795Y-75136008D01*
X159463799Y-75136004D01*
X159526195Y-75059973D01*
X159534974Y-75049276D01*
X159605546Y-74917247D01*
X159649003Y-74773986D01*
X159660000Y-74662333D01*
X159660000Y-74662324D01*
X159663676Y-74625001D01*
X159660000Y-74587678D01*
X159660000Y-73603711D01*
X159703937Y-73559774D01*
X159817205Y-73390256D01*
X159895226Y-73201898D01*
X159935000Y-73001939D01*
X159935000Y-72934999D01*
X160860198Y-72934999D01*
X161236200Y-73311002D01*
G36*
X153979954Y-74256532D02*
G01*
X154080941Y-74339410D01*
X154193943Y-74399810D01*
X154440001Y-74645868D01*
X154440000Y-75291018D01*
X154452082Y-75413688D01*
X154466042Y-75459708D01*
X154402000Y-75523750D01*
X154402000Y-76011928D01*
X154148000Y-76011928D01*
X154148000Y-75523750D01*
X153989250Y-75365000D01*
X153736675Y-75362035D01*
X153611989Y-75372016D01*
X153491647Y-75406129D01*
X153380273Y-75463065D01*
X153282146Y-75540635D01*
X153201037Y-75635858D01*
X153140065Y-75745075D01*
X153101571Y-75864089D01*
X153090000Y-75968250D01*
X153144748Y-76022998D01*
X153090000Y-76022998D01*
X153090000Y-76065000D01*
X152610000Y-76065000D01*
X152610000Y-75891799D01*
X153011004Y-75490796D01*
X153040001Y-75466999D01*
X153134974Y-75351274D01*
X153205546Y-75219245D01*
X153232142Y-75131569D01*
X153303937Y-75059774D01*
X153417205Y-74890256D01*
X153495226Y-74701898D01*
X153535000Y-74501939D01*
X153535000Y-74298061D01*
X153522456Y-74235000D01*
X153958422Y-74235000D01*
X153979954Y-74256532D01*
X153979954Y-74256532D01*
G37*
X153979954Y-74256532D02*
X154080941Y-74339410D01*
X154193943Y-74399810D01*
X154440001Y-74645868D01*
X154440000Y-75291018D01*
X154452082Y-75413688D01*
X154466042Y-75459708D01*
X154402000Y-75523750D01*
X154402000Y-76011928D01*
X154148000Y-76011928D01*
X154148000Y-75523750D01*
X153989250Y-75365000D01*
X153736675Y-75362035D01*
X153611989Y-75372016D01*
X153491647Y-75406129D01*
X153380273Y-75463065D01*
X153282146Y-75540635D01*
X153201037Y-75635858D01*
X153140065Y-75745075D01*
X153101571Y-75864089D01*
X153090000Y-75968250D01*
X153144748Y-76022998D01*
X153090000Y-76022998D01*
X153090000Y-76065000D01*
X152610000Y-76065000D01*
X152610000Y-75891799D01*
X153011004Y-75490796D01*
X153040001Y-75466999D01*
X153134974Y-75351274D01*
X153205546Y-75219245D01*
X153232142Y-75131569D01*
X153303937Y-75059774D01*
X153417205Y-74890256D01*
X153495226Y-74701898D01*
X153535000Y-74501939D01*
X153535000Y-74298061D01*
X153522456Y-74235000D01*
X153958422Y-74235000D01*
X153979954Y-74256532D01*
M02*
