G04 #@! TF.GenerationSoftware,KiCad,Pcbnew,(5.1.0)-1*
G04 #@! TF.CreationDate,2019-11-15T23:55:28-06:00*
G04 #@! TF.ProjectId,low_cost_multispectral_sensor,6c6f775f-636f-4737-945f-6d756c746973,rev?*
G04 #@! TF.SameCoordinates,Original*
G04 #@! TF.FileFunction,Copper,L3,Inr*
G04 #@! TF.FilePolarity,Positive*
%FSLAX46Y46*%
G04 Gerber Fmt 4.6, Leading zero omitted, Abs format (unit mm)*
G04 Created by KiCad (PCBNEW (5.1.0)-1) date 2019-11-15 23:55:28*
%MOMM*%
%LPD*%
G04 APERTURE LIST*
%ADD10C,1.450000*%
%ADD11O,1.200000X1.900000*%
%ADD12O,1.700000X1.700000*%
%ADD13R,1.700000X1.700000*%
%ADD14O,1.350000X1.350000*%
%ADD15R,1.350000X1.350000*%
%ADD16C,4.400000*%
%ADD17C,0.800000*%
%ADD18C,0.500000*%
%ADD19C,0.254000*%
G04 APERTURE END LIST*
D10*
X154025000Y-106950000D03*
X159025000Y-106950000D03*
D11*
X153025000Y-109650000D03*
X160025000Y-109650000D03*
D12*
X139525000Y-93570000D03*
X139525000Y-91030000D03*
X139525000Y-88490000D03*
D13*
X139525000Y-85950000D03*
D14*
X169350000Y-91575000D03*
X171350000Y-91575000D03*
X169350000Y-93575000D03*
X171350000Y-93575000D03*
X169350000Y-95575000D03*
X171350000Y-95575000D03*
X169350000Y-97575000D03*
X171350000Y-97575000D03*
X169350000Y-99575000D03*
X171350000Y-99575000D03*
X169350000Y-101575000D03*
D15*
X171350000Y-101575000D03*
D16*
X139775000Y-108250000D03*
X173425000Y-108250000D03*
X173425000Y-74100000D03*
X139775000Y-74100000D03*
D17*
X163500000Y-87650000D03*
X157500000Y-84550000D03*
X150025000Y-79000000D03*
X152750000Y-75750000D03*
X160950000Y-76625000D03*
X171775000Y-86200000D03*
X172600000Y-82975000D03*
X165550000Y-80200000D03*
X160550000Y-96900000D03*
X164975000Y-97425000D03*
X158525000Y-104025000D03*
X156275000Y-103725000D03*
X144700000Y-104825000D03*
X143000000Y-104325000D03*
X149075000Y-99700000D03*
X150050000Y-106175000D03*
X147500000Y-104800000D03*
X152325000Y-98175000D03*
X150300000Y-102200000D03*
X164700000Y-89900000D03*
X146875000Y-95100000D03*
X164700000Y-77850000D03*
X164100000Y-72775000D03*
X144525000Y-77050000D03*
X145225000Y-81200000D03*
X150025000Y-75650000D03*
X152500000Y-74400000D03*
X155525000Y-72650000D03*
X171925000Y-85000000D03*
X152275000Y-81575000D03*
X164775000Y-87625000D03*
X162900000Y-82450000D03*
X162950000Y-76550000D03*
X167275000Y-88700000D03*
X163800000Y-97300000D03*
X163950000Y-83575000D03*
X165100000Y-75575000D03*
X173950000Y-93450000D03*
X167450000Y-85975000D03*
X167450000Y-84475000D03*
X165400000Y-103175000D03*
X163775000Y-93950000D03*
X152425000Y-85575000D03*
X159025000Y-72900000D03*
X154135000Y-84025000D03*
X157275000Y-73550000D03*
X155400000Y-83325000D03*
X150775000Y-92350000D03*
X150275000Y-91050000D03*
D18*
X150300000Y-102200000D02*
X156725000Y-95775000D01*
X156725000Y-95775000D02*
X163575000Y-95775000D01*
X163575000Y-95775000D02*
X164700000Y-94650000D01*
X164700000Y-94650000D02*
X164700000Y-89900000D01*
D19*
G36*
X158534744Y-71982795D02*
G01*
X158365226Y-72096063D01*
X158221063Y-72240226D01*
X158107795Y-72409744D01*
X158029774Y-72598102D01*
X157990000Y-72798061D01*
X157990000Y-72801289D01*
X157934774Y-72746063D01*
X157765256Y-72632795D01*
X157576898Y-72554774D01*
X157376939Y-72515000D01*
X157173061Y-72515000D01*
X156973102Y-72554774D01*
X156784744Y-72632795D01*
X156615226Y-72746063D01*
X156471063Y-72890226D01*
X156357795Y-73059744D01*
X156279774Y-73248102D01*
X156240000Y-73448061D01*
X156240000Y-73651939D01*
X156279774Y-73851898D01*
X156357795Y-74040256D01*
X156471063Y-74209774D01*
X156615226Y-74353937D01*
X156784744Y-74467205D01*
X156973102Y-74545226D01*
X157173061Y-74585000D01*
X157376939Y-74585000D01*
X157576898Y-74545226D01*
X157765256Y-74467205D01*
X157934774Y-74353937D01*
X158078937Y-74209774D01*
X158192205Y-74040256D01*
X158270226Y-73851898D01*
X158310000Y-73651939D01*
X158310000Y-73648711D01*
X158365226Y-73703937D01*
X158534744Y-73817205D01*
X158723102Y-73895226D01*
X158923061Y-73935000D01*
X159126939Y-73935000D01*
X159326898Y-73895226D01*
X159515256Y-73817205D01*
X159684774Y-73703937D01*
X159828937Y-73559774D01*
X159942205Y-73390256D01*
X160020226Y-73201898D01*
X160060000Y-73001939D01*
X160060000Y-72798061D01*
X160020226Y-72598102D01*
X159942205Y-72409744D01*
X159828937Y-72240226D01*
X159684774Y-72096063D01*
X159515256Y-71982795D01*
X159339515Y-71910000D01*
X171605705Y-71910000D01*
X171222912Y-72292793D01*
X170912656Y-72757124D01*
X170698948Y-73273061D01*
X170590000Y-73820777D01*
X170590000Y-74379223D01*
X170698948Y-74926939D01*
X170912656Y-75442876D01*
X171222912Y-75907207D01*
X171617793Y-76302088D01*
X172082124Y-76612344D01*
X172598061Y-76826052D01*
X173145777Y-76935000D01*
X173704223Y-76935000D01*
X174251939Y-76826052D01*
X174767876Y-76612344D01*
X175232207Y-76302088D01*
X175627088Y-75907207D01*
X175765001Y-75700806D01*
X175765000Y-106649193D01*
X175627088Y-106442793D01*
X175232207Y-106047912D01*
X174767876Y-105737656D01*
X174251939Y-105523948D01*
X173704223Y-105415000D01*
X173145777Y-105415000D01*
X172598061Y-105523948D01*
X172082124Y-105737656D01*
X171617793Y-106047912D01*
X171222912Y-106442793D01*
X170912656Y-106907124D01*
X170698948Y-107423061D01*
X170590000Y-107970777D01*
X170590000Y-108529223D01*
X170698948Y-109076939D01*
X170912656Y-109592876D01*
X171222912Y-110057207D01*
X171605705Y-110440000D01*
X161182098Y-110440000D01*
X161242130Y-110242101D01*
X161260000Y-110060664D01*
X161260000Y-109239335D01*
X161242130Y-109057898D01*
X161171511Y-108825099D01*
X161056833Y-108610551D01*
X160902502Y-108422498D01*
X160714448Y-108268167D01*
X160499900Y-108153489D01*
X160267101Y-108082870D01*
X160025000Y-108059025D01*
X159782898Y-108082870D01*
X159772965Y-108085883D01*
X159891949Y-108006381D01*
X160081381Y-107816949D01*
X160230216Y-107594201D01*
X160332736Y-107346697D01*
X160385000Y-107083948D01*
X160385000Y-106816052D01*
X160332736Y-106553303D01*
X160230216Y-106305799D01*
X160081381Y-106083051D01*
X159891949Y-105893619D01*
X159669201Y-105744784D01*
X159421697Y-105642264D01*
X159158948Y-105590000D01*
X158891052Y-105590000D01*
X158628303Y-105642264D01*
X158380799Y-105744784D01*
X158158051Y-105893619D01*
X157968619Y-106083051D01*
X157819784Y-106305799D01*
X157717264Y-106553303D01*
X157665000Y-106816052D01*
X157665000Y-107083948D01*
X157717264Y-107346697D01*
X157819784Y-107594201D01*
X157968619Y-107816949D01*
X158158051Y-108006381D01*
X158380799Y-108155216D01*
X158628303Y-108257736D01*
X158891052Y-108310000D01*
X159158948Y-108310000D01*
X159324768Y-108277016D01*
X159147498Y-108422498D01*
X158993167Y-108610552D01*
X158878489Y-108825100D01*
X158807870Y-109057899D01*
X158790000Y-109239336D01*
X158790000Y-110060665D01*
X158807870Y-110242102D01*
X158867902Y-110440000D01*
X154182098Y-110440000D01*
X154242130Y-110242102D01*
X154260000Y-110060665D01*
X154260000Y-109239336D01*
X154242130Y-109057899D01*
X154171511Y-108825099D01*
X154056833Y-108610551D01*
X153902502Y-108422498D01*
X153725232Y-108277016D01*
X153891052Y-108310000D01*
X154158948Y-108310000D01*
X154421697Y-108257736D01*
X154669201Y-108155216D01*
X154891949Y-108006381D01*
X155081381Y-107816949D01*
X155230216Y-107594201D01*
X155332736Y-107346697D01*
X155385000Y-107083948D01*
X155385000Y-106816052D01*
X155332736Y-106553303D01*
X155230216Y-106305799D01*
X155081381Y-106083051D01*
X154891949Y-105893619D01*
X154669201Y-105744784D01*
X154421697Y-105642264D01*
X154158948Y-105590000D01*
X153891052Y-105590000D01*
X153628303Y-105642264D01*
X153380799Y-105744784D01*
X153158051Y-105893619D01*
X152968619Y-106083051D01*
X152819784Y-106305799D01*
X152717264Y-106553303D01*
X152665000Y-106816052D01*
X152665000Y-107083948D01*
X152717264Y-107346697D01*
X152819784Y-107594201D01*
X152968619Y-107816949D01*
X153158051Y-108006381D01*
X153277035Y-108085883D01*
X153267102Y-108082870D01*
X153025000Y-108059025D01*
X152782899Y-108082870D01*
X152550100Y-108153489D01*
X152335552Y-108268167D01*
X152147499Y-108422498D01*
X151993168Y-108610551D01*
X151878489Y-108825099D01*
X151807870Y-109057898D01*
X151790000Y-109239335D01*
X151790000Y-110060664D01*
X151807870Y-110242101D01*
X151867902Y-110440000D01*
X141594295Y-110440000D01*
X141977088Y-110057207D01*
X142287344Y-109592876D01*
X142501052Y-109076939D01*
X142610000Y-108529223D01*
X142610000Y-107970777D01*
X142501052Y-107423061D01*
X142287344Y-106907124D01*
X141977088Y-106442793D01*
X141607356Y-106073061D01*
X149015000Y-106073061D01*
X149015000Y-106276939D01*
X149054774Y-106476898D01*
X149132795Y-106665256D01*
X149246063Y-106834774D01*
X149390226Y-106978937D01*
X149559744Y-107092205D01*
X149748102Y-107170226D01*
X149948061Y-107210000D01*
X150151939Y-107210000D01*
X150351898Y-107170226D01*
X150540256Y-107092205D01*
X150709774Y-106978937D01*
X150853937Y-106834774D01*
X150967205Y-106665256D01*
X151045226Y-106476898D01*
X151085000Y-106276939D01*
X151085000Y-106073061D01*
X151045226Y-105873102D01*
X150967205Y-105684744D01*
X150853937Y-105515226D01*
X150709774Y-105371063D01*
X150540256Y-105257795D01*
X150351898Y-105179774D01*
X150151939Y-105140000D01*
X149948061Y-105140000D01*
X149748102Y-105179774D01*
X149559744Y-105257795D01*
X149390226Y-105371063D01*
X149246063Y-105515226D01*
X149132795Y-105684744D01*
X149054774Y-105873102D01*
X149015000Y-106073061D01*
X141607356Y-106073061D01*
X141582207Y-106047912D01*
X141117876Y-105737656D01*
X140601939Y-105523948D01*
X140054223Y-105415000D01*
X139495777Y-105415000D01*
X138948061Y-105523948D01*
X138432124Y-105737656D01*
X137967793Y-106047912D01*
X137572912Y-106442793D01*
X137285000Y-106873684D01*
X137285000Y-104223061D01*
X141965000Y-104223061D01*
X141965000Y-104426939D01*
X142004774Y-104626898D01*
X142082795Y-104815256D01*
X142196063Y-104984774D01*
X142340226Y-105128937D01*
X142509744Y-105242205D01*
X142698102Y-105320226D01*
X142898061Y-105360000D01*
X143101939Y-105360000D01*
X143301898Y-105320226D01*
X143490256Y-105242205D01*
X143659774Y-105128937D01*
X143697646Y-105091065D01*
X143704774Y-105126898D01*
X143782795Y-105315256D01*
X143896063Y-105484774D01*
X144040226Y-105628937D01*
X144209744Y-105742205D01*
X144398102Y-105820226D01*
X144598061Y-105860000D01*
X144801939Y-105860000D01*
X145001898Y-105820226D01*
X145190256Y-105742205D01*
X145359774Y-105628937D01*
X145503937Y-105484774D01*
X145617205Y-105315256D01*
X145695226Y-105126898D01*
X145735000Y-104926939D01*
X145735000Y-104723061D01*
X145730028Y-104698061D01*
X146465000Y-104698061D01*
X146465000Y-104901939D01*
X146504774Y-105101898D01*
X146582795Y-105290256D01*
X146696063Y-105459774D01*
X146840226Y-105603937D01*
X147009744Y-105717205D01*
X147198102Y-105795226D01*
X147398061Y-105835000D01*
X147601939Y-105835000D01*
X147801898Y-105795226D01*
X147990256Y-105717205D01*
X148159774Y-105603937D01*
X148303937Y-105459774D01*
X148417205Y-105290256D01*
X148495226Y-105101898D01*
X148535000Y-104901939D01*
X148535000Y-104698061D01*
X148495226Y-104498102D01*
X148417205Y-104309744D01*
X148303937Y-104140226D01*
X148159774Y-103996063D01*
X147990256Y-103882795D01*
X147801898Y-103804774D01*
X147601939Y-103765000D01*
X147398061Y-103765000D01*
X147198102Y-103804774D01*
X147009744Y-103882795D01*
X146840226Y-103996063D01*
X146696063Y-104140226D01*
X146582795Y-104309744D01*
X146504774Y-104498102D01*
X146465000Y-104698061D01*
X145730028Y-104698061D01*
X145695226Y-104523102D01*
X145617205Y-104334744D01*
X145503937Y-104165226D01*
X145359774Y-104021063D01*
X145190256Y-103907795D01*
X145001898Y-103829774D01*
X144801939Y-103790000D01*
X144598061Y-103790000D01*
X144398102Y-103829774D01*
X144209744Y-103907795D01*
X144040226Y-104021063D01*
X144002354Y-104058935D01*
X143995226Y-104023102D01*
X143917205Y-103834744D01*
X143803937Y-103665226D01*
X143761772Y-103623061D01*
X155240000Y-103623061D01*
X155240000Y-103826939D01*
X155279774Y-104026898D01*
X155357795Y-104215256D01*
X155471063Y-104384774D01*
X155615226Y-104528937D01*
X155784744Y-104642205D01*
X155973102Y-104720226D01*
X156173061Y-104760000D01*
X156376939Y-104760000D01*
X156576898Y-104720226D01*
X156765256Y-104642205D01*
X156934774Y-104528937D01*
X157078937Y-104384774D01*
X157192205Y-104215256D01*
X157270226Y-104026898D01*
X157290880Y-103923061D01*
X157490000Y-103923061D01*
X157490000Y-104126939D01*
X157529774Y-104326898D01*
X157607795Y-104515256D01*
X157721063Y-104684774D01*
X157865226Y-104828937D01*
X158034744Y-104942205D01*
X158223102Y-105020226D01*
X158423061Y-105060000D01*
X158626939Y-105060000D01*
X158826898Y-105020226D01*
X159015256Y-104942205D01*
X159184774Y-104828937D01*
X159328937Y-104684774D01*
X159442205Y-104515256D01*
X159520226Y-104326898D01*
X159560000Y-104126939D01*
X159560000Y-103923061D01*
X159520226Y-103723102D01*
X159442205Y-103534744D01*
X159328937Y-103365226D01*
X159184774Y-103221063D01*
X159015256Y-103107795D01*
X158931402Y-103073061D01*
X164365000Y-103073061D01*
X164365000Y-103276939D01*
X164404774Y-103476898D01*
X164482795Y-103665256D01*
X164596063Y-103834774D01*
X164740226Y-103978937D01*
X164909744Y-104092205D01*
X165098102Y-104170226D01*
X165298061Y-104210000D01*
X165501939Y-104210000D01*
X165701898Y-104170226D01*
X165890256Y-104092205D01*
X166059774Y-103978937D01*
X166203937Y-103834774D01*
X166317205Y-103665256D01*
X166395226Y-103476898D01*
X166435000Y-103276939D01*
X166435000Y-103073061D01*
X166395226Y-102873102D01*
X166317205Y-102684744D01*
X166203937Y-102515226D01*
X166059774Y-102371063D01*
X165890256Y-102257795D01*
X165701898Y-102179774D01*
X165501939Y-102140000D01*
X165298061Y-102140000D01*
X165098102Y-102179774D01*
X164909744Y-102257795D01*
X164740226Y-102371063D01*
X164596063Y-102515226D01*
X164482795Y-102684744D01*
X164404774Y-102873102D01*
X164365000Y-103073061D01*
X158931402Y-103073061D01*
X158826898Y-103029774D01*
X158626939Y-102990000D01*
X158423061Y-102990000D01*
X158223102Y-103029774D01*
X158034744Y-103107795D01*
X157865226Y-103221063D01*
X157721063Y-103365226D01*
X157607795Y-103534744D01*
X157529774Y-103723102D01*
X157490000Y-103923061D01*
X157290880Y-103923061D01*
X157310000Y-103826939D01*
X157310000Y-103623061D01*
X157270226Y-103423102D01*
X157192205Y-103234744D01*
X157078937Y-103065226D01*
X156934774Y-102921063D01*
X156765256Y-102807795D01*
X156576898Y-102729774D01*
X156376939Y-102690000D01*
X156173061Y-102690000D01*
X155973102Y-102729774D01*
X155784744Y-102807795D01*
X155615226Y-102921063D01*
X155471063Y-103065226D01*
X155357795Y-103234744D01*
X155279774Y-103423102D01*
X155240000Y-103623061D01*
X143761772Y-103623061D01*
X143659774Y-103521063D01*
X143490256Y-103407795D01*
X143301898Y-103329774D01*
X143101939Y-103290000D01*
X142898061Y-103290000D01*
X142698102Y-103329774D01*
X142509744Y-103407795D01*
X142340226Y-103521063D01*
X142196063Y-103665226D01*
X142082795Y-103834744D01*
X142004774Y-104023102D01*
X141965000Y-104223061D01*
X137285000Y-104223061D01*
X137285000Y-102098061D01*
X149265000Y-102098061D01*
X149265000Y-102301939D01*
X149304774Y-102501898D01*
X149382795Y-102690256D01*
X149496063Y-102859774D01*
X149640226Y-103003937D01*
X149809744Y-103117205D01*
X149998102Y-103195226D01*
X150198061Y-103235000D01*
X150401939Y-103235000D01*
X150601898Y-103195226D01*
X150790256Y-103117205D01*
X150959774Y-103003937D01*
X151103937Y-102859774D01*
X151217205Y-102690256D01*
X151295226Y-102501898D01*
X151306535Y-102445043D01*
X157091579Y-96660000D01*
X159542462Y-96660000D01*
X159515000Y-96798061D01*
X159515000Y-97001939D01*
X159554774Y-97201898D01*
X159632795Y-97390256D01*
X159746063Y-97559774D01*
X159890226Y-97703937D01*
X160059744Y-97817205D01*
X160248102Y-97895226D01*
X160448061Y-97935000D01*
X160651939Y-97935000D01*
X160851898Y-97895226D01*
X161040256Y-97817205D01*
X161209774Y-97703937D01*
X161353937Y-97559774D01*
X161467205Y-97390256D01*
X161545226Y-97201898D01*
X161585000Y-97001939D01*
X161585000Y-96798061D01*
X161557538Y-96660000D01*
X162982850Y-96660000D01*
X162882795Y-96809744D01*
X162804774Y-96998102D01*
X162765000Y-97198061D01*
X162765000Y-97401939D01*
X162804774Y-97601898D01*
X162882795Y-97790256D01*
X162996063Y-97959774D01*
X163140226Y-98103937D01*
X163309744Y-98217205D01*
X163498102Y-98295226D01*
X163698061Y-98335000D01*
X163901939Y-98335000D01*
X164101898Y-98295226D01*
X164290256Y-98217205D01*
X164298192Y-98211903D01*
X164315226Y-98228937D01*
X164484744Y-98342205D01*
X164673102Y-98420226D01*
X164873061Y-98460000D01*
X165076939Y-98460000D01*
X165276898Y-98420226D01*
X165465256Y-98342205D01*
X165634774Y-98228937D01*
X165778937Y-98084774D01*
X165892205Y-97915256D01*
X165970226Y-97726898D01*
X166010000Y-97526939D01*
X166010000Y-97323061D01*
X165970226Y-97123102D01*
X165892205Y-96934744D01*
X165778937Y-96765226D01*
X165634774Y-96621063D01*
X165465256Y-96507795D01*
X165276898Y-96429774D01*
X165076939Y-96390000D01*
X164873061Y-96390000D01*
X164673102Y-96429774D01*
X164484744Y-96507795D01*
X164476808Y-96513097D01*
X164459774Y-96496063D01*
X164290256Y-96382795D01*
X164239717Y-96361861D01*
X165295050Y-95306529D01*
X165328817Y-95278817D01*
X165409953Y-95179954D01*
X165439410Y-95144060D01*
X165439411Y-95144059D01*
X165521589Y-94990313D01*
X165572195Y-94823490D01*
X165585000Y-94693477D01*
X165585000Y-94693467D01*
X165589281Y-94650001D01*
X165585000Y-94606535D01*
X165585000Y-91575000D01*
X168033662Y-91575000D01*
X168058955Y-91831805D01*
X168133862Y-92078741D01*
X168255505Y-92306318D01*
X168419208Y-92505792D01*
X168507648Y-92578372D01*
X168371697Y-92703773D01*
X168220527Y-92911371D01*
X168112762Y-93144472D01*
X168082090Y-93245600D01*
X168205776Y-93448000D01*
X169223000Y-93448000D01*
X169223000Y-93428000D01*
X169477000Y-93428000D01*
X169477000Y-93448000D01*
X169497000Y-93448000D01*
X169497000Y-93702000D01*
X169477000Y-93702000D01*
X169477000Y-93722000D01*
X169223000Y-93722000D01*
X169223000Y-93702000D01*
X168205776Y-93702000D01*
X168082090Y-93904400D01*
X168112762Y-94005528D01*
X168220527Y-94238629D01*
X168371697Y-94446227D01*
X168507648Y-94571628D01*
X168419208Y-94644208D01*
X168255505Y-94843682D01*
X168133862Y-95071259D01*
X168058955Y-95318195D01*
X168033662Y-95575000D01*
X168058955Y-95831805D01*
X168133862Y-96078741D01*
X168255505Y-96306318D01*
X168419208Y-96505792D01*
X168503539Y-96575000D01*
X168419208Y-96644208D01*
X168255505Y-96843682D01*
X168133862Y-97071259D01*
X168058955Y-97318195D01*
X168033662Y-97575000D01*
X168058955Y-97831805D01*
X168133862Y-98078741D01*
X168255505Y-98306318D01*
X168419208Y-98505792D01*
X168503539Y-98575000D01*
X168419208Y-98644208D01*
X168255505Y-98843682D01*
X168133862Y-99071259D01*
X168058955Y-99318195D01*
X168033662Y-99575000D01*
X168058955Y-99831805D01*
X168133862Y-100078741D01*
X168255505Y-100306318D01*
X168419208Y-100505792D01*
X168503539Y-100575000D01*
X168419208Y-100644208D01*
X168255505Y-100843682D01*
X168133862Y-101071259D01*
X168058955Y-101318195D01*
X168033662Y-101575000D01*
X168058955Y-101831805D01*
X168133862Y-102078741D01*
X168255505Y-102306318D01*
X168419208Y-102505792D01*
X168618682Y-102669495D01*
X168846259Y-102791138D01*
X169093195Y-102866045D01*
X169285649Y-102885000D01*
X169414351Y-102885000D01*
X169606805Y-102866045D01*
X169853741Y-102791138D01*
X170081318Y-102669495D01*
X170150926Y-102612369D01*
X170223815Y-102701185D01*
X170320506Y-102780537D01*
X170430820Y-102839502D01*
X170550518Y-102875812D01*
X170675000Y-102888072D01*
X172025000Y-102888072D01*
X172149482Y-102875812D01*
X172269180Y-102839502D01*
X172379494Y-102780537D01*
X172476185Y-102701185D01*
X172555537Y-102604494D01*
X172614502Y-102494180D01*
X172650812Y-102374482D01*
X172663072Y-102250000D01*
X172663072Y-100900000D01*
X172650812Y-100775518D01*
X172614502Y-100655820D01*
X172555537Y-100545506D01*
X172476185Y-100448815D01*
X172387369Y-100375926D01*
X172444495Y-100306318D01*
X172566138Y-100078741D01*
X172641045Y-99831805D01*
X172666338Y-99575000D01*
X172641045Y-99318195D01*
X172566138Y-99071259D01*
X172444495Y-98843682D01*
X172280792Y-98644208D01*
X172196461Y-98575000D01*
X172280792Y-98505792D01*
X172444495Y-98306318D01*
X172566138Y-98078741D01*
X172641045Y-97831805D01*
X172666338Y-97575000D01*
X172641045Y-97318195D01*
X172566138Y-97071259D01*
X172444495Y-96843682D01*
X172280792Y-96644208D01*
X172196461Y-96575000D01*
X172280792Y-96505792D01*
X172444495Y-96306318D01*
X172566138Y-96078741D01*
X172641045Y-95831805D01*
X172666338Y-95575000D01*
X172641045Y-95318195D01*
X172566138Y-95071259D01*
X172444495Y-94843682D01*
X172280792Y-94644208D01*
X172196461Y-94575000D01*
X172280792Y-94505792D01*
X172444495Y-94306318D01*
X172566138Y-94078741D01*
X172641045Y-93831805D01*
X172666338Y-93575000D01*
X172643987Y-93348061D01*
X172915000Y-93348061D01*
X172915000Y-93551939D01*
X172954774Y-93751898D01*
X173032795Y-93940256D01*
X173146063Y-94109774D01*
X173290226Y-94253937D01*
X173459744Y-94367205D01*
X173648102Y-94445226D01*
X173848061Y-94485000D01*
X174051939Y-94485000D01*
X174251898Y-94445226D01*
X174440256Y-94367205D01*
X174609774Y-94253937D01*
X174753937Y-94109774D01*
X174867205Y-93940256D01*
X174945226Y-93751898D01*
X174985000Y-93551939D01*
X174985000Y-93348061D01*
X174945226Y-93148102D01*
X174867205Y-92959744D01*
X174753937Y-92790226D01*
X174609774Y-92646063D01*
X174440256Y-92532795D01*
X174251898Y-92454774D01*
X174051939Y-92415000D01*
X173848061Y-92415000D01*
X173648102Y-92454774D01*
X173459744Y-92532795D01*
X173290226Y-92646063D01*
X173146063Y-92790226D01*
X173032795Y-92959744D01*
X172954774Y-93148102D01*
X172915000Y-93348061D01*
X172643987Y-93348061D01*
X172641045Y-93318195D01*
X172566138Y-93071259D01*
X172444495Y-92843682D01*
X172280792Y-92644208D01*
X172196461Y-92575000D01*
X172280792Y-92505792D01*
X172444495Y-92306318D01*
X172566138Y-92078741D01*
X172641045Y-91831805D01*
X172666338Y-91575000D01*
X172641045Y-91318195D01*
X172566138Y-91071259D01*
X172444495Y-90843682D01*
X172280792Y-90644208D01*
X172081318Y-90480505D01*
X171853741Y-90358862D01*
X171606805Y-90283955D01*
X171414351Y-90265000D01*
X171285649Y-90265000D01*
X171093195Y-90283955D01*
X170846259Y-90358862D01*
X170618682Y-90480505D01*
X170419208Y-90644208D01*
X170350000Y-90728539D01*
X170280792Y-90644208D01*
X170081318Y-90480505D01*
X169853741Y-90358862D01*
X169606805Y-90283955D01*
X169414351Y-90265000D01*
X169285649Y-90265000D01*
X169093195Y-90283955D01*
X168846259Y-90358862D01*
X168618682Y-90480505D01*
X168419208Y-90644208D01*
X168255505Y-90843682D01*
X168133862Y-91071259D01*
X168058955Y-91318195D01*
X168033662Y-91575000D01*
X165585000Y-91575000D01*
X165585000Y-90438454D01*
X165617205Y-90390256D01*
X165695226Y-90201898D01*
X165735000Y-90001939D01*
X165735000Y-89798061D01*
X165695226Y-89598102D01*
X165617205Y-89409744D01*
X165503937Y-89240226D01*
X165359774Y-89096063D01*
X165190256Y-88982795D01*
X165001898Y-88904774D01*
X164801939Y-88865000D01*
X164598061Y-88865000D01*
X164398102Y-88904774D01*
X164209744Y-88982795D01*
X164040226Y-89096063D01*
X163896063Y-89240226D01*
X163782795Y-89409744D01*
X163704774Y-89598102D01*
X163665000Y-89798061D01*
X163665000Y-90001939D01*
X163704774Y-90201898D01*
X163782795Y-90390256D01*
X163815001Y-90438456D01*
X163815000Y-92915000D01*
X163673061Y-92915000D01*
X163473102Y-92954774D01*
X163284744Y-93032795D01*
X163115226Y-93146063D01*
X162971063Y-93290226D01*
X162857795Y-93459744D01*
X162779774Y-93648102D01*
X162740000Y-93848061D01*
X162740000Y-94051939D01*
X162779774Y-94251898D01*
X162857795Y-94440256D01*
X162971063Y-94609774D01*
X163115226Y-94753937D01*
X163252657Y-94845765D01*
X163208422Y-94890000D01*
X156768465Y-94890000D01*
X156724999Y-94885719D01*
X156681533Y-94890000D01*
X156681523Y-94890000D01*
X156551510Y-94902805D01*
X156384687Y-94953411D01*
X156230941Y-95035589D01*
X156230939Y-95035590D01*
X156230940Y-95035590D01*
X156129953Y-95118468D01*
X156129951Y-95118470D01*
X156096183Y-95146183D01*
X156068470Y-95179951D01*
X153329367Y-97919055D01*
X153320226Y-97873102D01*
X153242205Y-97684744D01*
X153128937Y-97515226D01*
X152984774Y-97371063D01*
X152815256Y-97257795D01*
X152626898Y-97179774D01*
X152426939Y-97140000D01*
X152223061Y-97140000D01*
X152023102Y-97179774D01*
X151834744Y-97257795D01*
X151665226Y-97371063D01*
X151521063Y-97515226D01*
X151407795Y-97684744D01*
X151329774Y-97873102D01*
X151290000Y-98073061D01*
X151290000Y-98276939D01*
X151329774Y-98476898D01*
X151407795Y-98665256D01*
X151521063Y-98834774D01*
X151665226Y-98978937D01*
X151834744Y-99092205D01*
X152023102Y-99170226D01*
X152069055Y-99179367D01*
X150054957Y-101193465D01*
X149998102Y-101204774D01*
X149809744Y-101282795D01*
X149640226Y-101396063D01*
X149496063Y-101540226D01*
X149382795Y-101709744D01*
X149304774Y-101898102D01*
X149265000Y-102098061D01*
X137285000Y-102098061D01*
X137285000Y-99598061D01*
X148040000Y-99598061D01*
X148040000Y-99801939D01*
X148079774Y-100001898D01*
X148157795Y-100190256D01*
X148271063Y-100359774D01*
X148415226Y-100503937D01*
X148584744Y-100617205D01*
X148773102Y-100695226D01*
X148973061Y-100735000D01*
X149176939Y-100735000D01*
X149376898Y-100695226D01*
X149565256Y-100617205D01*
X149734774Y-100503937D01*
X149878937Y-100359774D01*
X149992205Y-100190256D01*
X150070226Y-100001898D01*
X150110000Y-99801939D01*
X150110000Y-99598061D01*
X150070226Y-99398102D01*
X149992205Y-99209744D01*
X149878937Y-99040226D01*
X149734774Y-98896063D01*
X149565256Y-98782795D01*
X149376898Y-98704774D01*
X149176939Y-98665000D01*
X148973061Y-98665000D01*
X148773102Y-98704774D01*
X148584744Y-98782795D01*
X148415226Y-98896063D01*
X148271063Y-99040226D01*
X148157795Y-99209744D01*
X148079774Y-99398102D01*
X148040000Y-99598061D01*
X137285000Y-99598061D01*
X137285000Y-88490000D01*
X138032815Y-88490000D01*
X138061487Y-88781111D01*
X138146401Y-89061034D01*
X138284294Y-89319014D01*
X138469866Y-89545134D01*
X138695986Y-89730706D01*
X138750791Y-89760000D01*
X138695986Y-89789294D01*
X138469866Y-89974866D01*
X138284294Y-90200986D01*
X138146401Y-90458966D01*
X138061487Y-90738889D01*
X138032815Y-91030000D01*
X138061487Y-91321111D01*
X138146401Y-91601034D01*
X138284294Y-91859014D01*
X138469866Y-92085134D01*
X138695986Y-92270706D01*
X138750791Y-92300000D01*
X138695986Y-92329294D01*
X138469866Y-92514866D01*
X138284294Y-92740986D01*
X138146401Y-92998966D01*
X138061487Y-93278889D01*
X138032815Y-93570000D01*
X138061487Y-93861111D01*
X138146401Y-94141034D01*
X138284294Y-94399014D01*
X138469866Y-94625134D01*
X138695986Y-94810706D01*
X138953966Y-94948599D01*
X139233889Y-95033513D01*
X139452050Y-95055000D01*
X139597950Y-95055000D01*
X139816111Y-95033513D01*
X140096034Y-94948599D01*
X140354014Y-94810706D01*
X140580134Y-94625134D01*
X140765706Y-94399014D01*
X140903599Y-94141034D01*
X140988513Y-93861111D01*
X141017185Y-93570000D01*
X140988513Y-93278889D01*
X140903599Y-92998966D01*
X140765706Y-92740986D01*
X140580134Y-92514866D01*
X140354014Y-92329294D01*
X140299209Y-92300000D01*
X140354014Y-92270706D01*
X140580134Y-92085134D01*
X140765706Y-91859014D01*
X140903599Y-91601034D01*
X140988513Y-91321111D01*
X141017185Y-91030000D01*
X141009115Y-90948061D01*
X149240000Y-90948061D01*
X149240000Y-91151939D01*
X149279774Y-91351898D01*
X149357795Y-91540256D01*
X149471063Y-91709774D01*
X149615226Y-91853937D01*
X149784744Y-91967205D01*
X149809103Y-91977295D01*
X149779774Y-92048102D01*
X149740000Y-92248061D01*
X149740000Y-92451939D01*
X149779774Y-92651898D01*
X149857795Y-92840256D01*
X149971063Y-93009774D01*
X150115226Y-93153937D01*
X150284744Y-93267205D01*
X150473102Y-93345226D01*
X150673061Y-93385000D01*
X150876939Y-93385000D01*
X151076898Y-93345226D01*
X151265256Y-93267205D01*
X151434774Y-93153937D01*
X151578937Y-93009774D01*
X151692205Y-92840256D01*
X151770226Y-92651898D01*
X151810000Y-92451939D01*
X151810000Y-92248061D01*
X151770226Y-92048102D01*
X151692205Y-91859744D01*
X151578937Y-91690226D01*
X151434774Y-91546063D01*
X151265256Y-91432795D01*
X151240897Y-91422705D01*
X151270226Y-91351898D01*
X151310000Y-91151939D01*
X151310000Y-90948061D01*
X151270226Y-90748102D01*
X151192205Y-90559744D01*
X151078937Y-90390226D01*
X150934774Y-90246063D01*
X150765256Y-90132795D01*
X150576898Y-90054774D01*
X150376939Y-90015000D01*
X150173061Y-90015000D01*
X149973102Y-90054774D01*
X149784744Y-90132795D01*
X149615226Y-90246063D01*
X149471063Y-90390226D01*
X149357795Y-90559744D01*
X149279774Y-90748102D01*
X149240000Y-90948061D01*
X141009115Y-90948061D01*
X140988513Y-90738889D01*
X140903599Y-90458966D01*
X140765706Y-90200986D01*
X140580134Y-89974866D01*
X140354014Y-89789294D01*
X140299209Y-89760000D01*
X140354014Y-89730706D01*
X140580134Y-89545134D01*
X140765706Y-89319014D01*
X140903599Y-89061034D01*
X140988513Y-88781111D01*
X141017185Y-88490000D01*
X140988513Y-88198889D01*
X140903599Y-87918966D01*
X140765706Y-87660986D01*
X140673031Y-87548061D01*
X162465000Y-87548061D01*
X162465000Y-87751939D01*
X162504774Y-87951898D01*
X162582795Y-88140256D01*
X162696063Y-88309774D01*
X162840226Y-88453937D01*
X163009744Y-88567205D01*
X163198102Y-88645226D01*
X163398061Y-88685000D01*
X163601939Y-88685000D01*
X163801898Y-88645226D01*
X163915763Y-88598061D01*
X166240000Y-88598061D01*
X166240000Y-88801939D01*
X166279774Y-89001898D01*
X166357795Y-89190256D01*
X166471063Y-89359774D01*
X166615226Y-89503937D01*
X166784744Y-89617205D01*
X166973102Y-89695226D01*
X167173061Y-89735000D01*
X167376939Y-89735000D01*
X167576898Y-89695226D01*
X167765256Y-89617205D01*
X167934774Y-89503937D01*
X168078937Y-89359774D01*
X168192205Y-89190256D01*
X168270226Y-89001898D01*
X168310000Y-88801939D01*
X168310000Y-88598061D01*
X168270226Y-88398102D01*
X168192205Y-88209744D01*
X168078937Y-88040226D01*
X167934774Y-87896063D01*
X167765256Y-87782795D01*
X167576898Y-87704774D01*
X167376939Y-87665000D01*
X167173061Y-87665000D01*
X166973102Y-87704774D01*
X166784744Y-87782795D01*
X166615226Y-87896063D01*
X166471063Y-88040226D01*
X166357795Y-88209744D01*
X166279774Y-88398102D01*
X166240000Y-88598061D01*
X163915763Y-88598061D01*
X163990256Y-88567205D01*
X164159774Y-88453937D01*
X164303937Y-88309774D01*
X164417205Y-88140256D01*
X164495226Y-87951898D01*
X164535000Y-87751939D01*
X164535000Y-87548061D01*
X164495226Y-87348102D01*
X164417205Y-87159744D01*
X164303937Y-86990226D01*
X164159774Y-86846063D01*
X163990256Y-86732795D01*
X163801898Y-86654774D01*
X163601939Y-86615000D01*
X163398061Y-86615000D01*
X163198102Y-86654774D01*
X163009744Y-86732795D01*
X162840226Y-86846063D01*
X162696063Y-86990226D01*
X162582795Y-87159744D01*
X162504774Y-87348102D01*
X162465000Y-87548061D01*
X140673031Y-87548061D01*
X140580134Y-87434866D01*
X140550313Y-87410393D01*
X140619180Y-87389502D01*
X140729494Y-87330537D01*
X140826185Y-87251185D01*
X140905537Y-87154494D01*
X140964502Y-87044180D01*
X141000812Y-86924482D01*
X141013072Y-86800000D01*
X141013072Y-85473061D01*
X151390000Y-85473061D01*
X151390000Y-85676939D01*
X151429774Y-85876898D01*
X151507795Y-86065256D01*
X151621063Y-86234774D01*
X151765226Y-86378937D01*
X151934744Y-86492205D01*
X152123102Y-86570226D01*
X152323061Y-86610000D01*
X152526939Y-86610000D01*
X152726898Y-86570226D01*
X152915256Y-86492205D01*
X153084774Y-86378937D01*
X153228937Y-86234774D01*
X153342205Y-86065256D01*
X153420226Y-85876898D01*
X153460000Y-85676939D01*
X153460000Y-85473061D01*
X153420226Y-85273102D01*
X153342205Y-85084744D01*
X153228937Y-84915226D01*
X153084774Y-84771063D01*
X152915256Y-84657795D01*
X152726898Y-84579774D01*
X152526939Y-84540000D01*
X152323061Y-84540000D01*
X152123102Y-84579774D01*
X151934744Y-84657795D01*
X151765226Y-84771063D01*
X151621063Y-84915226D01*
X151507795Y-85084744D01*
X151429774Y-85273102D01*
X151390000Y-85473061D01*
X141013072Y-85473061D01*
X141013072Y-85100000D01*
X141000812Y-84975518D01*
X140964502Y-84855820D01*
X140905537Y-84745506D01*
X140826185Y-84648815D01*
X140729494Y-84569463D01*
X140619180Y-84510498D01*
X140499482Y-84474188D01*
X140375000Y-84461928D01*
X138675000Y-84461928D01*
X138550518Y-84474188D01*
X138430820Y-84510498D01*
X138320506Y-84569463D01*
X138223815Y-84648815D01*
X138144463Y-84745506D01*
X138085498Y-84855820D01*
X138049188Y-84975518D01*
X138036928Y-85100000D01*
X138036928Y-86800000D01*
X138049188Y-86924482D01*
X138085498Y-87044180D01*
X138144463Y-87154494D01*
X138223815Y-87251185D01*
X138320506Y-87330537D01*
X138430820Y-87389502D01*
X138499687Y-87410393D01*
X138469866Y-87434866D01*
X138284294Y-87660986D01*
X138146401Y-87918966D01*
X138061487Y-88198889D01*
X138032815Y-88490000D01*
X137285000Y-88490000D01*
X137285000Y-83923061D01*
X153100000Y-83923061D01*
X153100000Y-84126939D01*
X153139774Y-84326898D01*
X153217795Y-84515256D01*
X153331063Y-84684774D01*
X153475226Y-84828937D01*
X153644744Y-84942205D01*
X153833102Y-85020226D01*
X154033061Y-85060000D01*
X154236939Y-85060000D01*
X154436898Y-85020226D01*
X154625256Y-84942205D01*
X154794774Y-84828937D01*
X154938937Y-84684774D01*
X155052205Y-84515256D01*
X155080038Y-84448061D01*
X156465000Y-84448061D01*
X156465000Y-84651939D01*
X156504774Y-84851898D01*
X156582795Y-85040256D01*
X156696063Y-85209774D01*
X156840226Y-85353937D01*
X157009744Y-85467205D01*
X157198102Y-85545226D01*
X157398061Y-85585000D01*
X157601939Y-85585000D01*
X157801898Y-85545226D01*
X157990256Y-85467205D01*
X158159774Y-85353937D01*
X158303937Y-85209774D01*
X158417205Y-85040256D01*
X158495226Y-84851898D01*
X158535000Y-84651939D01*
X158535000Y-84448061D01*
X158495226Y-84248102D01*
X158417205Y-84059744D01*
X158303937Y-83890226D01*
X158159774Y-83746063D01*
X157990256Y-83632795D01*
X157801898Y-83554774D01*
X157601939Y-83515000D01*
X157398061Y-83515000D01*
X157198102Y-83554774D01*
X157009744Y-83632795D01*
X156840226Y-83746063D01*
X156696063Y-83890226D01*
X156582795Y-84059744D01*
X156504774Y-84248102D01*
X156465000Y-84448061D01*
X155080038Y-84448061D01*
X155130226Y-84326898D01*
X155130280Y-84326627D01*
X155298061Y-84360000D01*
X155501939Y-84360000D01*
X155701898Y-84320226D01*
X155890256Y-84242205D01*
X156059774Y-84128937D01*
X156203937Y-83984774D01*
X156317205Y-83815256D01*
X156395226Y-83626898D01*
X156435000Y-83426939D01*
X156435000Y-83223061D01*
X156395226Y-83023102D01*
X156317205Y-82834744D01*
X156203937Y-82665226D01*
X156059774Y-82521063D01*
X155890256Y-82407795D01*
X155746047Y-82348061D01*
X161865000Y-82348061D01*
X161865000Y-82551939D01*
X161904774Y-82751898D01*
X161982795Y-82940256D01*
X162096063Y-83109774D01*
X162240226Y-83253937D01*
X162409744Y-83367205D01*
X162598102Y-83445226D01*
X162798061Y-83485000D01*
X162915000Y-83485000D01*
X162915000Y-83676939D01*
X162954774Y-83876898D01*
X163032795Y-84065256D01*
X163146063Y-84234774D01*
X163290226Y-84378937D01*
X163459744Y-84492205D01*
X163648102Y-84570226D01*
X163848061Y-84610000D01*
X164051939Y-84610000D01*
X164251898Y-84570226D01*
X164440256Y-84492205D01*
X164609774Y-84378937D01*
X164615650Y-84373061D01*
X166415000Y-84373061D01*
X166415000Y-84576939D01*
X166454774Y-84776898D01*
X166532795Y-84965256D01*
X166646063Y-85134774D01*
X166736289Y-85225000D01*
X166646063Y-85315226D01*
X166532795Y-85484744D01*
X166454774Y-85673102D01*
X166415000Y-85873061D01*
X166415000Y-86076939D01*
X166454774Y-86276898D01*
X166532795Y-86465256D01*
X166646063Y-86634774D01*
X166790226Y-86778937D01*
X166959744Y-86892205D01*
X167148102Y-86970226D01*
X167348061Y-87010000D01*
X167551939Y-87010000D01*
X167751898Y-86970226D01*
X167940256Y-86892205D01*
X168109774Y-86778937D01*
X168253937Y-86634774D01*
X168367205Y-86465256D01*
X168445226Y-86276898D01*
X168480798Y-86098061D01*
X170740000Y-86098061D01*
X170740000Y-86301939D01*
X170779774Y-86501898D01*
X170857795Y-86690256D01*
X170971063Y-86859774D01*
X171115226Y-87003937D01*
X171284744Y-87117205D01*
X171473102Y-87195226D01*
X171673061Y-87235000D01*
X171876939Y-87235000D01*
X172076898Y-87195226D01*
X172265256Y-87117205D01*
X172434774Y-87003937D01*
X172578937Y-86859774D01*
X172692205Y-86690256D01*
X172770226Y-86501898D01*
X172810000Y-86301939D01*
X172810000Y-86098061D01*
X172770226Y-85898102D01*
X172692205Y-85709744D01*
X172578937Y-85540226D01*
X172434774Y-85396063D01*
X172265256Y-85282795D01*
X172076898Y-85204774D01*
X171876939Y-85165000D01*
X171673061Y-85165000D01*
X171473102Y-85204774D01*
X171284744Y-85282795D01*
X171115226Y-85396063D01*
X170971063Y-85540226D01*
X170857795Y-85709744D01*
X170779774Y-85898102D01*
X170740000Y-86098061D01*
X168480798Y-86098061D01*
X168485000Y-86076939D01*
X168485000Y-85873061D01*
X168445226Y-85673102D01*
X168367205Y-85484744D01*
X168253937Y-85315226D01*
X168163711Y-85225000D01*
X168253937Y-85134774D01*
X168367205Y-84965256D01*
X168445226Y-84776898D01*
X168485000Y-84576939D01*
X168485000Y-84373061D01*
X168445226Y-84173102D01*
X168367205Y-83984744D01*
X168253937Y-83815226D01*
X168109774Y-83671063D01*
X167940256Y-83557795D01*
X167751898Y-83479774D01*
X167551939Y-83440000D01*
X167348061Y-83440000D01*
X167148102Y-83479774D01*
X166959744Y-83557795D01*
X166790226Y-83671063D01*
X166646063Y-83815226D01*
X166532795Y-83984744D01*
X166454774Y-84173102D01*
X166415000Y-84373061D01*
X164615650Y-84373061D01*
X164753937Y-84234774D01*
X164867205Y-84065256D01*
X164945226Y-83876898D01*
X164985000Y-83676939D01*
X164985000Y-83473061D01*
X164945226Y-83273102D01*
X164867205Y-83084744D01*
X164753937Y-82915226D01*
X164711772Y-82873061D01*
X171565000Y-82873061D01*
X171565000Y-83076939D01*
X171604774Y-83276898D01*
X171682795Y-83465256D01*
X171796063Y-83634774D01*
X171940226Y-83778937D01*
X172109744Y-83892205D01*
X172298102Y-83970226D01*
X172498061Y-84010000D01*
X172701939Y-84010000D01*
X172901898Y-83970226D01*
X173090256Y-83892205D01*
X173259774Y-83778937D01*
X173403937Y-83634774D01*
X173517205Y-83465256D01*
X173595226Y-83276898D01*
X173635000Y-83076939D01*
X173635000Y-82873061D01*
X173595226Y-82673102D01*
X173517205Y-82484744D01*
X173403937Y-82315226D01*
X173259774Y-82171063D01*
X173090256Y-82057795D01*
X172901898Y-81979774D01*
X172701939Y-81940000D01*
X172498061Y-81940000D01*
X172298102Y-81979774D01*
X172109744Y-82057795D01*
X171940226Y-82171063D01*
X171796063Y-82315226D01*
X171682795Y-82484744D01*
X171604774Y-82673102D01*
X171565000Y-82873061D01*
X164711772Y-82873061D01*
X164609774Y-82771063D01*
X164440256Y-82657795D01*
X164251898Y-82579774D01*
X164051939Y-82540000D01*
X163935000Y-82540000D01*
X163935000Y-82348061D01*
X163895226Y-82148102D01*
X163817205Y-81959744D01*
X163703937Y-81790226D01*
X163559774Y-81646063D01*
X163390256Y-81532795D01*
X163201898Y-81454774D01*
X163001939Y-81415000D01*
X162798061Y-81415000D01*
X162598102Y-81454774D01*
X162409744Y-81532795D01*
X162240226Y-81646063D01*
X162096063Y-81790226D01*
X161982795Y-81959744D01*
X161904774Y-82148102D01*
X161865000Y-82348061D01*
X155746047Y-82348061D01*
X155701898Y-82329774D01*
X155501939Y-82290000D01*
X155298061Y-82290000D01*
X155098102Y-82329774D01*
X154909744Y-82407795D01*
X154740226Y-82521063D01*
X154596063Y-82665226D01*
X154482795Y-82834744D01*
X154404774Y-83023102D01*
X154404720Y-83023373D01*
X154236939Y-82990000D01*
X154033061Y-82990000D01*
X153833102Y-83029774D01*
X153644744Y-83107795D01*
X153475226Y-83221063D01*
X153331063Y-83365226D01*
X153217795Y-83534744D01*
X153139774Y-83723102D01*
X153100000Y-83923061D01*
X137285000Y-83923061D01*
X137285000Y-80098061D01*
X164515000Y-80098061D01*
X164515000Y-80301939D01*
X164554774Y-80501898D01*
X164632795Y-80690256D01*
X164746063Y-80859774D01*
X164890226Y-81003937D01*
X165059744Y-81117205D01*
X165248102Y-81195226D01*
X165448061Y-81235000D01*
X165651939Y-81235000D01*
X165851898Y-81195226D01*
X166040256Y-81117205D01*
X166209774Y-81003937D01*
X166353937Y-80859774D01*
X166467205Y-80690256D01*
X166545226Y-80501898D01*
X166585000Y-80301939D01*
X166585000Y-80098061D01*
X166545226Y-79898102D01*
X166467205Y-79709744D01*
X166353937Y-79540226D01*
X166209774Y-79396063D01*
X166040256Y-79282795D01*
X165851898Y-79204774D01*
X165651939Y-79165000D01*
X165448061Y-79165000D01*
X165248102Y-79204774D01*
X165059744Y-79282795D01*
X164890226Y-79396063D01*
X164746063Y-79540226D01*
X164632795Y-79709744D01*
X164554774Y-79898102D01*
X164515000Y-80098061D01*
X137285000Y-80098061D01*
X137285000Y-78898061D01*
X148990000Y-78898061D01*
X148990000Y-79101939D01*
X149029774Y-79301898D01*
X149107795Y-79490256D01*
X149221063Y-79659774D01*
X149365226Y-79803937D01*
X149534744Y-79917205D01*
X149723102Y-79995226D01*
X149923061Y-80035000D01*
X150126939Y-80035000D01*
X150326898Y-79995226D01*
X150515256Y-79917205D01*
X150684774Y-79803937D01*
X150828937Y-79659774D01*
X150942205Y-79490256D01*
X151020226Y-79301898D01*
X151060000Y-79101939D01*
X151060000Y-78898061D01*
X151020226Y-78698102D01*
X150942205Y-78509744D01*
X150828937Y-78340226D01*
X150684774Y-78196063D01*
X150515256Y-78082795D01*
X150326898Y-78004774D01*
X150126939Y-77965000D01*
X149923061Y-77965000D01*
X149723102Y-78004774D01*
X149534744Y-78082795D01*
X149365226Y-78196063D01*
X149221063Y-78340226D01*
X149107795Y-78509744D01*
X149029774Y-78698102D01*
X148990000Y-78898061D01*
X137285000Y-78898061D01*
X137285000Y-75476316D01*
X137572912Y-75907207D01*
X137967793Y-76302088D01*
X138432124Y-76612344D01*
X138948061Y-76826052D01*
X139495777Y-76935000D01*
X140054223Y-76935000D01*
X140601939Y-76826052D01*
X141117876Y-76612344D01*
X141582207Y-76302088D01*
X141977088Y-75907207D01*
X142150243Y-75648061D01*
X151715000Y-75648061D01*
X151715000Y-75851939D01*
X151754774Y-76051898D01*
X151832795Y-76240256D01*
X151946063Y-76409774D01*
X152090226Y-76553937D01*
X152259744Y-76667205D01*
X152448102Y-76745226D01*
X152648061Y-76785000D01*
X152851939Y-76785000D01*
X153051898Y-76745226D01*
X153240256Y-76667205D01*
X153409774Y-76553937D01*
X153440650Y-76523061D01*
X159915000Y-76523061D01*
X159915000Y-76726939D01*
X159954774Y-76926898D01*
X160032795Y-77115256D01*
X160146063Y-77284774D01*
X160290226Y-77428937D01*
X160459744Y-77542205D01*
X160648102Y-77620226D01*
X160848061Y-77660000D01*
X161051939Y-77660000D01*
X161251898Y-77620226D01*
X161440256Y-77542205D01*
X161609774Y-77428937D01*
X161753937Y-77284774D01*
X161867205Y-77115256D01*
X161945226Y-76926898D01*
X161958402Y-76860657D01*
X162032795Y-77040256D01*
X162146063Y-77209774D01*
X162290226Y-77353937D01*
X162459744Y-77467205D01*
X162648102Y-77545226D01*
X162848061Y-77585000D01*
X163051939Y-77585000D01*
X163251898Y-77545226D01*
X163440256Y-77467205D01*
X163609774Y-77353937D01*
X163753937Y-77209774D01*
X163867205Y-77040256D01*
X163945226Y-76851898D01*
X163985000Y-76651939D01*
X163985000Y-76448061D01*
X163945226Y-76248102D01*
X163867205Y-76059744D01*
X163753937Y-75890226D01*
X163609774Y-75746063D01*
X163440256Y-75632795D01*
X163251898Y-75554774D01*
X163051939Y-75515000D01*
X162848061Y-75515000D01*
X162648102Y-75554774D01*
X162459744Y-75632795D01*
X162290226Y-75746063D01*
X162146063Y-75890226D01*
X162032795Y-76059744D01*
X161954774Y-76248102D01*
X161941598Y-76314343D01*
X161867205Y-76134744D01*
X161753937Y-75965226D01*
X161609774Y-75821063D01*
X161440256Y-75707795D01*
X161251898Y-75629774D01*
X161051939Y-75590000D01*
X160848061Y-75590000D01*
X160648102Y-75629774D01*
X160459744Y-75707795D01*
X160290226Y-75821063D01*
X160146063Y-75965226D01*
X160032795Y-76134744D01*
X159954774Y-76323102D01*
X159915000Y-76523061D01*
X153440650Y-76523061D01*
X153553937Y-76409774D01*
X153667205Y-76240256D01*
X153745226Y-76051898D01*
X153785000Y-75851939D01*
X153785000Y-75648061D01*
X153750191Y-75473061D01*
X164065000Y-75473061D01*
X164065000Y-75676939D01*
X164104774Y-75876898D01*
X164182795Y-76065256D01*
X164296063Y-76234774D01*
X164440226Y-76378937D01*
X164609744Y-76492205D01*
X164798102Y-76570226D01*
X164998061Y-76610000D01*
X165201939Y-76610000D01*
X165401898Y-76570226D01*
X165590256Y-76492205D01*
X165759774Y-76378937D01*
X165903937Y-76234774D01*
X166017205Y-76065256D01*
X166095226Y-75876898D01*
X166135000Y-75676939D01*
X166135000Y-75473061D01*
X166095226Y-75273102D01*
X166017205Y-75084744D01*
X165903937Y-74915226D01*
X165759774Y-74771063D01*
X165590256Y-74657795D01*
X165401898Y-74579774D01*
X165201939Y-74540000D01*
X164998061Y-74540000D01*
X164798102Y-74579774D01*
X164609744Y-74657795D01*
X164440226Y-74771063D01*
X164296063Y-74915226D01*
X164182795Y-75084744D01*
X164104774Y-75273102D01*
X164065000Y-75473061D01*
X153750191Y-75473061D01*
X153745226Y-75448102D01*
X153667205Y-75259744D01*
X153553937Y-75090226D01*
X153409774Y-74946063D01*
X153240256Y-74832795D01*
X153051898Y-74754774D01*
X152851939Y-74715000D01*
X152648061Y-74715000D01*
X152448102Y-74754774D01*
X152259744Y-74832795D01*
X152090226Y-74946063D01*
X151946063Y-75090226D01*
X151832795Y-75259744D01*
X151754774Y-75448102D01*
X151715000Y-75648061D01*
X142150243Y-75648061D01*
X142287344Y-75442876D01*
X142501052Y-74926939D01*
X142610000Y-74379223D01*
X142610000Y-73820777D01*
X142501052Y-73273061D01*
X142287344Y-72757124D01*
X141977088Y-72292793D01*
X141594295Y-71910000D01*
X158710485Y-71910000D01*
X158534744Y-71982795D01*
X158534744Y-71982795D01*
G37*
X158534744Y-71982795D02*
X158365226Y-72096063D01*
X158221063Y-72240226D01*
X158107795Y-72409744D01*
X158029774Y-72598102D01*
X157990000Y-72798061D01*
X157990000Y-72801289D01*
X157934774Y-72746063D01*
X157765256Y-72632795D01*
X157576898Y-72554774D01*
X157376939Y-72515000D01*
X157173061Y-72515000D01*
X156973102Y-72554774D01*
X156784744Y-72632795D01*
X156615226Y-72746063D01*
X156471063Y-72890226D01*
X156357795Y-73059744D01*
X156279774Y-73248102D01*
X156240000Y-73448061D01*
X156240000Y-73651939D01*
X156279774Y-73851898D01*
X156357795Y-74040256D01*
X156471063Y-74209774D01*
X156615226Y-74353937D01*
X156784744Y-74467205D01*
X156973102Y-74545226D01*
X157173061Y-74585000D01*
X157376939Y-74585000D01*
X157576898Y-74545226D01*
X157765256Y-74467205D01*
X157934774Y-74353937D01*
X158078937Y-74209774D01*
X158192205Y-74040256D01*
X158270226Y-73851898D01*
X158310000Y-73651939D01*
X158310000Y-73648711D01*
X158365226Y-73703937D01*
X158534744Y-73817205D01*
X158723102Y-73895226D01*
X158923061Y-73935000D01*
X159126939Y-73935000D01*
X159326898Y-73895226D01*
X159515256Y-73817205D01*
X159684774Y-73703937D01*
X159828937Y-73559774D01*
X159942205Y-73390256D01*
X160020226Y-73201898D01*
X160060000Y-73001939D01*
X160060000Y-72798061D01*
X160020226Y-72598102D01*
X159942205Y-72409744D01*
X159828937Y-72240226D01*
X159684774Y-72096063D01*
X159515256Y-71982795D01*
X159339515Y-71910000D01*
X171605705Y-71910000D01*
X171222912Y-72292793D01*
X170912656Y-72757124D01*
X170698948Y-73273061D01*
X170590000Y-73820777D01*
X170590000Y-74379223D01*
X170698948Y-74926939D01*
X170912656Y-75442876D01*
X171222912Y-75907207D01*
X171617793Y-76302088D01*
X172082124Y-76612344D01*
X172598061Y-76826052D01*
X173145777Y-76935000D01*
X173704223Y-76935000D01*
X174251939Y-76826052D01*
X174767876Y-76612344D01*
X175232207Y-76302088D01*
X175627088Y-75907207D01*
X175765001Y-75700806D01*
X175765000Y-106649193D01*
X175627088Y-106442793D01*
X175232207Y-106047912D01*
X174767876Y-105737656D01*
X174251939Y-105523948D01*
X173704223Y-105415000D01*
X173145777Y-105415000D01*
X172598061Y-105523948D01*
X172082124Y-105737656D01*
X171617793Y-106047912D01*
X171222912Y-106442793D01*
X170912656Y-106907124D01*
X170698948Y-107423061D01*
X170590000Y-107970777D01*
X170590000Y-108529223D01*
X170698948Y-109076939D01*
X170912656Y-109592876D01*
X171222912Y-110057207D01*
X171605705Y-110440000D01*
X161182098Y-110440000D01*
X161242130Y-110242101D01*
X161260000Y-110060664D01*
X161260000Y-109239335D01*
X161242130Y-109057898D01*
X161171511Y-108825099D01*
X161056833Y-108610551D01*
X160902502Y-108422498D01*
X160714448Y-108268167D01*
X160499900Y-108153489D01*
X160267101Y-108082870D01*
X160025000Y-108059025D01*
X159782898Y-108082870D01*
X159772965Y-108085883D01*
X159891949Y-108006381D01*
X160081381Y-107816949D01*
X160230216Y-107594201D01*
X160332736Y-107346697D01*
X160385000Y-107083948D01*
X160385000Y-106816052D01*
X160332736Y-106553303D01*
X160230216Y-106305799D01*
X160081381Y-106083051D01*
X159891949Y-105893619D01*
X159669201Y-105744784D01*
X159421697Y-105642264D01*
X159158948Y-105590000D01*
X158891052Y-105590000D01*
X158628303Y-105642264D01*
X158380799Y-105744784D01*
X158158051Y-105893619D01*
X157968619Y-106083051D01*
X157819784Y-106305799D01*
X157717264Y-106553303D01*
X157665000Y-106816052D01*
X157665000Y-107083948D01*
X157717264Y-107346697D01*
X157819784Y-107594201D01*
X157968619Y-107816949D01*
X158158051Y-108006381D01*
X158380799Y-108155216D01*
X158628303Y-108257736D01*
X158891052Y-108310000D01*
X159158948Y-108310000D01*
X159324768Y-108277016D01*
X159147498Y-108422498D01*
X158993167Y-108610552D01*
X158878489Y-108825100D01*
X158807870Y-109057899D01*
X158790000Y-109239336D01*
X158790000Y-110060665D01*
X158807870Y-110242102D01*
X158867902Y-110440000D01*
X154182098Y-110440000D01*
X154242130Y-110242102D01*
X154260000Y-110060665D01*
X154260000Y-109239336D01*
X154242130Y-109057899D01*
X154171511Y-108825099D01*
X154056833Y-108610551D01*
X153902502Y-108422498D01*
X153725232Y-108277016D01*
X153891052Y-108310000D01*
X154158948Y-108310000D01*
X154421697Y-108257736D01*
X154669201Y-108155216D01*
X154891949Y-108006381D01*
X155081381Y-107816949D01*
X155230216Y-107594201D01*
X155332736Y-107346697D01*
X155385000Y-107083948D01*
X155385000Y-106816052D01*
X155332736Y-106553303D01*
X155230216Y-106305799D01*
X155081381Y-106083051D01*
X154891949Y-105893619D01*
X154669201Y-105744784D01*
X154421697Y-105642264D01*
X154158948Y-105590000D01*
X153891052Y-105590000D01*
X153628303Y-105642264D01*
X153380799Y-105744784D01*
X153158051Y-105893619D01*
X152968619Y-106083051D01*
X152819784Y-106305799D01*
X152717264Y-106553303D01*
X152665000Y-106816052D01*
X152665000Y-107083948D01*
X152717264Y-107346697D01*
X152819784Y-107594201D01*
X152968619Y-107816949D01*
X153158051Y-108006381D01*
X153277035Y-108085883D01*
X153267102Y-108082870D01*
X153025000Y-108059025D01*
X152782899Y-108082870D01*
X152550100Y-108153489D01*
X152335552Y-108268167D01*
X152147499Y-108422498D01*
X151993168Y-108610551D01*
X151878489Y-108825099D01*
X151807870Y-109057898D01*
X151790000Y-109239335D01*
X151790000Y-110060664D01*
X151807870Y-110242101D01*
X151867902Y-110440000D01*
X141594295Y-110440000D01*
X141977088Y-110057207D01*
X142287344Y-109592876D01*
X142501052Y-109076939D01*
X142610000Y-108529223D01*
X142610000Y-107970777D01*
X142501052Y-107423061D01*
X142287344Y-106907124D01*
X141977088Y-106442793D01*
X141607356Y-106073061D01*
X149015000Y-106073061D01*
X149015000Y-106276939D01*
X149054774Y-106476898D01*
X149132795Y-106665256D01*
X149246063Y-106834774D01*
X149390226Y-106978937D01*
X149559744Y-107092205D01*
X149748102Y-107170226D01*
X149948061Y-107210000D01*
X150151939Y-107210000D01*
X150351898Y-107170226D01*
X150540256Y-107092205D01*
X150709774Y-106978937D01*
X150853937Y-106834774D01*
X150967205Y-106665256D01*
X151045226Y-106476898D01*
X151085000Y-106276939D01*
X151085000Y-106073061D01*
X151045226Y-105873102D01*
X150967205Y-105684744D01*
X150853937Y-105515226D01*
X150709774Y-105371063D01*
X150540256Y-105257795D01*
X150351898Y-105179774D01*
X150151939Y-105140000D01*
X149948061Y-105140000D01*
X149748102Y-105179774D01*
X149559744Y-105257795D01*
X149390226Y-105371063D01*
X149246063Y-105515226D01*
X149132795Y-105684744D01*
X149054774Y-105873102D01*
X149015000Y-106073061D01*
X141607356Y-106073061D01*
X141582207Y-106047912D01*
X141117876Y-105737656D01*
X140601939Y-105523948D01*
X140054223Y-105415000D01*
X139495777Y-105415000D01*
X138948061Y-105523948D01*
X138432124Y-105737656D01*
X137967793Y-106047912D01*
X137572912Y-106442793D01*
X137285000Y-106873684D01*
X137285000Y-104223061D01*
X141965000Y-104223061D01*
X141965000Y-104426939D01*
X142004774Y-104626898D01*
X142082795Y-104815256D01*
X142196063Y-104984774D01*
X142340226Y-105128937D01*
X142509744Y-105242205D01*
X142698102Y-105320226D01*
X142898061Y-105360000D01*
X143101939Y-105360000D01*
X143301898Y-105320226D01*
X143490256Y-105242205D01*
X143659774Y-105128937D01*
X143697646Y-105091065D01*
X143704774Y-105126898D01*
X143782795Y-105315256D01*
X143896063Y-105484774D01*
X144040226Y-105628937D01*
X144209744Y-105742205D01*
X144398102Y-105820226D01*
X144598061Y-105860000D01*
X144801939Y-105860000D01*
X145001898Y-105820226D01*
X145190256Y-105742205D01*
X145359774Y-105628937D01*
X145503937Y-105484774D01*
X145617205Y-105315256D01*
X145695226Y-105126898D01*
X145735000Y-104926939D01*
X145735000Y-104723061D01*
X145730028Y-104698061D01*
X146465000Y-104698061D01*
X146465000Y-104901939D01*
X146504774Y-105101898D01*
X146582795Y-105290256D01*
X146696063Y-105459774D01*
X146840226Y-105603937D01*
X147009744Y-105717205D01*
X147198102Y-105795226D01*
X147398061Y-105835000D01*
X147601939Y-105835000D01*
X147801898Y-105795226D01*
X147990256Y-105717205D01*
X148159774Y-105603937D01*
X148303937Y-105459774D01*
X148417205Y-105290256D01*
X148495226Y-105101898D01*
X148535000Y-104901939D01*
X148535000Y-104698061D01*
X148495226Y-104498102D01*
X148417205Y-104309744D01*
X148303937Y-104140226D01*
X148159774Y-103996063D01*
X147990256Y-103882795D01*
X147801898Y-103804774D01*
X147601939Y-103765000D01*
X147398061Y-103765000D01*
X147198102Y-103804774D01*
X147009744Y-103882795D01*
X146840226Y-103996063D01*
X146696063Y-104140226D01*
X146582795Y-104309744D01*
X146504774Y-104498102D01*
X146465000Y-104698061D01*
X145730028Y-104698061D01*
X145695226Y-104523102D01*
X145617205Y-104334744D01*
X145503937Y-104165226D01*
X145359774Y-104021063D01*
X145190256Y-103907795D01*
X145001898Y-103829774D01*
X144801939Y-103790000D01*
X144598061Y-103790000D01*
X144398102Y-103829774D01*
X144209744Y-103907795D01*
X144040226Y-104021063D01*
X144002354Y-104058935D01*
X143995226Y-104023102D01*
X143917205Y-103834744D01*
X143803937Y-103665226D01*
X143761772Y-103623061D01*
X155240000Y-103623061D01*
X155240000Y-103826939D01*
X155279774Y-104026898D01*
X155357795Y-104215256D01*
X155471063Y-104384774D01*
X155615226Y-104528937D01*
X155784744Y-104642205D01*
X155973102Y-104720226D01*
X156173061Y-104760000D01*
X156376939Y-104760000D01*
X156576898Y-104720226D01*
X156765256Y-104642205D01*
X156934774Y-104528937D01*
X157078937Y-104384774D01*
X157192205Y-104215256D01*
X157270226Y-104026898D01*
X157290880Y-103923061D01*
X157490000Y-103923061D01*
X157490000Y-104126939D01*
X157529774Y-104326898D01*
X157607795Y-104515256D01*
X157721063Y-104684774D01*
X157865226Y-104828937D01*
X158034744Y-104942205D01*
X158223102Y-105020226D01*
X158423061Y-105060000D01*
X158626939Y-105060000D01*
X158826898Y-105020226D01*
X159015256Y-104942205D01*
X159184774Y-104828937D01*
X159328937Y-104684774D01*
X159442205Y-104515256D01*
X159520226Y-104326898D01*
X159560000Y-104126939D01*
X159560000Y-103923061D01*
X159520226Y-103723102D01*
X159442205Y-103534744D01*
X159328937Y-103365226D01*
X159184774Y-103221063D01*
X159015256Y-103107795D01*
X158931402Y-103073061D01*
X164365000Y-103073061D01*
X164365000Y-103276939D01*
X164404774Y-103476898D01*
X164482795Y-103665256D01*
X164596063Y-103834774D01*
X164740226Y-103978937D01*
X164909744Y-104092205D01*
X165098102Y-104170226D01*
X165298061Y-104210000D01*
X165501939Y-104210000D01*
X165701898Y-104170226D01*
X165890256Y-104092205D01*
X166059774Y-103978937D01*
X166203937Y-103834774D01*
X166317205Y-103665256D01*
X166395226Y-103476898D01*
X166435000Y-103276939D01*
X166435000Y-103073061D01*
X166395226Y-102873102D01*
X166317205Y-102684744D01*
X166203937Y-102515226D01*
X166059774Y-102371063D01*
X165890256Y-102257795D01*
X165701898Y-102179774D01*
X165501939Y-102140000D01*
X165298061Y-102140000D01*
X165098102Y-102179774D01*
X164909744Y-102257795D01*
X164740226Y-102371063D01*
X164596063Y-102515226D01*
X164482795Y-102684744D01*
X164404774Y-102873102D01*
X164365000Y-103073061D01*
X158931402Y-103073061D01*
X158826898Y-103029774D01*
X158626939Y-102990000D01*
X158423061Y-102990000D01*
X158223102Y-103029774D01*
X158034744Y-103107795D01*
X157865226Y-103221063D01*
X157721063Y-103365226D01*
X157607795Y-103534744D01*
X157529774Y-103723102D01*
X157490000Y-103923061D01*
X157290880Y-103923061D01*
X157310000Y-103826939D01*
X157310000Y-103623061D01*
X157270226Y-103423102D01*
X157192205Y-103234744D01*
X157078937Y-103065226D01*
X156934774Y-102921063D01*
X156765256Y-102807795D01*
X156576898Y-102729774D01*
X156376939Y-102690000D01*
X156173061Y-102690000D01*
X155973102Y-102729774D01*
X155784744Y-102807795D01*
X155615226Y-102921063D01*
X155471063Y-103065226D01*
X155357795Y-103234744D01*
X155279774Y-103423102D01*
X155240000Y-103623061D01*
X143761772Y-103623061D01*
X143659774Y-103521063D01*
X143490256Y-103407795D01*
X143301898Y-103329774D01*
X143101939Y-103290000D01*
X142898061Y-103290000D01*
X142698102Y-103329774D01*
X142509744Y-103407795D01*
X142340226Y-103521063D01*
X142196063Y-103665226D01*
X142082795Y-103834744D01*
X142004774Y-104023102D01*
X141965000Y-104223061D01*
X137285000Y-104223061D01*
X137285000Y-102098061D01*
X149265000Y-102098061D01*
X149265000Y-102301939D01*
X149304774Y-102501898D01*
X149382795Y-102690256D01*
X149496063Y-102859774D01*
X149640226Y-103003937D01*
X149809744Y-103117205D01*
X149998102Y-103195226D01*
X150198061Y-103235000D01*
X150401939Y-103235000D01*
X150601898Y-103195226D01*
X150790256Y-103117205D01*
X150959774Y-103003937D01*
X151103937Y-102859774D01*
X151217205Y-102690256D01*
X151295226Y-102501898D01*
X151306535Y-102445043D01*
X157091579Y-96660000D01*
X159542462Y-96660000D01*
X159515000Y-96798061D01*
X159515000Y-97001939D01*
X159554774Y-97201898D01*
X159632795Y-97390256D01*
X159746063Y-97559774D01*
X159890226Y-97703937D01*
X160059744Y-97817205D01*
X160248102Y-97895226D01*
X160448061Y-97935000D01*
X160651939Y-97935000D01*
X160851898Y-97895226D01*
X161040256Y-97817205D01*
X161209774Y-97703937D01*
X161353937Y-97559774D01*
X161467205Y-97390256D01*
X161545226Y-97201898D01*
X161585000Y-97001939D01*
X161585000Y-96798061D01*
X161557538Y-96660000D01*
X162982850Y-96660000D01*
X162882795Y-96809744D01*
X162804774Y-96998102D01*
X162765000Y-97198061D01*
X162765000Y-97401939D01*
X162804774Y-97601898D01*
X162882795Y-97790256D01*
X162996063Y-97959774D01*
X163140226Y-98103937D01*
X163309744Y-98217205D01*
X163498102Y-98295226D01*
X163698061Y-98335000D01*
X163901939Y-98335000D01*
X164101898Y-98295226D01*
X164290256Y-98217205D01*
X164298192Y-98211903D01*
X164315226Y-98228937D01*
X164484744Y-98342205D01*
X164673102Y-98420226D01*
X164873061Y-98460000D01*
X165076939Y-98460000D01*
X165276898Y-98420226D01*
X165465256Y-98342205D01*
X165634774Y-98228937D01*
X165778937Y-98084774D01*
X165892205Y-97915256D01*
X165970226Y-97726898D01*
X166010000Y-97526939D01*
X166010000Y-97323061D01*
X165970226Y-97123102D01*
X165892205Y-96934744D01*
X165778937Y-96765226D01*
X165634774Y-96621063D01*
X165465256Y-96507795D01*
X165276898Y-96429774D01*
X165076939Y-96390000D01*
X164873061Y-96390000D01*
X164673102Y-96429774D01*
X164484744Y-96507795D01*
X164476808Y-96513097D01*
X164459774Y-96496063D01*
X164290256Y-96382795D01*
X164239717Y-96361861D01*
X165295050Y-95306529D01*
X165328817Y-95278817D01*
X165409953Y-95179954D01*
X165439410Y-95144060D01*
X165439411Y-95144059D01*
X165521589Y-94990313D01*
X165572195Y-94823490D01*
X165585000Y-94693477D01*
X165585000Y-94693467D01*
X165589281Y-94650001D01*
X165585000Y-94606535D01*
X165585000Y-91575000D01*
X168033662Y-91575000D01*
X168058955Y-91831805D01*
X168133862Y-92078741D01*
X168255505Y-92306318D01*
X168419208Y-92505792D01*
X168507648Y-92578372D01*
X168371697Y-92703773D01*
X168220527Y-92911371D01*
X168112762Y-93144472D01*
X168082090Y-93245600D01*
X168205776Y-93448000D01*
X169223000Y-93448000D01*
X169223000Y-93428000D01*
X169477000Y-93428000D01*
X169477000Y-93448000D01*
X169497000Y-93448000D01*
X169497000Y-93702000D01*
X169477000Y-93702000D01*
X169477000Y-93722000D01*
X169223000Y-93722000D01*
X169223000Y-93702000D01*
X168205776Y-93702000D01*
X168082090Y-93904400D01*
X168112762Y-94005528D01*
X168220527Y-94238629D01*
X168371697Y-94446227D01*
X168507648Y-94571628D01*
X168419208Y-94644208D01*
X168255505Y-94843682D01*
X168133862Y-95071259D01*
X168058955Y-95318195D01*
X168033662Y-95575000D01*
X168058955Y-95831805D01*
X168133862Y-96078741D01*
X168255505Y-96306318D01*
X168419208Y-96505792D01*
X168503539Y-96575000D01*
X168419208Y-96644208D01*
X168255505Y-96843682D01*
X168133862Y-97071259D01*
X168058955Y-97318195D01*
X168033662Y-97575000D01*
X168058955Y-97831805D01*
X168133862Y-98078741D01*
X168255505Y-98306318D01*
X168419208Y-98505792D01*
X168503539Y-98575000D01*
X168419208Y-98644208D01*
X168255505Y-98843682D01*
X168133862Y-99071259D01*
X168058955Y-99318195D01*
X168033662Y-99575000D01*
X168058955Y-99831805D01*
X168133862Y-100078741D01*
X168255505Y-100306318D01*
X168419208Y-100505792D01*
X168503539Y-100575000D01*
X168419208Y-100644208D01*
X168255505Y-100843682D01*
X168133862Y-101071259D01*
X168058955Y-101318195D01*
X168033662Y-101575000D01*
X168058955Y-101831805D01*
X168133862Y-102078741D01*
X168255505Y-102306318D01*
X168419208Y-102505792D01*
X168618682Y-102669495D01*
X168846259Y-102791138D01*
X169093195Y-102866045D01*
X169285649Y-102885000D01*
X169414351Y-102885000D01*
X169606805Y-102866045D01*
X169853741Y-102791138D01*
X170081318Y-102669495D01*
X170150926Y-102612369D01*
X170223815Y-102701185D01*
X170320506Y-102780537D01*
X170430820Y-102839502D01*
X170550518Y-102875812D01*
X170675000Y-102888072D01*
X172025000Y-102888072D01*
X172149482Y-102875812D01*
X172269180Y-102839502D01*
X172379494Y-102780537D01*
X172476185Y-102701185D01*
X172555537Y-102604494D01*
X172614502Y-102494180D01*
X172650812Y-102374482D01*
X172663072Y-102250000D01*
X172663072Y-100900000D01*
X172650812Y-100775518D01*
X172614502Y-100655820D01*
X172555537Y-100545506D01*
X172476185Y-100448815D01*
X172387369Y-100375926D01*
X172444495Y-100306318D01*
X172566138Y-100078741D01*
X172641045Y-99831805D01*
X172666338Y-99575000D01*
X172641045Y-99318195D01*
X172566138Y-99071259D01*
X172444495Y-98843682D01*
X172280792Y-98644208D01*
X172196461Y-98575000D01*
X172280792Y-98505792D01*
X172444495Y-98306318D01*
X172566138Y-98078741D01*
X172641045Y-97831805D01*
X172666338Y-97575000D01*
X172641045Y-97318195D01*
X172566138Y-97071259D01*
X172444495Y-96843682D01*
X172280792Y-96644208D01*
X172196461Y-96575000D01*
X172280792Y-96505792D01*
X172444495Y-96306318D01*
X172566138Y-96078741D01*
X172641045Y-95831805D01*
X172666338Y-95575000D01*
X172641045Y-95318195D01*
X172566138Y-95071259D01*
X172444495Y-94843682D01*
X172280792Y-94644208D01*
X172196461Y-94575000D01*
X172280792Y-94505792D01*
X172444495Y-94306318D01*
X172566138Y-94078741D01*
X172641045Y-93831805D01*
X172666338Y-93575000D01*
X172643987Y-93348061D01*
X172915000Y-93348061D01*
X172915000Y-93551939D01*
X172954774Y-93751898D01*
X173032795Y-93940256D01*
X173146063Y-94109774D01*
X173290226Y-94253937D01*
X173459744Y-94367205D01*
X173648102Y-94445226D01*
X173848061Y-94485000D01*
X174051939Y-94485000D01*
X174251898Y-94445226D01*
X174440256Y-94367205D01*
X174609774Y-94253937D01*
X174753937Y-94109774D01*
X174867205Y-93940256D01*
X174945226Y-93751898D01*
X174985000Y-93551939D01*
X174985000Y-93348061D01*
X174945226Y-93148102D01*
X174867205Y-92959744D01*
X174753937Y-92790226D01*
X174609774Y-92646063D01*
X174440256Y-92532795D01*
X174251898Y-92454774D01*
X174051939Y-92415000D01*
X173848061Y-92415000D01*
X173648102Y-92454774D01*
X173459744Y-92532795D01*
X173290226Y-92646063D01*
X173146063Y-92790226D01*
X173032795Y-92959744D01*
X172954774Y-93148102D01*
X172915000Y-93348061D01*
X172643987Y-93348061D01*
X172641045Y-93318195D01*
X172566138Y-93071259D01*
X172444495Y-92843682D01*
X172280792Y-92644208D01*
X172196461Y-92575000D01*
X172280792Y-92505792D01*
X172444495Y-92306318D01*
X172566138Y-92078741D01*
X172641045Y-91831805D01*
X172666338Y-91575000D01*
X172641045Y-91318195D01*
X172566138Y-91071259D01*
X172444495Y-90843682D01*
X172280792Y-90644208D01*
X172081318Y-90480505D01*
X171853741Y-90358862D01*
X171606805Y-90283955D01*
X171414351Y-90265000D01*
X171285649Y-90265000D01*
X171093195Y-90283955D01*
X170846259Y-90358862D01*
X170618682Y-90480505D01*
X170419208Y-90644208D01*
X170350000Y-90728539D01*
X170280792Y-90644208D01*
X170081318Y-90480505D01*
X169853741Y-90358862D01*
X169606805Y-90283955D01*
X169414351Y-90265000D01*
X169285649Y-90265000D01*
X169093195Y-90283955D01*
X168846259Y-90358862D01*
X168618682Y-90480505D01*
X168419208Y-90644208D01*
X168255505Y-90843682D01*
X168133862Y-91071259D01*
X168058955Y-91318195D01*
X168033662Y-91575000D01*
X165585000Y-91575000D01*
X165585000Y-90438454D01*
X165617205Y-90390256D01*
X165695226Y-90201898D01*
X165735000Y-90001939D01*
X165735000Y-89798061D01*
X165695226Y-89598102D01*
X165617205Y-89409744D01*
X165503937Y-89240226D01*
X165359774Y-89096063D01*
X165190256Y-88982795D01*
X165001898Y-88904774D01*
X164801939Y-88865000D01*
X164598061Y-88865000D01*
X164398102Y-88904774D01*
X164209744Y-88982795D01*
X164040226Y-89096063D01*
X163896063Y-89240226D01*
X163782795Y-89409744D01*
X163704774Y-89598102D01*
X163665000Y-89798061D01*
X163665000Y-90001939D01*
X163704774Y-90201898D01*
X163782795Y-90390256D01*
X163815001Y-90438456D01*
X163815000Y-92915000D01*
X163673061Y-92915000D01*
X163473102Y-92954774D01*
X163284744Y-93032795D01*
X163115226Y-93146063D01*
X162971063Y-93290226D01*
X162857795Y-93459744D01*
X162779774Y-93648102D01*
X162740000Y-93848061D01*
X162740000Y-94051939D01*
X162779774Y-94251898D01*
X162857795Y-94440256D01*
X162971063Y-94609774D01*
X163115226Y-94753937D01*
X163252657Y-94845765D01*
X163208422Y-94890000D01*
X156768465Y-94890000D01*
X156724999Y-94885719D01*
X156681533Y-94890000D01*
X156681523Y-94890000D01*
X156551510Y-94902805D01*
X156384687Y-94953411D01*
X156230941Y-95035589D01*
X156230939Y-95035590D01*
X156230940Y-95035590D01*
X156129953Y-95118468D01*
X156129951Y-95118470D01*
X156096183Y-95146183D01*
X156068470Y-95179951D01*
X153329367Y-97919055D01*
X153320226Y-97873102D01*
X153242205Y-97684744D01*
X153128937Y-97515226D01*
X152984774Y-97371063D01*
X152815256Y-97257795D01*
X152626898Y-97179774D01*
X152426939Y-97140000D01*
X152223061Y-97140000D01*
X152023102Y-97179774D01*
X151834744Y-97257795D01*
X151665226Y-97371063D01*
X151521063Y-97515226D01*
X151407795Y-97684744D01*
X151329774Y-97873102D01*
X151290000Y-98073061D01*
X151290000Y-98276939D01*
X151329774Y-98476898D01*
X151407795Y-98665256D01*
X151521063Y-98834774D01*
X151665226Y-98978937D01*
X151834744Y-99092205D01*
X152023102Y-99170226D01*
X152069055Y-99179367D01*
X150054957Y-101193465D01*
X149998102Y-101204774D01*
X149809744Y-101282795D01*
X149640226Y-101396063D01*
X149496063Y-101540226D01*
X149382795Y-101709744D01*
X149304774Y-101898102D01*
X149265000Y-102098061D01*
X137285000Y-102098061D01*
X137285000Y-99598061D01*
X148040000Y-99598061D01*
X148040000Y-99801939D01*
X148079774Y-100001898D01*
X148157795Y-100190256D01*
X148271063Y-100359774D01*
X148415226Y-100503937D01*
X148584744Y-100617205D01*
X148773102Y-100695226D01*
X148973061Y-100735000D01*
X149176939Y-100735000D01*
X149376898Y-100695226D01*
X149565256Y-100617205D01*
X149734774Y-100503937D01*
X149878937Y-100359774D01*
X149992205Y-100190256D01*
X150070226Y-100001898D01*
X150110000Y-99801939D01*
X150110000Y-99598061D01*
X150070226Y-99398102D01*
X149992205Y-99209744D01*
X149878937Y-99040226D01*
X149734774Y-98896063D01*
X149565256Y-98782795D01*
X149376898Y-98704774D01*
X149176939Y-98665000D01*
X148973061Y-98665000D01*
X148773102Y-98704774D01*
X148584744Y-98782795D01*
X148415226Y-98896063D01*
X148271063Y-99040226D01*
X148157795Y-99209744D01*
X148079774Y-99398102D01*
X148040000Y-99598061D01*
X137285000Y-99598061D01*
X137285000Y-88490000D01*
X138032815Y-88490000D01*
X138061487Y-88781111D01*
X138146401Y-89061034D01*
X138284294Y-89319014D01*
X138469866Y-89545134D01*
X138695986Y-89730706D01*
X138750791Y-89760000D01*
X138695986Y-89789294D01*
X138469866Y-89974866D01*
X138284294Y-90200986D01*
X138146401Y-90458966D01*
X138061487Y-90738889D01*
X138032815Y-91030000D01*
X138061487Y-91321111D01*
X138146401Y-91601034D01*
X138284294Y-91859014D01*
X138469866Y-92085134D01*
X138695986Y-92270706D01*
X138750791Y-92300000D01*
X138695986Y-92329294D01*
X138469866Y-92514866D01*
X138284294Y-92740986D01*
X138146401Y-92998966D01*
X138061487Y-93278889D01*
X138032815Y-93570000D01*
X138061487Y-93861111D01*
X138146401Y-94141034D01*
X138284294Y-94399014D01*
X138469866Y-94625134D01*
X138695986Y-94810706D01*
X138953966Y-94948599D01*
X139233889Y-95033513D01*
X139452050Y-95055000D01*
X139597950Y-95055000D01*
X139816111Y-95033513D01*
X140096034Y-94948599D01*
X140354014Y-94810706D01*
X140580134Y-94625134D01*
X140765706Y-94399014D01*
X140903599Y-94141034D01*
X140988513Y-93861111D01*
X141017185Y-93570000D01*
X140988513Y-93278889D01*
X140903599Y-92998966D01*
X140765706Y-92740986D01*
X140580134Y-92514866D01*
X140354014Y-92329294D01*
X140299209Y-92300000D01*
X140354014Y-92270706D01*
X140580134Y-92085134D01*
X140765706Y-91859014D01*
X140903599Y-91601034D01*
X140988513Y-91321111D01*
X141017185Y-91030000D01*
X141009115Y-90948061D01*
X149240000Y-90948061D01*
X149240000Y-91151939D01*
X149279774Y-91351898D01*
X149357795Y-91540256D01*
X149471063Y-91709774D01*
X149615226Y-91853937D01*
X149784744Y-91967205D01*
X149809103Y-91977295D01*
X149779774Y-92048102D01*
X149740000Y-92248061D01*
X149740000Y-92451939D01*
X149779774Y-92651898D01*
X149857795Y-92840256D01*
X149971063Y-93009774D01*
X150115226Y-93153937D01*
X150284744Y-93267205D01*
X150473102Y-93345226D01*
X150673061Y-93385000D01*
X150876939Y-93385000D01*
X151076898Y-93345226D01*
X151265256Y-93267205D01*
X151434774Y-93153937D01*
X151578937Y-93009774D01*
X151692205Y-92840256D01*
X151770226Y-92651898D01*
X151810000Y-92451939D01*
X151810000Y-92248061D01*
X151770226Y-92048102D01*
X151692205Y-91859744D01*
X151578937Y-91690226D01*
X151434774Y-91546063D01*
X151265256Y-91432795D01*
X151240897Y-91422705D01*
X151270226Y-91351898D01*
X151310000Y-91151939D01*
X151310000Y-90948061D01*
X151270226Y-90748102D01*
X151192205Y-90559744D01*
X151078937Y-90390226D01*
X150934774Y-90246063D01*
X150765256Y-90132795D01*
X150576898Y-90054774D01*
X150376939Y-90015000D01*
X150173061Y-90015000D01*
X149973102Y-90054774D01*
X149784744Y-90132795D01*
X149615226Y-90246063D01*
X149471063Y-90390226D01*
X149357795Y-90559744D01*
X149279774Y-90748102D01*
X149240000Y-90948061D01*
X141009115Y-90948061D01*
X140988513Y-90738889D01*
X140903599Y-90458966D01*
X140765706Y-90200986D01*
X140580134Y-89974866D01*
X140354014Y-89789294D01*
X140299209Y-89760000D01*
X140354014Y-89730706D01*
X140580134Y-89545134D01*
X140765706Y-89319014D01*
X140903599Y-89061034D01*
X140988513Y-88781111D01*
X141017185Y-88490000D01*
X140988513Y-88198889D01*
X140903599Y-87918966D01*
X140765706Y-87660986D01*
X140673031Y-87548061D01*
X162465000Y-87548061D01*
X162465000Y-87751939D01*
X162504774Y-87951898D01*
X162582795Y-88140256D01*
X162696063Y-88309774D01*
X162840226Y-88453937D01*
X163009744Y-88567205D01*
X163198102Y-88645226D01*
X163398061Y-88685000D01*
X163601939Y-88685000D01*
X163801898Y-88645226D01*
X163915763Y-88598061D01*
X166240000Y-88598061D01*
X166240000Y-88801939D01*
X166279774Y-89001898D01*
X166357795Y-89190256D01*
X166471063Y-89359774D01*
X166615226Y-89503937D01*
X166784744Y-89617205D01*
X166973102Y-89695226D01*
X167173061Y-89735000D01*
X167376939Y-89735000D01*
X167576898Y-89695226D01*
X167765256Y-89617205D01*
X167934774Y-89503937D01*
X168078937Y-89359774D01*
X168192205Y-89190256D01*
X168270226Y-89001898D01*
X168310000Y-88801939D01*
X168310000Y-88598061D01*
X168270226Y-88398102D01*
X168192205Y-88209744D01*
X168078937Y-88040226D01*
X167934774Y-87896063D01*
X167765256Y-87782795D01*
X167576898Y-87704774D01*
X167376939Y-87665000D01*
X167173061Y-87665000D01*
X166973102Y-87704774D01*
X166784744Y-87782795D01*
X166615226Y-87896063D01*
X166471063Y-88040226D01*
X166357795Y-88209744D01*
X166279774Y-88398102D01*
X166240000Y-88598061D01*
X163915763Y-88598061D01*
X163990256Y-88567205D01*
X164159774Y-88453937D01*
X164303937Y-88309774D01*
X164417205Y-88140256D01*
X164495226Y-87951898D01*
X164535000Y-87751939D01*
X164535000Y-87548061D01*
X164495226Y-87348102D01*
X164417205Y-87159744D01*
X164303937Y-86990226D01*
X164159774Y-86846063D01*
X163990256Y-86732795D01*
X163801898Y-86654774D01*
X163601939Y-86615000D01*
X163398061Y-86615000D01*
X163198102Y-86654774D01*
X163009744Y-86732795D01*
X162840226Y-86846063D01*
X162696063Y-86990226D01*
X162582795Y-87159744D01*
X162504774Y-87348102D01*
X162465000Y-87548061D01*
X140673031Y-87548061D01*
X140580134Y-87434866D01*
X140550313Y-87410393D01*
X140619180Y-87389502D01*
X140729494Y-87330537D01*
X140826185Y-87251185D01*
X140905537Y-87154494D01*
X140964502Y-87044180D01*
X141000812Y-86924482D01*
X141013072Y-86800000D01*
X141013072Y-85473061D01*
X151390000Y-85473061D01*
X151390000Y-85676939D01*
X151429774Y-85876898D01*
X151507795Y-86065256D01*
X151621063Y-86234774D01*
X151765226Y-86378937D01*
X151934744Y-86492205D01*
X152123102Y-86570226D01*
X152323061Y-86610000D01*
X152526939Y-86610000D01*
X152726898Y-86570226D01*
X152915256Y-86492205D01*
X153084774Y-86378937D01*
X153228937Y-86234774D01*
X153342205Y-86065256D01*
X153420226Y-85876898D01*
X153460000Y-85676939D01*
X153460000Y-85473061D01*
X153420226Y-85273102D01*
X153342205Y-85084744D01*
X153228937Y-84915226D01*
X153084774Y-84771063D01*
X152915256Y-84657795D01*
X152726898Y-84579774D01*
X152526939Y-84540000D01*
X152323061Y-84540000D01*
X152123102Y-84579774D01*
X151934744Y-84657795D01*
X151765226Y-84771063D01*
X151621063Y-84915226D01*
X151507795Y-85084744D01*
X151429774Y-85273102D01*
X151390000Y-85473061D01*
X141013072Y-85473061D01*
X141013072Y-85100000D01*
X141000812Y-84975518D01*
X140964502Y-84855820D01*
X140905537Y-84745506D01*
X140826185Y-84648815D01*
X140729494Y-84569463D01*
X140619180Y-84510498D01*
X140499482Y-84474188D01*
X140375000Y-84461928D01*
X138675000Y-84461928D01*
X138550518Y-84474188D01*
X138430820Y-84510498D01*
X138320506Y-84569463D01*
X138223815Y-84648815D01*
X138144463Y-84745506D01*
X138085498Y-84855820D01*
X138049188Y-84975518D01*
X138036928Y-85100000D01*
X138036928Y-86800000D01*
X138049188Y-86924482D01*
X138085498Y-87044180D01*
X138144463Y-87154494D01*
X138223815Y-87251185D01*
X138320506Y-87330537D01*
X138430820Y-87389502D01*
X138499687Y-87410393D01*
X138469866Y-87434866D01*
X138284294Y-87660986D01*
X138146401Y-87918966D01*
X138061487Y-88198889D01*
X138032815Y-88490000D01*
X137285000Y-88490000D01*
X137285000Y-83923061D01*
X153100000Y-83923061D01*
X153100000Y-84126939D01*
X153139774Y-84326898D01*
X153217795Y-84515256D01*
X153331063Y-84684774D01*
X153475226Y-84828937D01*
X153644744Y-84942205D01*
X153833102Y-85020226D01*
X154033061Y-85060000D01*
X154236939Y-85060000D01*
X154436898Y-85020226D01*
X154625256Y-84942205D01*
X154794774Y-84828937D01*
X154938937Y-84684774D01*
X155052205Y-84515256D01*
X155080038Y-84448061D01*
X156465000Y-84448061D01*
X156465000Y-84651939D01*
X156504774Y-84851898D01*
X156582795Y-85040256D01*
X156696063Y-85209774D01*
X156840226Y-85353937D01*
X157009744Y-85467205D01*
X157198102Y-85545226D01*
X157398061Y-85585000D01*
X157601939Y-85585000D01*
X157801898Y-85545226D01*
X157990256Y-85467205D01*
X158159774Y-85353937D01*
X158303937Y-85209774D01*
X158417205Y-85040256D01*
X158495226Y-84851898D01*
X158535000Y-84651939D01*
X158535000Y-84448061D01*
X158495226Y-84248102D01*
X158417205Y-84059744D01*
X158303937Y-83890226D01*
X158159774Y-83746063D01*
X157990256Y-83632795D01*
X157801898Y-83554774D01*
X157601939Y-83515000D01*
X157398061Y-83515000D01*
X157198102Y-83554774D01*
X157009744Y-83632795D01*
X156840226Y-83746063D01*
X156696063Y-83890226D01*
X156582795Y-84059744D01*
X156504774Y-84248102D01*
X156465000Y-84448061D01*
X155080038Y-84448061D01*
X155130226Y-84326898D01*
X155130280Y-84326627D01*
X155298061Y-84360000D01*
X155501939Y-84360000D01*
X155701898Y-84320226D01*
X155890256Y-84242205D01*
X156059774Y-84128937D01*
X156203937Y-83984774D01*
X156317205Y-83815256D01*
X156395226Y-83626898D01*
X156435000Y-83426939D01*
X156435000Y-83223061D01*
X156395226Y-83023102D01*
X156317205Y-82834744D01*
X156203937Y-82665226D01*
X156059774Y-82521063D01*
X155890256Y-82407795D01*
X155746047Y-82348061D01*
X161865000Y-82348061D01*
X161865000Y-82551939D01*
X161904774Y-82751898D01*
X161982795Y-82940256D01*
X162096063Y-83109774D01*
X162240226Y-83253937D01*
X162409744Y-83367205D01*
X162598102Y-83445226D01*
X162798061Y-83485000D01*
X162915000Y-83485000D01*
X162915000Y-83676939D01*
X162954774Y-83876898D01*
X163032795Y-84065256D01*
X163146063Y-84234774D01*
X163290226Y-84378937D01*
X163459744Y-84492205D01*
X163648102Y-84570226D01*
X163848061Y-84610000D01*
X164051939Y-84610000D01*
X164251898Y-84570226D01*
X164440256Y-84492205D01*
X164609774Y-84378937D01*
X164615650Y-84373061D01*
X166415000Y-84373061D01*
X166415000Y-84576939D01*
X166454774Y-84776898D01*
X166532795Y-84965256D01*
X166646063Y-85134774D01*
X166736289Y-85225000D01*
X166646063Y-85315226D01*
X166532795Y-85484744D01*
X166454774Y-85673102D01*
X166415000Y-85873061D01*
X166415000Y-86076939D01*
X166454774Y-86276898D01*
X166532795Y-86465256D01*
X166646063Y-86634774D01*
X166790226Y-86778937D01*
X166959744Y-86892205D01*
X167148102Y-86970226D01*
X167348061Y-87010000D01*
X167551939Y-87010000D01*
X167751898Y-86970226D01*
X167940256Y-86892205D01*
X168109774Y-86778937D01*
X168253937Y-86634774D01*
X168367205Y-86465256D01*
X168445226Y-86276898D01*
X168480798Y-86098061D01*
X170740000Y-86098061D01*
X170740000Y-86301939D01*
X170779774Y-86501898D01*
X170857795Y-86690256D01*
X170971063Y-86859774D01*
X171115226Y-87003937D01*
X171284744Y-87117205D01*
X171473102Y-87195226D01*
X171673061Y-87235000D01*
X171876939Y-87235000D01*
X172076898Y-87195226D01*
X172265256Y-87117205D01*
X172434774Y-87003937D01*
X172578937Y-86859774D01*
X172692205Y-86690256D01*
X172770226Y-86501898D01*
X172810000Y-86301939D01*
X172810000Y-86098061D01*
X172770226Y-85898102D01*
X172692205Y-85709744D01*
X172578937Y-85540226D01*
X172434774Y-85396063D01*
X172265256Y-85282795D01*
X172076898Y-85204774D01*
X171876939Y-85165000D01*
X171673061Y-85165000D01*
X171473102Y-85204774D01*
X171284744Y-85282795D01*
X171115226Y-85396063D01*
X170971063Y-85540226D01*
X170857795Y-85709744D01*
X170779774Y-85898102D01*
X170740000Y-86098061D01*
X168480798Y-86098061D01*
X168485000Y-86076939D01*
X168485000Y-85873061D01*
X168445226Y-85673102D01*
X168367205Y-85484744D01*
X168253937Y-85315226D01*
X168163711Y-85225000D01*
X168253937Y-85134774D01*
X168367205Y-84965256D01*
X168445226Y-84776898D01*
X168485000Y-84576939D01*
X168485000Y-84373061D01*
X168445226Y-84173102D01*
X168367205Y-83984744D01*
X168253937Y-83815226D01*
X168109774Y-83671063D01*
X167940256Y-83557795D01*
X167751898Y-83479774D01*
X167551939Y-83440000D01*
X167348061Y-83440000D01*
X167148102Y-83479774D01*
X166959744Y-83557795D01*
X166790226Y-83671063D01*
X166646063Y-83815226D01*
X166532795Y-83984744D01*
X166454774Y-84173102D01*
X166415000Y-84373061D01*
X164615650Y-84373061D01*
X164753937Y-84234774D01*
X164867205Y-84065256D01*
X164945226Y-83876898D01*
X164985000Y-83676939D01*
X164985000Y-83473061D01*
X164945226Y-83273102D01*
X164867205Y-83084744D01*
X164753937Y-82915226D01*
X164711772Y-82873061D01*
X171565000Y-82873061D01*
X171565000Y-83076939D01*
X171604774Y-83276898D01*
X171682795Y-83465256D01*
X171796063Y-83634774D01*
X171940226Y-83778937D01*
X172109744Y-83892205D01*
X172298102Y-83970226D01*
X172498061Y-84010000D01*
X172701939Y-84010000D01*
X172901898Y-83970226D01*
X173090256Y-83892205D01*
X173259774Y-83778937D01*
X173403937Y-83634774D01*
X173517205Y-83465256D01*
X173595226Y-83276898D01*
X173635000Y-83076939D01*
X173635000Y-82873061D01*
X173595226Y-82673102D01*
X173517205Y-82484744D01*
X173403937Y-82315226D01*
X173259774Y-82171063D01*
X173090256Y-82057795D01*
X172901898Y-81979774D01*
X172701939Y-81940000D01*
X172498061Y-81940000D01*
X172298102Y-81979774D01*
X172109744Y-82057795D01*
X171940226Y-82171063D01*
X171796063Y-82315226D01*
X171682795Y-82484744D01*
X171604774Y-82673102D01*
X171565000Y-82873061D01*
X164711772Y-82873061D01*
X164609774Y-82771063D01*
X164440256Y-82657795D01*
X164251898Y-82579774D01*
X164051939Y-82540000D01*
X163935000Y-82540000D01*
X163935000Y-82348061D01*
X163895226Y-82148102D01*
X163817205Y-81959744D01*
X163703937Y-81790226D01*
X163559774Y-81646063D01*
X163390256Y-81532795D01*
X163201898Y-81454774D01*
X163001939Y-81415000D01*
X162798061Y-81415000D01*
X162598102Y-81454774D01*
X162409744Y-81532795D01*
X162240226Y-81646063D01*
X162096063Y-81790226D01*
X161982795Y-81959744D01*
X161904774Y-82148102D01*
X161865000Y-82348061D01*
X155746047Y-82348061D01*
X155701898Y-82329774D01*
X155501939Y-82290000D01*
X155298061Y-82290000D01*
X155098102Y-82329774D01*
X154909744Y-82407795D01*
X154740226Y-82521063D01*
X154596063Y-82665226D01*
X154482795Y-82834744D01*
X154404774Y-83023102D01*
X154404720Y-83023373D01*
X154236939Y-82990000D01*
X154033061Y-82990000D01*
X153833102Y-83029774D01*
X153644744Y-83107795D01*
X153475226Y-83221063D01*
X153331063Y-83365226D01*
X153217795Y-83534744D01*
X153139774Y-83723102D01*
X153100000Y-83923061D01*
X137285000Y-83923061D01*
X137285000Y-80098061D01*
X164515000Y-80098061D01*
X164515000Y-80301939D01*
X164554774Y-80501898D01*
X164632795Y-80690256D01*
X164746063Y-80859774D01*
X164890226Y-81003937D01*
X165059744Y-81117205D01*
X165248102Y-81195226D01*
X165448061Y-81235000D01*
X165651939Y-81235000D01*
X165851898Y-81195226D01*
X166040256Y-81117205D01*
X166209774Y-81003937D01*
X166353937Y-80859774D01*
X166467205Y-80690256D01*
X166545226Y-80501898D01*
X166585000Y-80301939D01*
X166585000Y-80098061D01*
X166545226Y-79898102D01*
X166467205Y-79709744D01*
X166353937Y-79540226D01*
X166209774Y-79396063D01*
X166040256Y-79282795D01*
X165851898Y-79204774D01*
X165651939Y-79165000D01*
X165448061Y-79165000D01*
X165248102Y-79204774D01*
X165059744Y-79282795D01*
X164890226Y-79396063D01*
X164746063Y-79540226D01*
X164632795Y-79709744D01*
X164554774Y-79898102D01*
X164515000Y-80098061D01*
X137285000Y-80098061D01*
X137285000Y-78898061D01*
X148990000Y-78898061D01*
X148990000Y-79101939D01*
X149029774Y-79301898D01*
X149107795Y-79490256D01*
X149221063Y-79659774D01*
X149365226Y-79803937D01*
X149534744Y-79917205D01*
X149723102Y-79995226D01*
X149923061Y-80035000D01*
X150126939Y-80035000D01*
X150326898Y-79995226D01*
X150515256Y-79917205D01*
X150684774Y-79803937D01*
X150828937Y-79659774D01*
X150942205Y-79490256D01*
X151020226Y-79301898D01*
X151060000Y-79101939D01*
X151060000Y-78898061D01*
X151020226Y-78698102D01*
X150942205Y-78509744D01*
X150828937Y-78340226D01*
X150684774Y-78196063D01*
X150515256Y-78082795D01*
X150326898Y-78004774D01*
X150126939Y-77965000D01*
X149923061Y-77965000D01*
X149723102Y-78004774D01*
X149534744Y-78082795D01*
X149365226Y-78196063D01*
X149221063Y-78340226D01*
X149107795Y-78509744D01*
X149029774Y-78698102D01*
X148990000Y-78898061D01*
X137285000Y-78898061D01*
X137285000Y-75476316D01*
X137572912Y-75907207D01*
X137967793Y-76302088D01*
X138432124Y-76612344D01*
X138948061Y-76826052D01*
X139495777Y-76935000D01*
X140054223Y-76935000D01*
X140601939Y-76826052D01*
X141117876Y-76612344D01*
X141582207Y-76302088D01*
X141977088Y-75907207D01*
X142150243Y-75648061D01*
X151715000Y-75648061D01*
X151715000Y-75851939D01*
X151754774Y-76051898D01*
X151832795Y-76240256D01*
X151946063Y-76409774D01*
X152090226Y-76553937D01*
X152259744Y-76667205D01*
X152448102Y-76745226D01*
X152648061Y-76785000D01*
X152851939Y-76785000D01*
X153051898Y-76745226D01*
X153240256Y-76667205D01*
X153409774Y-76553937D01*
X153440650Y-76523061D01*
X159915000Y-76523061D01*
X159915000Y-76726939D01*
X159954774Y-76926898D01*
X160032795Y-77115256D01*
X160146063Y-77284774D01*
X160290226Y-77428937D01*
X160459744Y-77542205D01*
X160648102Y-77620226D01*
X160848061Y-77660000D01*
X161051939Y-77660000D01*
X161251898Y-77620226D01*
X161440256Y-77542205D01*
X161609774Y-77428937D01*
X161753937Y-77284774D01*
X161867205Y-77115256D01*
X161945226Y-76926898D01*
X161958402Y-76860657D01*
X162032795Y-77040256D01*
X162146063Y-77209774D01*
X162290226Y-77353937D01*
X162459744Y-77467205D01*
X162648102Y-77545226D01*
X162848061Y-77585000D01*
X163051939Y-77585000D01*
X163251898Y-77545226D01*
X163440256Y-77467205D01*
X163609774Y-77353937D01*
X163753937Y-77209774D01*
X163867205Y-77040256D01*
X163945226Y-76851898D01*
X163985000Y-76651939D01*
X163985000Y-76448061D01*
X163945226Y-76248102D01*
X163867205Y-76059744D01*
X163753937Y-75890226D01*
X163609774Y-75746063D01*
X163440256Y-75632795D01*
X163251898Y-75554774D01*
X163051939Y-75515000D01*
X162848061Y-75515000D01*
X162648102Y-75554774D01*
X162459744Y-75632795D01*
X162290226Y-75746063D01*
X162146063Y-75890226D01*
X162032795Y-76059744D01*
X161954774Y-76248102D01*
X161941598Y-76314343D01*
X161867205Y-76134744D01*
X161753937Y-75965226D01*
X161609774Y-75821063D01*
X161440256Y-75707795D01*
X161251898Y-75629774D01*
X161051939Y-75590000D01*
X160848061Y-75590000D01*
X160648102Y-75629774D01*
X160459744Y-75707795D01*
X160290226Y-75821063D01*
X160146063Y-75965226D01*
X160032795Y-76134744D01*
X159954774Y-76323102D01*
X159915000Y-76523061D01*
X153440650Y-76523061D01*
X153553937Y-76409774D01*
X153667205Y-76240256D01*
X153745226Y-76051898D01*
X153785000Y-75851939D01*
X153785000Y-75648061D01*
X153750191Y-75473061D01*
X164065000Y-75473061D01*
X164065000Y-75676939D01*
X164104774Y-75876898D01*
X164182795Y-76065256D01*
X164296063Y-76234774D01*
X164440226Y-76378937D01*
X164609744Y-76492205D01*
X164798102Y-76570226D01*
X164998061Y-76610000D01*
X165201939Y-76610000D01*
X165401898Y-76570226D01*
X165590256Y-76492205D01*
X165759774Y-76378937D01*
X165903937Y-76234774D01*
X166017205Y-76065256D01*
X166095226Y-75876898D01*
X166135000Y-75676939D01*
X166135000Y-75473061D01*
X166095226Y-75273102D01*
X166017205Y-75084744D01*
X165903937Y-74915226D01*
X165759774Y-74771063D01*
X165590256Y-74657795D01*
X165401898Y-74579774D01*
X165201939Y-74540000D01*
X164998061Y-74540000D01*
X164798102Y-74579774D01*
X164609744Y-74657795D01*
X164440226Y-74771063D01*
X164296063Y-74915226D01*
X164182795Y-75084744D01*
X164104774Y-75273102D01*
X164065000Y-75473061D01*
X153750191Y-75473061D01*
X153745226Y-75448102D01*
X153667205Y-75259744D01*
X153553937Y-75090226D01*
X153409774Y-74946063D01*
X153240256Y-74832795D01*
X153051898Y-74754774D01*
X152851939Y-74715000D01*
X152648061Y-74715000D01*
X152448102Y-74754774D01*
X152259744Y-74832795D01*
X152090226Y-74946063D01*
X151946063Y-75090226D01*
X151832795Y-75259744D01*
X151754774Y-75448102D01*
X151715000Y-75648061D01*
X142150243Y-75648061D01*
X142287344Y-75442876D01*
X142501052Y-74926939D01*
X142610000Y-74379223D01*
X142610000Y-73820777D01*
X142501052Y-73273061D01*
X142287344Y-72757124D01*
X141977088Y-72292793D01*
X141594295Y-71910000D01*
X158710485Y-71910000D01*
X158534744Y-71982795D01*
M02*
