M48
; DRILL file {KiCad (5.1.0)-1} date 11/15/2019 11:55:25 PM
; FORMAT={-:-/ absolute / inch / decimal}
; #@! TF.CreationDate,2019-11-15T23:55:25-06:00
; #@! TF.GenerationSoftware,Kicad,Pcbnew,(5.1.0)-1
; #@! TF.FileFunction,Plated,1,4,PTH
FMAT,2
INCH
T1C0.0157
T2C0.0236
T3C0.0315
T4C0.0335
T5C0.0394
T6C0.0866
%
G90
G05
T1
X5.6299Y-4.1073
X5.69Y-3.0335
X5.6969Y-4.127
X5.7175Y-3.1969
X5.7825Y-3.7441
X5.8071Y-4.126
X5.8691Y-3.9252
X5.9065Y-2.9783
X5.9065Y-3.1102
X5.9075Y-4.1801
X5.9163Y-3.5846
X5.9173Y-4.0236
X5.936Y-3.6358
X5.9951Y-3.2116
X5.997Y-3.8652
X6.001Y-3.3691
X6.0039Y-2.9291
X6.0138Y-2.9823
X6.0683Y-3.3081
X6.1181Y-3.2805
X6.123Y-2.8602
X6.1526Y-4.0837
X6.1919Y-2.8957
X6.2008Y-3.3287
X6.2411Y-4.0955
X6.2608Y-2.8701
X6.3209Y-3.815
X6.3366Y-3.0167
X6.4134Y-3.2461
X6.4154Y-3.0138
X6.437Y-3.4508
X6.4478Y-3.6988
X6.4488Y-3.8307
X6.4547Y-3.2904
X6.4606Y-2.8652
X6.4843Y-3.065
X6.4843Y-3.5394
X6.4872Y-3.4498
X6.4951Y-3.8356
X6.5Y-2.9754
X6.5118Y-4.062
X6.5177Y-3.1575
X6.5856Y-3.4921
X6.5925Y-3.3258
X6.5925Y-3.3848
X6.7628Y-3.3937
X6.7687Y-3.3465
X6.7953Y-3.2667
X6.8484Y-3.6791
T3
X6.6673Y-3.6053
X6.6673Y-3.6841
X6.6673Y-3.7628
X6.6673Y-3.8415
X6.6673Y-3.9203
X6.6673Y-3.999
X6.7461Y-3.6053
X6.7461Y-3.6841
X6.7461Y-3.7628
X6.7461Y-3.8415
X6.7461Y-3.9203
X6.7461Y-3.999
T4
X6.064Y-4.2106
X6.2608Y-4.2106
T5
X5.4931Y-3.3839
X5.4931Y-3.4839
X5.4931Y-3.5839
X5.4931Y-3.6839
T6
X6.8278Y-2.9173
X5.503Y-4.2618
X6.8278Y-4.2618
X5.503Y-2.9173
T2
G00X6.0246Y-4.3307
M15
G01X6.0246Y-4.3031
M16
G05
G00X6.3002Y-4.3031
M15
G01X6.3002Y-4.3307
M16
G05
T0
M30
