G04 #@! TF.GenerationSoftware,KiCad,Pcbnew,(5.1.0)-1*
G04 #@! TF.CreationDate,2020-09-23T23:54:54-05:00*
G04 #@! TF.ProjectId,low_cost_multispectral_sensor,6c6f775f-636f-4737-945f-6d756c746973,rev?*
G04 #@! TF.SameCoordinates,Original*
G04 #@! TF.FileFunction,Legend,Bot*
G04 #@! TF.FilePolarity,Positive*
%FSLAX46Y46*%
G04 Gerber Fmt 4.6, Leading zero omitted, Abs format (unit mm)*
G04 Created by KiCad (PCBNEW (5.1.0)-1) date 2020-09-23 23:54:54*
%MOMM*%
%LPD*%
G04 APERTURE LIST*
%ADD10C,0.100000*%
%ADD11C,0.250000*%
G04 APERTURE END LIST*
D10*
X171050000Y-103069047D02*
X171026190Y-103021428D01*
X171026190Y-102950000D01*
X171050000Y-102878571D01*
X171097619Y-102830952D01*
X171145238Y-102807142D01*
X171240476Y-102783333D01*
X171311904Y-102783333D01*
X171407142Y-102807142D01*
X171454761Y-102830952D01*
X171502380Y-102878571D01*
X171526190Y-102950000D01*
X171526190Y-102997619D01*
X171502380Y-103069047D01*
X171478571Y-103092857D01*
X171311904Y-103092857D01*
X171311904Y-102997619D01*
X171526190Y-103307142D02*
X171026190Y-103307142D01*
X171526190Y-103592857D01*
X171026190Y-103592857D01*
X171526190Y-103830952D02*
X171026190Y-103830952D01*
X171026190Y-103950000D01*
X171050000Y-104021428D01*
X171097619Y-104069047D01*
X171145238Y-104092857D01*
X171240476Y-104116666D01*
X171311904Y-104116666D01*
X171407142Y-104092857D01*
X171454761Y-104069047D01*
X171502380Y-104021428D01*
X171526190Y-103950000D01*
X171526190Y-103830952D01*
X173000000Y-103019047D02*
X172976190Y-102971428D01*
X172976190Y-102900000D01*
X173000000Y-102828571D01*
X173047619Y-102780952D01*
X173095238Y-102757142D01*
X173190476Y-102733333D01*
X173261904Y-102733333D01*
X173357142Y-102757142D01*
X173404761Y-102780952D01*
X173452380Y-102828571D01*
X173476190Y-102900000D01*
X173476190Y-102947619D01*
X173452380Y-103019047D01*
X173428571Y-103042857D01*
X173261904Y-103042857D01*
X173261904Y-102947619D01*
X173476190Y-103257142D02*
X172976190Y-103257142D01*
X173476190Y-103542857D01*
X172976190Y-103542857D01*
X173476190Y-103780952D02*
X172976190Y-103780952D01*
X172976190Y-103900000D01*
X173000000Y-103971428D01*
X173047619Y-104019047D01*
X173095238Y-104042857D01*
X173190476Y-104066666D01*
X173261904Y-104066666D01*
X173357142Y-104042857D01*
X173404761Y-104019047D01*
X173452380Y-103971428D01*
X173476190Y-103900000D01*
X173476190Y-103780952D01*
X167076190Y-102733333D02*
X167576190Y-102900000D01*
X167076190Y-103066666D01*
X167528571Y-103519047D02*
X167552380Y-103495238D01*
X167576190Y-103423809D01*
X167576190Y-103376190D01*
X167552380Y-103304761D01*
X167504761Y-103257142D01*
X167457142Y-103233333D01*
X167361904Y-103209523D01*
X167290476Y-103209523D01*
X167195238Y-103233333D01*
X167147619Y-103257142D01*
X167100000Y-103304761D01*
X167076190Y-103376190D01*
X167076190Y-103423809D01*
X167100000Y-103495238D01*
X167123809Y-103519047D01*
X167528571Y-104019047D02*
X167552380Y-103995238D01*
X167576190Y-103923809D01*
X167576190Y-103876190D01*
X167552380Y-103804761D01*
X167504761Y-103757142D01*
X167457142Y-103733333D01*
X167361904Y-103709523D01*
X167290476Y-103709523D01*
X167195238Y-103733333D01*
X167147619Y-103757142D01*
X167100000Y-103804761D01*
X167076190Y-103876190D01*
X167076190Y-103923809D01*
X167100000Y-103995238D01*
X167123809Y-104019047D01*
X173576190Y-95914285D02*
X173076190Y-95914285D01*
X173433333Y-96080952D01*
X173076190Y-96247619D01*
X173576190Y-96247619D01*
X173576190Y-96485714D02*
X173076190Y-96485714D01*
X173552380Y-96700000D02*
X173576190Y-96771428D01*
X173576190Y-96890476D01*
X173552380Y-96938095D01*
X173528571Y-96961904D01*
X173480952Y-96985714D01*
X173433333Y-96985714D01*
X173385714Y-96961904D01*
X173361904Y-96938095D01*
X173338095Y-96890476D01*
X173314285Y-96795238D01*
X173290476Y-96747619D01*
X173266666Y-96723809D01*
X173219047Y-96700000D01*
X173171428Y-96700000D01*
X173123809Y-96723809D01*
X173100000Y-96747619D01*
X173076190Y-96795238D01*
X173076190Y-96914285D01*
X173100000Y-96985714D01*
X173076190Y-97295238D02*
X173076190Y-97390476D01*
X173100000Y-97438095D01*
X173147619Y-97485714D01*
X173242857Y-97509523D01*
X173409523Y-97509523D01*
X173504761Y-97485714D01*
X173552380Y-97438095D01*
X173576190Y-97390476D01*
X173576190Y-97295238D01*
X173552380Y-97247619D01*
X173504761Y-97200000D01*
X173409523Y-97176190D01*
X173242857Y-97176190D01*
X173147619Y-97200000D01*
X173100000Y-97247619D01*
X173076190Y-97295238D01*
X169452380Y-96107142D02*
X169476190Y-96178571D01*
X169476190Y-96297619D01*
X169452380Y-96345238D01*
X169428571Y-96369047D01*
X169380952Y-96392857D01*
X169333333Y-96392857D01*
X169285714Y-96369047D01*
X169261904Y-96345238D01*
X169238095Y-96297619D01*
X169214285Y-96202380D01*
X169190476Y-96154761D01*
X169166666Y-96130952D01*
X169119047Y-96107142D01*
X169071428Y-96107142D01*
X169023809Y-96130952D01*
X169000000Y-96154761D01*
X168976190Y-96202380D01*
X168976190Y-96321428D01*
X169000000Y-96392857D01*
X169428571Y-96892857D02*
X169452380Y-96869047D01*
X169476190Y-96797619D01*
X169476190Y-96750000D01*
X169452380Y-96678571D01*
X169404761Y-96630952D01*
X169357142Y-96607142D01*
X169261904Y-96583333D01*
X169190476Y-96583333D01*
X169095238Y-96607142D01*
X169047619Y-96630952D01*
X169000000Y-96678571D01*
X168976190Y-96750000D01*
X168976190Y-96797619D01*
X169000000Y-96869047D01*
X169023809Y-96892857D01*
X169476190Y-97107142D02*
X168976190Y-97107142D01*
X169476190Y-97392857D02*
X169190476Y-97178571D01*
X168976190Y-97392857D02*
X169261904Y-97107142D01*
X171526190Y-95864285D02*
X171026190Y-95864285D01*
X171383333Y-96030952D01*
X171026190Y-96197619D01*
X171526190Y-96197619D01*
X171026190Y-96530952D02*
X171026190Y-96626190D01*
X171050000Y-96673809D01*
X171097619Y-96721428D01*
X171192857Y-96745238D01*
X171359523Y-96745238D01*
X171454761Y-96721428D01*
X171502380Y-96673809D01*
X171526190Y-96626190D01*
X171526190Y-96530952D01*
X171502380Y-96483333D01*
X171454761Y-96435714D01*
X171359523Y-96411904D01*
X171192857Y-96411904D01*
X171097619Y-96435714D01*
X171050000Y-96483333D01*
X171026190Y-96530952D01*
X171502380Y-96935714D02*
X171526190Y-97007142D01*
X171526190Y-97126190D01*
X171502380Y-97173809D01*
X171478571Y-97197619D01*
X171430952Y-97221428D01*
X171383333Y-97221428D01*
X171335714Y-97197619D01*
X171311904Y-97173809D01*
X171288095Y-97126190D01*
X171264285Y-97030952D01*
X171240476Y-96983333D01*
X171216666Y-96959523D01*
X171169047Y-96935714D01*
X171121428Y-96935714D01*
X171073809Y-96959523D01*
X171050000Y-96983333D01*
X171026190Y-97030952D01*
X171026190Y-97150000D01*
X171050000Y-97221428D01*
X171526190Y-97435714D02*
X171026190Y-97435714D01*
X167428571Y-96966666D02*
X167452380Y-96942857D01*
X167476190Y-96871428D01*
X167476190Y-96823809D01*
X167452380Y-96752380D01*
X167404761Y-96704761D01*
X167357142Y-96680952D01*
X167261904Y-96657142D01*
X167190476Y-96657142D01*
X167095238Y-96680952D01*
X167047619Y-96704761D01*
X167000000Y-96752380D01*
X166976190Y-96823809D01*
X166976190Y-96871428D01*
X167000000Y-96942857D01*
X167023809Y-96966666D01*
X167452380Y-97157142D02*
X167476190Y-97228571D01*
X167476190Y-97347619D01*
X167452380Y-97395238D01*
X167428571Y-97419047D01*
X167380952Y-97442857D01*
X167333333Y-97442857D01*
X167285714Y-97419047D01*
X167261904Y-97395238D01*
X167238095Y-97347619D01*
X167214285Y-97252380D01*
X167190476Y-97204761D01*
X167166666Y-97180952D01*
X167119047Y-97157142D01*
X167071428Y-97157142D01*
X167023809Y-97180952D01*
X167000000Y-97204761D01*
X166976190Y-97252380D01*
X166976190Y-97371428D01*
X167000000Y-97442857D01*
X169333333Y-102811904D02*
X169333333Y-103050000D01*
X169476190Y-102764285D02*
X168976190Y-102930952D01*
X169476190Y-103097619D01*
X169523809Y-103145238D02*
X169523809Y-103526190D01*
X169476190Y-103930952D02*
X169238095Y-103764285D01*
X169476190Y-103645238D02*
X168976190Y-103645238D01*
X168976190Y-103835714D01*
X169000000Y-103883333D01*
X169023809Y-103907142D01*
X169071428Y-103930952D01*
X169142857Y-103930952D01*
X169190476Y-103907142D01*
X169214285Y-103883333D01*
X169238095Y-103835714D01*
X169238095Y-103645238D01*
X169452380Y-104121428D02*
X169476190Y-104192857D01*
X169476190Y-104311904D01*
X169452380Y-104359523D01*
X169428571Y-104383333D01*
X169380952Y-104407142D01*
X169333333Y-104407142D01*
X169285714Y-104383333D01*
X169261904Y-104359523D01*
X169238095Y-104311904D01*
X169214285Y-104216666D01*
X169190476Y-104169047D01*
X169166666Y-104145238D01*
X169119047Y-104121428D01*
X169071428Y-104121428D01*
X169023809Y-104145238D01*
X169000000Y-104169047D01*
X168976190Y-104216666D01*
X168976190Y-104335714D01*
X169000000Y-104407142D01*
X168976190Y-104550000D02*
X168976190Y-104835714D01*
X169476190Y-104692857D02*
X168976190Y-104692857D01*
D11*
X143489285Y-92975000D02*
X143584523Y-92927380D01*
X143727380Y-92927380D01*
X143870238Y-92975000D01*
X143965476Y-93070238D01*
X144013095Y-93165476D01*
X144060714Y-93355952D01*
X144060714Y-93498809D01*
X144013095Y-93689285D01*
X143965476Y-93784523D01*
X143870238Y-93879761D01*
X143727380Y-93927380D01*
X143632142Y-93927380D01*
X143489285Y-93879761D01*
X143441666Y-93832142D01*
X143441666Y-93498809D01*
X143632142Y-93498809D01*
X143013095Y-93927380D02*
X143013095Y-92927380D01*
X142632142Y-92927380D01*
X142536904Y-92975000D01*
X142489285Y-93022619D01*
X142441666Y-93117857D01*
X142441666Y-93260714D01*
X142489285Y-93355952D01*
X142536904Y-93403571D01*
X142632142Y-93451190D01*
X143013095Y-93451190D01*
X142108333Y-92927380D02*
X141489285Y-92927380D01*
X141822619Y-93308333D01*
X141679761Y-93308333D01*
X141584523Y-93355952D01*
X141536904Y-93403571D01*
X141489285Y-93498809D01*
X141489285Y-93736904D01*
X141536904Y-93832142D01*
X141584523Y-93879761D01*
X141679761Y-93927380D01*
X141965476Y-93927380D01*
X142060714Y-93879761D01*
X142108333Y-93832142D01*
X143514285Y-90500000D02*
X143609523Y-90452380D01*
X143752380Y-90452380D01*
X143895238Y-90500000D01*
X143990476Y-90595238D01*
X144038095Y-90690476D01*
X144085714Y-90880952D01*
X144085714Y-91023809D01*
X144038095Y-91214285D01*
X143990476Y-91309523D01*
X143895238Y-91404761D01*
X143752380Y-91452380D01*
X143657142Y-91452380D01*
X143514285Y-91404761D01*
X143466666Y-91357142D01*
X143466666Y-91023809D01*
X143657142Y-91023809D01*
X143038095Y-91452380D02*
X143038095Y-90452380D01*
X142657142Y-90452380D01*
X142561904Y-90500000D01*
X142514285Y-90547619D01*
X142466666Y-90642857D01*
X142466666Y-90785714D01*
X142514285Y-90880952D01*
X142561904Y-90928571D01*
X142657142Y-90976190D01*
X143038095Y-90976190D01*
X142085714Y-90547619D02*
X142038095Y-90500000D01*
X141942857Y-90452380D01*
X141704761Y-90452380D01*
X141609523Y-90500000D01*
X141561904Y-90547619D01*
X141514285Y-90642857D01*
X141514285Y-90738095D01*
X141561904Y-90880952D01*
X142133333Y-91452380D01*
X141514285Y-91452380D01*
M02*
