G04 #@! TF.GenerationSoftware,KiCad,Pcbnew,(5.1.0)-1*
G04 #@! TF.CreationDate,2019-11-13T23:10:21-06:00*
G04 #@! TF.ProjectId,low_cost_multispectral_sensor,6c6f775f-636f-4737-945f-6d756c746973,rev?*
G04 #@! TF.SameCoordinates,Original*
G04 #@! TF.FileFunction,Soldermask,Bot*
G04 #@! TF.FilePolarity,Negative*
%FSLAX46Y46*%
G04 Gerber Fmt 4.6, Leading zero omitted, Abs format (unit mm)*
G04 Created by KiCad (PCBNEW (5.1.0)-1) date 2019-11-13 23:10:21*
%MOMM*%
%LPD*%
G04 APERTURE LIST*
%ADD10C,0.100000*%
G04 APERTURE END LIST*
D10*
G36*
X187125880Y-134759776D02*
G01*
X187506593Y-134835504D01*
X187916249Y-135005189D01*
X188284929Y-135251534D01*
X188598466Y-135565071D01*
X188844811Y-135933751D01*
X189014496Y-136343407D01*
X189079933Y-136672383D01*
X189098958Y-136768027D01*
X189101000Y-136778296D01*
X189101000Y-137221704D01*
X189014496Y-137656593D01*
X188844811Y-138066249D01*
X188598466Y-138434929D01*
X188284929Y-138748466D01*
X187916249Y-138994811D01*
X187506593Y-139164496D01*
X187125880Y-139240224D01*
X187071705Y-139251000D01*
X186628295Y-139251000D01*
X186574120Y-139240224D01*
X186193407Y-139164496D01*
X185783751Y-138994811D01*
X185415071Y-138748466D01*
X185101534Y-138434929D01*
X184855189Y-138066249D01*
X184685504Y-137656593D01*
X184599000Y-137221704D01*
X184599000Y-136778296D01*
X184601043Y-136768027D01*
X184620067Y-136672383D01*
X184685504Y-136343407D01*
X184855189Y-135933751D01*
X185101534Y-135565071D01*
X185415071Y-135251534D01*
X185783751Y-135005189D01*
X186193407Y-134835504D01*
X186574120Y-134759776D01*
X186628295Y-134749000D01*
X187071705Y-134749000D01*
X187125880Y-134759776D01*
X187125880Y-134759776D01*
G37*
G36*
X153475880Y-134759776D02*
G01*
X153856593Y-134835504D01*
X154266249Y-135005189D01*
X154634929Y-135251534D01*
X154948466Y-135565071D01*
X155194811Y-135933751D01*
X155364496Y-136343407D01*
X155429933Y-136672383D01*
X155448958Y-136768027D01*
X155451000Y-136778296D01*
X155451000Y-137221704D01*
X155364496Y-137656593D01*
X155194811Y-138066249D01*
X154948466Y-138434929D01*
X154634929Y-138748466D01*
X154266249Y-138994811D01*
X153856593Y-139164496D01*
X153475880Y-139240224D01*
X153421705Y-139251000D01*
X152978295Y-139251000D01*
X152924120Y-139240224D01*
X152543407Y-139164496D01*
X152133751Y-138994811D01*
X151765071Y-138748466D01*
X151451534Y-138434929D01*
X151205189Y-138066249D01*
X151035504Y-137656593D01*
X150949000Y-137221704D01*
X150949000Y-136778296D01*
X150951043Y-136768027D01*
X150970067Y-136672383D01*
X151035504Y-136343407D01*
X151205189Y-135933751D01*
X151451534Y-135565071D01*
X151765071Y-135251534D01*
X152133751Y-135005189D01*
X152543407Y-134835504D01*
X152924120Y-134759776D01*
X152978295Y-134749000D01*
X153421705Y-134749000D01*
X153475880Y-134759776D01*
X153475880Y-134759776D01*
G37*
G36*
X166577618Y-136158420D02*
G01*
X166668404Y-136185960D01*
X166700336Y-136195646D01*
X166813425Y-136256094D01*
X166912554Y-136337446D01*
X166993906Y-136436575D01*
X167054354Y-136549664D01*
X167064040Y-136581596D01*
X167091580Y-136672382D01*
X167101000Y-136768027D01*
X167101000Y-137531973D01*
X167091580Y-137627618D01*
X167064040Y-137718404D01*
X167054354Y-137750336D01*
X166993906Y-137863425D01*
X166912554Y-137962553D01*
X166813424Y-138043906D01*
X166700335Y-138104354D01*
X166668403Y-138114040D01*
X166577617Y-138141580D01*
X166450000Y-138154149D01*
X166322382Y-138141580D01*
X166231596Y-138114040D01*
X166199664Y-138104354D01*
X166086575Y-138043906D01*
X165987447Y-137962554D01*
X165906094Y-137863424D01*
X165845646Y-137750335D01*
X165817210Y-137656593D01*
X165808420Y-137627617D01*
X165799000Y-137531972D01*
X165799000Y-136768027D01*
X165808420Y-136672382D01*
X165845645Y-136549668D01*
X165870608Y-136502966D01*
X165906095Y-136436575D01*
X165987447Y-136337446D01*
X166086576Y-136256094D01*
X166199665Y-136195646D01*
X166231597Y-136185960D01*
X166322383Y-136158420D01*
X166450000Y-136145851D01*
X166577618Y-136158420D01*
X166577618Y-136158420D01*
G37*
G36*
X173577617Y-136158420D02*
G01*
X173668403Y-136185960D01*
X173700335Y-136195646D01*
X173813424Y-136256094D01*
X173912554Y-136337447D01*
X173993906Y-136436575D01*
X174054354Y-136549664D01*
X174064040Y-136581596D01*
X174091580Y-136672382D01*
X174101000Y-136768027D01*
X174101000Y-137531973D01*
X174091580Y-137627618D01*
X174064040Y-137718404D01*
X174054354Y-137750336D01*
X173993906Y-137863425D01*
X173912554Y-137962554D01*
X173813425Y-138043906D01*
X173700336Y-138104354D01*
X173668404Y-138114040D01*
X173577618Y-138141580D01*
X173450000Y-138154149D01*
X173322383Y-138141580D01*
X173231597Y-138114040D01*
X173199665Y-138104354D01*
X173086576Y-138043906D01*
X172987447Y-137962554D01*
X172906095Y-137863425D01*
X172845648Y-137750337D01*
X172845645Y-137750332D01*
X172808420Y-137627618D01*
X172799000Y-137531973D01*
X172799000Y-136768028D01*
X172808420Y-136672383D01*
X172845645Y-136549669D01*
X172845646Y-136549665D01*
X172906094Y-136436576D01*
X172987447Y-136337446D01*
X173086575Y-136256094D01*
X173199664Y-136195646D01*
X173231596Y-136185960D01*
X173322382Y-136158420D01*
X173450000Y-136145851D01*
X173577617Y-136158420D01*
X173577617Y-136158420D01*
G37*
G36*
X167676348Y-133703820D02*
G01*
X167676350Y-133703821D01*
X167676351Y-133703821D01*
X167817574Y-133762317D01*
X167817577Y-133762319D01*
X167944669Y-133847239D01*
X168052761Y-133955331D01*
X168137681Y-134082423D01*
X168137683Y-134082426D01*
X168196179Y-134223649D01*
X168226000Y-134373571D01*
X168226000Y-134526429D01*
X168196179Y-134676351D01*
X168137683Y-134817574D01*
X168137681Y-134817577D01*
X168052761Y-134944669D01*
X167944669Y-135052761D01*
X167817577Y-135137681D01*
X167817574Y-135137683D01*
X167676351Y-135196179D01*
X167676350Y-135196179D01*
X167676348Y-135196180D01*
X167526431Y-135226000D01*
X167373569Y-135226000D01*
X167223652Y-135196180D01*
X167223650Y-135196179D01*
X167223649Y-135196179D01*
X167082426Y-135137683D01*
X167082423Y-135137681D01*
X166955331Y-135052761D01*
X166847239Y-134944669D01*
X166762319Y-134817577D01*
X166762317Y-134817574D01*
X166703821Y-134676351D01*
X166674000Y-134526429D01*
X166674000Y-134373571D01*
X166703821Y-134223649D01*
X166762317Y-134082426D01*
X166762319Y-134082423D01*
X166847239Y-133955331D01*
X166955331Y-133847239D01*
X167082423Y-133762319D01*
X167082426Y-133762317D01*
X167223649Y-133703821D01*
X167223650Y-133703821D01*
X167223652Y-133703820D01*
X167373569Y-133674000D01*
X167526431Y-133674000D01*
X167676348Y-133703820D01*
X167676348Y-133703820D01*
G37*
G36*
X172676348Y-133703820D02*
G01*
X172676350Y-133703821D01*
X172676351Y-133703821D01*
X172817574Y-133762317D01*
X172817577Y-133762319D01*
X172944669Y-133847239D01*
X173052761Y-133955331D01*
X173137681Y-134082423D01*
X173137683Y-134082426D01*
X173196179Y-134223649D01*
X173226000Y-134373571D01*
X173226000Y-134526429D01*
X173196179Y-134676351D01*
X173137683Y-134817574D01*
X173137681Y-134817577D01*
X173052761Y-134944669D01*
X172944669Y-135052761D01*
X172817577Y-135137681D01*
X172817574Y-135137683D01*
X172676351Y-135196179D01*
X172676350Y-135196179D01*
X172676348Y-135196180D01*
X172526431Y-135226000D01*
X172373569Y-135226000D01*
X172223652Y-135196180D01*
X172223650Y-135196179D01*
X172223649Y-135196179D01*
X172082426Y-135137683D01*
X172082423Y-135137681D01*
X171955331Y-135052761D01*
X171847239Y-134944669D01*
X171762319Y-134817577D01*
X171762317Y-134817574D01*
X171703821Y-134676351D01*
X171674000Y-134526429D01*
X171674000Y-134373571D01*
X171703821Y-134223649D01*
X171762317Y-134082426D01*
X171762319Y-134082423D01*
X171847239Y-133955331D01*
X171955331Y-133847239D01*
X172082423Y-133762319D01*
X172082426Y-133762317D01*
X172223649Y-133703821D01*
X172223650Y-133703821D01*
X172223652Y-133703820D01*
X172373569Y-133674000D01*
X172526431Y-133674000D01*
X172676348Y-133703820D01*
X172676348Y-133703820D01*
G37*
G36*
X185501000Y-131051000D02*
G01*
X184049000Y-131051000D01*
X184049000Y-129599000D01*
X185501000Y-129599000D01*
X185501000Y-131051000D01*
X185501000Y-131051000D01*
G37*
G36*
X182846213Y-129602502D02*
G01*
X182917321Y-129609505D01*
X183054172Y-129651019D01*
X183054175Y-129651020D01*
X183180294Y-129718432D01*
X183290843Y-129809157D01*
X183381568Y-129919706D01*
X183448980Y-130045825D01*
X183448981Y-130045828D01*
X183490495Y-130182679D01*
X183504512Y-130325000D01*
X183490495Y-130467321D01*
X183448981Y-130604172D01*
X183448980Y-130604175D01*
X183381568Y-130730294D01*
X183290843Y-130840843D01*
X183180294Y-130931568D01*
X183054175Y-130998980D01*
X183054172Y-130998981D01*
X182917321Y-131040495D01*
X182846213Y-131047498D01*
X182810660Y-131051000D01*
X182739340Y-131051000D01*
X182703787Y-131047498D01*
X182632679Y-131040495D01*
X182495828Y-130998981D01*
X182495825Y-130998980D01*
X182369706Y-130931568D01*
X182259157Y-130840843D01*
X182168432Y-130730294D01*
X182101020Y-130604175D01*
X182101019Y-130604172D01*
X182059505Y-130467321D01*
X182045488Y-130325000D01*
X182059505Y-130182679D01*
X182101019Y-130045828D01*
X182101020Y-130045825D01*
X182168432Y-129919706D01*
X182259157Y-129809157D01*
X182369706Y-129718432D01*
X182495825Y-129651020D01*
X182495828Y-129651019D01*
X182632679Y-129609505D01*
X182703787Y-129602502D01*
X182739340Y-129599000D01*
X182810660Y-129599000D01*
X182846213Y-129602502D01*
X182846213Y-129602502D01*
G37*
G36*
X182846213Y-127602502D02*
G01*
X182917321Y-127609505D01*
X183054172Y-127651019D01*
X183054175Y-127651020D01*
X183180294Y-127718432D01*
X183290843Y-127809157D01*
X183381568Y-127919706D01*
X183448980Y-128045825D01*
X183448981Y-128045828D01*
X183490495Y-128182679D01*
X183504512Y-128325000D01*
X183490495Y-128467321D01*
X183448981Y-128604172D01*
X183448980Y-128604175D01*
X183381568Y-128730294D01*
X183290843Y-128840843D01*
X183180294Y-128931568D01*
X183054175Y-128998980D01*
X183054172Y-128998981D01*
X182917321Y-129040495D01*
X182846213Y-129047498D01*
X182810660Y-129051000D01*
X182739340Y-129051000D01*
X182703787Y-129047498D01*
X182632679Y-129040495D01*
X182495828Y-128998981D01*
X182495825Y-128998980D01*
X182369706Y-128931568D01*
X182259157Y-128840843D01*
X182168432Y-128730294D01*
X182101020Y-128604175D01*
X182101019Y-128604172D01*
X182059505Y-128467321D01*
X182045488Y-128325000D01*
X182059505Y-128182679D01*
X182101019Y-128045828D01*
X182101020Y-128045825D01*
X182168432Y-127919706D01*
X182259157Y-127809157D01*
X182369706Y-127718432D01*
X182495825Y-127651020D01*
X182495828Y-127651019D01*
X182632679Y-127609505D01*
X182703787Y-127602502D01*
X182739340Y-127599000D01*
X182810660Y-127599000D01*
X182846213Y-127602502D01*
X182846213Y-127602502D01*
G37*
G36*
X184846213Y-127602502D02*
G01*
X184917321Y-127609505D01*
X185054172Y-127651019D01*
X185054175Y-127651020D01*
X185180294Y-127718432D01*
X185290843Y-127809157D01*
X185381568Y-127919706D01*
X185448980Y-128045825D01*
X185448981Y-128045828D01*
X185490495Y-128182679D01*
X185504512Y-128325000D01*
X185490495Y-128467321D01*
X185448981Y-128604172D01*
X185448980Y-128604175D01*
X185381568Y-128730294D01*
X185290843Y-128840843D01*
X185180294Y-128931568D01*
X185054175Y-128998980D01*
X185054172Y-128998981D01*
X184917321Y-129040495D01*
X184846213Y-129047498D01*
X184810660Y-129051000D01*
X184739340Y-129051000D01*
X184703787Y-129047498D01*
X184632679Y-129040495D01*
X184495828Y-128998981D01*
X184495825Y-128998980D01*
X184369706Y-128931568D01*
X184259157Y-128840843D01*
X184168432Y-128730294D01*
X184101020Y-128604175D01*
X184101019Y-128604172D01*
X184059505Y-128467321D01*
X184045488Y-128325000D01*
X184059505Y-128182679D01*
X184101019Y-128045828D01*
X184101020Y-128045825D01*
X184168432Y-127919706D01*
X184259157Y-127809157D01*
X184369706Y-127718432D01*
X184495825Y-127651020D01*
X184495828Y-127651019D01*
X184632679Y-127609505D01*
X184703787Y-127602502D01*
X184739340Y-127599000D01*
X184810660Y-127599000D01*
X184846213Y-127602502D01*
X184846213Y-127602502D01*
G37*
G36*
X182846213Y-125602502D02*
G01*
X182917321Y-125609505D01*
X183054172Y-125651019D01*
X183054175Y-125651020D01*
X183180294Y-125718432D01*
X183290843Y-125809157D01*
X183381568Y-125919706D01*
X183448980Y-126045825D01*
X183448981Y-126045828D01*
X183490495Y-126182679D01*
X183504512Y-126325000D01*
X183490495Y-126467321D01*
X183448981Y-126604172D01*
X183448980Y-126604175D01*
X183381568Y-126730294D01*
X183290843Y-126840843D01*
X183180294Y-126931568D01*
X183054175Y-126998980D01*
X183054172Y-126998981D01*
X182917321Y-127040495D01*
X182846213Y-127047498D01*
X182810660Y-127051000D01*
X182739340Y-127051000D01*
X182703787Y-127047498D01*
X182632679Y-127040495D01*
X182495828Y-126998981D01*
X182495825Y-126998980D01*
X182369706Y-126931568D01*
X182259157Y-126840843D01*
X182168432Y-126730294D01*
X182101020Y-126604175D01*
X182101019Y-126604172D01*
X182059505Y-126467321D01*
X182045488Y-126325000D01*
X182059505Y-126182679D01*
X182101019Y-126045828D01*
X182101020Y-126045825D01*
X182168432Y-125919706D01*
X182259157Y-125809157D01*
X182369706Y-125718432D01*
X182495825Y-125651020D01*
X182495828Y-125651019D01*
X182632679Y-125609505D01*
X182703787Y-125602502D01*
X182739340Y-125599000D01*
X182810660Y-125599000D01*
X182846213Y-125602502D01*
X182846213Y-125602502D01*
G37*
G36*
X184846213Y-125602502D02*
G01*
X184917321Y-125609505D01*
X185054172Y-125651019D01*
X185054175Y-125651020D01*
X185180294Y-125718432D01*
X185290843Y-125809157D01*
X185381568Y-125919706D01*
X185448980Y-126045825D01*
X185448981Y-126045828D01*
X185490495Y-126182679D01*
X185504512Y-126325000D01*
X185490495Y-126467321D01*
X185448981Y-126604172D01*
X185448980Y-126604175D01*
X185381568Y-126730294D01*
X185290843Y-126840843D01*
X185180294Y-126931568D01*
X185054175Y-126998980D01*
X185054172Y-126998981D01*
X184917321Y-127040495D01*
X184846213Y-127047498D01*
X184810660Y-127051000D01*
X184739340Y-127051000D01*
X184703787Y-127047498D01*
X184632679Y-127040495D01*
X184495828Y-126998981D01*
X184495825Y-126998980D01*
X184369706Y-126931568D01*
X184259157Y-126840843D01*
X184168432Y-126730294D01*
X184101020Y-126604175D01*
X184101019Y-126604172D01*
X184059505Y-126467321D01*
X184045488Y-126325000D01*
X184059505Y-126182679D01*
X184101019Y-126045828D01*
X184101020Y-126045825D01*
X184168432Y-125919706D01*
X184259157Y-125809157D01*
X184369706Y-125718432D01*
X184495825Y-125651020D01*
X184495828Y-125651019D01*
X184632679Y-125609505D01*
X184703787Y-125602502D01*
X184739340Y-125599000D01*
X184810660Y-125599000D01*
X184846213Y-125602502D01*
X184846213Y-125602502D01*
G37*
G36*
X182846213Y-123602502D02*
G01*
X182917321Y-123609505D01*
X183054172Y-123651019D01*
X183054175Y-123651020D01*
X183180294Y-123718432D01*
X183290843Y-123809157D01*
X183381568Y-123919706D01*
X183448980Y-124045825D01*
X183448981Y-124045828D01*
X183490495Y-124182679D01*
X183504512Y-124325000D01*
X183490495Y-124467321D01*
X183448981Y-124604172D01*
X183448980Y-124604175D01*
X183381568Y-124730294D01*
X183290843Y-124840843D01*
X183180294Y-124931568D01*
X183054175Y-124998980D01*
X183054172Y-124998981D01*
X182917321Y-125040495D01*
X182846213Y-125047498D01*
X182810660Y-125051000D01*
X182739340Y-125051000D01*
X182703787Y-125047498D01*
X182632679Y-125040495D01*
X182495828Y-124998981D01*
X182495825Y-124998980D01*
X182369706Y-124931568D01*
X182259157Y-124840843D01*
X182168432Y-124730294D01*
X182101020Y-124604175D01*
X182101019Y-124604172D01*
X182059505Y-124467321D01*
X182045488Y-124325000D01*
X182059505Y-124182679D01*
X182101019Y-124045828D01*
X182101020Y-124045825D01*
X182168432Y-123919706D01*
X182259157Y-123809157D01*
X182369706Y-123718432D01*
X182495825Y-123651020D01*
X182495828Y-123651019D01*
X182632679Y-123609505D01*
X182703787Y-123602502D01*
X182739340Y-123599000D01*
X182810660Y-123599000D01*
X182846213Y-123602502D01*
X182846213Y-123602502D01*
G37*
G36*
X184846213Y-123602502D02*
G01*
X184917321Y-123609505D01*
X185054172Y-123651019D01*
X185054175Y-123651020D01*
X185180294Y-123718432D01*
X185290843Y-123809157D01*
X185381568Y-123919706D01*
X185448980Y-124045825D01*
X185448981Y-124045828D01*
X185490495Y-124182679D01*
X185504512Y-124325000D01*
X185490495Y-124467321D01*
X185448981Y-124604172D01*
X185448980Y-124604175D01*
X185381568Y-124730294D01*
X185290843Y-124840843D01*
X185180294Y-124931568D01*
X185054175Y-124998980D01*
X185054172Y-124998981D01*
X184917321Y-125040495D01*
X184846213Y-125047498D01*
X184810660Y-125051000D01*
X184739340Y-125051000D01*
X184703787Y-125047498D01*
X184632679Y-125040495D01*
X184495828Y-124998981D01*
X184495825Y-124998980D01*
X184369706Y-124931568D01*
X184259157Y-124840843D01*
X184168432Y-124730294D01*
X184101020Y-124604175D01*
X184101019Y-124604172D01*
X184059505Y-124467321D01*
X184045488Y-124325000D01*
X184059505Y-124182679D01*
X184101019Y-124045828D01*
X184101020Y-124045825D01*
X184168432Y-123919706D01*
X184259157Y-123809157D01*
X184369706Y-123718432D01*
X184495825Y-123651020D01*
X184495828Y-123651019D01*
X184632679Y-123609505D01*
X184703787Y-123602502D01*
X184739340Y-123599000D01*
X184810660Y-123599000D01*
X184846213Y-123602502D01*
X184846213Y-123602502D01*
G37*
G36*
X153060442Y-121425518D02*
G01*
X153126627Y-121432037D01*
X153296466Y-121483557D01*
X153452991Y-121567222D01*
X153488729Y-121596552D01*
X153590186Y-121679814D01*
X153673448Y-121781271D01*
X153702778Y-121817009D01*
X153786443Y-121973534D01*
X153837963Y-122143373D01*
X153855359Y-122320000D01*
X153837963Y-122496627D01*
X153786443Y-122666466D01*
X153702778Y-122822991D01*
X153688127Y-122840843D01*
X153590186Y-122960186D01*
X153492328Y-123040495D01*
X153452991Y-123072778D01*
X153296466Y-123156443D01*
X153126627Y-123207963D01*
X153060443Y-123214481D01*
X152994260Y-123221000D01*
X152905740Y-123221000D01*
X152839557Y-123214481D01*
X152773373Y-123207963D01*
X152603534Y-123156443D01*
X152447009Y-123072778D01*
X152407672Y-123040495D01*
X152309814Y-122960186D01*
X152211873Y-122840843D01*
X152197222Y-122822991D01*
X152113557Y-122666466D01*
X152062037Y-122496627D01*
X152044641Y-122320000D01*
X152062037Y-122143373D01*
X152113557Y-121973534D01*
X152197222Y-121817009D01*
X152226552Y-121781271D01*
X152309814Y-121679814D01*
X152411271Y-121596552D01*
X152447009Y-121567222D01*
X152603534Y-121483557D01*
X152773373Y-121432037D01*
X152839558Y-121425518D01*
X152905740Y-121419000D01*
X152994260Y-121419000D01*
X153060442Y-121425518D01*
X153060442Y-121425518D01*
G37*
G36*
X182846213Y-121602502D02*
G01*
X182917321Y-121609505D01*
X183054172Y-121651019D01*
X183054175Y-121651020D01*
X183180294Y-121718432D01*
X183290843Y-121809157D01*
X183381568Y-121919706D01*
X183448980Y-122045825D01*
X183448981Y-122045828D01*
X183490495Y-122182679D01*
X183504512Y-122325000D01*
X183490495Y-122467321D01*
X183448981Y-122604172D01*
X183448980Y-122604175D01*
X183381568Y-122730294D01*
X183290843Y-122840843D01*
X183180294Y-122931568D01*
X183054175Y-122998980D01*
X183054172Y-122998981D01*
X182917321Y-123040495D01*
X182846213Y-123047498D01*
X182810660Y-123051000D01*
X182739340Y-123051000D01*
X182703787Y-123047498D01*
X182632679Y-123040495D01*
X182495828Y-122998981D01*
X182495825Y-122998980D01*
X182369706Y-122931568D01*
X182259157Y-122840843D01*
X182168432Y-122730294D01*
X182101020Y-122604175D01*
X182101019Y-122604172D01*
X182059505Y-122467321D01*
X182045488Y-122325000D01*
X182059505Y-122182679D01*
X182101019Y-122045828D01*
X182101020Y-122045825D01*
X182168432Y-121919706D01*
X182259157Y-121809157D01*
X182369706Y-121718432D01*
X182495825Y-121651020D01*
X182495828Y-121651019D01*
X182632679Y-121609505D01*
X182703787Y-121602502D01*
X182739340Y-121599000D01*
X182810660Y-121599000D01*
X182846213Y-121602502D01*
X182846213Y-121602502D01*
G37*
G36*
X184846213Y-121602502D02*
G01*
X184917321Y-121609505D01*
X185054172Y-121651019D01*
X185054175Y-121651020D01*
X185180294Y-121718432D01*
X185290843Y-121809157D01*
X185381568Y-121919706D01*
X185448980Y-122045825D01*
X185448981Y-122045828D01*
X185490495Y-122182679D01*
X185504512Y-122325000D01*
X185490495Y-122467321D01*
X185448981Y-122604172D01*
X185448980Y-122604175D01*
X185381568Y-122730294D01*
X185290843Y-122840843D01*
X185180294Y-122931568D01*
X185054175Y-122998980D01*
X185054172Y-122998981D01*
X184917321Y-123040495D01*
X184846213Y-123047498D01*
X184810660Y-123051000D01*
X184739340Y-123051000D01*
X184703787Y-123047498D01*
X184632679Y-123040495D01*
X184495828Y-122998981D01*
X184495825Y-122998980D01*
X184369706Y-122931568D01*
X184259157Y-122840843D01*
X184168432Y-122730294D01*
X184101020Y-122604175D01*
X184101019Y-122604172D01*
X184059505Y-122467321D01*
X184045488Y-122325000D01*
X184059505Y-122182679D01*
X184101019Y-122045828D01*
X184101020Y-122045825D01*
X184168432Y-121919706D01*
X184259157Y-121809157D01*
X184369706Y-121718432D01*
X184495825Y-121651020D01*
X184495828Y-121651019D01*
X184632679Y-121609505D01*
X184703787Y-121602502D01*
X184739340Y-121599000D01*
X184810660Y-121599000D01*
X184846213Y-121602502D01*
X184846213Y-121602502D01*
G37*
G36*
X182846213Y-119602502D02*
G01*
X182917321Y-119609505D01*
X183054172Y-119651019D01*
X183054175Y-119651020D01*
X183180294Y-119718432D01*
X183290843Y-119809157D01*
X183381568Y-119919706D01*
X183448980Y-120045825D01*
X183448981Y-120045828D01*
X183490495Y-120182679D01*
X183504512Y-120325000D01*
X183490495Y-120467321D01*
X183470638Y-120532778D01*
X183448980Y-120604175D01*
X183381568Y-120730294D01*
X183290843Y-120840843D01*
X183180294Y-120931568D01*
X183054175Y-120998980D01*
X183054172Y-120998981D01*
X182917321Y-121040495D01*
X182846213Y-121047498D01*
X182810660Y-121051000D01*
X182739340Y-121051000D01*
X182703787Y-121047498D01*
X182632679Y-121040495D01*
X182495828Y-120998981D01*
X182495825Y-120998980D01*
X182369706Y-120931568D01*
X182259157Y-120840843D01*
X182168432Y-120730294D01*
X182101020Y-120604175D01*
X182079362Y-120532778D01*
X182059505Y-120467321D01*
X182045488Y-120325000D01*
X182059505Y-120182679D01*
X182101019Y-120045828D01*
X182101020Y-120045825D01*
X182168432Y-119919706D01*
X182259157Y-119809157D01*
X182369706Y-119718432D01*
X182495825Y-119651020D01*
X182495828Y-119651019D01*
X182632679Y-119609505D01*
X182703787Y-119602502D01*
X182739340Y-119599000D01*
X182810660Y-119599000D01*
X182846213Y-119602502D01*
X182846213Y-119602502D01*
G37*
G36*
X184846213Y-119602502D02*
G01*
X184917321Y-119609505D01*
X185054172Y-119651019D01*
X185054175Y-119651020D01*
X185180294Y-119718432D01*
X185290843Y-119809157D01*
X185381568Y-119919706D01*
X185448980Y-120045825D01*
X185448981Y-120045828D01*
X185490495Y-120182679D01*
X185504512Y-120325000D01*
X185490495Y-120467321D01*
X185470638Y-120532778D01*
X185448980Y-120604175D01*
X185381568Y-120730294D01*
X185290843Y-120840843D01*
X185180294Y-120931568D01*
X185054175Y-120998980D01*
X185054172Y-120998981D01*
X184917321Y-121040495D01*
X184846213Y-121047498D01*
X184810660Y-121051000D01*
X184739340Y-121051000D01*
X184703787Y-121047498D01*
X184632679Y-121040495D01*
X184495828Y-120998981D01*
X184495825Y-120998980D01*
X184369706Y-120931568D01*
X184259157Y-120840843D01*
X184168432Y-120730294D01*
X184101020Y-120604175D01*
X184079362Y-120532778D01*
X184059505Y-120467321D01*
X184045488Y-120325000D01*
X184059505Y-120182679D01*
X184101019Y-120045828D01*
X184101020Y-120045825D01*
X184168432Y-119919706D01*
X184259157Y-119809157D01*
X184369706Y-119718432D01*
X184495825Y-119651020D01*
X184495828Y-119651019D01*
X184632679Y-119609505D01*
X184703787Y-119602502D01*
X184739340Y-119599000D01*
X184810660Y-119599000D01*
X184846213Y-119602502D01*
X184846213Y-119602502D01*
G37*
G36*
X153060442Y-118885518D02*
G01*
X153126627Y-118892037D01*
X153296466Y-118943557D01*
X153452991Y-119027222D01*
X153488729Y-119056552D01*
X153590186Y-119139814D01*
X153673448Y-119241271D01*
X153702778Y-119277009D01*
X153786443Y-119433534D01*
X153837963Y-119603373D01*
X153855359Y-119780000D01*
X153837963Y-119956627D01*
X153786443Y-120126466D01*
X153702778Y-120282991D01*
X153673448Y-120318729D01*
X153590186Y-120420186D01*
X153488729Y-120503448D01*
X153452991Y-120532778D01*
X153296466Y-120616443D01*
X153126627Y-120667963D01*
X153060443Y-120674481D01*
X152994260Y-120681000D01*
X152905740Y-120681000D01*
X152839557Y-120674481D01*
X152773373Y-120667963D01*
X152603534Y-120616443D01*
X152447009Y-120532778D01*
X152411271Y-120503448D01*
X152309814Y-120420186D01*
X152226552Y-120318729D01*
X152197222Y-120282991D01*
X152113557Y-120126466D01*
X152062037Y-119956627D01*
X152044641Y-119780000D01*
X152062037Y-119603373D01*
X152113557Y-119433534D01*
X152197222Y-119277009D01*
X152226552Y-119241271D01*
X152309814Y-119139814D01*
X152411271Y-119056552D01*
X152447009Y-119027222D01*
X152603534Y-118943557D01*
X152773373Y-118892037D01*
X152839558Y-118885518D01*
X152905740Y-118879000D01*
X152994260Y-118879000D01*
X153060442Y-118885518D01*
X153060442Y-118885518D01*
G37*
G36*
X153060442Y-116345518D02*
G01*
X153126627Y-116352037D01*
X153296466Y-116403557D01*
X153452991Y-116487222D01*
X153488729Y-116516552D01*
X153590186Y-116599814D01*
X153673448Y-116701271D01*
X153702778Y-116737009D01*
X153786443Y-116893534D01*
X153837963Y-117063373D01*
X153855359Y-117240000D01*
X153837963Y-117416627D01*
X153786443Y-117586466D01*
X153702778Y-117742991D01*
X153673448Y-117778729D01*
X153590186Y-117880186D01*
X153488729Y-117963448D01*
X153452991Y-117992778D01*
X153296466Y-118076443D01*
X153126627Y-118127963D01*
X153060442Y-118134482D01*
X152994260Y-118141000D01*
X152905740Y-118141000D01*
X152839558Y-118134482D01*
X152773373Y-118127963D01*
X152603534Y-118076443D01*
X152447009Y-117992778D01*
X152411271Y-117963448D01*
X152309814Y-117880186D01*
X152226552Y-117778729D01*
X152197222Y-117742991D01*
X152113557Y-117586466D01*
X152062037Y-117416627D01*
X152044641Y-117240000D01*
X152062037Y-117063373D01*
X152113557Y-116893534D01*
X152197222Y-116737009D01*
X152226552Y-116701271D01*
X152309814Y-116599814D01*
X152411271Y-116516552D01*
X152447009Y-116487222D01*
X152603534Y-116403557D01*
X152773373Y-116352037D01*
X152839558Y-116345518D01*
X152905740Y-116339000D01*
X152994260Y-116339000D01*
X153060442Y-116345518D01*
X153060442Y-116345518D01*
G37*
G36*
X153851000Y-115601000D02*
G01*
X152049000Y-115601000D01*
X152049000Y-113799000D01*
X153851000Y-113799000D01*
X153851000Y-115601000D01*
X153851000Y-115601000D01*
G37*
G36*
X153475880Y-100609776D02*
G01*
X153856593Y-100685504D01*
X154266249Y-100855189D01*
X154634929Y-101101534D01*
X154948466Y-101415071D01*
X155194811Y-101783751D01*
X155364496Y-102193407D01*
X155451000Y-102628296D01*
X155451000Y-103071704D01*
X155364496Y-103506593D01*
X155194811Y-103916249D01*
X154948466Y-104284929D01*
X154634929Y-104598466D01*
X154266249Y-104844811D01*
X153856593Y-105014496D01*
X153475880Y-105090224D01*
X153421705Y-105101000D01*
X152978295Y-105101000D01*
X152924120Y-105090224D01*
X152543407Y-105014496D01*
X152133751Y-104844811D01*
X151765071Y-104598466D01*
X151451534Y-104284929D01*
X151205189Y-103916249D01*
X151035504Y-103506593D01*
X150949000Y-103071704D01*
X150949000Y-102628296D01*
X151035504Y-102193407D01*
X151205189Y-101783751D01*
X151451534Y-101415071D01*
X151765071Y-101101534D01*
X152133751Y-100855189D01*
X152543407Y-100685504D01*
X152924120Y-100609776D01*
X152978295Y-100599000D01*
X153421705Y-100599000D01*
X153475880Y-100609776D01*
X153475880Y-100609776D01*
G37*
G36*
X187125880Y-100609776D02*
G01*
X187506593Y-100685504D01*
X187916249Y-100855189D01*
X188284929Y-101101534D01*
X188598466Y-101415071D01*
X188844811Y-101783751D01*
X189014496Y-102193407D01*
X189101000Y-102628296D01*
X189101000Y-103071704D01*
X189014496Y-103506593D01*
X188844811Y-103916249D01*
X188598466Y-104284929D01*
X188284929Y-104598466D01*
X187916249Y-104844811D01*
X187506593Y-105014496D01*
X187125880Y-105090224D01*
X187071705Y-105101000D01*
X186628295Y-105101000D01*
X186574120Y-105090224D01*
X186193407Y-105014496D01*
X185783751Y-104844811D01*
X185415071Y-104598466D01*
X185101534Y-104284929D01*
X184855189Y-103916249D01*
X184685504Y-103506593D01*
X184599000Y-103071704D01*
X184599000Y-102628296D01*
X184685504Y-102193407D01*
X184855189Y-101783751D01*
X185101534Y-101415071D01*
X185415071Y-101101534D01*
X185783751Y-100855189D01*
X186193407Y-100685504D01*
X186574120Y-100609776D01*
X186628295Y-100599000D01*
X187071705Y-100599000D01*
X187125880Y-100609776D01*
X187125880Y-100609776D01*
G37*
M02*
