G04 #@! TF.GenerationSoftware,KiCad,Pcbnew,(5.1.0)-1*
G04 #@! TF.CreationDate,2019-11-13T23:10:21-06:00*
G04 #@! TF.ProjectId,low_cost_multispectral_sensor,6c6f775f-636f-4737-945f-6d756c746973,rev?*
G04 #@! TF.SameCoordinates,Original*
G04 #@! TF.FileFunction,Soldermask,Top*
G04 #@! TF.FilePolarity,Negative*
%FSLAX46Y46*%
G04 Gerber Fmt 4.6, Leading zero omitted, Abs format (unit mm)*
G04 Created by KiCad (PCBNEW (5.1.0)-1) date 2019-11-13 23:10:21*
%MOMM*%
%LPD*%
G04 APERTURE LIST*
%ADD10C,0.100000*%
G04 APERTURE END LIST*
D10*
G36*
X187125880Y-134759776D02*
G01*
X187506593Y-134835504D01*
X187916249Y-135005189D01*
X188284929Y-135251534D01*
X188598466Y-135565071D01*
X188844811Y-135933751D01*
X189014496Y-136343407D01*
X189079933Y-136672383D01*
X189098958Y-136768027D01*
X189101000Y-136778296D01*
X189101000Y-137221704D01*
X189014496Y-137656593D01*
X188844811Y-138066249D01*
X188598466Y-138434929D01*
X188284929Y-138748466D01*
X187916249Y-138994811D01*
X187506593Y-139164496D01*
X187125880Y-139240224D01*
X187071705Y-139251000D01*
X186628295Y-139251000D01*
X186574120Y-139240224D01*
X186193407Y-139164496D01*
X185783751Y-138994811D01*
X185415071Y-138748466D01*
X185101534Y-138434929D01*
X184855189Y-138066249D01*
X184685504Y-137656593D01*
X184599000Y-137221704D01*
X184599000Y-136778296D01*
X184601043Y-136768027D01*
X184620067Y-136672383D01*
X184685504Y-136343407D01*
X184855189Y-135933751D01*
X185101534Y-135565071D01*
X185415071Y-135251534D01*
X185783751Y-135005189D01*
X186193407Y-134835504D01*
X186574120Y-134759776D01*
X186628295Y-134749000D01*
X187071705Y-134749000D01*
X187125880Y-134759776D01*
X187125880Y-134759776D01*
G37*
G36*
X153475880Y-134759776D02*
G01*
X153856593Y-134835504D01*
X154266249Y-135005189D01*
X154634929Y-135251534D01*
X154948466Y-135565071D01*
X155194811Y-135933751D01*
X155364496Y-136343407D01*
X155429933Y-136672383D01*
X155448958Y-136768027D01*
X155451000Y-136778296D01*
X155451000Y-137221704D01*
X155364496Y-137656593D01*
X155194811Y-138066249D01*
X154948466Y-138434929D01*
X154634929Y-138748466D01*
X154266249Y-138994811D01*
X153856593Y-139164496D01*
X153475880Y-139240224D01*
X153421705Y-139251000D01*
X152978295Y-139251000D01*
X152924120Y-139240224D01*
X152543407Y-139164496D01*
X152133751Y-138994811D01*
X151765071Y-138748466D01*
X151451534Y-138434929D01*
X151205189Y-138066249D01*
X151035504Y-137656593D01*
X150949000Y-137221704D01*
X150949000Y-136778296D01*
X150951043Y-136768027D01*
X150970067Y-136672383D01*
X151035504Y-136343407D01*
X151205189Y-135933751D01*
X151451534Y-135565071D01*
X151765071Y-135251534D01*
X152133751Y-135005189D01*
X152543407Y-134835504D01*
X152924120Y-134759776D01*
X152978295Y-134749000D01*
X153421705Y-134749000D01*
X153475880Y-134759776D01*
X153475880Y-134759776D01*
G37*
G36*
X173475862Y-136148398D02*
G01*
X173488114Y-136149000D01*
X173561406Y-136149000D01*
X173578164Y-136157957D01*
X173589707Y-136162087D01*
X173700331Y-136195645D01*
X173700334Y-136195646D01*
X173813424Y-136256094D01*
X173912554Y-136337447D01*
X173993906Y-136436575D01*
X174054354Y-136549664D01*
X174064040Y-136581596D01*
X174091580Y-136672382D01*
X174101000Y-136768027D01*
X174101000Y-137531973D01*
X174091580Y-137627618D01*
X174064040Y-137718404D01*
X174054354Y-137750336D01*
X173993906Y-137863425D01*
X173912554Y-137962554D01*
X173813425Y-138043906D01*
X173700336Y-138104354D01*
X173674693Y-138112132D01*
X173589708Y-138137913D01*
X173567075Y-138147287D01*
X173561518Y-138151000D01*
X173488114Y-138151000D01*
X173475862Y-138151602D01*
X173450000Y-138154149D01*
X173424138Y-138151602D01*
X173411886Y-138151000D01*
X172199000Y-138151000D01*
X172199000Y-136149000D01*
X173411886Y-136149000D01*
X173424138Y-136148398D01*
X173450000Y-136145851D01*
X173475862Y-136148398D01*
X173475862Y-136148398D01*
G37*
G36*
X166475862Y-136148398D02*
G01*
X166488114Y-136149000D01*
X167701000Y-136149000D01*
X167701000Y-138151000D01*
X166488114Y-138151000D01*
X166475862Y-138151602D01*
X166450000Y-138154149D01*
X166424138Y-138151602D01*
X166411886Y-138151000D01*
X166338594Y-138151000D01*
X166321836Y-138142043D01*
X166310299Y-138137915D01*
X166225307Y-138112132D01*
X166199664Y-138104354D01*
X166086575Y-138043906D01*
X165987447Y-137962554D01*
X165906094Y-137863424D01*
X165845646Y-137750335D01*
X165817210Y-137656593D01*
X165808420Y-137627617D01*
X165799000Y-137531972D01*
X165799000Y-136768027D01*
X165808420Y-136672382D01*
X165845645Y-136549668D01*
X165906096Y-136436574D01*
X165987447Y-136337446D01*
X166086576Y-136256094D01*
X166199666Y-136195646D01*
X166199669Y-136195645D01*
X166310290Y-136162088D01*
X166332925Y-136152712D01*
X166338481Y-136149000D01*
X166411886Y-136149000D01*
X166424138Y-136148398D01*
X166450000Y-136145851D01*
X166475862Y-136148398D01*
X166475862Y-136148398D01*
G37*
G36*
X169751000Y-138151000D02*
G01*
X168149000Y-138151000D01*
X168149000Y-136149000D01*
X169751000Y-136149000D01*
X169751000Y-138151000D01*
X169751000Y-138151000D01*
G37*
G36*
X171751000Y-138151000D02*
G01*
X170149000Y-138151000D01*
X170149000Y-136149000D01*
X171751000Y-136149000D01*
X171751000Y-138151000D01*
X171751000Y-138151000D01*
G37*
G36*
X167676348Y-133703820D02*
G01*
X167676350Y-133703821D01*
X167676351Y-133703821D01*
X167817574Y-133762317D01*
X167817577Y-133762319D01*
X167944669Y-133847239D01*
X168052761Y-133955331D01*
X168109375Y-134040060D01*
X168137683Y-134082426D01*
X168158517Y-134132725D01*
X168170068Y-134154336D01*
X168185614Y-134173278D01*
X168204556Y-134188823D01*
X168226166Y-134200374D01*
X168249615Y-134207487D01*
X168274001Y-134209889D01*
X168298387Y-134207487D01*
X168321836Y-134200374D01*
X168343447Y-134188823D01*
X168362389Y-134173277D01*
X168377934Y-134154335D01*
X168389485Y-134132725D01*
X168396598Y-134109276D01*
X168399000Y-134084890D01*
X168399000Y-133724000D01*
X171501000Y-133724000D01*
X171501000Y-134084890D01*
X171503402Y-134109276D01*
X171510515Y-134132725D01*
X171522066Y-134154336D01*
X171537611Y-134173278D01*
X171556553Y-134188823D01*
X171578164Y-134200374D01*
X171601613Y-134207487D01*
X171625999Y-134209889D01*
X171650385Y-134207487D01*
X171673834Y-134200374D01*
X171695445Y-134188823D01*
X171714387Y-134173278D01*
X171729932Y-134154336D01*
X171741483Y-134132725D01*
X171762317Y-134082426D01*
X171790625Y-134040060D01*
X171847239Y-133955331D01*
X171955331Y-133847239D01*
X172082423Y-133762319D01*
X172082426Y-133762317D01*
X172223649Y-133703821D01*
X172223650Y-133703821D01*
X172223652Y-133703820D01*
X172373569Y-133674000D01*
X172526431Y-133674000D01*
X172676348Y-133703820D01*
X172676350Y-133703821D01*
X172676351Y-133703821D01*
X172817574Y-133762317D01*
X172817577Y-133762319D01*
X172944669Y-133847239D01*
X173052761Y-133955331D01*
X173137681Y-134082423D01*
X173137683Y-134082426D01*
X173196179Y-134223649D01*
X173226000Y-134373571D01*
X173226000Y-134526429D01*
X173196179Y-134676351D01*
X173137683Y-134817574D01*
X173137682Y-134817575D01*
X173137681Y-134817577D01*
X173052761Y-134944669D01*
X172944669Y-135052761D01*
X172817577Y-135137681D01*
X172817574Y-135137683D01*
X172676351Y-135196179D01*
X172676350Y-135196179D01*
X172676348Y-135196180D01*
X172526431Y-135226000D01*
X172373569Y-135226000D01*
X172223652Y-135196180D01*
X172223650Y-135196179D01*
X172223649Y-135196179D01*
X172082426Y-135137683D01*
X172082423Y-135137681D01*
X171955331Y-135052761D01*
X171847239Y-134944669D01*
X171762318Y-134817575D01*
X171762317Y-134817574D01*
X171741481Y-134767272D01*
X171729932Y-134745664D01*
X171714386Y-134726722D01*
X171695444Y-134711177D01*
X171673834Y-134699626D01*
X171650385Y-134692513D01*
X171625999Y-134690111D01*
X171601613Y-134692513D01*
X171578164Y-134699626D01*
X171556553Y-134711177D01*
X171537611Y-134726723D01*
X171522066Y-134745665D01*
X171510515Y-134767275D01*
X171503402Y-134790724D01*
X171501000Y-134815110D01*
X171501000Y-135176000D01*
X168399000Y-135176000D01*
X168399000Y-134815110D01*
X168396598Y-134790724D01*
X168389485Y-134767275D01*
X168377934Y-134745664D01*
X168362389Y-134726722D01*
X168343447Y-134711177D01*
X168321836Y-134699626D01*
X168298387Y-134692513D01*
X168274001Y-134690111D01*
X168249615Y-134692513D01*
X168226166Y-134699626D01*
X168204555Y-134711177D01*
X168185613Y-134726722D01*
X168170068Y-134745664D01*
X168158519Y-134767272D01*
X168137683Y-134817574D01*
X168137682Y-134817575D01*
X168052761Y-134944669D01*
X167944669Y-135052761D01*
X167817577Y-135137681D01*
X167817574Y-135137683D01*
X167676351Y-135196179D01*
X167676350Y-135196179D01*
X167676348Y-135196180D01*
X167526431Y-135226000D01*
X167373569Y-135226000D01*
X167223652Y-135196180D01*
X167223650Y-135196179D01*
X167223649Y-135196179D01*
X167082426Y-135137683D01*
X167082423Y-135137681D01*
X166955331Y-135052761D01*
X166847239Y-134944669D01*
X166762319Y-134817577D01*
X166762318Y-134817575D01*
X166762317Y-134817574D01*
X166703821Y-134676351D01*
X166674000Y-134526429D01*
X166674000Y-134373571D01*
X166703821Y-134223649D01*
X166762317Y-134082426D01*
X166762319Y-134082423D01*
X166847239Y-133955331D01*
X166955331Y-133847239D01*
X167082423Y-133762319D01*
X167082426Y-133762317D01*
X167223649Y-133703821D01*
X167223650Y-133703821D01*
X167223652Y-133703820D01*
X167373569Y-133674000D01*
X167526431Y-133674000D01*
X167676348Y-133703820D01*
X167676348Y-133703820D01*
G37*
G36*
X163851000Y-134101000D02*
G01*
X163049000Y-134101000D01*
X163049000Y-133399000D01*
X163851000Y-133399000D01*
X163851000Y-134101000D01*
X163851000Y-134101000D01*
G37*
G36*
X162251000Y-133851000D02*
G01*
X161649000Y-133851000D01*
X161649000Y-133149000D01*
X162251000Y-133149000D01*
X162251000Y-133851000D01*
X162251000Y-133851000D01*
G37*
G36*
X162251000Y-132751000D02*
G01*
X161649000Y-132751000D01*
X161649000Y-132049000D01*
X162251000Y-132049000D01*
X162251000Y-132751000D01*
X162251000Y-132751000D01*
G37*
G36*
X163851000Y-132701000D02*
G01*
X163049000Y-132701000D01*
X163049000Y-131999000D01*
X163851000Y-131999000D01*
X163851000Y-132701000D01*
X163851000Y-132701000D01*
G37*
G36*
X160931000Y-132526000D02*
G01*
X159769000Y-132526000D01*
X159769000Y-129874000D01*
X160931000Y-129874000D01*
X160931000Y-132526000D01*
X160931000Y-132526000D01*
G37*
G36*
X158731000Y-132526000D02*
G01*
X157569000Y-132526000D01*
X157569000Y-131774000D01*
X158731000Y-131774000D01*
X158731000Y-132526000D01*
X158731000Y-132526000D01*
G37*
G36*
X156751000Y-132301000D02*
G01*
X156149000Y-132301000D01*
X156149000Y-131599000D01*
X156751000Y-131599000D01*
X156751000Y-132301000D01*
X156751000Y-132301000D01*
G37*
G36*
X170751000Y-131551000D02*
G01*
X169849000Y-131551000D01*
X169849000Y-130549000D01*
X170751000Y-130549000D01*
X170751000Y-131551000D01*
X170751000Y-131551000D01*
G37*
G36*
X156751000Y-131201000D02*
G01*
X156149000Y-131201000D01*
X156149000Y-130499000D01*
X156751000Y-130499000D01*
X156751000Y-131201000D01*
X156751000Y-131201000D01*
G37*
G36*
X182846213Y-129602502D02*
G01*
X182917321Y-129609505D01*
X183054172Y-129651019D01*
X183054175Y-129651020D01*
X183180294Y-129718432D01*
X183290843Y-129809157D01*
X183381568Y-129919706D01*
X183448980Y-130045825D01*
X183448981Y-130045828D01*
X183490495Y-130182679D01*
X183504512Y-130325000D01*
X183490495Y-130467321D01*
X183463594Y-130556000D01*
X183448980Y-130604175D01*
X183381568Y-130730294D01*
X183290843Y-130840843D01*
X183180294Y-130931568D01*
X183054175Y-130998980D01*
X183054172Y-130998981D01*
X182917321Y-131040495D01*
X182846213Y-131047498D01*
X182810660Y-131051000D01*
X182739340Y-131051000D01*
X182703787Y-131047498D01*
X182632679Y-131040495D01*
X182495828Y-130998981D01*
X182495825Y-130998980D01*
X182369706Y-130931568D01*
X182259157Y-130840843D01*
X182168432Y-130730294D01*
X182101020Y-130604175D01*
X182086406Y-130556000D01*
X182059505Y-130467321D01*
X182045488Y-130325000D01*
X182059505Y-130182679D01*
X182101019Y-130045828D01*
X182101020Y-130045825D01*
X182168432Y-129919706D01*
X182259157Y-129809157D01*
X182369706Y-129718432D01*
X182495825Y-129651020D01*
X182495828Y-129651019D01*
X182632679Y-129609505D01*
X182703787Y-129602502D01*
X182739340Y-129599000D01*
X182810660Y-129599000D01*
X182846213Y-129602502D01*
X182846213Y-129602502D01*
G37*
G36*
X185501000Y-131051000D02*
G01*
X184049000Y-131051000D01*
X184049000Y-129599000D01*
X185501000Y-129599000D01*
X185501000Y-131051000D01*
X185501000Y-131051000D01*
G37*
G36*
X158731000Y-130626000D02*
G01*
X157569000Y-130626000D01*
X157569000Y-129874000D01*
X158731000Y-129874000D01*
X158731000Y-130626000D01*
X158731000Y-130626000D01*
G37*
G36*
X179201000Y-130556000D02*
G01*
X176549000Y-130556000D01*
X176549000Y-129394000D01*
X179201000Y-129394000D01*
X179201000Y-130556000D01*
X179201000Y-130556000D01*
G37*
G36*
X169801000Y-129551000D02*
G01*
X168899000Y-129551000D01*
X168899000Y-128549000D01*
X169801000Y-128549000D01*
X169801000Y-129551000D01*
X169801000Y-129551000D01*
G37*
G36*
X171701000Y-129551000D02*
G01*
X170799000Y-129551000D01*
X170799000Y-128549000D01*
X171701000Y-128549000D01*
X171701000Y-129551000D01*
X171701000Y-129551000D01*
G37*
G36*
X184846213Y-127602502D02*
G01*
X184917321Y-127609505D01*
X185054172Y-127651019D01*
X185054175Y-127651020D01*
X185180294Y-127718432D01*
X185290843Y-127809157D01*
X185381568Y-127919706D01*
X185448980Y-128045825D01*
X185448981Y-128045828D01*
X185490495Y-128182679D01*
X185504512Y-128325000D01*
X185490495Y-128467321D01*
X185448981Y-128604172D01*
X185448980Y-128604175D01*
X185381568Y-128730294D01*
X185290843Y-128840843D01*
X185180294Y-128931568D01*
X185054175Y-128998980D01*
X185054172Y-128998981D01*
X184917321Y-129040495D01*
X184846213Y-129047498D01*
X184810660Y-129051000D01*
X184739340Y-129051000D01*
X184703787Y-129047498D01*
X184632679Y-129040495D01*
X184495828Y-128998981D01*
X184495825Y-128998980D01*
X184369706Y-128931568D01*
X184259157Y-128840843D01*
X184168432Y-128730294D01*
X184101020Y-128604175D01*
X184101019Y-128604172D01*
X184059505Y-128467321D01*
X184045488Y-128325000D01*
X184059505Y-128182679D01*
X184101019Y-128045828D01*
X184101020Y-128045825D01*
X184168432Y-127919706D01*
X184259157Y-127809157D01*
X184369706Y-127718432D01*
X184495825Y-127651020D01*
X184495828Y-127651019D01*
X184632679Y-127609505D01*
X184703787Y-127602502D01*
X184739340Y-127599000D01*
X184810660Y-127599000D01*
X184846213Y-127602502D01*
X184846213Y-127602502D01*
G37*
G36*
X182846213Y-127602502D02*
G01*
X182917321Y-127609505D01*
X183054172Y-127651019D01*
X183054175Y-127651020D01*
X183180294Y-127718432D01*
X183290843Y-127809157D01*
X183381568Y-127919706D01*
X183448980Y-128045825D01*
X183448981Y-128045828D01*
X183490495Y-128182679D01*
X183504512Y-128325000D01*
X183490495Y-128467321D01*
X183448981Y-128604172D01*
X183448980Y-128604175D01*
X183381568Y-128730294D01*
X183290843Y-128840843D01*
X183180294Y-128931568D01*
X183054175Y-128998980D01*
X183054172Y-128998981D01*
X182917321Y-129040495D01*
X182846213Y-129047498D01*
X182810660Y-129051000D01*
X182739340Y-129051000D01*
X182703787Y-129047498D01*
X182632679Y-129040495D01*
X182495828Y-128998981D01*
X182495825Y-128998980D01*
X182369706Y-128931568D01*
X182259157Y-128840843D01*
X182168432Y-128730294D01*
X182101020Y-128604175D01*
X182101019Y-128604172D01*
X182059505Y-128467321D01*
X182045488Y-128325000D01*
X182059505Y-128182679D01*
X182101019Y-128045828D01*
X182101020Y-128045825D01*
X182168432Y-127919706D01*
X182259157Y-127809157D01*
X182369706Y-127718432D01*
X182495825Y-127651020D01*
X182495828Y-127651019D01*
X182632679Y-127609505D01*
X182703787Y-127602502D01*
X182739340Y-127599000D01*
X182810660Y-127599000D01*
X182846213Y-127602502D01*
X182846213Y-127602502D01*
G37*
G36*
X160701000Y-128751000D02*
G01*
X159999000Y-128751000D01*
X159999000Y-128149000D01*
X160701000Y-128149000D01*
X160701000Y-128751000D01*
X160701000Y-128751000D01*
G37*
G36*
X161801000Y-128751000D02*
G01*
X161099000Y-128751000D01*
X161099000Y-128149000D01*
X161801000Y-128149000D01*
X161801000Y-128751000D01*
X161801000Y-128751000D01*
G37*
G36*
X179201000Y-128356000D02*
G01*
X176549000Y-128356000D01*
X176549000Y-127194000D01*
X179201000Y-127194000D01*
X179201000Y-128356000D01*
X179201000Y-128356000D01*
G37*
G36*
X162101000Y-127551000D02*
G01*
X161399000Y-127551000D01*
X161399000Y-126749000D01*
X162101000Y-126749000D01*
X162101000Y-127551000D01*
X162101000Y-127551000D01*
G37*
G36*
X160701000Y-127551000D02*
G01*
X159999000Y-127551000D01*
X159999000Y-126749000D01*
X160701000Y-126749000D01*
X160701000Y-127551000D01*
X160701000Y-127551000D01*
G37*
G36*
X171601000Y-127201000D02*
G01*
X170899000Y-127201000D01*
X170899000Y-126699000D01*
X171601000Y-126699000D01*
X171601000Y-127201000D01*
X171601000Y-127201000D01*
G37*
G36*
X169701000Y-127201000D02*
G01*
X168999000Y-127201000D01*
X168999000Y-126699000D01*
X169701000Y-126699000D01*
X169701000Y-127201000D01*
X169701000Y-127201000D01*
G37*
G36*
X184846213Y-125602502D02*
G01*
X184917321Y-125609505D01*
X185054172Y-125651019D01*
X185054175Y-125651020D01*
X185180294Y-125718432D01*
X185290843Y-125809157D01*
X185381568Y-125919706D01*
X185448980Y-126045825D01*
X185448981Y-126045828D01*
X185490495Y-126182679D01*
X185504512Y-126325000D01*
X185490495Y-126467321D01*
X185448981Y-126604172D01*
X185448980Y-126604175D01*
X185381568Y-126730294D01*
X185290843Y-126840843D01*
X185180294Y-126931568D01*
X185054175Y-126998980D01*
X185054172Y-126998981D01*
X184917321Y-127040495D01*
X184846213Y-127047498D01*
X184810660Y-127051000D01*
X184739340Y-127051000D01*
X184703787Y-127047498D01*
X184632679Y-127040495D01*
X184495828Y-126998981D01*
X184495825Y-126998980D01*
X184369706Y-126931568D01*
X184259157Y-126840843D01*
X184168432Y-126730294D01*
X184101020Y-126604175D01*
X184101019Y-126604172D01*
X184059505Y-126467321D01*
X184045488Y-126325000D01*
X184059505Y-126182679D01*
X184101019Y-126045828D01*
X184101020Y-126045825D01*
X184168432Y-125919706D01*
X184259157Y-125809157D01*
X184369706Y-125718432D01*
X184495825Y-125651020D01*
X184495828Y-125651019D01*
X184632679Y-125609505D01*
X184703787Y-125602502D01*
X184739340Y-125599000D01*
X184810660Y-125599000D01*
X184846213Y-125602502D01*
X184846213Y-125602502D01*
G37*
G36*
X182846213Y-125602502D02*
G01*
X182917321Y-125609505D01*
X183054172Y-125651019D01*
X183054175Y-125651020D01*
X183180294Y-125718432D01*
X183290843Y-125809157D01*
X183381568Y-125919706D01*
X183448980Y-126045825D01*
X183448981Y-126045828D01*
X183490495Y-126182679D01*
X183504512Y-126325000D01*
X183490495Y-126467321D01*
X183448981Y-126604172D01*
X183448980Y-126604175D01*
X183381568Y-126730294D01*
X183290843Y-126840843D01*
X183180294Y-126931568D01*
X183054175Y-126998980D01*
X183054172Y-126998981D01*
X182917321Y-127040495D01*
X182846213Y-127047498D01*
X182810660Y-127051000D01*
X182739340Y-127051000D01*
X182703787Y-127047498D01*
X182632679Y-127040495D01*
X182495828Y-126998981D01*
X182495825Y-126998980D01*
X182369706Y-126931568D01*
X182259157Y-126840843D01*
X182168432Y-126730294D01*
X182101020Y-126604175D01*
X182101019Y-126604172D01*
X182059505Y-126467321D01*
X182045488Y-126325000D01*
X182059505Y-126182679D01*
X182101019Y-126045828D01*
X182101020Y-126045825D01*
X182168432Y-125919706D01*
X182259157Y-125809157D01*
X182369706Y-125718432D01*
X182495825Y-125651020D01*
X182495828Y-125651019D01*
X182632679Y-125609505D01*
X182703787Y-125602502D01*
X182739340Y-125599000D01*
X182810660Y-125599000D01*
X182846213Y-125602502D01*
X182846213Y-125602502D01*
G37*
G36*
X171601000Y-126301000D02*
G01*
X170899000Y-126301000D01*
X170899000Y-125799000D01*
X171601000Y-125799000D01*
X171601000Y-126301000D01*
X171601000Y-126301000D01*
G37*
G36*
X169701000Y-126301000D02*
G01*
X168999000Y-126301000D01*
X168999000Y-125799000D01*
X169701000Y-125799000D01*
X169701000Y-126301000D01*
X169701000Y-126301000D01*
G37*
G36*
X167201000Y-126151000D02*
G01*
X166499000Y-126151000D01*
X166499000Y-125549000D01*
X167201000Y-125549000D01*
X167201000Y-126151000D01*
X167201000Y-126151000D01*
G37*
G36*
X166101000Y-126151000D02*
G01*
X165399000Y-126151000D01*
X165399000Y-125549000D01*
X166101000Y-125549000D01*
X166101000Y-126151000D01*
X166101000Y-126151000D01*
G37*
G36*
X160701000Y-125701000D02*
G01*
X159999000Y-125701000D01*
X159999000Y-124899000D01*
X160701000Y-124899000D01*
X160701000Y-125701000D01*
X160701000Y-125701000D01*
G37*
G36*
X162101000Y-125701000D02*
G01*
X161399000Y-125701000D01*
X161399000Y-124899000D01*
X162101000Y-124899000D01*
X162101000Y-125701000D01*
X162101000Y-125701000D01*
G37*
G36*
X182846213Y-123602502D02*
G01*
X182917321Y-123609505D01*
X183054172Y-123651019D01*
X183054175Y-123651020D01*
X183180294Y-123718432D01*
X183290843Y-123809157D01*
X183381568Y-123919706D01*
X183448980Y-124045825D01*
X183448981Y-124045828D01*
X183490495Y-124182679D01*
X183504512Y-124325000D01*
X183490495Y-124467321D01*
X183448981Y-124604172D01*
X183448980Y-124604175D01*
X183381568Y-124730294D01*
X183290843Y-124840843D01*
X183180294Y-124931568D01*
X183054175Y-124998980D01*
X183054172Y-124998981D01*
X182917321Y-125040495D01*
X182846213Y-125047498D01*
X182810660Y-125051000D01*
X182739340Y-125051000D01*
X182703787Y-125047498D01*
X182632679Y-125040495D01*
X182495828Y-124998981D01*
X182495825Y-124998980D01*
X182369706Y-124931568D01*
X182259157Y-124840843D01*
X182168432Y-124730294D01*
X182101020Y-124604175D01*
X182101019Y-124604172D01*
X182059505Y-124467321D01*
X182045488Y-124325000D01*
X182059505Y-124182679D01*
X182101019Y-124045828D01*
X182101020Y-124045825D01*
X182168432Y-123919706D01*
X182259157Y-123809157D01*
X182369706Y-123718432D01*
X182495825Y-123651020D01*
X182495828Y-123651019D01*
X182632679Y-123609505D01*
X182703787Y-123602502D01*
X182739340Y-123599000D01*
X182810660Y-123599000D01*
X182846213Y-123602502D01*
X182846213Y-123602502D01*
G37*
G36*
X184846213Y-123602502D02*
G01*
X184917321Y-123609505D01*
X185054172Y-123651019D01*
X185054175Y-123651020D01*
X185180294Y-123718432D01*
X185290843Y-123809157D01*
X185381568Y-123919706D01*
X185448980Y-124045825D01*
X185448981Y-124045828D01*
X185490495Y-124182679D01*
X185504512Y-124325000D01*
X185490495Y-124467321D01*
X185448981Y-124604172D01*
X185448980Y-124604175D01*
X185381568Y-124730294D01*
X185290843Y-124840843D01*
X185180294Y-124931568D01*
X185054175Y-124998980D01*
X185054172Y-124998981D01*
X184917321Y-125040495D01*
X184846213Y-125047498D01*
X184810660Y-125051000D01*
X184739340Y-125051000D01*
X184703787Y-125047498D01*
X184632679Y-125040495D01*
X184495828Y-124998981D01*
X184495825Y-124998980D01*
X184369706Y-124931568D01*
X184259157Y-124840843D01*
X184168432Y-124730294D01*
X184101020Y-124604175D01*
X184101019Y-124604172D01*
X184059505Y-124467321D01*
X184045488Y-124325000D01*
X184059505Y-124182679D01*
X184101019Y-124045828D01*
X184101020Y-124045825D01*
X184168432Y-123919706D01*
X184259157Y-123809157D01*
X184369706Y-123718432D01*
X184495825Y-123651020D01*
X184495828Y-123651019D01*
X184632679Y-123609505D01*
X184703787Y-123602502D01*
X184739340Y-123599000D01*
X184810660Y-123599000D01*
X184846213Y-123602502D01*
X184846213Y-123602502D01*
G37*
G36*
X167865000Y-124170500D02*
G01*
X167255000Y-124170500D01*
X167255000Y-122925500D01*
X167865000Y-122925500D01*
X167865000Y-124170500D01*
X167865000Y-124170500D01*
G37*
G36*
X174215000Y-124170500D02*
G01*
X173605000Y-124170500D01*
X173605000Y-122925500D01*
X174215000Y-122925500D01*
X174215000Y-124170500D01*
X174215000Y-124170500D01*
G37*
G36*
X172945000Y-124170500D02*
G01*
X172335000Y-124170500D01*
X172335000Y-122925500D01*
X172945000Y-122925500D01*
X172945000Y-124170500D01*
X172945000Y-124170500D01*
G37*
G36*
X171675000Y-124170500D02*
G01*
X171065000Y-124170500D01*
X171065000Y-122925500D01*
X171675000Y-122925500D01*
X171675000Y-124170500D01*
X171675000Y-124170500D01*
G37*
G36*
X170405000Y-124170500D02*
G01*
X169795000Y-124170500D01*
X169795000Y-122925500D01*
X170405000Y-122925500D01*
X170405000Y-124170500D01*
X170405000Y-124170500D01*
G37*
G36*
X166595000Y-124170500D02*
G01*
X165985000Y-124170500D01*
X165985000Y-122925500D01*
X166595000Y-122925500D01*
X166595000Y-124170500D01*
X166595000Y-124170500D01*
G37*
G36*
X169135000Y-124170500D02*
G01*
X168525000Y-124170500D01*
X168525000Y-122925500D01*
X169135000Y-122925500D01*
X169135000Y-124170500D01*
X169135000Y-124170500D01*
G37*
G36*
X153060442Y-121425518D02*
G01*
X153126627Y-121432037D01*
X153296466Y-121483557D01*
X153452991Y-121567222D01*
X153488729Y-121596552D01*
X153590186Y-121679814D01*
X153673448Y-121781271D01*
X153702778Y-121817009D01*
X153786443Y-121973534D01*
X153837963Y-122143373D01*
X153855359Y-122320000D01*
X153837963Y-122496627D01*
X153786443Y-122666466D01*
X153702778Y-122822991D01*
X153688127Y-122840843D01*
X153590186Y-122960186D01*
X153492328Y-123040495D01*
X153452991Y-123072778D01*
X153296466Y-123156443D01*
X153126627Y-123207963D01*
X153060443Y-123214481D01*
X152994260Y-123221000D01*
X152905740Y-123221000D01*
X152839557Y-123214481D01*
X152773373Y-123207963D01*
X152603534Y-123156443D01*
X152447009Y-123072778D01*
X152407672Y-123040495D01*
X152309814Y-122960186D01*
X152211873Y-122840843D01*
X152197222Y-122822991D01*
X152113557Y-122666466D01*
X152062037Y-122496627D01*
X152044641Y-122320000D01*
X152062037Y-122143373D01*
X152113557Y-121973534D01*
X152197222Y-121817009D01*
X152226552Y-121781271D01*
X152309814Y-121679814D01*
X152411271Y-121596552D01*
X152447009Y-121567222D01*
X152603534Y-121483557D01*
X152773373Y-121432037D01*
X152839558Y-121425518D01*
X152905740Y-121419000D01*
X152994260Y-121419000D01*
X153060442Y-121425518D01*
X153060442Y-121425518D01*
G37*
G36*
X184846213Y-121602502D02*
G01*
X184917321Y-121609505D01*
X185054172Y-121651019D01*
X185054175Y-121651020D01*
X185180294Y-121718432D01*
X185290843Y-121809157D01*
X185381568Y-121919706D01*
X185448980Y-122045825D01*
X185448981Y-122045828D01*
X185490495Y-122182679D01*
X185504512Y-122325000D01*
X185490495Y-122467321D01*
X185448981Y-122604172D01*
X185448980Y-122604175D01*
X185381568Y-122730294D01*
X185290843Y-122840843D01*
X185180294Y-122931568D01*
X185054175Y-122998980D01*
X185054172Y-122998981D01*
X184917321Y-123040495D01*
X184846213Y-123047498D01*
X184810660Y-123051000D01*
X184739340Y-123051000D01*
X184703787Y-123047498D01*
X184632679Y-123040495D01*
X184495828Y-122998981D01*
X184495825Y-122998980D01*
X184369706Y-122931568D01*
X184259157Y-122840843D01*
X184168432Y-122730294D01*
X184101020Y-122604175D01*
X184101019Y-122604172D01*
X184059505Y-122467321D01*
X184045488Y-122325000D01*
X184059505Y-122182679D01*
X184101019Y-122045828D01*
X184101020Y-122045825D01*
X184168432Y-121919706D01*
X184259157Y-121809157D01*
X184369706Y-121718432D01*
X184495825Y-121651020D01*
X184495828Y-121651019D01*
X184632679Y-121609505D01*
X184703787Y-121602502D01*
X184739340Y-121599000D01*
X184810660Y-121599000D01*
X184846213Y-121602502D01*
X184846213Y-121602502D01*
G37*
G36*
X182846213Y-121602502D02*
G01*
X182917321Y-121609505D01*
X183054172Y-121651019D01*
X183054175Y-121651020D01*
X183180294Y-121718432D01*
X183290843Y-121809157D01*
X183381568Y-121919706D01*
X183448980Y-122045825D01*
X183448981Y-122045828D01*
X183490495Y-122182679D01*
X183504512Y-122325000D01*
X183490495Y-122467321D01*
X183448981Y-122604172D01*
X183448980Y-122604175D01*
X183381568Y-122730294D01*
X183290843Y-122840843D01*
X183180294Y-122931568D01*
X183054175Y-122998980D01*
X183054172Y-122998981D01*
X182917321Y-123040495D01*
X182846213Y-123047498D01*
X182810660Y-123051000D01*
X182739340Y-123051000D01*
X182703787Y-123047498D01*
X182632679Y-123040495D01*
X182495828Y-122998981D01*
X182495825Y-122998980D01*
X182369706Y-122931568D01*
X182259157Y-122840843D01*
X182168432Y-122730294D01*
X182101020Y-122604175D01*
X182101019Y-122604172D01*
X182059505Y-122467321D01*
X182045488Y-122325000D01*
X182059505Y-122182679D01*
X182101019Y-122045828D01*
X182101020Y-122045825D01*
X182168432Y-121919706D01*
X182259157Y-121809157D01*
X182369706Y-121718432D01*
X182495825Y-121651020D01*
X182495828Y-121651019D01*
X182632679Y-121609505D01*
X182703787Y-121602502D01*
X182739340Y-121599000D01*
X182810660Y-121599000D01*
X182846213Y-121602502D01*
X182846213Y-121602502D01*
G37*
G36*
X182846213Y-119602502D02*
G01*
X182917321Y-119609505D01*
X183054172Y-119651019D01*
X183054175Y-119651020D01*
X183180294Y-119718432D01*
X183290843Y-119809157D01*
X183381568Y-119919706D01*
X183448980Y-120045825D01*
X183448981Y-120045828D01*
X183490495Y-120182679D01*
X183504512Y-120325000D01*
X183490495Y-120467321D01*
X183470638Y-120532778D01*
X183448980Y-120604175D01*
X183381568Y-120730294D01*
X183290843Y-120840843D01*
X183180294Y-120931568D01*
X183054175Y-120998980D01*
X183054172Y-120998981D01*
X182917321Y-121040495D01*
X182846213Y-121047498D01*
X182810660Y-121051000D01*
X182739340Y-121051000D01*
X182703787Y-121047498D01*
X182632679Y-121040495D01*
X182495828Y-120998981D01*
X182495825Y-120998980D01*
X182369706Y-120931568D01*
X182259157Y-120840843D01*
X182168432Y-120730294D01*
X182101020Y-120604175D01*
X182079362Y-120532778D01*
X182059505Y-120467321D01*
X182045488Y-120325000D01*
X182059505Y-120182679D01*
X182101019Y-120045828D01*
X182101020Y-120045825D01*
X182168432Y-119919706D01*
X182259157Y-119809157D01*
X182369706Y-119718432D01*
X182495825Y-119651020D01*
X182495828Y-119651019D01*
X182632679Y-119609505D01*
X182703787Y-119602502D01*
X182739340Y-119599000D01*
X182810660Y-119599000D01*
X182846213Y-119602502D01*
X182846213Y-119602502D01*
G37*
G36*
X184846213Y-119602502D02*
G01*
X184917321Y-119609505D01*
X185054172Y-119651019D01*
X185054175Y-119651020D01*
X185180294Y-119718432D01*
X185290843Y-119809157D01*
X185381568Y-119919706D01*
X185448980Y-120045825D01*
X185448981Y-120045828D01*
X185490495Y-120182679D01*
X185504512Y-120325000D01*
X185490495Y-120467321D01*
X185470638Y-120532778D01*
X185448980Y-120604175D01*
X185381568Y-120730294D01*
X185290843Y-120840843D01*
X185180294Y-120931568D01*
X185054175Y-120998980D01*
X185054172Y-120998981D01*
X184917321Y-121040495D01*
X184846213Y-121047498D01*
X184810660Y-121051000D01*
X184739340Y-121051000D01*
X184703787Y-121047498D01*
X184632679Y-121040495D01*
X184495828Y-120998981D01*
X184495825Y-120998980D01*
X184369706Y-120931568D01*
X184259157Y-120840843D01*
X184168432Y-120730294D01*
X184101020Y-120604175D01*
X184079362Y-120532778D01*
X184059505Y-120467321D01*
X184045488Y-120325000D01*
X184059505Y-120182679D01*
X184101019Y-120045828D01*
X184101020Y-120045825D01*
X184168432Y-119919706D01*
X184259157Y-119809157D01*
X184369706Y-119718432D01*
X184495825Y-119651020D01*
X184495828Y-119651019D01*
X184632679Y-119609505D01*
X184703787Y-119602502D01*
X184739340Y-119599000D01*
X184810660Y-119599000D01*
X184846213Y-119602502D01*
X184846213Y-119602502D01*
G37*
G36*
X153060442Y-118885518D02*
G01*
X153126627Y-118892037D01*
X153296466Y-118943557D01*
X153452991Y-119027222D01*
X153488729Y-119056552D01*
X153590186Y-119139814D01*
X153673448Y-119241271D01*
X153702778Y-119277009D01*
X153786443Y-119433534D01*
X153837963Y-119603373D01*
X153855359Y-119780000D01*
X153837963Y-119956627D01*
X153786443Y-120126466D01*
X153702778Y-120282991D01*
X153673448Y-120318729D01*
X153590186Y-120420186D01*
X153488729Y-120503448D01*
X153452991Y-120532778D01*
X153296466Y-120616443D01*
X153126627Y-120667963D01*
X153060443Y-120674481D01*
X152994260Y-120681000D01*
X152905740Y-120681000D01*
X152839557Y-120674481D01*
X152773373Y-120667963D01*
X152603534Y-120616443D01*
X152447009Y-120532778D01*
X152411271Y-120503448D01*
X152309814Y-120420186D01*
X152226552Y-120318729D01*
X152197222Y-120282991D01*
X152113557Y-120126466D01*
X152062037Y-119956627D01*
X152044641Y-119780000D01*
X152062037Y-119603373D01*
X152113557Y-119433534D01*
X152197222Y-119277009D01*
X152226552Y-119241271D01*
X152309814Y-119139814D01*
X152411271Y-119056552D01*
X152447009Y-119027222D01*
X152603534Y-118943557D01*
X152773373Y-118892037D01*
X152839558Y-118885518D01*
X152905740Y-118879000D01*
X152994260Y-118879000D01*
X153060442Y-118885518D01*
X153060442Y-118885518D01*
G37*
G36*
X153060442Y-116345518D02*
G01*
X153126627Y-116352037D01*
X153296466Y-116403557D01*
X153452991Y-116487222D01*
X153488729Y-116516552D01*
X153590186Y-116599814D01*
X153673448Y-116701271D01*
X153702778Y-116737009D01*
X153786443Y-116893534D01*
X153837963Y-117063373D01*
X153855359Y-117240000D01*
X153837963Y-117416627D01*
X153786443Y-117586466D01*
X153702778Y-117742991D01*
X153696205Y-117751000D01*
X153590186Y-117880186D01*
X153488729Y-117963448D01*
X153452991Y-117992778D01*
X153296466Y-118076443D01*
X153126627Y-118127963D01*
X153060442Y-118134482D01*
X152994260Y-118141000D01*
X152905740Y-118141000D01*
X152839558Y-118134482D01*
X152773373Y-118127963D01*
X152603534Y-118076443D01*
X152447009Y-117992778D01*
X152411271Y-117963448D01*
X152309814Y-117880186D01*
X152203795Y-117751000D01*
X152197222Y-117742991D01*
X152113557Y-117586466D01*
X152062037Y-117416627D01*
X152044641Y-117240000D01*
X152062037Y-117063373D01*
X152113557Y-116893534D01*
X152197222Y-116737009D01*
X152226552Y-116701271D01*
X152309814Y-116599814D01*
X152411271Y-116516552D01*
X152447009Y-116487222D01*
X152603534Y-116403557D01*
X152773373Y-116352037D01*
X152839558Y-116345518D01*
X152905740Y-116339000D01*
X152994260Y-116339000D01*
X153060442Y-116345518D01*
X153060442Y-116345518D01*
G37*
G36*
X171675000Y-117820500D02*
G01*
X171065000Y-117820500D01*
X171065000Y-116575500D01*
X171675000Y-116575500D01*
X171675000Y-117820500D01*
X171675000Y-117820500D01*
G37*
G36*
X167865000Y-117820500D02*
G01*
X167255000Y-117820500D01*
X167255000Y-116575500D01*
X167865000Y-116575500D01*
X167865000Y-117820500D01*
X167865000Y-117820500D01*
G37*
G36*
X166595000Y-117820500D02*
G01*
X165985000Y-117820500D01*
X165985000Y-116575500D01*
X166595000Y-116575500D01*
X166595000Y-117820500D01*
X166595000Y-117820500D01*
G37*
G36*
X169135000Y-117820500D02*
G01*
X168525000Y-117820500D01*
X168525000Y-116575500D01*
X169135000Y-116575500D01*
X169135000Y-117820500D01*
X169135000Y-117820500D01*
G37*
G36*
X172945000Y-117820500D02*
G01*
X172335000Y-117820500D01*
X172335000Y-116575500D01*
X172945000Y-116575500D01*
X172945000Y-117820500D01*
X172945000Y-117820500D01*
G37*
G36*
X170405000Y-117820500D02*
G01*
X169795000Y-117820500D01*
X169795000Y-116575500D01*
X170405000Y-116575500D01*
X170405000Y-117820500D01*
X170405000Y-117820500D01*
G37*
G36*
X174215000Y-117820500D02*
G01*
X173605000Y-117820500D01*
X173605000Y-116575500D01*
X174215000Y-116575500D01*
X174215000Y-117820500D01*
X174215000Y-117820500D01*
G37*
G36*
X176151000Y-117751000D02*
G01*
X175449000Y-117751000D01*
X175449000Y-117149000D01*
X176151000Y-117149000D01*
X176151000Y-117751000D01*
X176151000Y-117751000D01*
G37*
G36*
X177251000Y-117751000D02*
G01*
X176549000Y-117751000D01*
X176549000Y-117149000D01*
X177251000Y-117149000D01*
X177251000Y-117751000D01*
X177251000Y-117751000D01*
G37*
G36*
X170401000Y-115876000D02*
G01*
X169799000Y-115876000D01*
X169799000Y-115174000D01*
X170401000Y-115174000D01*
X170401000Y-115876000D01*
X170401000Y-115876000D01*
G37*
G36*
X174501000Y-115651000D02*
G01*
X173799000Y-115651000D01*
X173799000Y-114749000D01*
X174501000Y-114749000D01*
X174501000Y-115651000D01*
X174501000Y-115651000D01*
G37*
G36*
X172801000Y-115651000D02*
G01*
X172099000Y-115651000D01*
X172099000Y-114749000D01*
X172801000Y-114749000D01*
X172801000Y-115651000D01*
X172801000Y-115651000D01*
G37*
G36*
X153851000Y-115601000D02*
G01*
X152049000Y-115601000D01*
X152049000Y-113799000D01*
X153851000Y-113799000D01*
X153851000Y-115601000D01*
X153851000Y-115601000D01*
G37*
G36*
X178001000Y-115301000D02*
G01*
X177499000Y-115301000D01*
X177499000Y-114599000D01*
X178001000Y-114599000D01*
X178001000Y-115301000D01*
X178001000Y-115301000D01*
G37*
G36*
X175751000Y-115301000D02*
G01*
X175249000Y-115301000D01*
X175249000Y-114599000D01*
X175751000Y-114599000D01*
X175751000Y-115301000D01*
X175751000Y-115301000D01*
G37*
G36*
X176651000Y-115301000D02*
G01*
X176149000Y-115301000D01*
X176149000Y-114599000D01*
X176651000Y-114599000D01*
X176651000Y-115301000D01*
X176651000Y-115301000D01*
G37*
G36*
X178901000Y-115301000D02*
G01*
X178399000Y-115301000D01*
X178399000Y-114599000D01*
X178901000Y-114599000D01*
X178901000Y-115301000D01*
X178901000Y-115301000D01*
G37*
G36*
X184601000Y-115151000D02*
G01*
X184099000Y-115151000D01*
X184099000Y-114449000D01*
X184601000Y-114449000D01*
X184601000Y-115151000D01*
X184601000Y-115151000D01*
G37*
G36*
X183701000Y-115151000D02*
G01*
X183199000Y-115151000D01*
X183199000Y-114449000D01*
X183701000Y-114449000D01*
X183701000Y-115151000D01*
X183701000Y-115151000D01*
G37*
G36*
X170401000Y-114776000D02*
G01*
X169799000Y-114776000D01*
X169799000Y-114074000D01*
X170401000Y-114074000D01*
X170401000Y-114776000D01*
X170401000Y-114776000D01*
G37*
G36*
X172801000Y-114101000D02*
G01*
X172099000Y-114101000D01*
X172099000Y-113199000D01*
X172801000Y-113199000D01*
X172801000Y-114101000D01*
X172801000Y-114101000D01*
G37*
G36*
X174501000Y-114101000D02*
G01*
X173799000Y-114101000D01*
X173799000Y-113199000D01*
X174501000Y-113199000D01*
X174501000Y-114101000D01*
X174501000Y-114101000D01*
G37*
G36*
X183701000Y-114051000D02*
G01*
X183199000Y-114051000D01*
X183199000Y-113349000D01*
X183701000Y-113349000D01*
X183701000Y-114051000D01*
X183701000Y-114051000D01*
G37*
G36*
X184601000Y-114051000D02*
G01*
X184099000Y-114051000D01*
X184099000Y-113349000D01*
X184601000Y-113349000D01*
X184601000Y-114051000D01*
X184601000Y-114051000D01*
G37*
G36*
X178901000Y-114001000D02*
G01*
X178399000Y-114001000D01*
X178399000Y-113299000D01*
X178901000Y-113299000D01*
X178901000Y-114001000D01*
X178901000Y-114001000D01*
G37*
G36*
X176651000Y-114001000D02*
G01*
X176149000Y-114001000D01*
X176149000Y-113299000D01*
X176651000Y-113299000D01*
X176651000Y-114001000D01*
X176651000Y-114001000D01*
G37*
G36*
X175751000Y-114001000D02*
G01*
X175249000Y-114001000D01*
X175249000Y-113299000D01*
X175751000Y-113299000D01*
X175751000Y-114001000D01*
X175751000Y-114001000D01*
G37*
G36*
X178001000Y-114001000D02*
G01*
X177499000Y-114001000D01*
X177499000Y-113299000D01*
X178001000Y-113299000D01*
X178001000Y-114001000D01*
X178001000Y-114001000D01*
G37*
G36*
X181200000Y-112347500D02*
G01*
X180590000Y-112347500D01*
X180590000Y-111102500D01*
X181200000Y-111102500D01*
X181200000Y-112347500D01*
X181200000Y-112347500D01*
G37*
G36*
X182470000Y-112347500D02*
G01*
X181860000Y-112347500D01*
X181860000Y-111102500D01*
X182470000Y-111102500D01*
X182470000Y-112347500D01*
X182470000Y-112347500D01*
G37*
G36*
X183740000Y-112347500D02*
G01*
X183130000Y-112347500D01*
X183130000Y-111102500D01*
X183740000Y-111102500D01*
X183740000Y-112347500D01*
X183740000Y-112347500D01*
G37*
G36*
X185010000Y-112347500D02*
G01*
X184400000Y-112347500D01*
X184400000Y-111102500D01*
X185010000Y-111102500D01*
X185010000Y-112347500D01*
X185010000Y-112347500D01*
G37*
G36*
X167801000Y-110651000D02*
G01*
X167299000Y-110651000D01*
X167299000Y-109949000D01*
X167801000Y-109949000D01*
X167801000Y-110651000D01*
X167801000Y-110651000D01*
G37*
G36*
X166901000Y-110651000D02*
G01*
X166399000Y-110651000D01*
X166399000Y-109949000D01*
X166901000Y-109949000D01*
X166901000Y-110651000D01*
X166901000Y-110651000D01*
G37*
G36*
X159001000Y-109101000D02*
G01*
X158299000Y-109101000D01*
X158299000Y-108199000D01*
X159001000Y-108199000D01*
X159001000Y-109101000D01*
X159001000Y-109101000D01*
G37*
G36*
X160701000Y-109101000D02*
G01*
X159999000Y-109101000D01*
X159999000Y-108199000D01*
X160701000Y-108199000D01*
X160701000Y-109101000D01*
X160701000Y-109101000D01*
G37*
G36*
X171503402Y-107801613D02*
G01*
X171501000Y-107825999D01*
X171501000Y-109001000D01*
X168499000Y-109001000D01*
X168499000Y-107825999D01*
X168496598Y-107801613D01*
X168495805Y-107799000D01*
X171504195Y-107799000D01*
X171503402Y-107801613D01*
X171503402Y-107801613D01*
G37*
G36*
X179601000Y-108076000D02*
G01*
X178999000Y-108076000D01*
X178999000Y-107374000D01*
X179601000Y-107374000D01*
X179601000Y-108076000D01*
X179601000Y-108076000D01*
G37*
G36*
X168303402Y-104701613D02*
G01*
X168301000Y-104725999D01*
X168301000Y-107674001D01*
X168303402Y-107698387D01*
X168304195Y-107701000D01*
X167099000Y-107701000D01*
X167099000Y-104699000D01*
X168304195Y-104699000D01*
X168303402Y-104701613D01*
X168303402Y-104701613D01*
G37*
G36*
X172901000Y-107701000D02*
G01*
X171695805Y-107701000D01*
X171696598Y-107698387D01*
X171699000Y-107674001D01*
X171699000Y-104725999D01*
X171696598Y-104701613D01*
X171695805Y-104699000D01*
X172901000Y-104699000D01*
X172901000Y-107701000D01*
X172901000Y-107701000D01*
G37*
G36*
X163751000Y-107051000D02*
G01*
X163149000Y-107051000D01*
X163149000Y-106349000D01*
X163751000Y-106349000D01*
X163751000Y-107051000D01*
X163751000Y-107051000D01*
G37*
G36*
X165576000Y-107026000D02*
G01*
X164974000Y-107026000D01*
X164974000Y-106324000D01*
X165576000Y-106324000D01*
X165576000Y-107026000D01*
X165576000Y-107026000D01*
G37*
G36*
X179601000Y-106976000D02*
G01*
X178999000Y-106976000D01*
X178999000Y-106274000D01*
X179601000Y-106274000D01*
X179601000Y-106976000D01*
X179601000Y-106976000D01*
G37*
G36*
X181200000Y-105997500D02*
G01*
X180590000Y-105997500D01*
X180590000Y-104752500D01*
X181200000Y-104752500D01*
X181200000Y-105997500D01*
X181200000Y-105997500D01*
G37*
G36*
X182470000Y-105997500D02*
G01*
X181860000Y-105997500D01*
X181860000Y-104752500D01*
X182470000Y-104752500D01*
X182470000Y-105997500D01*
X182470000Y-105997500D01*
G37*
G36*
X185010000Y-105997500D02*
G01*
X184400000Y-105997500D01*
X184400000Y-104752500D01*
X185010000Y-104752500D01*
X185010000Y-105997500D01*
X185010000Y-105997500D01*
G37*
G36*
X183740000Y-105997500D02*
G01*
X183130000Y-105997500D01*
X183130000Y-104752500D01*
X183740000Y-104752500D01*
X183740000Y-105997500D01*
X183740000Y-105997500D01*
G37*
G36*
X163751000Y-105951000D02*
G01*
X163149000Y-105951000D01*
X163149000Y-105249000D01*
X163751000Y-105249000D01*
X163751000Y-105951000D01*
X163751000Y-105951000D01*
G37*
G36*
X165576000Y-105926000D02*
G01*
X164974000Y-105926000D01*
X164974000Y-105224000D01*
X165576000Y-105224000D01*
X165576000Y-105926000D01*
X165576000Y-105926000D01*
G37*
G36*
X187125880Y-100609776D02*
G01*
X187506593Y-100685504D01*
X187916249Y-100855189D01*
X188284929Y-101101534D01*
X188598466Y-101415071D01*
X188844811Y-101783751D01*
X189014496Y-102193407D01*
X189101000Y-102628296D01*
X189101000Y-103071704D01*
X189014496Y-103506593D01*
X188844811Y-103916249D01*
X188598466Y-104284929D01*
X188284929Y-104598466D01*
X187916249Y-104844811D01*
X187506593Y-105014496D01*
X187125880Y-105090224D01*
X187071705Y-105101000D01*
X186628295Y-105101000D01*
X186574120Y-105090224D01*
X186193407Y-105014496D01*
X185783751Y-104844811D01*
X185415071Y-104598466D01*
X185101534Y-104284929D01*
X184855189Y-103916249D01*
X184685504Y-103506593D01*
X184599000Y-103071704D01*
X184599000Y-102628296D01*
X184685504Y-102193407D01*
X184855189Y-101783751D01*
X185101534Y-101415071D01*
X185415071Y-101101534D01*
X185783751Y-100855189D01*
X186193407Y-100685504D01*
X186574120Y-100609776D01*
X186628295Y-100599000D01*
X187071705Y-100599000D01*
X187125880Y-100609776D01*
X187125880Y-100609776D01*
G37*
G36*
X153475880Y-100609776D02*
G01*
X153856593Y-100685504D01*
X154266249Y-100855189D01*
X154634929Y-101101534D01*
X154948466Y-101415071D01*
X155194811Y-101783751D01*
X155364496Y-102193407D01*
X155451000Y-102628296D01*
X155451000Y-103071704D01*
X155364496Y-103506593D01*
X155194811Y-103916249D01*
X154948466Y-104284929D01*
X154634929Y-104598466D01*
X154266249Y-104844811D01*
X153856593Y-105014496D01*
X153475880Y-105090224D01*
X153421705Y-105101000D01*
X152978295Y-105101000D01*
X152924120Y-105090224D01*
X152543407Y-105014496D01*
X152133751Y-104844811D01*
X151765071Y-104598466D01*
X151451534Y-104284929D01*
X151205189Y-103916249D01*
X151035504Y-103506593D01*
X150949000Y-103071704D01*
X150949000Y-102628296D01*
X151035504Y-102193407D01*
X151205189Y-101783751D01*
X151451534Y-101415071D01*
X151765071Y-101101534D01*
X152133751Y-100855189D01*
X152543407Y-100685504D01*
X152924120Y-100609776D01*
X152978295Y-100599000D01*
X153421705Y-100599000D01*
X153475880Y-100609776D01*
X153475880Y-100609776D01*
G37*
G36*
X158501000Y-104901000D02*
G01*
X157399000Y-104901000D01*
X157399000Y-103199000D01*
X158501000Y-103199000D01*
X158501000Y-104901000D01*
X158501000Y-104901000D01*
G37*
G36*
X161501000Y-104901000D02*
G01*
X160399000Y-104901000D01*
X160399000Y-103199000D01*
X161501000Y-103199000D01*
X161501000Y-104901000D01*
X161501000Y-104901000D01*
G37*
G36*
X171501000Y-104574001D02*
G01*
X171503402Y-104598387D01*
X171504195Y-104601000D01*
X168495805Y-104601000D01*
X168496598Y-104598387D01*
X168499000Y-104574001D01*
X168499000Y-103399000D01*
X171501000Y-103399000D01*
X171501000Y-104574001D01*
X171501000Y-104574001D01*
G37*
G36*
X175926000Y-104551000D02*
G01*
X175224000Y-104551000D01*
X175224000Y-104049000D01*
X175926000Y-104049000D01*
X175926000Y-104551000D01*
X175926000Y-104551000D01*
G37*
G36*
X181201000Y-104226000D02*
G01*
X180699000Y-104226000D01*
X180699000Y-103524000D01*
X181201000Y-103524000D01*
X181201000Y-104226000D01*
X181201000Y-104226000D01*
G37*
G36*
X182101000Y-104226000D02*
G01*
X181599000Y-104226000D01*
X181599000Y-103524000D01*
X182101000Y-103524000D01*
X182101000Y-104226000D01*
X182101000Y-104226000D01*
G37*
G36*
X175926000Y-103651000D02*
G01*
X175224000Y-103651000D01*
X175224000Y-103149000D01*
X175926000Y-103149000D01*
X175926000Y-103651000D01*
X175926000Y-103651000D01*
G37*
G36*
X176826000Y-101901000D02*
G01*
X176324000Y-101901000D01*
X176324000Y-101199000D01*
X176826000Y-101199000D01*
X176826000Y-101901000D01*
X176826000Y-101901000D01*
G37*
G36*
X175926000Y-101901000D02*
G01*
X175424000Y-101901000D01*
X175424000Y-101199000D01*
X175926000Y-101199000D01*
X175926000Y-101901000D01*
X175926000Y-101901000D01*
G37*
M02*
