G04 #@! TF.GenerationSoftware,KiCad,Pcbnew,(5.1.0)-1*
G04 #@! TF.CreationDate,2019-11-15T23:55:28-06:00*
G04 #@! TF.ProjectId,low_cost_multispectral_sensor,6c6f775f-636f-4737-945f-6d756c746973,rev?*
G04 #@! TF.SameCoordinates,Original*
G04 #@! TF.FileFunction,Copper,L4,Bot*
G04 #@! TF.FilePolarity,Positive*
%FSLAX46Y46*%
G04 Gerber Fmt 4.6, Leading zero omitted, Abs format (unit mm)*
G04 Created by KiCad (PCBNEW (5.1.0)-1) date 2019-11-15 23:55:28*
%MOMM*%
%LPD*%
G04 APERTURE LIST*
%ADD10C,1.450000*%
%ADD11O,1.200000X1.900000*%
%ADD12O,1.700000X1.700000*%
%ADD13R,1.700000X1.700000*%
%ADD14O,1.350000X1.350000*%
%ADD15R,1.350000X1.350000*%
%ADD16C,4.400000*%
%ADD17C,0.800000*%
%ADD18C,0.250000*%
%ADD19C,0.254000*%
G04 APERTURE END LIST*
D10*
X154025000Y-106950000D03*
X159025000Y-106950000D03*
D11*
X153025000Y-109650000D03*
X160025000Y-109650000D03*
D12*
X139525000Y-93570000D03*
X139525000Y-91030000D03*
X139525000Y-88490000D03*
D13*
X139525000Y-85950000D03*
D14*
X169350000Y-91575000D03*
X171350000Y-91575000D03*
X169350000Y-93575000D03*
X171350000Y-93575000D03*
X169350000Y-95575000D03*
X171350000Y-95575000D03*
X169350000Y-97575000D03*
X171350000Y-97575000D03*
X169350000Y-99575000D03*
X171350000Y-99575000D03*
X169350000Y-101575000D03*
D15*
X171350000Y-101575000D03*
D16*
X139775000Y-108250000D03*
X173425000Y-108250000D03*
X173425000Y-74100000D03*
X139775000Y-74100000D03*
D17*
X163500000Y-87650000D03*
X157500000Y-84550000D03*
X150025000Y-79000000D03*
X152750000Y-75750000D03*
X160950000Y-76625000D03*
X171775000Y-86200000D03*
X172600000Y-82975000D03*
X165550000Y-80200000D03*
X160550000Y-96900000D03*
X164975000Y-97425000D03*
X158525000Y-104025000D03*
X156275000Y-103725000D03*
X144700000Y-104825000D03*
X143000000Y-104325000D03*
X149075000Y-99700000D03*
X150050000Y-106175000D03*
X147500000Y-104800000D03*
X152325000Y-98175000D03*
X150300000Y-102200000D03*
X164700000Y-89900000D03*
X146875000Y-95100000D03*
X164700000Y-77850000D03*
X164100000Y-72775000D03*
X144525000Y-77050000D03*
X145225000Y-81200000D03*
X150025000Y-75650000D03*
X152500000Y-74400000D03*
X155525000Y-72650000D03*
X171925000Y-85000000D03*
X152275000Y-81575000D03*
X164775000Y-87625000D03*
X162900000Y-82450000D03*
X162950000Y-76550000D03*
X167275000Y-88700000D03*
X163800000Y-97300000D03*
X163950000Y-83575000D03*
X165100000Y-75575000D03*
X173950000Y-93450000D03*
X167450000Y-85975000D03*
X167450000Y-84475000D03*
X165400000Y-103175000D03*
X163775000Y-93950000D03*
X152425000Y-85575000D03*
X159025000Y-72900000D03*
X154135000Y-84025000D03*
X157275000Y-73550000D03*
X155400000Y-83325000D03*
X150775000Y-92350000D03*
X150275000Y-91050000D03*
D18*
X152500000Y-74400000D02*
X152500000Y-73675000D01*
X152500000Y-73675000D02*
X153525000Y-72650000D01*
X153525000Y-72650000D02*
X155525000Y-72650000D01*
X162900000Y-81884315D02*
X162950000Y-81834315D01*
X162900000Y-82450000D02*
X162900000Y-81884315D01*
X162950000Y-81834315D02*
X162950000Y-76550000D01*
X162900000Y-84325000D02*
X162900000Y-82450000D01*
X167275000Y-88700000D02*
X162900000Y-84325000D01*
X165525000Y-95575000D02*
X169350000Y-95575000D01*
X163800000Y-97300000D02*
X165525000Y-95575000D01*
X163950000Y-83575000D02*
X163950000Y-78900000D01*
X163950000Y-78900000D02*
X163775000Y-78725000D01*
X163775000Y-78725000D02*
X163775000Y-76900000D01*
X163775000Y-76900000D02*
X165100000Y-75575000D01*
X168275000Y-87900000D02*
X163950000Y-83575000D01*
X171600000Y-87900000D02*
X168275000Y-87900000D01*
X173950000Y-93450000D02*
X173950000Y-90250000D01*
X173950000Y-90250000D02*
X171600000Y-87900000D01*
X167450000Y-85975000D02*
X167450000Y-84475000D01*
X165400000Y-103175000D02*
X166200000Y-103175000D01*
X166200000Y-103175000D02*
X167575000Y-101800000D01*
X167575000Y-99350000D02*
X169350000Y-97575000D01*
X167575000Y-101800000D02*
X167575000Y-99350000D01*
X163775000Y-93950000D02*
X160675000Y-93950000D01*
X160675000Y-93950000D02*
X152425000Y-85700000D01*
X152425000Y-85700000D02*
X152425000Y-85575000D01*
X160775000Y-72900000D02*
X159025000Y-72900000D01*
X162125011Y-74250011D02*
X161312500Y-73437500D01*
X161150000Y-83275000D02*
X162125011Y-82299989D01*
X161312500Y-73437500D02*
X160775000Y-72900000D01*
X161725000Y-73850000D02*
X161312500Y-73437500D01*
X154135000Y-84025000D02*
X154534999Y-84424999D01*
X154534999Y-84424999D02*
X156200001Y-84424999D01*
X156200001Y-84424999D02*
X157350000Y-83275000D01*
X162125011Y-82299989D02*
X162125011Y-74250011D01*
X157350000Y-83275000D02*
X161150000Y-83275000D01*
X157750001Y-74025001D02*
X157275000Y-73550000D01*
X157140685Y-81584315D02*
X159690685Y-81584315D01*
X159690685Y-81584315D02*
X161675001Y-79599999D01*
X161675001Y-79599999D02*
X161675001Y-75700001D01*
X155400000Y-83325000D02*
X157140685Y-81584315D01*
X161675001Y-75700001D02*
X160000001Y-74025001D01*
X160000001Y-74025001D02*
X157750001Y-74025001D01*
X147500000Y-85950000D02*
X139525000Y-85950000D01*
X151250000Y-89700000D02*
X147500000Y-85950000D01*
X150775000Y-92350000D02*
X151250000Y-91875000D01*
X151250000Y-91875000D02*
X151250000Y-89700000D01*
X150275000Y-91050000D02*
X147075000Y-91050000D01*
X144515000Y-88490000D02*
X139525000Y-88490000D01*
X147075000Y-91050000D02*
X144515000Y-88490000D01*
D19*
G36*
X137964830Y-72110225D02*
G01*
X139775000Y-73920395D01*
X141585170Y-72110225D01*
X141461002Y-71910000D01*
X153346335Y-71910000D01*
X153232753Y-71944454D01*
X153100723Y-72015026D01*
X153017083Y-72083668D01*
X152984999Y-72109999D01*
X152961201Y-72138997D01*
X151988998Y-73111201D01*
X151960000Y-73134999D01*
X151936202Y-73163997D01*
X151936201Y-73163998D01*
X151865026Y-73250724D01*
X151794454Y-73382754D01*
X151781420Y-73425724D01*
X151750997Y-73526014D01*
X151740000Y-73637667D01*
X151740000Y-73637678D01*
X151736324Y-73675000D01*
X151738562Y-73697727D01*
X151696063Y-73740226D01*
X151582795Y-73909744D01*
X151504774Y-74098102D01*
X151465000Y-74298061D01*
X151465000Y-74501939D01*
X151504774Y-74701898D01*
X151582795Y-74890256D01*
X151696063Y-75059774D01*
X151840226Y-75203937D01*
X152009744Y-75317205D01*
X152198102Y-75395226D01*
X152398061Y-75435000D01*
X152601939Y-75435000D01*
X152801898Y-75395226D01*
X152990256Y-75317205D01*
X153159774Y-75203937D01*
X153303937Y-75059774D01*
X153417205Y-74890256D01*
X153495226Y-74701898D01*
X153535000Y-74501939D01*
X153535000Y-74298061D01*
X153495226Y-74098102D01*
X153417205Y-73909744D01*
X153386304Y-73863497D01*
X153839802Y-73410000D01*
X154821289Y-73410000D01*
X154865226Y-73453937D01*
X155034744Y-73567205D01*
X155223102Y-73645226D01*
X155423061Y-73685000D01*
X155626939Y-73685000D01*
X155826898Y-73645226D01*
X156015256Y-73567205D01*
X156184774Y-73453937D01*
X156252254Y-73386457D01*
X156240000Y-73448061D01*
X156240000Y-73651939D01*
X156279774Y-73851898D01*
X156357795Y-74040256D01*
X156471063Y-74209774D01*
X156615226Y-74353937D01*
X156784744Y-74467205D01*
X156973102Y-74545226D01*
X157173061Y-74585000D01*
X157234368Y-74585000D01*
X157325725Y-74659975D01*
X157457754Y-74730547D01*
X157601015Y-74774004D01*
X157712668Y-74785001D01*
X157712678Y-74785001D01*
X157750001Y-74788677D01*
X157787324Y-74785001D01*
X159685200Y-74785001D01*
X160915002Y-76014804D01*
X160915001Y-79285197D01*
X159375884Y-80824315D01*
X157178007Y-80824315D01*
X157140684Y-80820639D01*
X157103361Y-80824315D01*
X157103352Y-80824315D01*
X156991699Y-80835312D01*
X156848438Y-80878769D01*
X156716409Y-80949341D01*
X156600684Y-81044314D01*
X156576886Y-81073312D01*
X155360199Y-82290000D01*
X155298061Y-82290000D01*
X155098102Y-82329774D01*
X154909744Y-82407795D01*
X154740226Y-82521063D01*
X154596063Y-82665226D01*
X154482795Y-82834744D01*
X154404774Y-83023102D01*
X154404720Y-83023373D01*
X154236939Y-82990000D01*
X154033061Y-82990000D01*
X153833102Y-83029774D01*
X153644744Y-83107795D01*
X153475226Y-83221063D01*
X153331063Y-83365226D01*
X153217795Y-83534744D01*
X153139774Y-83723102D01*
X153100000Y-83923061D01*
X153100000Y-84126939D01*
X153139774Y-84326898D01*
X153217795Y-84515256D01*
X153331063Y-84684774D01*
X153475226Y-84828937D01*
X153644744Y-84942205D01*
X153833102Y-85020226D01*
X154033061Y-85060000D01*
X154110774Y-85060000D01*
X154242752Y-85130545D01*
X154386013Y-85174002D01*
X154497666Y-85184999D01*
X154497676Y-85184999D01*
X154534998Y-85188675D01*
X154572321Y-85184999D01*
X156162679Y-85184999D01*
X156200001Y-85188675D01*
X156237323Y-85184999D01*
X156237334Y-85184999D01*
X156348987Y-85174002D01*
X156492248Y-85130545D01*
X156624277Y-85059973D01*
X156740002Y-84965000D01*
X156763805Y-84935996D01*
X157664802Y-84035000D01*
X161112678Y-84035000D01*
X161150000Y-84038676D01*
X161187322Y-84035000D01*
X161187333Y-84035000D01*
X161298986Y-84024003D01*
X161442247Y-83980546D01*
X161574276Y-83909974D01*
X161690001Y-83815001D01*
X161713804Y-83785998D01*
X162140001Y-83359801D01*
X162140000Y-84287677D01*
X162136324Y-84325000D01*
X162140000Y-84362322D01*
X162140000Y-84362332D01*
X162150997Y-84473985D01*
X162180191Y-84570226D01*
X162194454Y-84617246D01*
X162265026Y-84749276D01*
X162287695Y-84776898D01*
X162359999Y-84865001D01*
X162389003Y-84888804D01*
X164238735Y-86738537D01*
X164115226Y-86821063D01*
X163971063Y-86965226D01*
X163857795Y-87134744D01*
X163779774Y-87323102D01*
X163740000Y-87523061D01*
X163740000Y-87726939D01*
X163779774Y-87926898D01*
X163857795Y-88115256D01*
X163971063Y-88284774D01*
X164115226Y-88428937D01*
X164284744Y-88542205D01*
X164473102Y-88620226D01*
X164673061Y-88660000D01*
X164876939Y-88660000D01*
X165076898Y-88620226D01*
X165265256Y-88542205D01*
X165434774Y-88428937D01*
X165578937Y-88284774D01*
X165661463Y-88161265D01*
X166240000Y-88739802D01*
X166240000Y-88801939D01*
X166279774Y-89001898D01*
X166357795Y-89190256D01*
X166471063Y-89359774D01*
X166615226Y-89503937D01*
X166784744Y-89617205D01*
X166973102Y-89695226D01*
X167173061Y-89735000D01*
X167376939Y-89735000D01*
X167576898Y-89695226D01*
X167765256Y-89617205D01*
X167934774Y-89503937D01*
X168078937Y-89359774D01*
X168192205Y-89190256D01*
X168270226Y-89001898D01*
X168310000Y-88801939D01*
X168310000Y-88660229D01*
X168312325Y-88660000D01*
X171285199Y-88660000D01*
X173190001Y-90564803D01*
X173190000Y-92746289D01*
X173146063Y-92790226D01*
X173032795Y-92959744D01*
X172954774Y-93148102D01*
X172915000Y-93348061D01*
X172915000Y-93551939D01*
X172954774Y-93751898D01*
X173032795Y-93940256D01*
X173146063Y-94109774D01*
X173290226Y-94253937D01*
X173459744Y-94367205D01*
X173648102Y-94445226D01*
X173848061Y-94485000D01*
X174051939Y-94485000D01*
X174251898Y-94445226D01*
X174440256Y-94367205D01*
X174609774Y-94253937D01*
X174753937Y-94109774D01*
X174867205Y-93940256D01*
X174945226Y-93751898D01*
X174985000Y-93551939D01*
X174985000Y-93348061D01*
X174945226Y-93148102D01*
X174867205Y-92959744D01*
X174753937Y-92790226D01*
X174710000Y-92746289D01*
X174710000Y-90287323D01*
X174713676Y-90250000D01*
X174710000Y-90212677D01*
X174710000Y-90212667D01*
X174699003Y-90101014D01*
X174655546Y-89957753D01*
X174584974Y-89825724D01*
X174490001Y-89709999D01*
X174461003Y-89686201D01*
X172163804Y-87389003D01*
X172140001Y-87359999D01*
X172024276Y-87265026D01*
X171892247Y-87194454D01*
X171748986Y-87150997D01*
X171637333Y-87140000D01*
X171637322Y-87140000D01*
X171600000Y-87136324D01*
X171562678Y-87140000D01*
X168589802Y-87140000D01*
X168169256Y-86719455D01*
X168253937Y-86634774D01*
X168367205Y-86465256D01*
X168445226Y-86276898D01*
X168485000Y-86076939D01*
X168485000Y-85873061D01*
X168445226Y-85673102D01*
X168367205Y-85484744D01*
X168253937Y-85315226D01*
X168210000Y-85271289D01*
X168210000Y-85178711D01*
X168253937Y-85134774D01*
X168367205Y-84965256D01*
X168395038Y-84898061D01*
X170890000Y-84898061D01*
X170890000Y-85101939D01*
X170929774Y-85301898D01*
X171007795Y-85490256D01*
X171121063Y-85659774D01*
X171265226Y-85803937D01*
X171434744Y-85917205D01*
X171623102Y-85995226D01*
X171823061Y-86035000D01*
X172026939Y-86035000D01*
X172226898Y-85995226D01*
X172415256Y-85917205D01*
X172584774Y-85803937D01*
X172728937Y-85659774D01*
X172842205Y-85490256D01*
X172920226Y-85301898D01*
X172960000Y-85101939D01*
X172960000Y-84898061D01*
X172920226Y-84698102D01*
X172842205Y-84509744D01*
X172728937Y-84340226D01*
X172584774Y-84196063D01*
X172415256Y-84082795D01*
X172226898Y-84004774D01*
X172026939Y-83965000D01*
X171823061Y-83965000D01*
X171623102Y-84004774D01*
X171434744Y-84082795D01*
X171265226Y-84196063D01*
X171121063Y-84340226D01*
X171007795Y-84509744D01*
X170929774Y-84698102D01*
X170890000Y-84898061D01*
X168395038Y-84898061D01*
X168445226Y-84776898D01*
X168485000Y-84576939D01*
X168485000Y-84373061D01*
X168445226Y-84173102D01*
X168367205Y-83984744D01*
X168253937Y-83815226D01*
X168109774Y-83671063D01*
X167940256Y-83557795D01*
X167751898Y-83479774D01*
X167551939Y-83440000D01*
X167348061Y-83440000D01*
X167148102Y-83479774D01*
X166959744Y-83557795D01*
X166790226Y-83671063D01*
X166646063Y-83815226D01*
X166532795Y-83984744D01*
X166454774Y-84173102D01*
X166415000Y-84373061D01*
X166415000Y-84576939D01*
X166454774Y-84776898D01*
X166532795Y-84965256D01*
X166646063Y-85134774D01*
X166690001Y-85178712D01*
X166690000Y-85240199D01*
X164985000Y-83535199D01*
X164985000Y-83473061D01*
X164945226Y-83273102D01*
X164867205Y-83084744D01*
X164753937Y-82915226D01*
X164710000Y-82871289D01*
X164710000Y-78937322D01*
X164713676Y-78899999D01*
X164712199Y-78885000D01*
X164801939Y-78885000D01*
X165001898Y-78845226D01*
X165190256Y-78767205D01*
X165359774Y-78653937D01*
X165503937Y-78509774D01*
X165617205Y-78340256D01*
X165695226Y-78151898D01*
X165735000Y-77951939D01*
X165735000Y-77748061D01*
X165695226Y-77548102D01*
X165617205Y-77359744D01*
X165503937Y-77190226D01*
X165359774Y-77046063D01*
X165190256Y-76932795D01*
X165001898Y-76854774D01*
X164912758Y-76837043D01*
X165139802Y-76610000D01*
X165201939Y-76610000D01*
X165401898Y-76570226D01*
X165590256Y-76492205D01*
X165759774Y-76378937D01*
X165903937Y-76234774D01*
X166000821Y-76089775D01*
X171614830Y-76089775D01*
X171854976Y-76477018D01*
X172348877Y-76737641D01*
X172884133Y-76896901D01*
X173440174Y-76948678D01*
X173995632Y-76890981D01*
X174529161Y-76726028D01*
X174995024Y-76477018D01*
X175235170Y-76089775D01*
X173425000Y-74279605D01*
X171614830Y-76089775D01*
X166000821Y-76089775D01*
X166017205Y-76065256D01*
X166095226Y-75876898D01*
X166135000Y-75676939D01*
X166135000Y-75473061D01*
X166095226Y-75273102D01*
X166017205Y-75084744D01*
X165903937Y-74915226D01*
X165759774Y-74771063D01*
X165590256Y-74657795D01*
X165401898Y-74579774D01*
X165201939Y-74540000D01*
X164998061Y-74540000D01*
X164798102Y-74579774D01*
X164609744Y-74657795D01*
X164440226Y-74771063D01*
X164296063Y-74915226D01*
X164182795Y-75084744D01*
X164104774Y-75273102D01*
X164065000Y-75473061D01*
X164065000Y-75535198D01*
X163731955Y-75868244D01*
X163609774Y-75746063D01*
X163440256Y-75632795D01*
X163251898Y-75554774D01*
X163051939Y-75515000D01*
X162885011Y-75515000D01*
X162885011Y-74287333D01*
X162888687Y-74250010D01*
X162885011Y-74212687D01*
X162885011Y-74212678D01*
X162875408Y-74115174D01*
X170576322Y-74115174D01*
X170634019Y-74670632D01*
X170798972Y-75204161D01*
X171047982Y-75670024D01*
X171435225Y-75910170D01*
X173245395Y-74100000D01*
X171435225Y-72289830D01*
X171047982Y-72529976D01*
X170787359Y-73023877D01*
X170628099Y-73559133D01*
X170576322Y-74115174D01*
X162875408Y-74115174D01*
X162874014Y-74101025D01*
X162830557Y-73957764D01*
X162810583Y-73920395D01*
X162759985Y-73825734D01*
X162688810Y-73739008D01*
X162665012Y-73710010D01*
X162636013Y-73686212D01*
X161876303Y-72926502D01*
X161876299Y-72926497D01*
X161338803Y-72389002D01*
X161315001Y-72359999D01*
X161199276Y-72265026D01*
X161067247Y-72194454D01*
X160923986Y-72150997D01*
X160812333Y-72140000D01*
X160812322Y-72140000D01*
X160775000Y-72136324D01*
X160737678Y-72140000D01*
X159728711Y-72140000D01*
X159684774Y-72096063D01*
X159515256Y-71982795D01*
X159339515Y-71910000D01*
X163531613Y-71910000D01*
X163440226Y-71971063D01*
X163296063Y-72115226D01*
X163182795Y-72284744D01*
X163104774Y-72473102D01*
X163065000Y-72673061D01*
X163065000Y-72876939D01*
X163104774Y-73076898D01*
X163182795Y-73265256D01*
X163296063Y-73434774D01*
X163440226Y-73578937D01*
X163609744Y-73692205D01*
X163798102Y-73770226D01*
X163998061Y-73810000D01*
X164201939Y-73810000D01*
X164401898Y-73770226D01*
X164590256Y-73692205D01*
X164759774Y-73578937D01*
X164903937Y-73434774D01*
X165017205Y-73265256D01*
X165095226Y-73076898D01*
X165135000Y-72876939D01*
X165135000Y-72673061D01*
X165095226Y-72473102D01*
X165017205Y-72284744D01*
X164903937Y-72115226D01*
X164759774Y-71971063D01*
X164668387Y-71910000D01*
X171738998Y-71910000D01*
X171614830Y-72110225D01*
X173425000Y-73920395D01*
X175235170Y-72110225D01*
X175111002Y-71910000D01*
X175765001Y-71910000D01*
X175765001Y-72507020D01*
X175414775Y-72289830D01*
X173604605Y-74100000D01*
X175414775Y-75910170D01*
X175765001Y-75692980D01*
X175765000Y-106657020D01*
X175414775Y-106439830D01*
X173604605Y-108250000D01*
X175414775Y-110060170D01*
X175765000Y-109842980D01*
X175765000Y-110440000D01*
X175111002Y-110440000D01*
X175235170Y-110239775D01*
X173425000Y-108429605D01*
X171614830Y-110239775D01*
X171738998Y-110440000D01*
X161180256Y-110440000D01*
X161211493Y-110365496D01*
X161260000Y-110127000D01*
X161260000Y-109777000D01*
X160152000Y-109777000D01*
X160152000Y-109797000D01*
X159898000Y-109797000D01*
X159898000Y-109777000D01*
X158790000Y-109777000D01*
X158790000Y-110127000D01*
X158838507Y-110365496D01*
X158869744Y-110440000D01*
X154182098Y-110440000D01*
X154242130Y-110242102D01*
X154260000Y-110060665D01*
X154260000Y-109239336D01*
X154242130Y-109057899D01*
X154171511Y-108825099D01*
X154056833Y-108610551D01*
X153902502Y-108422498D01*
X153724841Y-108276695D01*
X153830849Y-108302719D01*
X154098482Y-108314604D01*
X154363291Y-108274048D01*
X154615100Y-108182609D01*
X154722035Y-108125450D01*
X154784528Y-107889133D01*
X158265472Y-107889133D01*
X158327965Y-108125450D01*
X158570678Y-108238850D01*
X158830849Y-108302719D01*
X159098482Y-108314604D01*
X159328442Y-108279385D01*
X159241526Y-108336922D01*
X159068693Y-108508275D01*
X158932610Y-108710054D01*
X158838507Y-108934504D01*
X158790000Y-109173000D01*
X158790000Y-109523000D01*
X159898000Y-109523000D01*
X159898000Y-108231269D01*
X160152000Y-108231269D01*
X160152000Y-109523000D01*
X161260000Y-109523000D01*
X161260000Y-109173000D01*
X161211493Y-108934504D01*
X161117390Y-108710054D01*
X160981307Y-108508275D01*
X160808474Y-108336922D01*
X160700091Y-108265174D01*
X170576322Y-108265174D01*
X170634019Y-108820632D01*
X170798972Y-109354161D01*
X171047982Y-109820024D01*
X171435225Y-110060170D01*
X173245395Y-108250000D01*
X171435225Y-106439830D01*
X171047982Y-106679976D01*
X170787359Y-107173877D01*
X170628099Y-107709133D01*
X170576322Y-108265174D01*
X160700091Y-108265174D01*
X160605533Y-108202579D01*
X160380282Y-108110409D01*
X160342609Y-108106538D01*
X160152000Y-108231269D01*
X159898000Y-108231269D01*
X159724138Y-108117497D01*
X159784528Y-107889133D01*
X159025000Y-107129605D01*
X158265472Y-107889133D01*
X154784528Y-107889133D01*
X154025000Y-107129605D01*
X153265472Y-107889133D01*
X153321031Y-108099229D01*
X153267102Y-108082870D01*
X153025000Y-108059025D01*
X152782899Y-108082870D01*
X152550100Y-108153489D01*
X152335552Y-108268167D01*
X152147499Y-108422498D01*
X151993168Y-108610551D01*
X151878489Y-108825099D01*
X151807870Y-109057898D01*
X151790000Y-109239335D01*
X151790000Y-110060664D01*
X151807870Y-110242101D01*
X151867902Y-110440000D01*
X141461002Y-110440000D01*
X141585170Y-110239775D01*
X139775000Y-108429605D01*
X137964830Y-110239775D01*
X138088998Y-110440000D01*
X137285000Y-110440000D01*
X137285000Y-109608650D01*
X137397982Y-109820024D01*
X137785225Y-110060170D01*
X139595395Y-108250000D01*
X139954605Y-108250000D01*
X141764775Y-110060170D01*
X142152018Y-109820024D01*
X142412641Y-109326123D01*
X142571901Y-108790867D01*
X142623678Y-108234826D01*
X142565981Y-107679368D01*
X142401028Y-107145839D01*
X142335627Y-107023482D01*
X152660396Y-107023482D01*
X152700952Y-107288291D01*
X152792391Y-107540100D01*
X152849550Y-107647035D01*
X153085867Y-107709528D01*
X153845395Y-106950000D01*
X154204605Y-106950000D01*
X154964133Y-107709528D01*
X155200450Y-107647035D01*
X155313850Y-107404322D01*
X155377719Y-107144151D01*
X155383077Y-107023482D01*
X157660396Y-107023482D01*
X157700952Y-107288291D01*
X157792391Y-107540100D01*
X157849550Y-107647035D01*
X158085867Y-107709528D01*
X158845395Y-106950000D01*
X159204605Y-106950000D01*
X159964133Y-107709528D01*
X160200450Y-107647035D01*
X160313850Y-107404322D01*
X160377719Y-107144151D01*
X160389604Y-106876518D01*
X160349048Y-106611709D01*
X160257609Y-106359900D01*
X160204331Y-106260225D01*
X171614830Y-106260225D01*
X173425000Y-108070395D01*
X175235170Y-106260225D01*
X174995024Y-105872982D01*
X174501123Y-105612359D01*
X173965867Y-105453099D01*
X173409826Y-105401322D01*
X172854368Y-105459019D01*
X172320839Y-105623972D01*
X171854976Y-105872982D01*
X171614830Y-106260225D01*
X160204331Y-106260225D01*
X160200450Y-106252965D01*
X159964133Y-106190472D01*
X159204605Y-106950000D01*
X158845395Y-106950000D01*
X158085867Y-106190472D01*
X157849550Y-106252965D01*
X157736150Y-106495678D01*
X157672281Y-106755849D01*
X157660396Y-107023482D01*
X155383077Y-107023482D01*
X155389604Y-106876518D01*
X155349048Y-106611709D01*
X155257609Y-106359900D01*
X155200450Y-106252965D01*
X154964133Y-106190472D01*
X154204605Y-106950000D01*
X153845395Y-106950000D01*
X153085867Y-106190472D01*
X152849550Y-106252965D01*
X152736150Y-106495678D01*
X152672281Y-106755849D01*
X152660396Y-107023482D01*
X142335627Y-107023482D01*
X142152018Y-106679976D01*
X141764775Y-106439830D01*
X139954605Y-108250000D01*
X139595395Y-108250000D01*
X137785225Y-106439830D01*
X137397982Y-106679976D01*
X137285000Y-106894086D01*
X137285000Y-106260225D01*
X137964830Y-106260225D01*
X139775000Y-108070395D01*
X141585170Y-106260225D01*
X141430533Y-106010867D01*
X153265472Y-106010867D01*
X154025000Y-106770395D01*
X154784528Y-106010867D01*
X158265472Y-106010867D01*
X159025000Y-106770395D01*
X159784528Y-106010867D01*
X159722035Y-105774550D01*
X159479322Y-105661150D01*
X159219151Y-105597281D01*
X158951518Y-105585396D01*
X158686709Y-105625952D01*
X158434900Y-105717391D01*
X158327965Y-105774550D01*
X158265472Y-106010867D01*
X154784528Y-106010867D01*
X154722035Y-105774550D01*
X154479322Y-105661150D01*
X154219151Y-105597281D01*
X153951518Y-105585396D01*
X153686709Y-105625952D01*
X153434900Y-105717391D01*
X153327965Y-105774550D01*
X153265472Y-106010867D01*
X141430533Y-106010867D01*
X141345024Y-105872982D01*
X140851123Y-105612359D01*
X140315867Y-105453099D01*
X139759826Y-105401322D01*
X139204368Y-105459019D01*
X138670839Y-105623972D01*
X138204976Y-105872982D01*
X137964830Y-106260225D01*
X137285000Y-106260225D01*
X137285000Y-102098061D01*
X149265000Y-102098061D01*
X149265000Y-102301939D01*
X149304774Y-102501898D01*
X149382795Y-102690256D01*
X149496063Y-102859774D01*
X149640226Y-103003937D01*
X149809744Y-103117205D01*
X149998102Y-103195226D01*
X150198061Y-103235000D01*
X150401939Y-103235000D01*
X150601898Y-103195226D01*
X150790256Y-103117205D01*
X150959774Y-103003937D01*
X151103937Y-102859774D01*
X151217205Y-102690256D01*
X151295226Y-102501898D01*
X151335000Y-102301939D01*
X151335000Y-102098061D01*
X151295226Y-101898102D01*
X151217205Y-101709744D01*
X151103937Y-101540226D01*
X150959774Y-101396063D01*
X150790256Y-101282795D01*
X150601898Y-101204774D01*
X150401939Y-101165000D01*
X150198061Y-101165000D01*
X149998102Y-101204774D01*
X149809744Y-101282795D01*
X149640226Y-101396063D01*
X149496063Y-101540226D01*
X149382795Y-101709744D01*
X149304774Y-101898102D01*
X149265000Y-102098061D01*
X137285000Y-102098061D01*
X137285000Y-97198061D01*
X162765000Y-97198061D01*
X162765000Y-97401939D01*
X162804774Y-97601898D01*
X162882795Y-97790256D01*
X162996063Y-97959774D01*
X163140226Y-98103937D01*
X163309744Y-98217205D01*
X163498102Y-98295226D01*
X163698061Y-98335000D01*
X163901939Y-98335000D01*
X164101898Y-98295226D01*
X164290256Y-98217205D01*
X164459774Y-98103937D01*
X164603937Y-97959774D01*
X164717205Y-97790256D01*
X164795226Y-97601898D01*
X164835000Y-97401939D01*
X164835000Y-97339802D01*
X165839803Y-96335000D01*
X168279044Y-96335000D01*
X168419208Y-96505792D01*
X168503539Y-96575000D01*
X168419208Y-96644208D01*
X168255505Y-96843682D01*
X168133862Y-97071259D01*
X168058955Y-97318195D01*
X168033662Y-97575000D01*
X168055318Y-97794880D01*
X167063998Y-98786201D01*
X167035000Y-98809999D01*
X167011202Y-98838997D01*
X167011201Y-98838998D01*
X166940026Y-98925724D01*
X166869454Y-99057754D01*
X166825998Y-99201015D01*
X166811324Y-99350000D01*
X166815001Y-99387332D01*
X166815000Y-101485198D01*
X165981462Y-102318737D01*
X165890256Y-102257795D01*
X165701898Y-102179774D01*
X165501939Y-102140000D01*
X165298061Y-102140000D01*
X165098102Y-102179774D01*
X164909744Y-102257795D01*
X164740226Y-102371063D01*
X164596063Y-102515226D01*
X164482795Y-102684744D01*
X164404774Y-102873102D01*
X164365000Y-103073061D01*
X164365000Y-103276939D01*
X164404774Y-103476898D01*
X164482795Y-103665256D01*
X164596063Y-103834774D01*
X164740226Y-103978937D01*
X164909744Y-104092205D01*
X165098102Y-104170226D01*
X165298061Y-104210000D01*
X165501939Y-104210000D01*
X165701898Y-104170226D01*
X165890256Y-104092205D01*
X166059774Y-103978937D01*
X166103711Y-103935000D01*
X166162678Y-103935000D01*
X166200000Y-103938676D01*
X166237322Y-103935000D01*
X166237333Y-103935000D01*
X166348986Y-103924003D01*
X166492247Y-103880546D01*
X166624276Y-103809974D01*
X166740001Y-103715001D01*
X166763804Y-103685997D01*
X168086004Y-102363798D01*
X168115001Y-102340001D01*
X168209974Y-102224276D01*
X168212075Y-102220346D01*
X168220527Y-102238629D01*
X168371697Y-102446227D01*
X168560463Y-102620344D01*
X168779570Y-102754289D01*
X169020599Y-102842915D01*
X169223000Y-102720085D01*
X169223000Y-101702000D01*
X169477000Y-101702000D01*
X169477000Y-102720085D01*
X169679401Y-102842915D01*
X169920430Y-102754289D01*
X170139537Y-102620344D01*
X170149744Y-102610929D01*
X170223815Y-102701185D01*
X170320506Y-102780537D01*
X170430820Y-102839502D01*
X170550518Y-102875812D01*
X170675000Y-102888072D01*
X171064250Y-102885000D01*
X171223000Y-102726250D01*
X171223000Y-101702000D01*
X171477000Y-101702000D01*
X171477000Y-102726250D01*
X171635750Y-102885000D01*
X172025000Y-102888072D01*
X172149482Y-102875812D01*
X172269180Y-102839502D01*
X172379494Y-102780537D01*
X172476185Y-102701185D01*
X172555537Y-102604494D01*
X172614502Y-102494180D01*
X172650812Y-102374482D01*
X172663072Y-102250000D01*
X172660000Y-101860750D01*
X172501250Y-101702000D01*
X171477000Y-101702000D01*
X171223000Y-101702000D01*
X169477000Y-101702000D01*
X169223000Y-101702000D01*
X169203000Y-101702000D01*
X169203000Y-101448000D01*
X169223000Y-101448000D01*
X169223000Y-101428000D01*
X169477000Y-101428000D01*
X169477000Y-101448000D01*
X171223000Y-101448000D01*
X171223000Y-99702000D01*
X171477000Y-99702000D01*
X171477000Y-101448000D01*
X172501250Y-101448000D01*
X172660000Y-101289250D01*
X172663072Y-100900000D01*
X172650812Y-100775518D01*
X172614502Y-100655820D01*
X172555537Y-100545506D01*
X172476185Y-100448815D01*
X172382441Y-100371881D01*
X172479473Y-100238629D01*
X172587238Y-100005528D01*
X172617910Y-99904400D01*
X172494224Y-99702000D01*
X171477000Y-99702000D01*
X171223000Y-99702000D01*
X171203000Y-99702000D01*
X171203000Y-99448000D01*
X171223000Y-99448000D01*
X171223000Y-97702000D01*
X171477000Y-97702000D01*
X171477000Y-99448000D01*
X172494224Y-99448000D01*
X172617910Y-99245600D01*
X172587238Y-99144472D01*
X172479473Y-98911371D01*
X172328303Y-98703773D01*
X172188696Y-98575000D01*
X172328303Y-98446227D01*
X172479473Y-98238629D01*
X172587238Y-98005528D01*
X172617910Y-97904400D01*
X172494224Y-97702000D01*
X171477000Y-97702000D01*
X171223000Y-97702000D01*
X171203000Y-97702000D01*
X171203000Y-97448000D01*
X171223000Y-97448000D01*
X171223000Y-97428000D01*
X171477000Y-97428000D01*
X171477000Y-97448000D01*
X172494224Y-97448000D01*
X172617910Y-97245600D01*
X172587238Y-97144472D01*
X172479473Y-96911371D01*
X172328303Y-96703773D01*
X172192352Y-96578372D01*
X172280792Y-96505792D01*
X172444495Y-96306318D01*
X172566138Y-96078741D01*
X172641045Y-95831805D01*
X172666338Y-95575000D01*
X172641045Y-95318195D01*
X172566138Y-95071259D01*
X172444495Y-94843682D01*
X172280792Y-94644208D01*
X172196461Y-94575000D01*
X172280792Y-94505792D01*
X172444495Y-94306318D01*
X172566138Y-94078741D01*
X172641045Y-93831805D01*
X172666338Y-93575000D01*
X172641045Y-93318195D01*
X172566138Y-93071259D01*
X172444495Y-92843682D01*
X172280792Y-92644208D01*
X172196461Y-92575000D01*
X172280792Y-92505792D01*
X172444495Y-92306318D01*
X172566138Y-92078741D01*
X172641045Y-91831805D01*
X172666338Y-91575000D01*
X172641045Y-91318195D01*
X172566138Y-91071259D01*
X172444495Y-90843682D01*
X172280792Y-90644208D01*
X172081318Y-90480505D01*
X171853741Y-90358862D01*
X171606805Y-90283955D01*
X171414351Y-90265000D01*
X171285649Y-90265000D01*
X171093195Y-90283955D01*
X170846259Y-90358862D01*
X170618682Y-90480505D01*
X170419208Y-90644208D01*
X170350000Y-90728539D01*
X170280792Y-90644208D01*
X170081318Y-90480505D01*
X169853741Y-90358862D01*
X169606805Y-90283955D01*
X169414351Y-90265000D01*
X169285649Y-90265000D01*
X169093195Y-90283955D01*
X168846259Y-90358862D01*
X168618682Y-90480505D01*
X168419208Y-90644208D01*
X168255505Y-90843682D01*
X168133862Y-91071259D01*
X168058955Y-91318195D01*
X168033662Y-91575000D01*
X168058955Y-91831805D01*
X168133862Y-92078741D01*
X168255505Y-92306318D01*
X168419208Y-92505792D01*
X168503539Y-92575000D01*
X168419208Y-92644208D01*
X168255505Y-92843682D01*
X168133862Y-93071259D01*
X168058955Y-93318195D01*
X168033662Y-93575000D01*
X168058955Y-93831805D01*
X168133862Y-94078741D01*
X168255505Y-94306318D01*
X168419208Y-94505792D01*
X168503539Y-94575000D01*
X168419208Y-94644208D01*
X168279044Y-94815000D01*
X165562322Y-94815000D01*
X165524999Y-94811324D01*
X165487676Y-94815000D01*
X165487667Y-94815000D01*
X165376014Y-94825997D01*
X165232753Y-94869454D01*
X165100724Y-94940026D01*
X165100722Y-94940027D01*
X165100723Y-94940027D01*
X165013996Y-95011201D01*
X165013992Y-95011205D01*
X164984999Y-95034999D01*
X164961205Y-95063992D01*
X163760198Y-96265000D01*
X163698061Y-96265000D01*
X163498102Y-96304774D01*
X163309744Y-96382795D01*
X163140226Y-96496063D01*
X162996063Y-96640226D01*
X162882795Y-96809744D01*
X162804774Y-96998102D01*
X162765000Y-97198061D01*
X137285000Y-97198061D01*
X137285000Y-88490000D01*
X138032815Y-88490000D01*
X138061487Y-88781111D01*
X138146401Y-89061034D01*
X138284294Y-89319014D01*
X138469866Y-89545134D01*
X138695986Y-89730706D01*
X138750791Y-89760000D01*
X138695986Y-89789294D01*
X138469866Y-89974866D01*
X138284294Y-90200986D01*
X138146401Y-90458966D01*
X138061487Y-90738889D01*
X138032815Y-91030000D01*
X138061487Y-91321111D01*
X138146401Y-91601034D01*
X138284294Y-91859014D01*
X138469866Y-92085134D01*
X138695986Y-92270706D01*
X138750791Y-92300000D01*
X138695986Y-92329294D01*
X138469866Y-92514866D01*
X138284294Y-92740986D01*
X138146401Y-92998966D01*
X138061487Y-93278889D01*
X138032815Y-93570000D01*
X138061487Y-93861111D01*
X138146401Y-94141034D01*
X138284294Y-94399014D01*
X138469866Y-94625134D01*
X138695986Y-94810706D01*
X138953966Y-94948599D01*
X139233889Y-95033513D01*
X139452050Y-95055000D01*
X139597950Y-95055000D01*
X139816111Y-95033513D01*
X139932980Y-94998061D01*
X145840000Y-94998061D01*
X145840000Y-95201939D01*
X145879774Y-95401898D01*
X145957795Y-95590256D01*
X146071063Y-95759774D01*
X146215226Y-95903937D01*
X146384744Y-96017205D01*
X146573102Y-96095226D01*
X146773061Y-96135000D01*
X146976939Y-96135000D01*
X147176898Y-96095226D01*
X147365256Y-96017205D01*
X147534774Y-95903937D01*
X147678937Y-95759774D01*
X147792205Y-95590256D01*
X147870226Y-95401898D01*
X147910000Y-95201939D01*
X147910000Y-94998061D01*
X147870226Y-94798102D01*
X147792205Y-94609744D01*
X147678937Y-94440226D01*
X147534774Y-94296063D01*
X147365256Y-94182795D01*
X147176898Y-94104774D01*
X146976939Y-94065000D01*
X146773061Y-94065000D01*
X146573102Y-94104774D01*
X146384744Y-94182795D01*
X146215226Y-94296063D01*
X146071063Y-94440226D01*
X145957795Y-94609744D01*
X145879774Y-94798102D01*
X145840000Y-94998061D01*
X139932980Y-94998061D01*
X140096034Y-94948599D01*
X140354014Y-94810706D01*
X140580134Y-94625134D01*
X140765706Y-94399014D01*
X140903599Y-94141034D01*
X140988513Y-93861111D01*
X141017185Y-93570000D01*
X140988513Y-93278889D01*
X140903599Y-92998966D01*
X140765706Y-92740986D01*
X140580134Y-92514866D01*
X140354014Y-92329294D01*
X140299209Y-92300000D01*
X140354014Y-92270706D01*
X140580134Y-92085134D01*
X140765706Y-91859014D01*
X140903599Y-91601034D01*
X140988513Y-91321111D01*
X141017185Y-91030000D01*
X140988513Y-90738889D01*
X140903599Y-90458966D01*
X140765706Y-90200986D01*
X140580134Y-89974866D01*
X140354014Y-89789294D01*
X140299209Y-89760000D01*
X140354014Y-89730706D01*
X140580134Y-89545134D01*
X140765706Y-89319014D01*
X140802595Y-89250000D01*
X144200199Y-89250000D01*
X146511201Y-91561003D01*
X146534999Y-91590001D01*
X146650724Y-91684974D01*
X146782753Y-91755546D01*
X146926014Y-91799003D01*
X147037667Y-91810000D01*
X147037675Y-91810000D01*
X147075000Y-91813676D01*
X147112325Y-91810000D01*
X149571289Y-91810000D01*
X149615226Y-91853937D01*
X149784744Y-91967205D01*
X149809103Y-91977295D01*
X149779774Y-92048102D01*
X149740000Y-92248061D01*
X149740000Y-92451939D01*
X149779774Y-92651898D01*
X149857795Y-92840256D01*
X149971063Y-93009774D01*
X150115226Y-93153937D01*
X150284744Y-93267205D01*
X150473102Y-93345226D01*
X150673061Y-93385000D01*
X150876939Y-93385000D01*
X151076898Y-93345226D01*
X151265256Y-93267205D01*
X151434774Y-93153937D01*
X151578937Y-93009774D01*
X151692205Y-92840256D01*
X151770226Y-92651898D01*
X151810000Y-92451939D01*
X151810000Y-92390632D01*
X151884974Y-92299276D01*
X151955546Y-92167247D01*
X151999003Y-92023986D01*
X152010000Y-91912333D01*
X152010000Y-91912324D01*
X152013676Y-91875001D01*
X152010000Y-91837678D01*
X152010000Y-89737323D01*
X152013676Y-89700000D01*
X152010000Y-89662677D01*
X152010000Y-89662667D01*
X151999003Y-89551014D01*
X151955546Y-89407753D01*
X151884974Y-89275724D01*
X151790001Y-89159999D01*
X151761003Y-89136201D01*
X148097863Y-85473061D01*
X151390000Y-85473061D01*
X151390000Y-85676939D01*
X151429774Y-85876898D01*
X151507795Y-86065256D01*
X151621063Y-86234774D01*
X151765226Y-86378937D01*
X151934744Y-86492205D01*
X152123102Y-86570226D01*
X152244590Y-86594391D01*
X160111201Y-94461003D01*
X160134999Y-94490001D01*
X160163997Y-94513799D01*
X160250723Y-94584974D01*
X160325857Y-94625134D01*
X160382753Y-94655546D01*
X160526014Y-94699003D01*
X160637667Y-94710000D01*
X160637677Y-94710000D01*
X160675000Y-94713676D01*
X160712323Y-94710000D01*
X163071289Y-94710000D01*
X163115226Y-94753937D01*
X163284744Y-94867205D01*
X163473102Y-94945226D01*
X163673061Y-94985000D01*
X163876939Y-94985000D01*
X164076898Y-94945226D01*
X164265256Y-94867205D01*
X164434774Y-94753937D01*
X164578937Y-94609774D01*
X164692205Y-94440256D01*
X164770226Y-94251898D01*
X164810000Y-94051939D01*
X164810000Y-93848061D01*
X164770226Y-93648102D01*
X164692205Y-93459744D01*
X164578937Y-93290226D01*
X164434774Y-93146063D01*
X164265256Y-93032795D01*
X164076898Y-92954774D01*
X163876939Y-92915000D01*
X163673061Y-92915000D01*
X163473102Y-92954774D01*
X163284744Y-93032795D01*
X163115226Y-93146063D01*
X163071289Y-93190000D01*
X160989802Y-93190000D01*
X157597863Y-89798061D01*
X163665000Y-89798061D01*
X163665000Y-90001939D01*
X163704774Y-90201898D01*
X163782795Y-90390256D01*
X163896063Y-90559774D01*
X164040226Y-90703937D01*
X164209744Y-90817205D01*
X164398102Y-90895226D01*
X164598061Y-90935000D01*
X164801939Y-90935000D01*
X165001898Y-90895226D01*
X165190256Y-90817205D01*
X165359774Y-90703937D01*
X165503937Y-90559774D01*
X165617205Y-90390256D01*
X165695226Y-90201898D01*
X165735000Y-90001939D01*
X165735000Y-89798061D01*
X165695226Y-89598102D01*
X165617205Y-89409744D01*
X165503937Y-89240226D01*
X165359774Y-89096063D01*
X165190256Y-88982795D01*
X165001898Y-88904774D01*
X164801939Y-88865000D01*
X164598061Y-88865000D01*
X164398102Y-88904774D01*
X164209744Y-88982795D01*
X164040226Y-89096063D01*
X163896063Y-89240226D01*
X163782795Y-89409744D01*
X163704774Y-89598102D01*
X163665000Y-89798061D01*
X157597863Y-89798061D01*
X153460000Y-85660199D01*
X153460000Y-85473061D01*
X153420226Y-85273102D01*
X153342205Y-85084744D01*
X153228937Y-84915226D01*
X153084774Y-84771063D01*
X152915256Y-84657795D01*
X152726898Y-84579774D01*
X152526939Y-84540000D01*
X152323061Y-84540000D01*
X152123102Y-84579774D01*
X151934744Y-84657795D01*
X151765226Y-84771063D01*
X151621063Y-84915226D01*
X151507795Y-85084744D01*
X151429774Y-85273102D01*
X151390000Y-85473061D01*
X148097863Y-85473061D01*
X148063804Y-85439003D01*
X148040001Y-85409999D01*
X147924276Y-85315026D01*
X147792247Y-85244454D01*
X147648986Y-85200997D01*
X147537333Y-85190000D01*
X147537322Y-85190000D01*
X147500000Y-85186324D01*
X147462678Y-85190000D01*
X141013072Y-85190000D01*
X141013072Y-85100000D01*
X141000812Y-84975518D01*
X140964502Y-84855820D01*
X140905537Y-84745506D01*
X140826185Y-84648815D01*
X140729494Y-84569463D01*
X140619180Y-84510498D01*
X140499482Y-84474188D01*
X140375000Y-84461928D01*
X138675000Y-84461928D01*
X138550518Y-84474188D01*
X138430820Y-84510498D01*
X138320506Y-84569463D01*
X138223815Y-84648815D01*
X138144463Y-84745506D01*
X138085498Y-84855820D01*
X138049188Y-84975518D01*
X138036928Y-85100000D01*
X138036928Y-86800000D01*
X138049188Y-86924482D01*
X138085498Y-87044180D01*
X138144463Y-87154494D01*
X138223815Y-87251185D01*
X138320506Y-87330537D01*
X138430820Y-87389502D01*
X138499687Y-87410393D01*
X138469866Y-87434866D01*
X138284294Y-87660986D01*
X138146401Y-87918966D01*
X138061487Y-88198889D01*
X138032815Y-88490000D01*
X137285000Y-88490000D01*
X137285000Y-81098061D01*
X144190000Y-81098061D01*
X144190000Y-81301939D01*
X144229774Y-81501898D01*
X144307795Y-81690256D01*
X144421063Y-81859774D01*
X144565226Y-82003937D01*
X144734744Y-82117205D01*
X144923102Y-82195226D01*
X145123061Y-82235000D01*
X145326939Y-82235000D01*
X145526898Y-82195226D01*
X145715256Y-82117205D01*
X145884774Y-82003937D01*
X146028937Y-81859774D01*
X146142205Y-81690256D01*
X146220226Y-81501898D01*
X146225961Y-81473061D01*
X151240000Y-81473061D01*
X151240000Y-81676939D01*
X151279774Y-81876898D01*
X151357795Y-82065256D01*
X151471063Y-82234774D01*
X151615226Y-82378937D01*
X151784744Y-82492205D01*
X151973102Y-82570226D01*
X152173061Y-82610000D01*
X152376939Y-82610000D01*
X152576898Y-82570226D01*
X152765256Y-82492205D01*
X152934774Y-82378937D01*
X153078937Y-82234774D01*
X153192205Y-82065256D01*
X153270226Y-81876898D01*
X153310000Y-81676939D01*
X153310000Y-81473061D01*
X153270226Y-81273102D01*
X153192205Y-81084744D01*
X153078937Y-80915226D01*
X152934774Y-80771063D01*
X152765256Y-80657795D01*
X152576898Y-80579774D01*
X152376939Y-80540000D01*
X152173061Y-80540000D01*
X151973102Y-80579774D01*
X151784744Y-80657795D01*
X151615226Y-80771063D01*
X151471063Y-80915226D01*
X151357795Y-81084744D01*
X151279774Y-81273102D01*
X151240000Y-81473061D01*
X146225961Y-81473061D01*
X146260000Y-81301939D01*
X146260000Y-81098061D01*
X146220226Y-80898102D01*
X146142205Y-80709744D01*
X146028937Y-80540226D01*
X145884774Y-80396063D01*
X145715256Y-80282795D01*
X145526898Y-80204774D01*
X145326939Y-80165000D01*
X145123061Y-80165000D01*
X144923102Y-80204774D01*
X144734744Y-80282795D01*
X144565226Y-80396063D01*
X144421063Y-80540226D01*
X144307795Y-80709744D01*
X144229774Y-80898102D01*
X144190000Y-81098061D01*
X137285000Y-81098061D01*
X137285000Y-76089775D01*
X137964830Y-76089775D01*
X138204976Y-76477018D01*
X138698877Y-76737641D01*
X139234133Y-76896901D01*
X139790174Y-76948678D01*
X139796113Y-76948061D01*
X143490000Y-76948061D01*
X143490000Y-77151939D01*
X143529774Y-77351898D01*
X143607795Y-77540256D01*
X143721063Y-77709774D01*
X143865226Y-77853937D01*
X144034744Y-77967205D01*
X144223102Y-78045226D01*
X144423061Y-78085000D01*
X144626939Y-78085000D01*
X144826898Y-78045226D01*
X145015256Y-77967205D01*
X145184774Y-77853937D01*
X145328937Y-77709774D01*
X145442205Y-77540256D01*
X145520226Y-77351898D01*
X145560000Y-77151939D01*
X145560000Y-76948061D01*
X145520226Y-76748102D01*
X145442205Y-76559744D01*
X145328937Y-76390226D01*
X145184774Y-76246063D01*
X145015256Y-76132795D01*
X144826898Y-76054774D01*
X144626939Y-76015000D01*
X144423061Y-76015000D01*
X144223102Y-76054774D01*
X144034744Y-76132795D01*
X143865226Y-76246063D01*
X143721063Y-76390226D01*
X143607795Y-76559744D01*
X143529774Y-76748102D01*
X143490000Y-76948061D01*
X139796113Y-76948061D01*
X140345632Y-76890981D01*
X140879161Y-76726028D01*
X141345024Y-76477018D01*
X141585170Y-76089775D01*
X139775000Y-74279605D01*
X137964830Y-76089775D01*
X137285000Y-76089775D01*
X137285000Y-75458650D01*
X137397982Y-75670024D01*
X137785225Y-75910170D01*
X139595395Y-74100000D01*
X139954605Y-74100000D01*
X141764775Y-75910170D01*
X142152018Y-75670024D01*
X142216375Y-75548061D01*
X148990000Y-75548061D01*
X148990000Y-75751939D01*
X149029774Y-75951898D01*
X149107795Y-76140256D01*
X149221063Y-76309774D01*
X149365226Y-76453937D01*
X149534744Y-76567205D01*
X149723102Y-76645226D01*
X149923061Y-76685000D01*
X150126939Y-76685000D01*
X150326898Y-76645226D01*
X150515256Y-76567205D01*
X150684774Y-76453937D01*
X150828937Y-76309774D01*
X150942205Y-76140256D01*
X151020226Y-75951898D01*
X151060000Y-75751939D01*
X151060000Y-75548061D01*
X151020226Y-75348102D01*
X150942205Y-75159744D01*
X150828937Y-74990226D01*
X150684774Y-74846063D01*
X150515256Y-74732795D01*
X150326898Y-74654774D01*
X150126939Y-74615000D01*
X149923061Y-74615000D01*
X149723102Y-74654774D01*
X149534744Y-74732795D01*
X149365226Y-74846063D01*
X149221063Y-74990226D01*
X149107795Y-75159744D01*
X149029774Y-75348102D01*
X148990000Y-75548061D01*
X142216375Y-75548061D01*
X142412641Y-75176123D01*
X142571901Y-74640867D01*
X142623678Y-74084826D01*
X142565981Y-73529368D01*
X142401028Y-72995839D01*
X142152018Y-72529976D01*
X141764775Y-72289830D01*
X139954605Y-74100000D01*
X139595395Y-74100000D01*
X137785225Y-72289830D01*
X137397982Y-72529976D01*
X137285000Y-72744086D01*
X137285000Y-71910000D01*
X138088998Y-71910000D01*
X137964830Y-72110225D01*
X137964830Y-72110225D01*
G37*
X137964830Y-72110225D02*
X139775000Y-73920395D01*
X141585170Y-72110225D01*
X141461002Y-71910000D01*
X153346335Y-71910000D01*
X153232753Y-71944454D01*
X153100723Y-72015026D01*
X153017083Y-72083668D01*
X152984999Y-72109999D01*
X152961201Y-72138997D01*
X151988998Y-73111201D01*
X151960000Y-73134999D01*
X151936202Y-73163997D01*
X151936201Y-73163998D01*
X151865026Y-73250724D01*
X151794454Y-73382754D01*
X151781420Y-73425724D01*
X151750997Y-73526014D01*
X151740000Y-73637667D01*
X151740000Y-73637678D01*
X151736324Y-73675000D01*
X151738562Y-73697727D01*
X151696063Y-73740226D01*
X151582795Y-73909744D01*
X151504774Y-74098102D01*
X151465000Y-74298061D01*
X151465000Y-74501939D01*
X151504774Y-74701898D01*
X151582795Y-74890256D01*
X151696063Y-75059774D01*
X151840226Y-75203937D01*
X152009744Y-75317205D01*
X152198102Y-75395226D01*
X152398061Y-75435000D01*
X152601939Y-75435000D01*
X152801898Y-75395226D01*
X152990256Y-75317205D01*
X153159774Y-75203937D01*
X153303937Y-75059774D01*
X153417205Y-74890256D01*
X153495226Y-74701898D01*
X153535000Y-74501939D01*
X153535000Y-74298061D01*
X153495226Y-74098102D01*
X153417205Y-73909744D01*
X153386304Y-73863497D01*
X153839802Y-73410000D01*
X154821289Y-73410000D01*
X154865226Y-73453937D01*
X155034744Y-73567205D01*
X155223102Y-73645226D01*
X155423061Y-73685000D01*
X155626939Y-73685000D01*
X155826898Y-73645226D01*
X156015256Y-73567205D01*
X156184774Y-73453937D01*
X156252254Y-73386457D01*
X156240000Y-73448061D01*
X156240000Y-73651939D01*
X156279774Y-73851898D01*
X156357795Y-74040256D01*
X156471063Y-74209774D01*
X156615226Y-74353937D01*
X156784744Y-74467205D01*
X156973102Y-74545226D01*
X157173061Y-74585000D01*
X157234368Y-74585000D01*
X157325725Y-74659975D01*
X157457754Y-74730547D01*
X157601015Y-74774004D01*
X157712668Y-74785001D01*
X157712678Y-74785001D01*
X157750001Y-74788677D01*
X157787324Y-74785001D01*
X159685200Y-74785001D01*
X160915002Y-76014804D01*
X160915001Y-79285197D01*
X159375884Y-80824315D01*
X157178007Y-80824315D01*
X157140684Y-80820639D01*
X157103361Y-80824315D01*
X157103352Y-80824315D01*
X156991699Y-80835312D01*
X156848438Y-80878769D01*
X156716409Y-80949341D01*
X156600684Y-81044314D01*
X156576886Y-81073312D01*
X155360199Y-82290000D01*
X155298061Y-82290000D01*
X155098102Y-82329774D01*
X154909744Y-82407795D01*
X154740226Y-82521063D01*
X154596063Y-82665226D01*
X154482795Y-82834744D01*
X154404774Y-83023102D01*
X154404720Y-83023373D01*
X154236939Y-82990000D01*
X154033061Y-82990000D01*
X153833102Y-83029774D01*
X153644744Y-83107795D01*
X153475226Y-83221063D01*
X153331063Y-83365226D01*
X153217795Y-83534744D01*
X153139774Y-83723102D01*
X153100000Y-83923061D01*
X153100000Y-84126939D01*
X153139774Y-84326898D01*
X153217795Y-84515256D01*
X153331063Y-84684774D01*
X153475226Y-84828937D01*
X153644744Y-84942205D01*
X153833102Y-85020226D01*
X154033061Y-85060000D01*
X154110774Y-85060000D01*
X154242752Y-85130545D01*
X154386013Y-85174002D01*
X154497666Y-85184999D01*
X154497676Y-85184999D01*
X154534998Y-85188675D01*
X154572321Y-85184999D01*
X156162679Y-85184999D01*
X156200001Y-85188675D01*
X156237323Y-85184999D01*
X156237334Y-85184999D01*
X156348987Y-85174002D01*
X156492248Y-85130545D01*
X156624277Y-85059973D01*
X156740002Y-84965000D01*
X156763805Y-84935996D01*
X157664802Y-84035000D01*
X161112678Y-84035000D01*
X161150000Y-84038676D01*
X161187322Y-84035000D01*
X161187333Y-84035000D01*
X161298986Y-84024003D01*
X161442247Y-83980546D01*
X161574276Y-83909974D01*
X161690001Y-83815001D01*
X161713804Y-83785998D01*
X162140001Y-83359801D01*
X162140000Y-84287677D01*
X162136324Y-84325000D01*
X162140000Y-84362322D01*
X162140000Y-84362332D01*
X162150997Y-84473985D01*
X162180191Y-84570226D01*
X162194454Y-84617246D01*
X162265026Y-84749276D01*
X162287695Y-84776898D01*
X162359999Y-84865001D01*
X162389003Y-84888804D01*
X164238735Y-86738537D01*
X164115226Y-86821063D01*
X163971063Y-86965226D01*
X163857795Y-87134744D01*
X163779774Y-87323102D01*
X163740000Y-87523061D01*
X163740000Y-87726939D01*
X163779774Y-87926898D01*
X163857795Y-88115256D01*
X163971063Y-88284774D01*
X164115226Y-88428937D01*
X164284744Y-88542205D01*
X164473102Y-88620226D01*
X164673061Y-88660000D01*
X164876939Y-88660000D01*
X165076898Y-88620226D01*
X165265256Y-88542205D01*
X165434774Y-88428937D01*
X165578937Y-88284774D01*
X165661463Y-88161265D01*
X166240000Y-88739802D01*
X166240000Y-88801939D01*
X166279774Y-89001898D01*
X166357795Y-89190256D01*
X166471063Y-89359774D01*
X166615226Y-89503937D01*
X166784744Y-89617205D01*
X166973102Y-89695226D01*
X167173061Y-89735000D01*
X167376939Y-89735000D01*
X167576898Y-89695226D01*
X167765256Y-89617205D01*
X167934774Y-89503937D01*
X168078937Y-89359774D01*
X168192205Y-89190256D01*
X168270226Y-89001898D01*
X168310000Y-88801939D01*
X168310000Y-88660229D01*
X168312325Y-88660000D01*
X171285199Y-88660000D01*
X173190001Y-90564803D01*
X173190000Y-92746289D01*
X173146063Y-92790226D01*
X173032795Y-92959744D01*
X172954774Y-93148102D01*
X172915000Y-93348061D01*
X172915000Y-93551939D01*
X172954774Y-93751898D01*
X173032795Y-93940256D01*
X173146063Y-94109774D01*
X173290226Y-94253937D01*
X173459744Y-94367205D01*
X173648102Y-94445226D01*
X173848061Y-94485000D01*
X174051939Y-94485000D01*
X174251898Y-94445226D01*
X174440256Y-94367205D01*
X174609774Y-94253937D01*
X174753937Y-94109774D01*
X174867205Y-93940256D01*
X174945226Y-93751898D01*
X174985000Y-93551939D01*
X174985000Y-93348061D01*
X174945226Y-93148102D01*
X174867205Y-92959744D01*
X174753937Y-92790226D01*
X174710000Y-92746289D01*
X174710000Y-90287323D01*
X174713676Y-90250000D01*
X174710000Y-90212677D01*
X174710000Y-90212667D01*
X174699003Y-90101014D01*
X174655546Y-89957753D01*
X174584974Y-89825724D01*
X174490001Y-89709999D01*
X174461003Y-89686201D01*
X172163804Y-87389003D01*
X172140001Y-87359999D01*
X172024276Y-87265026D01*
X171892247Y-87194454D01*
X171748986Y-87150997D01*
X171637333Y-87140000D01*
X171637322Y-87140000D01*
X171600000Y-87136324D01*
X171562678Y-87140000D01*
X168589802Y-87140000D01*
X168169256Y-86719455D01*
X168253937Y-86634774D01*
X168367205Y-86465256D01*
X168445226Y-86276898D01*
X168485000Y-86076939D01*
X168485000Y-85873061D01*
X168445226Y-85673102D01*
X168367205Y-85484744D01*
X168253937Y-85315226D01*
X168210000Y-85271289D01*
X168210000Y-85178711D01*
X168253937Y-85134774D01*
X168367205Y-84965256D01*
X168395038Y-84898061D01*
X170890000Y-84898061D01*
X170890000Y-85101939D01*
X170929774Y-85301898D01*
X171007795Y-85490256D01*
X171121063Y-85659774D01*
X171265226Y-85803937D01*
X171434744Y-85917205D01*
X171623102Y-85995226D01*
X171823061Y-86035000D01*
X172026939Y-86035000D01*
X172226898Y-85995226D01*
X172415256Y-85917205D01*
X172584774Y-85803937D01*
X172728937Y-85659774D01*
X172842205Y-85490256D01*
X172920226Y-85301898D01*
X172960000Y-85101939D01*
X172960000Y-84898061D01*
X172920226Y-84698102D01*
X172842205Y-84509744D01*
X172728937Y-84340226D01*
X172584774Y-84196063D01*
X172415256Y-84082795D01*
X172226898Y-84004774D01*
X172026939Y-83965000D01*
X171823061Y-83965000D01*
X171623102Y-84004774D01*
X171434744Y-84082795D01*
X171265226Y-84196063D01*
X171121063Y-84340226D01*
X171007795Y-84509744D01*
X170929774Y-84698102D01*
X170890000Y-84898061D01*
X168395038Y-84898061D01*
X168445226Y-84776898D01*
X168485000Y-84576939D01*
X168485000Y-84373061D01*
X168445226Y-84173102D01*
X168367205Y-83984744D01*
X168253937Y-83815226D01*
X168109774Y-83671063D01*
X167940256Y-83557795D01*
X167751898Y-83479774D01*
X167551939Y-83440000D01*
X167348061Y-83440000D01*
X167148102Y-83479774D01*
X166959744Y-83557795D01*
X166790226Y-83671063D01*
X166646063Y-83815226D01*
X166532795Y-83984744D01*
X166454774Y-84173102D01*
X166415000Y-84373061D01*
X166415000Y-84576939D01*
X166454774Y-84776898D01*
X166532795Y-84965256D01*
X166646063Y-85134774D01*
X166690001Y-85178712D01*
X166690000Y-85240199D01*
X164985000Y-83535199D01*
X164985000Y-83473061D01*
X164945226Y-83273102D01*
X164867205Y-83084744D01*
X164753937Y-82915226D01*
X164710000Y-82871289D01*
X164710000Y-78937322D01*
X164713676Y-78899999D01*
X164712199Y-78885000D01*
X164801939Y-78885000D01*
X165001898Y-78845226D01*
X165190256Y-78767205D01*
X165359774Y-78653937D01*
X165503937Y-78509774D01*
X165617205Y-78340256D01*
X165695226Y-78151898D01*
X165735000Y-77951939D01*
X165735000Y-77748061D01*
X165695226Y-77548102D01*
X165617205Y-77359744D01*
X165503937Y-77190226D01*
X165359774Y-77046063D01*
X165190256Y-76932795D01*
X165001898Y-76854774D01*
X164912758Y-76837043D01*
X165139802Y-76610000D01*
X165201939Y-76610000D01*
X165401898Y-76570226D01*
X165590256Y-76492205D01*
X165759774Y-76378937D01*
X165903937Y-76234774D01*
X166000821Y-76089775D01*
X171614830Y-76089775D01*
X171854976Y-76477018D01*
X172348877Y-76737641D01*
X172884133Y-76896901D01*
X173440174Y-76948678D01*
X173995632Y-76890981D01*
X174529161Y-76726028D01*
X174995024Y-76477018D01*
X175235170Y-76089775D01*
X173425000Y-74279605D01*
X171614830Y-76089775D01*
X166000821Y-76089775D01*
X166017205Y-76065256D01*
X166095226Y-75876898D01*
X166135000Y-75676939D01*
X166135000Y-75473061D01*
X166095226Y-75273102D01*
X166017205Y-75084744D01*
X165903937Y-74915226D01*
X165759774Y-74771063D01*
X165590256Y-74657795D01*
X165401898Y-74579774D01*
X165201939Y-74540000D01*
X164998061Y-74540000D01*
X164798102Y-74579774D01*
X164609744Y-74657795D01*
X164440226Y-74771063D01*
X164296063Y-74915226D01*
X164182795Y-75084744D01*
X164104774Y-75273102D01*
X164065000Y-75473061D01*
X164065000Y-75535198D01*
X163731955Y-75868244D01*
X163609774Y-75746063D01*
X163440256Y-75632795D01*
X163251898Y-75554774D01*
X163051939Y-75515000D01*
X162885011Y-75515000D01*
X162885011Y-74287333D01*
X162888687Y-74250010D01*
X162885011Y-74212687D01*
X162885011Y-74212678D01*
X162875408Y-74115174D01*
X170576322Y-74115174D01*
X170634019Y-74670632D01*
X170798972Y-75204161D01*
X171047982Y-75670024D01*
X171435225Y-75910170D01*
X173245395Y-74100000D01*
X171435225Y-72289830D01*
X171047982Y-72529976D01*
X170787359Y-73023877D01*
X170628099Y-73559133D01*
X170576322Y-74115174D01*
X162875408Y-74115174D01*
X162874014Y-74101025D01*
X162830557Y-73957764D01*
X162810583Y-73920395D01*
X162759985Y-73825734D01*
X162688810Y-73739008D01*
X162665012Y-73710010D01*
X162636013Y-73686212D01*
X161876303Y-72926502D01*
X161876299Y-72926497D01*
X161338803Y-72389002D01*
X161315001Y-72359999D01*
X161199276Y-72265026D01*
X161067247Y-72194454D01*
X160923986Y-72150997D01*
X160812333Y-72140000D01*
X160812322Y-72140000D01*
X160775000Y-72136324D01*
X160737678Y-72140000D01*
X159728711Y-72140000D01*
X159684774Y-72096063D01*
X159515256Y-71982795D01*
X159339515Y-71910000D01*
X163531613Y-71910000D01*
X163440226Y-71971063D01*
X163296063Y-72115226D01*
X163182795Y-72284744D01*
X163104774Y-72473102D01*
X163065000Y-72673061D01*
X163065000Y-72876939D01*
X163104774Y-73076898D01*
X163182795Y-73265256D01*
X163296063Y-73434774D01*
X163440226Y-73578937D01*
X163609744Y-73692205D01*
X163798102Y-73770226D01*
X163998061Y-73810000D01*
X164201939Y-73810000D01*
X164401898Y-73770226D01*
X164590256Y-73692205D01*
X164759774Y-73578937D01*
X164903937Y-73434774D01*
X165017205Y-73265256D01*
X165095226Y-73076898D01*
X165135000Y-72876939D01*
X165135000Y-72673061D01*
X165095226Y-72473102D01*
X165017205Y-72284744D01*
X164903937Y-72115226D01*
X164759774Y-71971063D01*
X164668387Y-71910000D01*
X171738998Y-71910000D01*
X171614830Y-72110225D01*
X173425000Y-73920395D01*
X175235170Y-72110225D01*
X175111002Y-71910000D01*
X175765001Y-71910000D01*
X175765001Y-72507020D01*
X175414775Y-72289830D01*
X173604605Y-74100000D01*
X175414775Y-75910170D01*
X175765001Y-75692980D01*
X175765000Y-106657020D01*
X175414775Y-106439830D01*
X173604605Y-108250000D01*
X175414775Y-110060170D01*
X175765000Y-109842980D01*
X175765000Y-110440000D01*
X175111002Y-110440000D01*
X175235170Y-110239775D01*
X173425000Y-108429605D01*
X171614830Y-110239775D01*
X171738998Y-110440000D01*
X161180256Y-110440000D01*
X161211493Y-110365496D01*
X161260000Y-110127000D01*
X161260000Y-109777000D01*
X160152000Y-109777000D01*
X160152000Y-109797000D01*
X159898000Y-109797000D01*
X159898000Y-109777000D01*
X158790000Y-109777000D01*
X158790000Y-110127000D01*
X158838507Y-110365496D01*
X158869744Y-110440000D01*
X154182098Y-110440000D01*
X154242130Y-110242102D01*
X154260000Y-110060665D01*
X154260000Y-109239336D01*
X154242130Y-109057899D01*
X154171511Y-108825099D01*
X154056833Y-108610551D01*
X153902502Y-108422498D01*
X153724841Y-108276695D01*
X153830849Y-108302719D01*
X154098482Y-108314604D01*
X154363291Y-108274048D01*
X154615100Y-108182609D01*
X154722035Y-108125450D01*
X154784528Y-107889133D01*
X158265472Y-107889133D01*
X158327965Y-108125450D01*
X158570678Y-108238850D01*
X158830849Y-108302719D01*
X159098482Y-108314604D01*
X159328442Y-108279385D01*
X159241526Y-108336922D01*
X159068693Y-108508275D01*
X158932610Y-108710054D01*
X158838507Y-108934504D01*
X158790000Y-109173000D01*
X158790000Y-109523000D01*
X159898000Y-109523000D01*
X159898000Y-108231269D01*
X160152000Y-108231269D01*
X160152000Y-109523000D01*
X161260000Y-109523000D01*
X161260000Y-109173000D01*
X161211493Y-108934504D01*
X161117390Y-108710054D01*
X160981307Y-108508275D01*
X160808474Y-108336922D01*
X160700091Y-108265174D01*
X170576322Y-108265174D01*
X170634019Y-108820632D01*
X170798972Y-109354161D01*
X171047982Y-109820024D01*
X171435225Y-110060170D01*
X173245395Y-108250000D01*
X171435225Y-106439830D01*
X171047982Y-106679976D01*
X170787359Y-107173877D01*
X170628099Y-107709133D01*
X170576322Y-108265174D01*
X160700091Y-108265174D01*
X160605533Y-108202579D01*
X160380282Y-108110409D01*
X160342609Y-108106538D01*
X160152000Y-108231269D01*
X159898000Y-108231269D01*
X159724138Y-108117497D01*
X159784528Y-107889133D01*
X159025000Y-107129605D01*
X158265472Y-107889133D01*
X154784528Y-107889133D01*
X154025000Y-107129605D01*
X153265472Y-107889133D01*
X153321031Y-108099229D01*
X153267102Y-108082870D01*
X153025000Y-108059025D01*
X152782899Y-108082870D01*
X152550100Y-108153489D01*
X152335552Y-108268167D01*
X152147499Y-108422498D01*
X151993168Y-108610551D01*
X151878489Y-108825099D01*
X151807870Y-109057898D01*
X151790000Y-109239335D01*
X151790000Y-110060664D01*
X151807870Y-110242101D01*
X151867902Y-110440000D01*
X141461002Y-110440000D01*
X141585170Y-110239775D01*
X139775000Y-108429605D01*
X137964830Y-110239775D01*
X138088998Y-110440000D01*
X137285000Y-110440000D01*
X137285000Y-109608650D01*
X137397982Y-109820024D01*
X137785225Y-110060170D01*
X139595395Y-108250000D01*
X139954605Y-108250000D01*
X141764775Y-110060170D01*
X142152018Y-109820024D01*
X142412641Y-109326123D01*
X142571901Y-108790867D01*
X142623678Y-108234826D01*
X142565981Y-107679368D01*
X142401028Y-107145839D01*
X142335627Y-107023482D01*
X152660396Y-107023482D01*
X152700952Y-107288291D01*
X152792391Y-107540100D01*
X152849550Y-107647035D01*
X153085867Y-107709528D01*
X153845395Y-106950000D01*
X154204605Y-106950000D01*
X154964133Y-107709528D01*
X155200450Y-107647035D01*
X155313850Y-107404322D01*
X155377719Y-107144151D01*
X155383077Y-107023482D01*
X157660396Y-107023482D01*
X157700952Y-107288291D01*
X157792391Y-107540100D01*
X157849550Y-107647035D01*
X158085867Y-107709528D01*
X158845395Y-106950000D01*
X159204605Y-106950000D01*
X159964133Y-107709528D01*
X160200450Y-107647035D01*
X160313850Y-107404322D01*
X160377719Y-107144151D01*
X160389604Y-106876518D01*
X160349048Y-106611709D01*
X160257609Y-106359900D01*
X160204331Y-106260225D01*
X171614830Y-106260225D01*
X173425000Y-108070395D01*
X175235170Y-106260225D01*
X174995024Y-105872982D01*
X174501123Y-105612359D01*
X173965867Y-105453099D01*
X173409826Y-105401322D01*
X172854368Y-105459019D01*
X172320839Y-105623972D01*
X171854976Y-105872982D01*
X171614830Y-106260225D01*
X160204331Y-106260225D01*
X160200450Y-106252965D01*
X159964133Y-106190472D01*
X159204605Y-106950000D01*
X158845395Y-106950000D01*
X158085867Y-106190472D01*
X157849550Y-106252965D01*
X157736150Y-106495678D01*
X157672281Y-106755849D01*
X157660396Y-107023482D01*
X155383077Y-107023482D01*
X155389604Y-106876518D01*
X155349048Y-106611709D01*
X155257609Y-106359900D01*
X155200450Y-106252965D01*
X154964133Y-106190472D01*
X154204605Y-106950000D01*
X153845395Y-106950000D01*
X153085867Y-106190472D01*
X152849550Y-106252965D01*
X152736150Y-106495678D01*
X152672281Y-106755849D01*
X152660396Y-107023482D01*
X142335627Y-107023482D01*
X142152018Y-106679976D01*
X141764775Y-106439830D01*
X139954605Y-108250000D01*
X139595395Y-108250000D01*
X137785225Y-106439830D01*
X137397982Y-106679976D01*
X137285000Y-106894086D01*
X137285000Y-106260225D01*
X137964830Y-106260225D01*
X139775000Y-108070395D01*
X141585170Y-106260225D01*
X141430533Y-106010867D01*
X153265472Y-106010867D01*
X154025000Y-106770395D01*
X154784528Y-106010867D01*
X158265472Y-106010867D01*
X159025000Y-106770395D01*
X159784528Y-106010867D01*
X159722035Y-105774550D01*
X159479322Y-105661150D01*
X159219151Y-105597281D01*
X158951518Y-105585396D01*
X158686709Y-105625952D01*
X158434900Y-105717391D01*
X158327965Y-105774550D01*
X158265472Y-106010867D01*
X154784528Y-106010867D01*
X154722035Y-105774550D01*
X154479322Y-105661150D01*
X154219151Y-105597281D01*
X153951518Y-105585396D01*
X153686709Y-105625952D01*
X153434900Y-105717391D01*
X153327965Y-105774550D01*
X153265472Y-106010867D01*
X141430533Y-106010867D01*
X141345024Y-105872982D01*
X140851123Y-105612359D01*
X140315867Y-105453099D01*
X139759826Y-105401322D01*
X139204368Y-105459019D01*
X138670839Y-105623972D01*
X138204976Y-105872982D01*
X137964830Y-106260225D01*
X137285000Y-106260225D01*
X137285000Y-102098061D01*
X149265000Y-102098061D01*
X149265000Y-102301939D01*
X149304774Y-102501898D01*
X149382795Y-102690256D01*
X149496063Y-102859774D01*
X149640226Y-103003937D01*
X149809744Y-103117205D01*
X149998102Y-103195226D01*
X150198061Y-103235000D01*
X150401939Y-103235000D01*
X150601898Y-103195226D01*
X150790256Y-103117205D01*
X150959774Y-103003937D01*
X151103937Y-102859774D01*
X151217205Y-102690256D01*
X151295226Y-102501898D01*
X151335000Y-102301939D01*
X151335000Y-102098061D01*
X151295226Y-101898102D01*
X151217205Y-101709744D01*
X151103937Y-101540226D01*
X150959774Y-101396063D01*
X150790256Y-101282795D01*
X150601898Y-101204774D01*
X150401939Y-101165000D01*
X150198061Y-101165000D01*
X149998102Y-101204774D01*
X149809744Y-101282795D01*
X149640226Y-101396063D01*
X149496063Y-101540226D01*
X149382795Y-101709744D01*
X149304774Y-101898102D01*
X149265000Y-102098061D01*
X137285000Y-102098061D01*
X137285000Y-97198061D01*
X162765000Y-97198061D01*
X162765000Y-97401939D01*
X162804774Y-97601898D01*
X162882795Y-97790256D01*
X162996063Y-97959774D01*
X163140226Y-98103937D01*
X163309744Y-98217205D01*
X163498102Y-98295226D01*
X163698061Y-98335000D01*
X163901939Y-98335000D01*
X164101898Y-98295226D01*
X164290256Y-98217205D01*
X164459774Y-98103937D01*
X164603937Y-97959774D01*
X164717205Y-97790256D01*
X164795226Y-97601898D01*
X164835000Y-97401939D01*
X164835000Y-97339802D01*
X165839803Y-96335000D01*
X168279044Y-96335000D01*
X168419208Y-96505792D01*
X168503539Y-96575000D01*
X168419208Y-96644208D01*
X168255505Y-96843682D01*
X168133862Y-97071259D01*
X168058955Y-97318195D01*
X168033662Y-97575000D01*
X168055318Y-97794880D01*
X167063998Y-98786201D01*
X167035000Y-98809999D01*
X167011202Y-98838997D01*
X167011201Y-98838998D01*
X166940026Y-98925724D01*
X166869454Y-99057754D01*
X166825998Y-99201015D01*
X166811324Y-99350000D01*
X166815001Y-99387332D01*
X166815000Y-101485198D01*
X165981462Y-102318737D01*
X165890256Y-102257795D01*
X165701898Y-102179774D01*
X165501939Y-102140000D01*
X165298061Y-102140000D01*
X165098102Y-102179774D01*
X164909744Y-102257795D01*
X164740226Y-102371063D01*
X164596063Y-102515226D01*
X164482795Y-102684744D01*
X164404774Y-102873102D01*
X164365000Y-103073061D01*
X164365000Y-103276939D01*
X164404774Y-103476898D01*
X164482795Y-103665256D01*
X164596063Y-103834774D01*
X164740226Y-103978937D01*
X164909744Y-104092205D01*
X165098102Y-104170226D01*
X165298061Y-104210000D01*
X165501939Y-104210000D01*
X165701898Y-104170226D01*
X165890256Y-104092205D01*
X166059774Y-103978937D01*
X166103711Y-103935000D01*
X166162678Y-103935000D01*
X166200000Y-103938676D01*
X166237322Y-103935000D01*
X166237333Y-103935000D01*
X166348986Y-103924003D01*
X166492247Y-103880546D01*
X166624276Y-103809974D01*
X166740001Y-103715001D01*
X166763804Y-103685997D01*
X168086004Y-102363798D01*
X168115001Y-102340001D01*
X168209974Y-102224276D01*
X168212075Y-102220346D01*
X168220527Y-102238629D01*
X168371697Y-102446227D01*
X168560463Y-102620344D01*
X168779570Y-102754289D01*
X169020599Y-102842915D01*
X169223000Y-102720085D01*
X169223000Y-101702000D01*
X169477000Y-101702000D01*
X169477000Y-102720085D01*
X169679401Y-102842915D01*
X169920430Y-102754289D01*
X170139537Y-102620344D01*
X170149744Y-102610929D01*
X170223815Y-102701185D01*
X170320506Y-102780537D01*
X170430820Y-102839502D01*
X170550518Y-102875812D01*
X170675000Y-102888072D01*
X171064250Y-102885000D01*
X171223000Y-102726250D01*
X171223000Y-101702000D01*
X171477000Y-101702000D01*
X171477000Y-102726250D01*
X171635750Y-102885000D01*
X172025000Y-102888072D01*
X172149482Y-102875812D01*
X172269180Y-102839502D01*
X172379494Y-102780537D01*
X172476185Y-102701185D01*
X172555537Y-102604494D01*
X172614502Y-102494180D01*
X172650812Y-102374482D01*
X172663072Y-102250000D01*
X172660000Y-101860750D01*
X172501250Y-101702000D01*
X171477000Y-101702000D01*
X171223000Y-101702000D01*
X169477000Y-101702000D01*
X169223000Y-101702000D01*
X169203000Y-101702000D01*
X169203000Y-101448000D01*
X169223000Y-101448000D01*
X169223000Y-101428000D01*
X169477000Y-101428000D01*
X169477000Y-101448000D01*
X171223000Y-101448000D01*
X171223000Y-99702000D01*
X171477000Y-99702000D01*
X171477000Y-101448000D01*
X172501250Y-101448000D01*
X172660000Y-101289250D01*
X172663072Y-100900000D01*
X172650812Y-100775518D01*
X172614502Y-100655820D01*
X172555537Y-100545506D01*
X172476185Y-100448815D01*
X172382441Y-100371881D01*
X172479473Y-100238629D01*
X172587238Y-100005528D01*
X172617910Y-99904400D01*
X172494224Y-99702000D01*
X171477000Y-99702000D01*
X171223000Y-99702000D01*
X171203000Y-99702000D01*
X171203000Y-99448000D01*
X171223000Y-99448000D01*
X171223000Y-97702000D01*
X171477000Y-97702000D01*
X171477000Y-99448000D01*
X172494224Y-99448000D01*
X172617910Y-99245600D01*
X172587238Y-99144472D01*
X172479473Y-98911371D01*
X172328303Y-98703773D01*
X172188696Y-98575000D01*
X172328303Y-98446227D01*
X172479473Y-98238629D01*
X172587238Y-98005528D01*
X172617910Y-97904400D01*
X172494224Y-97702000D01*
X171477000Y-97702000D01*
X171223000Y-97702000D01*
X171203000Y-97702000D01*
X171203000Y-97448000D01*
X171223000Y-97448000D01*
X171223000Y-97428000D01*
X171477000Y-97428000D01*
X171477000Y-97448000D01*
X172494224Y-97448000D01*
X172617910Y-97245600D01*
X172587238Y-97144472D01*
X172479473Y-96911371D01*
X172328303Y-96703773D01*
X172192352Y-96578372D01*
X172280792Y-96505792D01*
X172444495Y-96306318D01*
X172566138Y-96078741D01*
X172641045Y-95831805D01*
X172666338Y-95575000D01*
X172641045Y-95318195D01*
X172566138Y-95071259D01*
X172444495Y-94843682D01*
X172280792Y-94644208D01*
X172196461Y-94575000D01*
X172280792Y-94505792D01*
X172444495Y-94306318D01*
X172566138Y-94078741D01*
X172641045Y-93831805D01*
X172666338Y-93575000D01*
X172641045Y-93318195D01*
X172566138Y-93071259D01*
X172444495Y-92843682D01*
X172280792Y-92644208D01*
X172196461Y-92575000D01*
X172280792Y-92505792D01*
X172444495Y-92306318D01*
X172566138Y-92078741D01*
X172641045Y-91831805D01*
X172666338Y-91575000D01*
X172641045Y-91318195D01*
X172566138Y-91071259D01*
X172444495Y-90843682D01*
X172280792Y-90644208D01*
X172081318Y-90480505D01*
X171853741Y-90358862D01*
X171606805Y-90283955D01*
X171414351Y-90265000D01*
X171285649Y-90265000D01*
X171093195Y-90283955D01*
X170846259Y-90358862D01*
X170618682Y-90480505D01*
X170419208Y-90644208D01*
X170350000Y-90728539D01*
X170280792Y-90644208D01*
X170081318Y-90480505D01*
X169853741Y-90358862D01*
X169606805Y-90283955D01*
X169414351Y-90265000D01*
X169285649Y-90265000D01*
X169093195Y-90283955D01*
X168846259Y-90358862D01*
X168618682Y-90480505D01*
X168419208Y-90644208D01*
X168255505Y-90843682D01*
X168133862Y-91071259D01*
X168058955Y-91318195D01*
X168033662Y-91575000D01*
X168058955Y-91831805D01*
X168133862Y-92078741D01*
X168255505Y-92306318D01*
X168419208Y-92505792D01*
X168503539Y-92575000D01*
X168419208Y-92644208D01*
X168255505Y-92843682D01*
X168133862Y-93071259D01*
X168058955Y-93318195D01*
X168033662Y-93575000D01*
X168058955Y-93831805D01*
X168133862Y-94078741D01*
X168255505Y-94306318D01*
X168419208Y-94505792D01*
X168503539Y-94575000D01*
X168419208Y-94644208D01*
X168279044Y-94815000D01*
X165562322Y-94815000D01*
X165524999Y-94811324D01*
X165487676Y-94815000D01*
X165487667Y-94815000D01*
X165376014Y-94825997D01*
X165232753Y-94869454D01*
X165100724Y-94940026D01*
X165100722Y-94940027D01*
X165100723Y-94940027D01*
X165013996Y-95011201D01*
X165013992Y-95011205D01*
X164984999Y-95034999D01*
X164961205Y-95063992D01*
X163760198Y-96265000D01*
X163698061Y-96265000D01*
X163498102Y-96304774D01*
X163309744Y-96382795D01*
X163140226Y-96496063D01*
X162996063Y-96640226D01*
X162882795Y-96809744D01*
X162804774Y-96998102D01*
X162765000Y-97198061D01*
X137285000Y-97198061D01*
X137285000Y-88490000D01*
X138032815Y-88490000D01*
X138061487Y-88781111D01*
X138146401Y-89061034D01*
X138284294Y-89319014D01*
X138469866Y-89545134D01*
X138695986Y-89730706D01*
X138750791Y-89760000D01*
X138695986Y-89789294D01*
X138469866Y-89974866D01*
X138284294Y-90200986D01*
X138146401Y-90458966D01*
X138061487Y-90738889D01*
X138032815Y-91030000D01*
X138061487Y-91321111D01*
X138146401Y-91601034D01*
X138284294Y-91859014D01*
X138469866Y-92085134D01*
X138695986Y-92270706D01*
X138750791Y-92300000D01*
X138695986Y-92329294D01*
X138469866Y-92514866D01*
X138284294Y-92740986D01*
X138146401Y-92998966D01*
X138061487Y-93278889D01*
X138032815Y-93570000D01*
X138061487Y-93861111D01*
X138146401Y-94141034D01*
X138284294Y-94399014D01*
X138469866Y-94625134D01*
X138695986Y-94810706D01*
X138953966Y-94948599D01*
X139233889Y-95033513D01*
X139452050Y-95055000D01*
X139597950Y-95055000D01*
X139816111Y-95033513D01*
X139932980Y-94998061D01*
X145840000Y-94998061D01*
X145840000Y-95201939D01*
X145879774Y-95401898D01*
X145957795Y-95590256D01*
X146071063Y-95759774D01*
X146215226Y-95903937D01*
X146384744Y-96017205D01*
X146573102Y-96095226D01*
X146773061Y-96135000D01*
X146976939Y-96135000D01*
X147176898Y-96095226D01*
X147365256Y-96017205D01*
X147534774Y-95903937D01*
X147678937Y-95759774D01*
X147792205Y-95590256D01*
X147870226Y-95401898D01*
X147910000Y-95201939D01*
X147910000Y-94998061D01*
X147870226Y-94798102D01*
X147792205Y-94609744D01*
X147678937Y-94440226D01*
X147534774Y-94296063D01*
X147365256Y-94182795D01*
X147176898Y-94104774D01*
X146976939Y-94065000D01*
X146773061Y-94065000D01*
X146573102Y-94104774D01*
X146384744Y-94182795D01*
X146215226Y-94296063D01*
X146071063Y-94440226D01*
X145957795Y-94609744D01*
X145879774Y-94798102D01*
X145840000Y-94998061D01*
X139932980Y-94998061D01*
X140096034Y-94948599D01*
X140354014Y-94810706D01*
X140580134Y-94625134D01*
X140765706Y-94399014D01*
X140903599Y-94141034D01*
X140988513Y-93861111D01*
X141017185Y-93570000D01*
X140988513Y-93278889D01*
X140903599Y-92998966D01*
X140765706Y-92740986D01*
X140580134Y-92514866D01*
X140354014Y-92329294D01*
X140299209Y-92300000D01*
X140354014Y-92270706D01*
X140580134Y-92085134D01*
X140765706Y-91859014D01*
X140903599Y-91601034D01*
X140988513Y-91321111D01*
X141017185Y-91030000D01*
X140988513Y-90738889D01*
X140903599Y-90458966D01*
X140765706Y-90200986D01*
X140580134Y-89974866D01*
X140354014Y-89789294D01*
X140299209Y-89760000D01*
X140354014Y-89730706D01*
X140580134Y-89545134D01*
X140765706Y-89319014D01*
X140802595Y-89250000D01*
X144200199Y-89250000D01*
X146511201Y-91561003D01*
X146534999Y-91590001D01*
X146650724Y-91684974D01*
X146782753Y-91755546D01*
X146926014Y-91799003D01*
X147037667Y-91810000D01*
X147037675Y-91810000D01*
X147075000Y-91813676D01*
X147112325Y-91810000D01*
X149571289Y-91810000D01*
X149615226Y-91853937D01*
X149784744Y-91967205D01*
X149809103Y-91977295D01*
X149779774Y-92048102D01*
X149740000Y-92248061D01*
X149740000Y-92451939D01*
X149779774Y-92651898D01*
X149857795Y-92840256D01*
X149971063Y-93009774D01*
X150115226Y-93153937D01*
X150284744Y-93267205D01*
X150473102Y-93345226D01*
X150673061Y-93385000D01*
X150876939Y-93385000D01*
X151076898Y-93345226D01*
X151265256Y-93267205D01*
X151434774Y-93153937D01*
X151578937Y-93009774D01*
X151692205Y-92840256D01*
X151770226Y-92651898D01*
X151810000Y-92451939D01*
X151810000Y-92390632D01*
X151884974Y-92299276D01*
X151955546Y-92167247D01*
X151999003Y-92023986D01*
X152010000Y-91912333D01*
X152010000Y-91912324D01*
X152013676Y-91875001D01*
X152010000Y-91837678D01*
X152010000Y-89737323D01*
X152013676Y-89700000D01*
X152010000Y-89662677D01*
X152010000Y-89662667D01*
X151999003Y-89551014D01*
X151955546Y-89407753D01*
X151884974Y-89275724D01*
X151790001Y-89159999D01*
X151761003Y-89136201D01*
X148097863Y-85473061D01*
X151390000Y-85473061D01*
X151390000Y-85676939D01*
X151429774Y-85876898D01*
X151507795Y-86065256D01*
X151621063Y-86234774D01*
X151765226Y-86378937D01*
X151934744Y-86492205D01*
X152123102Y-86570226D01*
X152244590Y-86594391D01*
X160111201Y-94461003D01*
X160134999Y-94490001D01*
X160163997Y-94513799D01*
X160250723Y-94584974D01*
X160325857Y-94625134D01*
X160382753Y-94655546D01*
X160526014Y-94699003D01*
X160637667Y-94710000D01*
X160637677Y-94710000D01*
X160675000Y-94713676D01*
X160712323Y-94710000D01*
X163071289Y-94710000D01*
X163115226Y-94753937D01*
X163284744Y-94867205D01*
X163473102Y-94945226D01*
X163673061Y-94985000D01*
X163876939Y-94985000D01*
X164076898Y-94945226D01*
X164265256Y-94867205D01*
X164434774Y-94753937D01*
X164578937Y-94609774D01*
X164692205Y-94440256D01*
X164770226Y-94251898D01*
X164810000Y-94051939D01*
X164810000Y-93848061D01*
X164770226Y-93648102D01*
X164692205Y-93459744D01*
X164578937Y-93290226D01*
X164434774Y-93146063D01*
X164265256Y-93032795D01*
X164076898Y-92954774D01*
X163876939Y-92915000D01*
X163673061Y-92915000D01*
X163473102Y-92954774D01*
X163284744Y-93032795D01*
X163115226Y-93146063D01*
X163071289Y-93190000D01*
X160989802Y-93190000D01*
X157597863Y-89798061D01*
X163665000Y-89798061D01*
X163665000Y-90001939D01*
X163704774Y-90201898D01*
X163782795Y-90390256D01*
X163896063Y-90559774D01*
X164040226Y-90703937D01*
X164209744Y-90817205D01*
X164398102Y-90895226D01*
X164598061Y-90935000D01*
X164801939Y-90935000D01*
X165001898Y-90895226D01*
X165190256Y-90817205D01*
X165359774Y-90703937D01*
X165503937Y-90559774D01*
X165617205Y-90390256D01*
X165695226Y-90201898D01*
X165735000Y-90001939D01*
X165735000Y-89798061D01*
X165695226Y-89598102D01*
X165617205Y-89409744D01*
X165503937Y-89240226D01*
X165359774Y-89096063D01*
X165190256Y-88982795D01*
X165001898Y-88904774D01*
X164801939Y-88865000D01*
X164598061Y-88865000D01*
X164398102Y-88904774D01*
X164209744Y-88982795D01*
X164040226Y-89096063D01*
X163896063Y-89240226D01*
X163782795Y-89409744D01*
X163704774Y-89598102D01*
X163665000Y-89798061D01*
X157597863Y-89798061D01*
X153460000Y-85660199D01*
X153460000Y-85473061D01*
X153420226Y-85273102D01*
X153342205Y-85084744D01*
X153228937Y-84915226D01*
X153084774Y-84771063D01*
X152915256Y-84657795D01*
X152726898Y-84579774D01*
X152526939Y-84540000D01*
X152323061Y-84540000D01*
X152123102Y-84579774D01*
X151934744Y-84657795D01*
X151765226Y-84771063D01*
X151621063Y-84915226D01*
X151507795Y-85084744D01*
X151429774Y-85273102D01*
X151390000Y-85473061D01*
X148097863Y-85473061D01*
X148063804Y-85439003D01*
X148040001Y-85409999D01*
X147924276Y-85315026D01*
X147792247Y-85244454D01*
X147648986Y-85200997D01*
X147537333Y-85190000D01*
X147537322Y-85190000D01*
X147500000Y-85186324D01*
X147462678Y-85190000D01*
X141013072Y-85190000D01*
X141013072Y-85100000D01*
X141000812Y-84975518D01*
X140964502Y-84855820D01*
X140905537Y-84745506D01*
X140826185Y-84648815D01*
X140729494Y-84569463D01*
X140619180Y-84510498D01*
X140499482Y-84474188D01*
X140375000Y-84461928D01*
X138675000Y-84461928D01*
X138550518Y-84474188D01*
X138430820Y-84510498D01*
X138320506Y-84569463D01*
X138223815Y-84648815D01*
X138144463Y-84745506D01*
X138085498Y-84855820D01*
X138049188Y-84975518D01*
X138036928Y-85100000D01*
X138036928Y-86800000D01*
X138049188Y-86924482D01*
X138085498Y-87044180D01*
X138144463Y-87154494D01*
X138223815Y-87251185D01*
X138320506Y-87330537D01*
X138430820Y-87389502D01*
X138499687Y-87410393D01*
X138469866Y-87434866D01*
X138284294Y-87660986D01*
X138146401Y-87918966D01*
X138061487Y-88198889D01*
X138032815Y-88490000D01*
X137285000Y-88490000D01*
X137285000Y-81098061D01*
X144190000Y-81098061D01*
X144190000Y-81301939D01*
X144229774Y-81501898D01*
X144307795Y-81690256D01*
X144421063Y-81859774D01*
X144565226Y-82003937D01*
X144734744Y-82117205D01*
X144923102Y-82195226D01*
X145123061Y-82235000D01*
X145326939Y-82235000D01*
X145526898Y-82195226D01*
X145715256Y-82117205D01*
X145884774Y-82003937D01*
X146028937Y-81859774D01*
X146142205Y-81690256D01*
X146220226Y-81501898D01*
X146225961Y-81473061D01*
X151240000Y-81473061D01*
X151240000Y-81676939D01*
X151279774Y-81876898D01*
X151357795Y-82065256D01*
X151471063Y-82234774D01*
X151615226Y-82378937D01*
X151784744Y-82492205D01*
X151973102Y-82570226D01*
X152173061Y-82610000D01*
X152376939Y-82610000D01*
X152576898Y-82570226D01*
X152765256Y-82492205D01*
X152934774Y-82378937D01*
X153078937Y-82234774D01*
X153192205Y-82065256D01*
X153270226Y-81876898D01*
X153310000Y-81676939D01*
X153310000Y-81473061D01*
X153270226Y-81273102D01*
X153192205Y-81084744D01*
X153078937Y-80915226D01*
X152934774Y-80771063D01*
X152765256Y-80657795D01*
X152576898Y-80579774D01*
X152376939Y-80540000D01*
X152173061Y-80540000D01*
X151973102Y-80579774D01*
X151784744Y-80657795D01*
X151615226Y-80771063D01*
X151471063Y-80915226D01*
X151357795Y-81084744D01*
X151279774Y-81273102D01*
X151240000Y-81473061D01*
X146225961Y-81473061D01*
X146260000Y-81301939D01*
X146260000Y-81098061D01*
X146220226Y-80898102D01*
X146142205Y-80709744D01*
X146028937Y-80540226D01*
X145884774Y-80396063D01*
X145715256Y-80282795D01*
X145526898Y-80204774D01*
X145326939Y-80165000D01*
X145123061Y-80165000D01*
X144923102Y-80204774D01*
X144734744Y-80282795D01*
X144565226Y-80396063D01*
X144421063Y-80540226D01*
X144307795Y-80709744D01*
X144229774Y-80898102D01*
X144190000Y-81098061D01*
X137285000Y-81098061D01*
X137285000Y-76089775D01*
X137964830Y-76089775D01*
X138204976Y-76477018D01*
X138698877Y-76737641D01*
X139234133Y-76896901D01*
X139790174Y-76948678D01*
X139796113Y-76948061D01*
X143490000Y-76948061D01*
X143490000Y-77151939D01*
X143529774Y-77351898D01*
X143607795Y-77540256D01*
X143721063Y-77709774D01*
X143865226Y-77853937D01*
X144034744Y-77967205D01*
X144223102Y-78045226D01*
X144423061Y-78085000D01*
X144626939Y-78085000D01*
X144826898Y-78045226D01*
X145015256Y-77967205D01*
X145184774Y-77853937D01*
X145328937Y-77709774D01*
X145442205Y-77540256D01*
X145520226Y-77351898D01*
X145560000Y-77151939D01*
X145560000Y-76948061D01*
X145520226Y-76748102D01*
X145442205Y-76559744D01*
X145328937Y-76390226D01*
X145184774Y-76246063D01*
X145015256Y-76132795D01*
X144826898Y-76054774D01*
X144626939Y-76015000D01*
X144423061Y-76015000D01*
X144223102Y-76054774D01*
X144034744Y-76132795D01*
X143865226Y-76246063D01*
X143721063Y-76390226D01*
X143607795Y-76559744D01*
X143529774Y-76748102D01*
X143490000Y-76948061D01*
X139796113Y-76948061D01*
X140345632Y-76890981D01*
X140879161Y-76726028D01*
X141345024Y-76477018D01*
X141585170Y-76089775D01*
X139775000Y-74279605D01*
X137964830Y-76089775D01*
X137285000Y-76089775D01*
X137285000Y-75458650D01*
X137397982Y-75670024D01*
X137785225Y-75910170D01*
X139595395Y-74100000D01*
X139954605Y-74100000D01*
X141764775Y-75910170D01*
X142152018Y-75670024D01*
X142216375Y-75548061D01*
X148990000Y-75548061D01*
X148990000Y-75751939D01*
X149029774Y-75951898D01*
X149107795Y-76140256D01*
X149221063Y-76309774D01*
X149365226Y-76453937D01*
X149534744Y-76567205D01*
X149723102Y-76645226D01*
X149923061Y-76685000D01*
X150126939Y-76685000D01*
X150326898Y-76645226D01*
X150515256Y-76567205D01*
X150684774Y-76453937D01*
X150828937Y-76309774D01*
X150942205Y-76140256D01*
X151020226Y-75951898D01*
X151060000Y-75751939D01*
X151060000Y-75548061D01*
X151020226Y-75348102D01*
X150942205Y-75159744D01*
X150828937Y-74990226D01*
X150684774Y-74846063D01*
X150515256Y-74732795D01*
X150326898Y-74654774D01*
X150126939Y-74615000D01*
X149923061Y-74615000D01*
X149723102Y-74654774D01*
X149534744Y-74732795D01*
X149365226Y-74846063D01*
X149221063Y-74990226D01*
X149107795Y-75159744D01*
X149029774Y-75348102D01*
X148990000Y-75548061D01*
X142216375Y-75548061D01*
X142412641Y-75176123D01*
X142571901Y-74640867D01*
X142623678Y-74084826D01*
X142565981Y-73529368D01*
X142401028Y-72995839D01*
X142152018Y-72529976D01*
X141764775Y-72289830D01*
X139954605Y-74100000D01*
X139595395Y-74100000D01*
X137785225Y-72289830D01*
X137397982Y-72529976D01*
X137285000Y-72744086D01*
X137285000Y-71910000D01*
X138088998Y-71910000D01*
X137964830Y-72110225D01*
M02*
