G04 #@! TF.GenerationSoftware,KiCad,Pcbnew,(5.1.0)-1*
G04 #@! TF.CreationDate,2020-09-23T23:54:54-05:00*
G04 #@! TF.ProjectId,low_cost_multispectral_sensor,6c6f775f-636f-4737-945f-6d756c746973,rev?*
G04 #@! TF.SameCoordinates,Original*
G04 #@! TF.FileFunction,Paste,Top*
G04 #@! TF.FilePolarity,Positive*
%FSLAX46Y46*%
G04 Gerber Fmt 4.6, Leading zero omitted, Abs format (unit mm)*
G04 Created by KiCad (PCBNEW (5.1.0)-1) date 2020-09-23 23:54:54*
%MOMM*%
%LPD*%
G04 APERTURE LIST*
%ADD10R,1.100000X0.300000*%
%ADD11R,0.300000X1.100000*%
%ADD12R,0.508000X1.143000*%
%ADD13R,0.300000X0.300000*%
%ADD14R,0.500000X0.600000*%
%ADD15R,0.600000X0.500000*%
%ADD16R,1.000000X1.600000*%
%ADD17R,1.500000X1.900000*%
%ADD18R,0.400000X1.350000*%
%ADD19R,0.400000X0.600000*%
%ADD20R,0.600000X0.400000*%
%ADD21R,0.650000X1.060000*%
%ADD22R,1.060000X0.650000*%
%ADD23R,0.600000X0.800000*%
%ADD24R,0.700000X0.600000*%
%ADD25R,0.600000X0.700000*%
G04 APERTURE END LIST*
D10*
X154275000Y-78750000D03*
X154275000Y-78100000D03*
X154275000Y-77450000D03*
X154275000Y-76800000D03*
X154275000Y-76150000D03*
D11*
X155275000Y-75250000D03*
X155925000Y-75250000D03*
X156575000Y-75250000D03*
X157225000Y-75250000D03*
X157875000Y-75250000D03*
D10*
X158875000Y-76150000D03*
X158875000Y-76800000D03*
X158875000Y-77450000D03*
X158875000Y-78100000D03*
X158875000Y-78750000D03*
D11*
X157875000Y-79650000D03*
X157225000Y-79650000D03*
X156575000Y-79650000D03*
X155925000Y-79650000D03*
X155275000Y-79650000D03*
D12*
X155405000Y-94798000D03*
X160485000Y-94798000D03*
X159215000Y-94798000D03*
X157945000Y-94798000D03*
X156675000Y-94798000D03*
X154135000Y-94798000D03*
X152865000Y-94798000D03*
X152865000Y-88448000D03*
X154135000Y-88448000D03*
X155405000Y-88448000D03*
X156675000Y-88448000D03*
X157945000Y-88448000D03*
X159215000Y-88448000D03*
X160485000Y-88448000D03*
D13*
X156550000Y-100975000D03*
X155850000Y-100975000D03*
X156200000Y-101825000D03*
D14*
X148525000Y-104750000D03*
X148525000Y-103650000D03*
X143025000Y-102100000D03*
X143025000Y-103200000D03*
D15*
X162375000Y-88700000D03*
X163475000Y-88700000D03*
X152325000Y-97100000D03*
X153425000Y-97100000D03*
D14*
X156675000Y-85675000D03*
X156675000Y-86775000D03*
D15*
X148025000Y-99700000D03*
X146925000Y-99700000D03*
D14*
X150025000Y-76850000D03*
X150025000Y-77950000D03*
X151850000Y-76825000D03*
X151850000Y-77925000D03*
X165625000Y-79125000D03*
X165625000Y-80225000D03*
D16*
X147525000Y-75300000D03*
X144525000Y-75300000D03*
D17*
X157525000Y-109650000D03*
D18*
X155875000Y-106950000D03*
X155225000Y-106950000D03*
X157825000Y-106950000D03*
X157175000Y-106950000D03*
X156525000Y-106950000D03*
D17*
X155525000Y-109650000D03*
D19*
X164325000Y-86200000D03*
X165225000Y-86200000D03*
X164325000Y-84900000D03*
X165225000Y-84900000D03*
X170675000Y-87300000D03*
X169775000Y-87300000D03*
D20*
X157200000Y-98200000D03*
X157200000Y-97300000D03*
X155925000Y-97300000D03*
X155925000Y-98200000D03*
D19*
X162975000Y-86200000D03*
X162075000Y-86200000D03*
X162075000Y-84900000D03*
X162975000Y-84900000D03*
X163150000Y-72800000D03*
X162250000Y-72800000D03*
D20*
X162150000Y-75550000D03*
X162150000Y-74650000D03*
D19*
X167275000Y-76375000D03*
X168175000Y-76375000D03*
X170675000Y-86200000D03*
X169775000Y-86200000D03*
X153225000Y-81550000D03*
X154125000Y-81550000D03*
D12*
X167220000Y-84225000D03*
X168490000Y-84225000D03*
X169760000Y-84225000D03*
X171030000Y-84225000D03*
X171030000Y-77875000D03*
X169760000Y-77875000D03*
X168490000Y-77875000D03*
X167220000Y-77875000D03*
D21*
X170300000Y-95050000D03*
X171250000Y-95050000D03*
X169350000Y-95050000D03*
X169350000Y-92850000D03*
X170300000Y-92850000D03*
X171250000Y-92850000D03*
D22*
X144725000Y-103400000D03*
X144725000Y-101500000D03*
X146925000Y-101500000D03*
X146925000Y-102450000D03*
X146925000Y-103400000D03*
D23*
X160725000Y-86450000D03*
X159025000Y-86450000D03*
X159025000Y-84900000D03*
X160725000Y-84900000D03*
D24*
X150025000Y-103600000D03*
X150025000Y-105000000D03*
D25*
X148325000Y-96550000D03*
X146925000Y-96550000D03*
D23*
X145225000Y-79900000D03*
X146925000Y-79900000D03*
D25*
X146925000Y-98400000D03*
X148325000Y-98400000D03*
M02*
