G04 #@! TF.GenerationSoftware,KiCad,Pcbnew,(5.1.0)-1*
G04 #@! TF.CreationDate,2019-11-15T23:55:28-06:00*
G04 #@! TF.ProjectId,low_cost_multispectral_sensor,6c6f775f-636f-4737-945f-6d756c746973,rev?*
G04 #@! TF.SameCoordinates,Original*
G04 #@! TF.FileFunction,Legend,Bot*
G04 #@! TF.FilePolarity,Positive*
%FSLAX46Y46*%
G04 Gerber Fmt 4.6, Leading zero omitted, Abs format (unit mm)*
G04 Created by KiCad (PCBNEW (5.1.0)-1) date 2019-11-15 23:55:28*
%MOMM*%
%LPD*%
G04 APERTURE LIST*
%ADD10C,0.100000*%
%ADD11C,0.250000*%
G04 APERTURE END LIST*
D10*
X167455952Y-101450000D02*
X167503571Y-101426190D01*
X167575000Y-101426190D01*
X167646428Y-101450000D01*
X167694047Y-101497619D01*
X167717857Y-101545238D01*
X167741666Y-101640476D01*
X167741666Y-101711904D01*
X167717857Y-101807142D01*
X167694047Y-101854761D01*
X167646428Y-101902380D01*
X167575000Y-101926190D01*
X167527380Y-101926190D01*
X167455952Y-101902380D01*
X167432142Y-101878571D01*
X167432142Y-101711904D01*
X167527380Y-101711904D01*
X167217857Y-101926190D02*
X167217857Y-101426190D01*
X166932142Y-101926190D01*
X166932142Y-101426190D01*
X166694047Y-101926190D02*
X166694047Y-101426190D01*
X166575000Y-101426190D01*
X166503571Y-101450000D01*
X166455952Y-101497619D01*
X166432142Y-101545238D01*
X166408333Y-101640476D01*
X166408333Y-101711904D01*
X166432142Y-101807142D01*
X166455952Y-101854761D01*
X166503571Y-101902380D01*
X166575000Y-101926190D01*
X166694047Y-101926190D01*
X173955952Y-101400000D02*
X174003571Y-101376190D01*
X174075000Y-101376190D01*
X174146428Y-101400000D01*
X174194047Y-101447619D01*
X174217857Y-101495238D01*
X174241666Y-101590476D01*
X174241666Y-101661904D01*
X174217857Y-101757142D01*
X174194047Y-101804761D01*
X174146428Y-101852380D01*
X174075000Y-101876190D01*
X174027380Y-101876190D01*
X173955952Y-101852380D01*
X173932142Y-101828571D01*
X173932142Y-101661904D01*
X174027380Y-101661904D01*
X173717857Y-101876190D02*
X173717857Y-101376190D01*
X173432142Y-101876190D01*
X173432142Y-101376190D01*
X173194047Y-101876190D02*
X173194047Y-101376190D01*
X173075000Y-101376190D01*
X173003571Y-101400000D01*
X172955952Y-101447619D01*
X172932142Y-101495238D01*
X172908333Y-101590476D01*
X172908333Y-101661904D01*
X172932142Y-101757142D01*
X172955952Y-101804761D01*
X173003571Y-101852380D01*
X173075000Y-101876190D01*
X173194047Y-101876190D01*
X173980952Y-99300000D02*
X174028571Y-99276190D01*
X174100000Y-99276190D01*
X174171428Y-99300000D01*
X174219047Y-99347619D01*
X174242857Y-99395238D01*
X174266666Y-99490476D01*
X174266666Y-99561904D01*
X174242857Y-99657142D01*
X174219047Y-99704761D01*
X174171428Y-99752380D01*
X174100000Y-99776190D01*
X174052380Y-99776190D01*
X173980952Y-99752380D01*
X173957142Y-99728571D01*
X173957142Y-99561904D01*
X174052380Y-99561904D01*
X173742857Y-99776190D02*
X173742857Y-99276190D01*
X173457142Y-99776190D01*
X173457142Y-99276190D01*
X173219047Y-99776190D02*
X173219047Y-99276190D01*
X173100000Y-99276190D01*
X173028571Y-99300000D01*
X172980952Y-99347619D01*
X172957142Y-99395238D01*
X172933333Y-99490476D01*
X172933333Y-99561904D01*
X172957142Y-99657142D01*
X172980952Y-99704761D01*
X173028571Y-99752380D01*
X173100000Y-99776190D01*
X173219047Y-99776190D01*
X173955952Y-97400000D02*
X174003571Y-97376190D01*
X174075000Y-97376190D01*
X174146428Y-97400000D01*
X174194047Y-97447619D01*
X174217857Y-97495238D01*
X174241666Y-97590476D01*
X174241666Y-97661904D01*
X174217857Y-97757142D01*
X174194047Y-97804761D01*
X174146428Y-97852380D01*
X174075000Y-97876190D01*
X174027380Y-97876190D01*
X173955952Y-97852380D01*
X173932142Y-97828571D01*
X173932142Y-97661904D01*
X174027380Y-97661904D01*
X173717857Y-97876190D02*
X173717857Y-97376190D01*
X173432142Y-97876190D01*
X173432142Y-97376190D01*
X173194047Y-97876190D02*
X173194047Y-97376190D01*
X173075000Y-97376190D01*
X173003571Y-97400000D01*
X172955952Y-97447619D01*
X172932142Y-97495238D01*
X172908333Y-97590476D01*
X172908333Y-97661904D01*
X172932142Y-97757142D01*
X172955952Y-97804761D01*
X173003571Y-97852380D01*
X173075000Y-97876190D01*
X173194047Y-97876190D01*
X167766666Y-93426190D02*
X167600000Y-93926190D01*
X167433333Y-93426190D01*
X166980952Y-93878571D02*
X167004761Y-93902380D01*
X167076190Y-93926190D01*
X167123809Y-93926190D01*
X167195238Y-93902380D01*
X167242857Y-93854761D01*
X167266666Y-93807142D01*
X167290476Y-93711904D01*
X167290476Y-93640476D01*
X167266666Y-93545238D01*
X167242857Y-93497619D01*
X167195238Y-93450000D01*
X167123809Y-93426190D01*
X167076190Y-93426190D01*
X167004761Y-93450000D01*
X166980952Y-93473809D01*
X166480952Y-93878571D02*
X166504761Y-93902380D01*
X166576190Y-93926190D01*
X166623809Y-93926190D01*
X166695238Y-93902380D01*
X166742857Y-93854761D01*
X166766666Y-93807142D01*
X166790476Y-93711904D01*
X166790476Y-93640476D01*
X166766666Y-93545238D01*
X166742857Y-93497619D01*
X166695238Y-93450000D01*
X166623809Y-93426190D01*
X166576190Y-93426190D01*
X166504761Y-93450000D01*
X166480952Y-93473809D01*
X174560714Y-93676190D02*
X174560714Y-93176190D01*
X174394047Y-93533333D01*
X174227380Y-93176190D01*
X174227380Y-93676190D01*
X173989285Y-93676190D02*
X173989285Y-93176190D01*
X173775000Y-93652380D02*
X173703571Y-93676190D01*
X173584523Y-93676190D01*
X173536904Y-93652380D01*
X173513095Y-93628571D01*
X173489285Y-93580952D01*
X173489285Y-93533333D01*
X173513095Y-93485714D01*
X173536904Y-93461904D01*
X173584523Y-93438095D01*
X173679761Y-93414285D01*
X173727380Y-93390476D01*
X173751190Y-93366666D01*
X173775000Y-93319047D01*
X173775000Y-93271428D01*
X173751190Y-93223809D01*
X173727380Y-93200000D01*
X173679761Y-93176190D01*
X173560714Y-93176190D01*
X173489285Y-93200000D01*
X173179761Y-93176190D02*
X173084523Y-93176190D01*
X173036904Y-93200000D01*
X172989285Y-93247619D01*
X172965476Y-93342857D01*
X172965476Y-93509523D01*
X172989285Y-93604761D01*
X173036904Y-93652380D01*
X173084523Y-93676190D01*
X173179761Y-93676190D01*
X173227380Y-93652380D01*
X173275000Y-93604761D01*
X173298809Y-93509523D01*
X173298809Y-93342857D01*
X173275000Y-93247619D01*
X173227380Y-93200000D01*
X173179761Y-93176190D01*
X174217857Y-95802380D02*
X174146428Y-95826190D01*
X174027380Y-95826190D01*
X173979761Y-95802380D01*
X173955952Y-95778571D01*
X173932142Y-95730952D01*
X173932142Y-95683333D01*
X173955952Y-95635714D01*
X173979761Y-95611904D01*
X174027380Y-95588095D01*
X174122619Y-95564285D01*
X174170238Y-95540476D01*
X174194047Y-95516666D01*
X174217857Y-95469047D01*
X174217857Y-95421428D01*
X174194047Y-95373809D01*
X174170238Y-95350000D01*
X174122619Y-95326190D01*
X174003571Y-95326190D01*
X173932142Y-95350000D01*
X173432142Y-95778571D02*
X173455952Y-95802380D01*
X173527380Y-95826190D01*
X173575000Y-95826190D01*
X173646428Y-95802380D01*
X173694047Y-95754761D01*
X173717857Y-95707142D01*
X173741666Y-95611904D01*
X173741666Y-95540476D01*
X173717857Y-95445238D01*
X173694047Y-95397619D01*
X173646428Y-95350000D01*
X173575000Y-95326190D01*
X173527380Y-95326190D01*
X173455952Y-95350000D01*
X173432142Y-95373809D01*
X173217857Y-95826190D02*
X173217857Y-95326190D01*
X172932142Y-95826190D02*
X173146428Y-95540476D01*
X172932142Y-95326190D02*
X173217857Y-95611904D01*
X167735714Y-95876190D02*
X167735714Y-95376190D01*
X167569047Y-95733333D01*
X167402380Y-95376190D01*
X167402380Y-95876190D01*
X167069047Y-95376190D02*
X166973809Y-95376190D01*
X166926190Y-95400000D01*
X166878571Y-95447619D01*
X166854761Y-95542857D01*
X166854761Y-95709523D01*
X166878571Y-95804761D01*
X166926190Y-95852380D01*
X166973809Y-95876190D01*
X167069047Y-95876190D01*
X167116666Y-95852380D01*
X167164285Y-95804761D01*
X167188095Y-95709523D01*
X167188095Y-95542857D01*
X167164285Y-95447619D01*
X167116666Y-95400000D01*
X167069047Y-95376190D01*
X166664285Y-95852380D02*
X166592857Y-95876190D01*
X166473809Y-95876190D01*
X166426190Y-95852380D01*
X166402380Y-95828571D01*
X166378571Y-95780952D01*
X166378571Y-95733333D01*
X166402380Y-95685714D01*
X166426190Y-95661904D01*
X166473809Y-95638095D01*
X166569047Y-95614285D01*
X166616666Y-95590476D01*
X166640476Y-95566666D01*
X166664285Y-95519047D01*
X166664285Y-95471428D01*
X166640476Y-95423809D01*
X166616666Y-95400000D01*
X166569047Y-95376190D01*
X166450000Y-95376190D01*
X166378571Y-95400000D01*
X166164285Y-95876190D02*
X166164285Y-95376190D01*
X167433333Y-97878571D02*
X167457142Y-97902380D01*
X167528571Y-97926190D01*
X167576190Y-97926190D01*
X167647619Y-97902380D01*
X167695238Y-97854761D01*
X167719047Y-97807142D01*
X167742857Y-97711904D01*
X167742857Y-97640476D01*
X167719047Y-97545238D01*
X167695238Y-97497619D01*
X167647619Y-97450000D01*
X167576190Y-97426190D01*
X167528571Y-97426190D01*
X167457142Y-97450000D01*
X167433333Y-97473809D01*
X167242857Y-97902380D02*
X167171428Y-97926190D01*
X167052380Y-97926190D01*
X167004761Y-97902380D01*
X166980952Y-97878571D01*
X166957142Y-97830952D01*
X166957142Y-97783333D01*
X166980952Y-97735714D01*
X167004761Y-97711904D01*
X167052380Y-97688095D01*
X167147619Y-97664285D01*
X167195238Y-97640476D01*
X167219047Y-97616666D01*
X167242857Y-97569047D01*
X167242857Y-97521428D01*
X167219047Y-97473809D01*
X167195238Y-97450000D01*
X167147619Y-97426190D01*
X167028571Y-97426190D01*
X166957142Y-97450000D01*
X167738095Y-99683333D02*
X167500000Y-99683333D01*
X167785714Y-99826190D02*
X167619047Y-99326190D01*
X167452380Y-99826190D01*
X167404761Y-99873809D02*
X167023809Y-99873809D01*
X166619047Y-99826190D02*
X166785714Y-99588095D01*
X166904761Y-99826190D02*
X166904761Y-99326190D01*
X166714285Y-99326190D01*
X166666666Y-99350000D01*
X166642857Y-99373809D01*
X166619047Y-99421428D01*
X166619047Y-99492857D01*
X166642857Y-99540476D01*
X166666666Y-99564285D01*
X166714285Y-99588095D01*
X166904761Y-99588095D01*
X166428571Y-99802380D02*
X166357142Y-99826190D01*
X166238095Y-99826190D01*
X166190476Y-99802380D01*
X166166666Y-99778571D01*
X166142857Y-99730952D01*
X166142857Y-99683333D01*
X166166666Y-99635714D01*
X166190476Y-99611904D01*
X166238095Y-99588095D01*
X166333333Y-99564285D01*
X166380952Y-99540476D01*
X166404761Y-99516666D01*
X166428571Y-99469047D01*
X166428571Y-99421428D01*
X166404761Y-99373809D01*
X166380952Y-99350000D01*
X166333333Y-99326190D01*
X166214285Y-99326190D01*
X166142857Y-99350000D01*
X166000000Y-99326190D02*
X165714285Y-99326190D01*
X165857142Y-99826190D02*
X165857142Y-99326190D01*
D11*
X143489285Y-92975000D02*
X143584523Y-92927380D01*
X143727380Y-92927380D01*
X143870238Y-92975000D01*
X143965476Y-93070238D01*
X144013095Y-93165476D01*
X144060714Y-93355952D01*
X144060714Y-93498809D01*
X144013095Y-93689285D01*
X143965476Y-93784523D01*
X143870238Y-93879761D01*
X143727380Y-93927380D01*
X143632142Y-93927380D01*
X143489285Y-93879761D01*
X143441666Y-93832142D01*
X143441666Y-93498809D01*
X143632142Y-93498809D01*
X143013095Y-93927380D02*
X143013095Y-92927380D01*
X142632142Y-92927380D01*
X142536904Y-92975000D01*
X142489285Y-93022619D01*
X142441666Y-93117857D01*
X142441666Y-93260714D01*
X142489285Y-93355952D01*
X142536904Y-93403571D01*
X142632142Y-93451190D01*
X143013095Y-93451190D01*
X142108333Y-92927380D02*
X141489285Y-92927380D01*
X141822619Y-93308333D01*
X141679761Y-93308333D01*
X141584523Y-93355952D01*
X141536904Y-93403571D01*
X141489285Y-93498809D01*
X141489285Y-93736904D01*
X141536904Y-93832142D01*
X141584523Y-93879761D01*
X141679761Y-93927380D01*
X141965476Y-93927380D01*
X142060714Y-93879761D01*
X142108333Y-93832142D01*
X143514285Y-90500000D02*
X143609523Y-90452380D01*
X143752380Y-90452380D01*
X143895238Y-90500000D01*
X143990476Y-90595238D01*
X144038095Y-90690476D01*
X144085714Y-90880952D01*
X144085714Y-91023809D01*
X144038095Y-91214285D01*
X143990476Y-91309523D01*
X143895238Y-91404761D01*
X143752380Y-91452380D01*
X143657142Y-91452380D01*
X143514285Y-91404761D01*
X143466666Y-91357142D01*
X143466666Y-91023809D01*
X143657142Y-91023809D01*
X143038095Y-91452380D02*
X143038095Y-90452380D01*
X142657142Y-90452380D01*
X142561904Y-90500000D01*
X142514285Y-90547619D01*
X142466666Y-90642857D01*
X142466666Y-90785714D01*
X142514285Y-90880952D01*
X142561904Y-90928571D01*
X142657142Y-90976190D01*
X143038095Y-90976190D01*
X142085714Y-90547619D02*
X142038095Y-90500000D01*
X141942857Y-90452380D01*
X141704761Y-90452380D01*
X141609523Y-90500000D01*
X141561904Y-90547619D01*
X141514285Y-90642857D01*
X141514285Y-90738095D01*
X141561904Y-90880952D01*
X142133333Y-91452380D01*
X141514285Y-91452380D01*
X143564285Y-87825000D02*
X143659523Y-87777380D01*
X143802380Y-87777380D01*
X143945238Y-87825000D01*
X144040476Y-87920238D01*
X144088095Y-88015476D01*
X144135714Y-88205952D01*
X144135714Y-88348809D01*
X144088095Y-88539285D01*
X144040476Y-88634523D01*
X143945238Y-88729761D01*
X143802380Y-88777380D01*
X143707142Y-88777380D01*
X143564285Y-88729761D01*
X143516666Y-88682142D01*
X143516666Y-88348809D01*
X143707142Y-88348809D01*
X143088095Y-88777380D02*
X143088095Y-87777380D01*
X142707142Y-87777380D01*
X142611904Y-87825000D01*
X142564285Y-87872619D01*
X142516666Y-87967857D01*
X142516666Y-88110714D01*
X142564285Y-88205952D01*
X142611904Y-88253571D01*
X142707142Y-88301190D01*
X143088095Y-88301190D01*
X141564285Y-88777380D02*
X142135714Y-88777380D01*
X141850000Y-88777380D02*
X141850000Y-87777380D01*
X141945238Y-87920238D01*
X142040476Y-88015476D01*
X142135714Y-88063095D01*
X143364285Y-85350000D02*
X143459523Y-85302380D01*
X143602380Y-85302380D01*
X143745238Y-85350000D01*
X143840476Y-85445238D01*
X143888095Y-85540476D01*
X143935714Y-85730952D01*
X143935714Y-85873809D01*
X143888095Y-86064285D01*
X143840476Y-86159523D01*
X143745238Y-86254761D01*
X143602380Y-86302380D01*
X143507142Y-86302380D01*
X143364285Y-86254761D01*
X143316666Y-86207142D01*
X143316666Y-85873809D01*
X143507142Y-85873809D01*
X142888095Y-86302380D02*
X142888095Y-85302380D01*
X142507142Y-85302380D01*
X142411904Y-85350000D01*
X142364285Y-85397619D01*
X142316666Y-85492857D01*
X142316666Y-85635714D01*
X142364285Y-85730952D01*
X142411904Y-85778571D01*
X142507142Y-85826190D01*
X142888095Y-85826190D01*
X141697619Y-85302380D02*
X141602380Y-85302380D01*
X141507142Y-85350000D01*
X141459523Y-85397619D01*
X141411904Y-85492857D01*
X141364285Y-85683333D01*
X141364285Y-85921428D01*
X141411904Y-86111904D01*
X141459523Y-86207142D01*
X141507142Y-86254761D01*
X141602380Y-86302380D01*
X141697619Y-86302380D01*
X141792857Y-86254761D01*
X141840476Y-86207142D01*
X141888095Y-86111904D01*
X141935714Y-85921428D01*
X141935714Y-85683333D01*
X141888095Y-85492857D01*
X141840476Y-85397619D01*
X141792857Y-85350000D01*
X141697619Y-85302380D01*
M02*
